<?xml version="1.0" encoding="UTF-8"?>
<svg version="1.1" xmlns="http://www.w3.org/2000/svg" width="512" height="512">
<path d="M0 0 C3.19387725 3.52889934 7.67578125 8.92244961 7.67578125 13.8515625 C8.82240234 13.635 8.82240234 13.635 9.9921875 13.4140625 C22.6262688 11.22476321 34.95862782 11.5253789 47.67578125 12.8515625 C48.15015625 11.7171875 48.62453125 10.5828125 49.11328125 9.4140625 C53.39355314 0.9732466 60.2062494 -4.77412289 68.921875 -8.27734375 C78.81828085 -11.40769624 88.53944983 -10.27011692 97.92578125 -5.9609375 C107.38759835 -0.80267271 112.30656075 6.74390099 115.67578125 16.8515625 C116.39656247 27.92323473 116.65844059 37.65111035 109.40625 46.67578125 C107.22460597 49.13914939 104.99717097 51.52025231 102.67578125 53.8515625 C103.1346875 54.79773438 103.59359375 55.74390625 104.06640625 56.71875 C114.29742092 78.4683655 117.60747812 101.89220839 109.57421875 125.0234375 C105.14590431 136.2799271 99.12930412 145.22726139 90.67578125 153.8515625 C90.03382813 154.52960938 89.391875 155.20765625 88.73046875 155.90625 C82.7107171 161.78436043 75.53613263 165.52636398 68.17578125 169.45703125 C67.44101562 169.8545459 66.70625 170.25206055 65.94921875 170.66162109 C64.39201847 171.47667631 62.81178269 172.24876184 61.21484375 172.98291016 C57.29559463 174.88149463 54.45082595 176.25961734 52.82421875 180.4453125 C52.41201358 181.90608588 52.03157774 183.37603519 51.67578125 184.8515625 C51.15198271 186.63424393 50.62294526 188.41539094 50.08984375 190.1953125 C49.80560547 191.17838379 49.52136719 192.16145508 49.22851562 193.17431641 C42.84600688 215.03272924 34.51294026 236.82010183 23.7109375 256.89892578 C22.51932979 259.14668014 21.37867012 261.41724841 20.23828125 263.69140625 C9.97778012 283.98270997 -2.18141467 304.08932409 -16.66015625 321.69140625 C-18.52764024 323.66116356 -18.52764024 323.66116356 -18.32421875 325.8515625 C-16.71539548 326.910078 -15.0593598 327.89707872 -13.38671875 328.8515625 C0.1380019 337.24801504 8.48223218 350.92733371 12.2578125 366.20703125 C12.79440241 369.60209079 12.96143657 372.91522861 13.05078125 376.3515625 C13.09976562 377.640625 13.14875 378.9296875 13.19921875 380.2578125 C12.54523453 384.7478534 11.23001463 386.12223715 7.67578125 388.8515625 C4.55997989 389.90608508 1.65198729 389.97938868 -1.62182617 389.98527527 C-2.69540878 389.98954025 -3.76899139 389.99380524 -4.87510681 389.99819946 C-6.04811844 389.99774628 -7.22113007 389.99729309 -8.4296875 389.99682617 C-9.6692067 390.00018478 -10.90872589 390.0035434 -12.18580627 390.00700378 C-15.58504579 390.01487874 -18.9842242 390.01818168 -22.38346863 390.01881957 C-24.51162985 390.01953122 -26.6397847 390.02166785 -28.76794434 390.02431679 C-36.20581466 390.03357117 -43.64366708 390.03765205 -51.08154297 390.03686523 C-57.99102533 390.03626621 -64.90042918 390.04678324 -71.8098917 390.0626089 C-77.75746048 390.07574088 -83.7050038 390.08104668 -89.65258694 390.08040982 C-93.19756771 390.08015625 -96.74247886 390.08292814 -100.28744507 390.09358788 C-104.25285823 390.10518539 -108.21816646 390.10048763 -112.18359375 390.09448242 C-113.34041153 390.10010193 -114.49722931 390.10572144 -115.68910217 390.11151123 C-130.17137056 390.05609345 -143.40823073 388.06743793 -154.07421875 377.4765625 C-155.17385922 376.28305029 -156.26397122 375.08020229 -157.32421875 373.8515625 C-157.41058594 374.59921875 -157.49695313 375.346875 -157.5859375 376.1171875 C-158.73993806 384.20577858 -158.73993806 384.20577858 -161.69921875 387.4765625 C-165.82067116 389.63541852 -169.21335429 389.97731768 -173.84288025 389.98527527 C-174.96550262 389.98954025 -176.088125 389.99380524 -177.24476624 389.99819946 C-178.47231125 389.99774628 -179.69985626 389.99729309 -180.96459961 389.99682617 C-182.26103394 390.00018478 -183.55746826 390.0035434 -184.89318848 390.00700378 C-188.44950091 390.01583712 -192.00578927 390.01818179 -195.56211162 390.01881957 C-197.78877623 390.01953116 -200.01543476 390.02166768 -202.24209785 390.02431679 C-210.02476513 390.03357234 -217.80741529 390.03765195 -225.59008789 390.03686523 C-232.81878585 390.03626637 -240.04740871 390.04677993 -247.2760877 390.0626089 C-253.4988289 390.07574422 -259.72154577 390.08104654 -265.94430071 390.08040982 C-269.65307379 390.08015633 -273.36178032 390.0829241 -277.07053947 390.09358788 C-281.22017286 390.1051924 -285.3696418 390.10048565 -289.51928711 390.09448242 C-290.72861404 390.10010193 -291.93794098 390.10572144 -293.18391418 390.11151123 C-308.49951449 390.05555211 -322.94041426 388.05470769 -334.39381409 376.96235657 C-341.41655743 369.28336301 -345.06530024 360.12820544 -348.328125 350.40234375 C-348.77211274 349.11388426 -349.21740872 347.82587494 -349.66390991 346.5382843 C-350.84440362 343.12321122 -352.00777782 339.70254825 -353.16758347 336.28040314 C-354.37791709 332.71851666 -355.60363287 329.16193492 -356.82836914 325.60498047 C-358.29687648 321.33735391 -359.76406544 317.06930053 -361.22392273 312.79870605 C-363.97820068 304.74325781 -366.76952743 296.70245584 -369.62890625 288.68359375 C-381.84021321 254.42127829 -391.47882961 220.16559549 -395.32421875 183.8515625 C-395.41775635 183.0874707 -395.51129395 182.32337891 -395.60766602 181.53613281 C-396.62272618 172.33754982 -396.58224024 163.08303618 -396.61938477 153.83935547 C-396.63085808 151.86174335 -396.65123539 149.88416106 -396.6809082 147.90673828 C-397.23302784 110.93631407 -384.41210084 77.89862854 -358.8203125 51.01049805 C-334.12409395 25.73778645 -300.7254904 12.16370889 -265.53022766 11.61001587 C-260.93951736 11.564955 -256.34893617 11.52460846 -251.75805664 11.50146484 C-249.338363 11.48482568 -246.91872005 11.45743291 -244.49926758 11.41943359 C-240.98883908 11.36472067 -237.47954707 11.34281025 -233.96875 11.328125 C-232.89051468 11.30545563 -231.81227936 11.28278625 -230.70137024 11.25942993 C-222.34022915 11.28298678 -222.34022915 11.28298678 -218.65893555 14.07177734 C-216.32421875 16.8515625 -216.32421875 16.8515625 -215.32421875 21.8515625 C-207.40421875 21.8515625 -199.48421875 21.8515625 -191.32421875 21.8515625 C-190.99421875 20.2015625 -190.66421875 18.5515625 -190.32421875 16.8515625 C-188.63681983 14.42170806 -187.30970582 13.1546307 -184.45703125 12.27734375 C-180.93159938 11.65873023 -178.85414139 11.62781738 -175.51171875 13.0390625 C-173.32582055 14.85023529 -171.77302129 16.41147401 -170.32421875 18.8515625 C-170.32421875 19.8415625 -170.32421875 20.8315625 -170.32421875 21.8515625 C-162.40421875 21.8515625 -154.48421875 21.8515625 -146.32421875 21.8515625 C-145.99421875 20.2015625 -145.66421875 18.5515625 -145.32421875 16.8515625 C-141.95735231 13.18418446 -140.44724863 12.02765737 -135.48965454 11.25028992 C-134.03170475 11.23593753 -132.57331904 11.24877358 -131.11572266 11.28393555 C-129.91471924 11.28284035 -129.91471924 11.28284035 -128.68945312 11.28172302 C-126.05919177 11.28518941 -123.43073081 11.32400309 -120.80078125 11.36328125 C-118.97090624 11.37261281 -117.1410187 11.3797273 -115.31112671 11.38471985 C-110.50711257 11.40376272 -105.70386058 11.45283992 -100.90014648 11.50823975 C-95.99343169 11.5594909 -91.08659311 11.5822464 -86.1796875 11.60742188 C-76.56086402 11.66096146 -66.94260489 11.74624124 -57.32421875 11.8515625 C-57.02402832 10.90611572 -56.72383789 9.96066895 -56.41455078 8.98657227 C-53.77997875 1.41144028 -47.30262468 -3.6234111 -40.32421875 -7.1484375 C-26.52817767 -12.89678795 -11.0234528 -9.88309561 0 0 Z M-199.32421875 279.8515625 C-199.32421875 294.0415625 -199.32421875 308.2315625 -199.32421875 322.8515625 C-195.36421875 324.5015625 -191.40421875 326.1515625 -187.32421875 327.8515625 C-178.43563756 333.93322331 -171.2457077 341.21364663 -166.32421875 350.8515625 C-165.99421875 350.8515625 -165.66421875 350.8515625 -165.32421875 350.8515625 C-165.32421875 327.4215625 -165.32421875 303.9915625 -165.32421875 279.8515625 C-176.54421875 279.8515625 -187.76421875 279.8515625 -199.32421875 279.8515625 Z " fill="#C58964" transform="translate(396.32421875,66.1484375)"/>
<path d="M0 0 C3.19387725 3.52889934 7.67578125 8.92244961 7.67578125 13.8515625 C8.82240234 13.635 8.82240234 13.635 9.9921875 13.4140625 C22.6262688 11.22476321 34.95862782 11.5253789 47.67578125 12.8515625 C48.15015625 11.7171875 48.62453125 10.5828125 49.11328125 9.4140625 C53.39355314 0.9732466 60.2062494 -4.77412289 68.921875 -8.27734375 C78.81828085 -11.40769624 88.53944983 -10.27011692 97.92578125 -5.9609375 C107.38759835 -0.80267271 112.30656075 6.74390099 115.67578125 16.8515625 C116.39656247 27.92323473 116.65844059 37.65111035 109.40625 46.67578125 C107.22460597 49.13914939 104.99717097 51.52025231 102.67578125 53.8515625 C103.1346875 54.79773438 103.59359375 55.74390625 104.06640625 56.71875 C114.29742092 78.4683655 117.60747812 101.89220839 109.57421875 125.0234375 C105.14590431 136.2799271 99.12930412 145.22726139 90.67578125 153.8515625 C90.03382813 154.52960938 89.391875 155.20765625 88.73046875 155.90625 C82.7107171 161.78436043 75.53613263 165.52636398 68.17578125 169.45703125 C67.44101562 169.8545459 66.70625 170.25206055 65.94921875 170.66162109 C64.39201847 171.47667631 62.81178269 172.24876184 61.21484375 172.98291016 C57.29559463 174.88149463 54.45082595 176.25961734 52.82421875 180.4453125 C52.41201358 181.90608588 52.03157774 183.37603519 51.67578125 184.8515625 C51.15198271 186.63424393 50.62294526 188.41539094 50.08984375 190.1953125 C49.80560547 191.17838379 49.52136719 192.16145508 49.22851562 193.17431641 C42.84600688 215.03272924 34.51294026 236.82010183 23.7109375 256.89892578 C22.51932979 259.14668014 21.37867012 261.41724841 20.23828125 263.69140625 C9.97778012 283.98270997 -2.18141467 304.08932409 -16.66015625 321.69140625 C-18.52764024 323.66116356 -18.52764024 323.66116356 -18.32421875 325.8515625 C-16.71539548 326.910078 -15.0593598 327.89707872 -13.38671875 328.8515625 C0.1380019 337.24801504 8.48223218 350.92733371 12.2578125 366.20703125 C12.79440241 369.60209079 12.96143657 372.91522861 13.05078125 376.3515625 C13.09976562 377.640625 13.14875 378.9296875 13.19921875 380.2578125 C12.54523453 384.7478534 11.23001463 386.12223715 7.67578125 388.8515625 C4.55997989 389.90608508 1.65198729 389.97938868 -1.62182617 389.98527527 C-2.69540878 389.98954025 -3.76899139 389.99380524 -4.87510681 389.99819946 C-6.04811844 389.99774628 -7.22113007 389.99729309 -8.4296875 389.99682617 C-9.6692067 390.00018478 -10.90872589 390.0035434 -12.18580627 390.00700378 C-15.58504579 390.01487874 -18.9842242 390.01818168 -22.38346863 390.01881957 C-24.51162985 390.01953122 -26.6397847 390.02166785 -28.76794434 390.02431679 C-36.20581466 390.03357117 -43.64366708 390.03765205 -51.08154297 390.03686523 C-57.99102533 390.03626621 -64.90042918 390.04678324 -71.8098917 390.0626089 C-77.75746048 390.07574088 -83.7050038 390.08104668 -89.65258694 390.08040982 C-93.19756771 390.08015625 -96.74247886 390.08292814 -100.28744507 390.09358788 C-104.25285823 390.10518539 -108.21816646 390.10048763 -112.18359375 390.09448242 C-113.34041153 390.10010193 -114.49722931 390.10572144 -115.68910217 390.11151123 C-130.17137056 390.05609345 -143.40823073 388.06743793 -154.07421875 377.4765625 C-155.17385922 376.28305029 -156.26397122 375.08020229 -157.32421875 373.8515625 C-157.41058594 374.59921875 -157.49695313 375.346875 -157.5859375 376.1171875 C-158.73993806 384.20577858 -158.73993806 384.20577858 -161.69921875 387.4765625 C-165.82067116 389.63541852 -169.21335429 389.97731768 -173.84288025 389.98527527 C-174.96550262 389.98954025 -176.088125 389.99380524 -177.24476624 389.99819946 C-178.47231125 389.99774628 -179.69985626 389.99729309 -180.96459961 389.99682617 C-182.26103394 390.00018478 -183.55746826 390.0035434 -184.89318848 390.00700378 C-188.44950091 390.01583712 -192.00578927 390.01818179 -195.56211162 390.01881957 C-197.78877623 390.01953116 -200.01543476 390.02166768 -202.24209785 390.02431679 C-210.02476513 390.03357234 -217.80741529 390.03765195 -225.59008789 390.03686523 C-232.81878585 390.03626637 -240.04740871 390.04677993 -247.2760877 390.0626089 C-253.4988289 390.07574422 -259.72154577 390.08104654 -265.94430071 390.08040982 C-269.65307379 390.08015633 -273.36178032 390.0829241 -277.07053947 390.09358788 C-281.22017286 390.1051924 -285.3696418 390.10048565 -289.51928711 390.09448242 C-290.72861404 390.10010193 -291.93794098 390.10572144 -293.18391418 390.11151123 C-308.49951449 390.05555211 -322.94041426 388.05470769 -334.39381409 376.96235657 C-341.41655743 369.28336301 -345.06530024 360.12820544 -348.328125 350.40234375 C-348.77211274 349.11388426 -349.21740872 347.82587494 -349.66390991 346.5382843 C-350.84440362 343.12321122 -352.00777782 339.70254825 -353.16758347 336.28040314 C-354.37791709 332.71851666 -355.60363287 329.16193492 -356.82836914 325.60498047 C-358.29687648 321.33735391 -359.76406544 317.06930053 -361.22392273 312.79870605 C-363.97820068 304.74325781 -366.76952743 296.70245584 -369.62890625 288.68359375 C-381.84021321 254.42127829 -391.47882961 220.16559549 -395.32421875 183.8515625 C-395.41775635 183.0874707 -395.51129395 182.32337891 -395.60766602 181.53613281 C-396.62272618 172.33754982 -396.58224024 163.08303618 -396.61938477 153.83935547 C-396.63085808 151.86174335 -396.65123539 149.88416106 -396.6809082 147.90673828 C-397.23302784 110.93631407 -384.41210084 77.89862854 -358.8203125 51.01049805 C-334.12409395 25.73778645 -300.7254904 12.16370889 -265.53022766 11.61001587 C-260.93951736 11.564955 -256.34893617 11.52460846 -251.75805664 11.50146484 C-249.338363 11.48482568 -246.91872005 11.45743291 -244.49926758 11.41943359 C-240.98883908 11.36472067 -237.47954707 11.34281025 -233.96875 11.328125 C-232.89051468 11.30545563 -231.81227936 11.28278625 -230.70137024 11.25942993 C-222.34472351 11.28297412 -222.34472351 11.28297412 -218.65893555 14.23583984 C-216.14871965 17.04818462 -215.32421875 18.11824454 -215.32421875 21.8515625 C-215.97304057 25.96076734 -216.59066159 28.16137821 -219.64477539 31.03491211 C-224.48420458 34.03376736 -230.13091049 33.39472164 -235.6328125 33.35546875 C-237.43118309 33.3696006 -237.43118309 33.3696006 -239.2658844 33.38401794 C-243.09800256 33.41265194 -246.9295024 33.41574911 -250.76171875 33.4140625 C-272.77011064 33.08133073 -272.77011064 33.08133073 -294.32421875 36.8515625 C-295.12174561 37.08109619 -295.91927246 37.31062988 -296.7409668 37.54711914 C-314.95241743 43.32843079 -330.65548949 53.62879504 -344.32421875 66.8515625 C-345.06285156 67.56441406 -345.80148437 68.27726562 -346.5625 69.01171875 C-363.85249919 86.9159275 -375.37374234 113.85151111 -375.52734375 138.765625 C-375.53426743 139.5250238 -375.5411911 140.28442261 -375.54832458 141.0668335 C-375.56565264 143.53679551 -375.57192513 146.00654235 -375.57421875 148.4765625 C-375.57622787 149.74394257 -375.57622787 149.74394257 -375.57827759 151.03692627 C-375.57141354 171.06812433 -374.10181086 191.00184296 -369.80175781 210.61181641 C-369.23893625 213.25155312 -368.73344133 215.90048947 -368.22265625 218.55078125 C-364.50171866 237.1926214 -358.64504297 254.89355445 -352.39086914 272.79528809 C-351.20174517 276.20248616 -350.01762274 279.61140028 -348.83398438 283.02050781 C-343.08512524 299.57415932 -337.32288988 316.12348572 -331.46380615 332.63848877 C-330.72928753 334.70946857 -329.99675357 336.78115388 -329.2666626 338.85369873 C-328.33222944 341.50069551 -327.38698651 344.14352853 -326.4375 346.78515625 C-326.17623825 347.53015884 -325.9149765 348.27516144 -325.64579773 349.04273987 C-322.7993602 356.86991294 -318.68128734 363.26047758 -310.99531555 366.97799683 C-308.01613436 367.95231959 -305.65496551 368.09249708 -302.52416992 368.07861328 C-301.38336472 368.07846222 -300.24255951 368.07831116 -299.06718445 368.07815552 C-297.84618546 368.06783295 -296.62518646 368.05751038 -295.3671875 368.046875 C-294.10908768 368.0440451 -292.85098785 368.04121521 -291.55476379 368.03829956 C-288.22234493 368.02901371 -284.89020328 368.01106726 -281.55786133 367.9888916 C-278.15253078 367.96837267 -274.74717152 367.95928496 -271.34179688 367.94921875 C-264.66919457 367.9271789 -257.99672266 367.8937164 -251.32421875 367.8515625 C-252.26443223 365.93042877 -253.20935633 364.01159999 -254.15625 362.09375 C-254.9447937 360.49055908 -254.9447937 360.49055908 -255.74926758 358.85498047 C-260.00257985 350.74395154 -265.81791349 346.28952754 -274.32421875 342.8515625 C-276.67453013 342.45861982 -278.93543902 342.29881933 -281.3125 342.18359375 C-284.98861311 341.57685664 -286.80152461 339.50039135 -289.32421875 336.8515625 C-290.24818775 334.0796555 -290.45537842 332.40648389 -290.47138977 329.54496765 C-290.47854507 328.66602844 -290.48570038 327.78708923 -290.49307251 326.8815155 C-290.49576141 325.91990005 -290.49845032 324.95828461 -290.5012207 323.9675293 C-290.5077919 322.95260406 -290.5143631 321.93767883 -290.52113342 320.89199829 C-290.54086871 317.52825855 -290.55252889 314.16456344 -290.5625 310.80078125 C-290.56657553 309.65260233 -290.57065105 308.50442341 -290.57485008 307.32145119 C-290.59571068 301.245634 -290.6100131 295.1698394 -290.61938477 289.09399414 C-290.63045585 282.81577453 -290.66486423 276.5379087 -290.70455647 270.25981426 C-290.73068723 265.43424312 -290.73907342 260.60875678 -290.74266624 255.78312111 C-290.74754046 253.46866272 -290.75917806 251.15420833 -290.77770424 248.83981895 C-290.8020221 245.60085271 -290.80114387 242.36280867 -290.79418945 239.1237793 C-290.80699951 238.16823654 -290.81980957 237.21269379 -290.83300781 236.22819519 C-290.78796432 230.47177403 -290.13284811 227.25059749 -286.32421875 222.8515625 C-284.05173637 221.71532131 -282.54119111 221.58709407 -280.01171875 221.4765625 C-279.25246094 221.42757812 -278.49320312 221.37859375 -277.7109375 221.328125 C-275.32421875 221.8515625 -275.32421875 221.8515625 -270.32421875 226.8515625 C-270.32421875 237.4115625 -270.32421875 247.9715625 -270.32421875 258.8515625 C-235.34421875 258.8515625 -200.36421875 258.8515625 -164.32421875 258.8515625 C-164.32421875 255.8815625 -164.32421875 252.9115625 -164.32421875 249.8515625 C-162.67399786 224.67146785 -151.02819281 189.69387228 -131.765625 172.578125 C-129.32421875 170.8515625 -129.32421875 170.8515625 -126.38671875 170.2890625 C-122.1041212 171.07566205 -120.42751981 172.82043123 -117.32421875 175.8515625 C-115.85250941 178.79498118 -115.9574997 180.55487169 -116.32421875 183.8515625 C-117.74678034 186.85784407 -119.55801511 189.57857202 -121.38671875 192.3515625 C-122.40510405 193.95836997 -123.41940364 195.56777392 -124.4296875 197.1796875 C-124.92645996 197.97181641 -125.42323242 198.76394531 -125.93505859 199.58007812 C-140.62857672 223.60617525 -144.64025582 249.2012173 -144.66015625 276.76953125 C-144.66659637 278.87933947 -144.6733256 280.98914682 -144.68032837 283.09895325 C-144.69223841 287.49885124 -144.69601526 291.89867104 -144.69482422 296.29858398 C-144.69462038 301.91701968 -144.72201769 307.53495327 -144.75636864 313.15326977 C-144.77866519 317.50204243 -144.78266105 321.85069424 -144.78160477 326.1995182 C-144.78395289 328.27063046 -144.79273156 330.34174644 -144.8082695 332.41280174 C-145.43784655 348.86998815 -145.43784655 348.86998815 -138.2890625 363.10546875 C-137.28552734 363.75322266 -137.28552734 363.75322266 -136.26171875 364.4140625 C-135.59011719 364.86910156 -134.91851562 365.32414062 -134.2265625 365.79296875 C-130.67804931 367.7676034 -127.82508694 367.97403636 -123.84301758 367.96508789 C-122.1616143 367.96497459 -122.1616143 367.96497459 -120.44624329 367.96485901 C-119.2367955 367.95969772 -118.02734772 367.95453644 -116.78125 367.94921875 C-115.54251633 367.9478038 -114.30378265 367.94638885 -113.0275116 367.94493103 C-109.73790338 367.94027852 -106.44834415 367.9312964 -103.15875244 367.92022705 C-99.80050252 367.90998879 -96.44224542 367.90542824 -93.08398438 367.90039062 C-86.49737663 367.88935395 -79.9108017 367.87261017 -73.32421875 367.8515625 C-74.26605301 365.93058242 -75.21220194 364.01171738 -76.16015625 362.09375 C-76.9497876 360.49055908 -76.9497876 360.49055908 -77.75537109 358.85498047 C-82.25412483 350.24252038 -88.28251215 346.34313977 -97.32421875 342.8515625 C-99.12617088 342.46525188 -100.939472 342.12667001 -102.76171875 341.8515625 C-106.19271493 341.29906714 -108.07226078 340.68492298 -110.44921875 338.1015625 C-112.57226552 334.42161477 -112.82374879 333.01601193 -112.32421875 328.8515625 C-110.9886406 326.54384892 -109.6970904 324.62062458 -108.07421875 322.5390625 C-107.14934222 321.29196126 -106.22488054 320.04455228 -105.30078125 318.796875 C-104.30951544 317.48107596 -103.31731833 316.16597805 -102.32421875 314.8515625 C-88.24806064 296.17449001 -77.74797857 276.04239181 -70.32421875 253.8515625 C-69.95176025 252.75013916 -69.95176025 252.75013916 -69.57177734 251.62646484 C-63.73405417 233.91101802 -60.68313107 214.40856477 -60.91503906 195.76196289 C-60.84873417 190.01133951 -59.27377999 187.74155268 -55.32421875 183.8515625 C-52.45813746 182.41852186 -50.51121092 182.54512095 -47.32421875 182.8515625 C-41.74527138 186.00945724 -41.74527138 186.00945724 -40.32421875 188.8515625 C-38.33581824 234.63101622 -52.59505473 282.85319392 -80.27709961 319.61499023 C-82.60546494 322.42082124 -82.60546494 322.42082124 -83.32421875 325.8515625 C-81.67932313 326.97889603 -79.98058883 328.02809853 -78.26171875 329.0390625 C-65.57291971 336.97969025 -55.88859783 350.14538309 -52.32421875 364.8515625 C-52.32421875 366.1715625 -52.32421875 367.4915625 -52.32421875 368.8515625 C-38.13421875 368.8515625 -23.94421875 368.8515625 -9.32421875 368.8515625 C-14.0896287 358.12939012 -19.18988836 348.76161967 -30.32421875 343.8515625 C-33.40962812 343.25451575 -36.48977024 342.85441692 -39.60546875 342.44921875 C-43.57101206 341.57748294 -44.94379343 340.05282413 -47.32421875 336.8515625 C-47.65421875 336.5215625 -47.98421875 336.1915625 -48.32421875 335.8515625 C-49.1315428 327.61685724 -44.74530682 323.2956478 -39.88671875 317.1015625 C-12.69399294 282.00457136 8.86821396 243.77293597 23.67578125 201.8515625 C24.30440131 200.09104362 24.93329551 198.33062259 25.5625 196.5703125 C26.95109898 192.67001757 28.32041452 188.76352294 29.67578125 184.8515625 C28.64582031 184.88765625 27.61585938 184.92375 26.5546875 184.9609375 C13.17005421 184.58352589 0.43275141 175.65475271 -10.875 169.23193359 C-12.89670941 168.09250527 -14.92851619 166.98577944 -16.98046875 165.90234375 C-34.8748443 156.17816335 -47.5465183 140.25426896 -53.63671875 120.9140625 C-59.62732984 100.51565259 -57.67853737 79.10896699 -48.375 60.15625 C-46.95337901 57.10948695 -46.95337901 57.10948695 -46.32421875 53.8515625 C-47.57750009 52.17975521 -47.57750009 52.17975521 -49.44921875 50.7265625 C-54.50170513 46.05806508 -57.16946949 40.31581029 -59.32421875 33.8515625 C-60.3006131 33.84791687 -61.27700745 33.84427124 -62.2829895 33.84051514 C-71.49362509 33.80354167 -80.70392706 33.74574334 -89.91430855 33.66765976 C-94.64926649 33.62818432 -99.38403843 33.59599618 -104.11914062 33.58056641 C-108.69053237 33.56540023 -113.26141279 33.5309555 -117.83257675 33.48325348 C-119.57479274 33.46843926 -121.31708174 33.46052146 -123.0593605 33.45967865 C-125.5038298 33.4573073 -127.94688794 33.43021611 -130.39111328 33.39746094 C-131.46681831 33.40500648 -131.46681831 33.40500648 -132.56425476 33.41270447 C-137.57812354 33.30904842 -140.46696259 32.01293063 -144.32421875 28.8515625 C-145.97092636 25.60105822 -146.45591878 22.48762845 -146.32421875 18.8515625 C-144.77206154 15.61086607 -142.56948665 13.47419645 -139.32421875 11.8515625 C-136.73039698 11.75855087 -134.16367236 11.72575964 -131.56982422 11.73803711 C-130.76973938 11.73789108 -129.96965454 11.73774506 -129.14532471 11.7375946 C-126.49399122 11.7382927 -123.8427275 11.74608029 -121.19140625 11.75390625 C-119.35580483 11.7557708 -117.52020292 11.75719453 -115.68460083 11.75819397 C-110.8479882 11.76201627 -106.01140548 11.77184411 -101.17480469 11.78289795 C-96.24154058 11.79311824 -91.30827164 11.79769292 -86.375 11.80273438 C-76.69139309 11.81346662 -67.0078084 11.83053961 -57.32421875 11.8515625 C-57.02402832 10.90611572 -56.72383789 9.96066895 -56.41455078 8.98657227 C-53.77997875 1.41144028 -47.30262468 -3.6234111 -40.32421875 -7.1484375 C-26.52817767 -12.89678795 -11.0234528 -9.88309561 0 0 Z M-199.32421875 279.8515625 C-199.32421875 294.0415625 -199.32421875 308.2315625 -199.32421875 322.8515625 C-195.36421875 324.5015625 -191.40421875 326.1515625 -187.32421875 327.8515625 C-178.43563756 333.93322331 -171.2457077 341.21364663 -166.32421875 350.8515625 C-165.99421875 350.8515625 -165.66421875 350.8515625 -165.32421875 350.8515625 C-165.32421875 327.4215625 -165.32421875 303.9915625 -165.32421875 279.8515625 C-176.54421875 279.8515625 -187.76421875 279.8515625 -199.32421875 279.8515625 Z " fill="#010100" transform="translate(396.32421875,66.1484375)"/>
<path d="M0 0 C1.00192383 0.00499512 2.00384766 0.00999023 3.03613281 0.01513672 C12.04057119 0.22417347 19.62608917 1.97546537 27.875 5.5 C28.865 5.9228125 29.855 6.345625 30.875 6.78125 C48.16128274 15.22795634 58.61522734 31.01761227 65.015625 48.640625 C68.81781945 65.71593462 66.39892172 82.45847159 57.5625 97.375 C50.45941115 107.73430229 41.68854975 113.5445887 30.875 119.5 C29.39797607 120.32516113 29.39797607 120.32516113 27.89111328 121.16699219 C24.60705385 122.99042189 21.30670928 124.78051212 18 126.5625 C16.94240479 127.14733154 15.88480957 127.73216309 14.79516602 128.3347168 C3.64408683 134.22686378 3.64408683 134.22686378 -3.125 132.5 C-7.76429272 130.63945419 -12.12141515 128.33336374 -16.5 125.9375 C-17.655 125.32841797 -18.81 124.71933594 -20 124.09179688 C-39.43743962 113.72589369 -55.4460737 102.98219701 -62.2421875 80.99609375 C-66.2900336 63.37295619 -63.53175173 45.61259147 -54.109375 30.3515625 C-50.84545868 25.66128904 -47.15324261 21.54232737 -43.125 17.5 C-42.51140625 16.86320312 -41.8978125 16.22640625 -41.265625 15.5703125 C-30.33706818 5.06208479 -14.91839213 -0.09864654 0 0 Z " fill="#CF9F82" transform="translate(423.125,98.5)"/>
<path d="M0 0 C16.83 0 33.66 0 51 0 C51.01417969 4.05667969 51.02835938 8.11335938 51.04296875 12.29296875 C51.06822557 15.53419652 51.09845458 18.77529333 51.13204193 22.01644135 C51.16609908 25.43430953 51.19145826 28.85172881 51.19555664 32.26977539 C51.20066642 36.1945785 51.24579916 40.11843673 51.29296875 44.04296875 C51.2890361 45.26396774 51.28510345 46.48496674 51.28105164 47.7429657 C51.16766084 54.58381104 51.16766084 54.58381104 54.41259766 60.27661133 C57.01581067 62.010531 58.12705774 62.54593534 61.1875 62.5 C69.08449325 62.99931072 75.98313108 67.02221337 81.328125 72.76171875 C84.60119659 77.14365806 90 84.42371024 90 90 C73.5 90 57 90 40 90 C38.02 83.565 38.02 83.565 36 77 C28.32587131 60.06463571 16.58592329 51.53905604 0 44 C0 29.48 0 14.96 0 0 Z " fill="#C28763" transform="translate(126,345)"/>
<path d="M0 0 C1.47146484 -0.0299707 1.47146484 -0.0299707 2.97265625 -0.06054688 C9.01899335 -0.05646703 12.52070278 0.42730565 17.125 4.4375 C20.27757435 8.11550341 20.6549068 11.48307857 20.46875 16.17578125 C19.44106121 22.93750639 13.92833256 28.85537354 9.125 33.4375 C4.70245293 36.18810854 0.17439597 36.42459996 -4.875 35.4375 C-11.08472497 31.79991414 -16.60238857 25.25533429 -18.875 18.4375 C-19.42385106 13.7137819 -19.34096728 10.33615118 -17.125 6.0625 C-11.81954408 -0.12719858 -7.82095959 -0.0560825 0 0 Z " fill="#010101" transform="translate(423.875,172.5625)"/>
<path d="M0 0 C3.78098533 2.99844533 5.2417711 4.87779881 5.90625 9.76171875 C5.31199219 10.09042969 4.71773438 10.41914062 4.10546875 10.7578125 C-2.88894529 14.77171418 -8.9733897 19.52566907 -15.09375 24.76171875 C-19.27665487 22.88116908 -20.95273865 20.89081207 -23.09375 16.76171875 C-23.94370188 10.90649468 -23.04344176 7.31250562 -19.63671875 2.46484375 C-14.50376062 -3.20090244 -6.39720726 -3.78342295 0 0 Z " fill="#C18662" transform="translate(379.09375,79.23828125)"/>
<path d="M0 0 C4.81706073 2.3630864 7.6369136 5.18293927 10 10 C10.84338619 14.79353172 10.46624654 18.08415858 8.25 22.4375 C6.12654137 24.85588344 4.84239188 25.71614653 2 27 C1.40574219 26.43152344 0.81148438 25.86304687 0.19921875 25.27734375 C-5.79119568 19.69684882 -11.95655538 15.16447011 -19 11 C-15.87061742 2.03311529 -9.12000464 -1.09193985 0 0 Z " fill="#C08662" transform="translate(482,77)"/>
<path d="M0 0 C3.92431283 3.060964 3.92431283 3.060964 5 6 C4.99445496 9.57100809 4.44638777 12.7301506 3 16 C0.30814359 18.61676171 -1.70501775 19.44824981 -5.4375 19.5 C-8.93792119 19.36159784 -9.96099767 19.02600155 -13 17 C-15.44658145 13.33012783 -16.60554121 10.42910144 -16 6 C-12.46333859 -0.670776 -7.02502244 -2.15107276 0 0 Z " fill="#020101" transform="translate(221,79)"/>
<path d="M0 0 C2.50150183 1.81143236 3.53561154 3.50334539 4.8125 6.3125 C5.2555062 9.85654961 5.04296098 11.80548585 3.5625 15.0625 C0.75857081 18.66755181 -1.11605551 19.17613434 -5.625 19.75 C-10.10653826 19.19963565 -11.39602117 17.76079737 -14.1875 14.3125 C-15.63897903 11.40954195 -15.55989025 9.53988221 -15.1875 6.3125 C-11.39734576 0.18885527 -7.13027337 -2.24094306 0 0 Z " fill="#050403" transform="translate(408.1875,141.6875)"/>
<path d="M0 0 C5.57894737 3.15789474 5.57894737 3.15789474 7 6 C7.36206054 10.41713859 7.51432609 12.94898583 5.5625 16.9375 C2.43462494 19.45505797 0.23117204 20.04270028 -3.73828125 20.24609375 C-6.70272533 19.92353766 -8.83733207 18.91266793 -10.95703125 16.79296875 C-13.14386669 13.0335775 -13.01654726 9.13395887 -12 5 C-9.11904916 0.59038136 -5.12483767 -0.96090706 0 0 Z " fill="#040303" transform="translate(451,141)"/>
</svg>
