<?xml version="1.0" encoding="UTF-8"?>
<svg version="1.1" xmlns="http://www.w3.org/2000/svg" width="512" height="512">
<path d="M0 0 C5.49964476 1.27934999 8.93903748 5.71169039 12.75390625 9.640625 C13.98983098 10.76052414 15.23911003 11.86593847 16.50390625 12.953125 C17.14457031 13.51257812 17.78523438 14.07203125 18.4453125 14.6484375 C20.25922198 16.21374009 22.07987731 17.76964925 23.90625 19.3203125 C31.02932864 25.37603075 37.98768951 31.56486316 44.83203125 37.93359375 C51.48985149 44.16530375 51.48985149 44.16530375 58.75390625 49.640625 C61.83847598 49.10204933 64.7369326 48.44456234 67.75390625 47.640625 C69.79473575 47.11652093 71.83643407 46.59579047 73.87890625 46.078125 C74.83023438 45.82933594 75.7815625 45.58054688 76.76171875 45.32421875 C96.86522356 40.73138149 120.36496855 42.37405628 139.703125 49.1875 C142.15165903 49.72850942 143.42335568 49.54564765 145.75390625 48.640625 C147.47001399 47.43332802 147.47001399 47.43332802 149.12890625 45.828125 C152.25937893 42.98224074 155.42828285 40.20192032 158.65551758 37.46728516 C164.03025839 32.91032787 169.29482257 28.26642669 174.44140625 23.453125 C179.20102725 19.00358638 184.09115954 14.80057066 189.203125 10.75390625 C191.78680031 8.68032892 191.78680031 8.68032892 194.0859375 6.30859375 C197.88674358 2.50778767 200.48573012 0.12155829 206.00390625 -0.171875 C209.66226554 0.14104842 210.74039977 0.63070187 213.81640625 2.890625 C216.7020669 6.98640141 216.87909551 10.19999415 216.88761902 15.14341736 C216.891884 16.26289261 216.89614899 17.38236786 216.90054321 18.5357666 C216.90009003 19.76009399 216.89963684 20.98442139 216.89916992 22.24584961 C216.90420784 24.18585594 216.90420784 24.18585594 216.90934753 26.16505432 C216.9181853 29.71570575 216.92052592 33.26633307 216.92116332 36.81699443 C216.92187545 39.04439145 216.92401317 41.27178242 216.92666054 43.49917793 C216.93592243 51.29755158 216.93999552 59.09590815 216.93920898 66.89428711 C216.93861218 74.11373753 216.94908295 81.33311225 216.96495265 88.55254358 C216.97814648 94.78135457 216.98338778 101.01014124 216.98275357 107.23896605 C216.98250146 110.94464082 216.9851888 114.65024873 216.99593163 118.35590935 C217.12119747 164.91940027 217.12119747 164.91940027 209.4375 185.09765625 C208.57516205 189.56703064 209.79976464 192.08282254 211.81640625 195.953125 C219.95493565 213.07210063 223.76059949 231.94387429 223.875 250.859375 C223.88280487 251.5847496 223.89060974 252.31012421 223.89865112 253.05747986 C223.93515845 256.69341417 223.92978695 260.32009105 223.84863281 263.95532227 C223.78406498 273.94070874 226.31726659 279.14082817 232.75390625 286.640625 C234.43244491 289.19418694 235.91503453 291.83435865 237.37890625 294.515625 C237.9356604 295.5214563 237.9356604 295.5214563 238.50366211 296.54760742 C247.75390625 313.47005405 247.75390625 313.47005405 247.75390625 318.640625 C251.9862265 318.57102206 256.21765131 318.48272181 260.44921875 318.37817383 C261.88433484 318.34522145 263.3195713 318.31710037 264.75488281 318.29418945 C279.31682389 318.05555234 291.20741381 315.57067189 302.44140625 305.640625 C309.53881442 298.13861399 313.85326086 287.48207821 313.91162109 277.27758789 C313.92188324 275.98426041 313.93214539 274.69093292 313.94271851 273.3584137 C313.94615643 272.66800051 313.94959435 271.97758732 313.95313644 271.26625252 C313.96502497 269.07995518 313.98451394 266.89384672 314.0062561 264.70762634 C314.06745447 258.49110543 314.1213273 252.27459539 314.15527344 246.05786133 C314.35356422 211.70330712 316.16003323 178.83269216 339.75390625 151.640625 C340.41777344 150.84527344 341.08164062 150.04992187 341.765625 149.23046875 C356.43469145 132.19117613 373.77250226 122.63442633 394.75390625 115.640625 C406.59319764 114.84930989 415.41098728 115.87721837 424.67578125 123.5546875 C431.43510176 130.33941899 434.65160065 138.54146499 435.06640625 148.015625 C434.78245269 157.72015542 431.16331455 165.31230771 424.30444336 172.06835938 C419.86875632 176.14180609 415.36841948 178.412365 409.81640625 180.640625 C397.91265624 185.71734793 389.99100256 191.29333375 384.46484375 203.484375 C381.89752698 210.20742037 380.75225934 216.54113681 380.61328125 223.7421875 C380.59394531 224.64453125 380.57460938 225.546875 380.5546875 226.4765625 C380.5206951 228.34352955 380.50259344 230.21085032 380.5 232.078125 C380.37507925 236.66731886 380.26264114 238.95712063 377.45703125 242.7265625 C374.75390625 244.640625 374.75390625 244.640625 370.75390625 245.640625 C370.42390625 252.900625 370.09390625 260.160625 369.75390625 267.640625 C371.73390625 267.970625 373.71390625 268.300625 375.75390625 268.640625 C378.3387488 270.81733451 379.52443108 272.45679046 380.171875 275.796875 C380.43497952 280.06343479 380.14905546 282.0827673 377.62890625 285.640625 C374.53398171 287.79361598 372.48181446 288.38053838 368.75390625 288.640625 C368.71652344 289.29546875 368.67914063 289.9503125 368.640625 290.625 C368.25299576 296.00620595 367.48367145 300.83618438 365.94140625 306.015625 C365.08140835 308.95553175 365.08140835 308.95553175 364.75390625 311.640625 C366.47158207 314.43374193 366.47158207 314.43374193 368.75390625 316.640625 C370.06660097 324.25425439 366.90257835 329.3897467 362.75390625 335.640625 C345.15346432 360.31186527 321.20273808 377.2512678 291.09765625 382.734375 C284.57525918 383.77365805 278.09848079 384.07876575 271.50390625 384.265625 C270.36566406 384.30429687 269.22742188 384.34296875 268.0546875 384.3828125 C265.28790846 384.47581348 262.52111508 384.56165361 259.75390625 384.640625 C259.59535156 385.76597656 259.43679688 386.89132812 259.2734375 388.05078125 C256.56606065 406.2582397 251.41788837 423.06064735 239.75390625 437.640625 C239.09390625 438.630625 238.43390625 439.620625 237.75390625 440.640625 C238.15182373 441.02283203 238.54974121 441.40503906 238.9597168 441.79882812 C240.79518365 443.57111333 242.61823242 445.35569957 244.44140625 447.140625 C245.38016602 448.04167969 245.38016602 448.04167969 246.33789062 448.9609375 C252.25944021 454.78947846 256.49045727 460.77796934 259.00390625 468.765625 C259.3184375 469.73757813 259.63296875 470.70953125 259.95703125 471.7109375 C261.93639489 478.98800972 262.03750648 486.14584426 262.12890625 493.640625 C262.16628906 494.80335938 262.20367187 495.96609375 262.2421875 497.1640625 C262.25378906 498.29070312 262.26539063 499.41734375 262.27734375 500.578125 C262.29716309 501.59777344 262.31698242 502.61742187 262.33740234 503.66796875 C261.54818706 507.68867389 260.10429668 510.31605887 256.75390625 512.640625 C252.65339898 513.55327167 248.60363501 513.44535452 244.41748047 513.39579773 C243.15083494 513.40445211 241.88418941 513.41310649 240.57916069 513.42202312 C237.06528353 513.44514314 233.55240338 513.43081206 230.03854656 513.41031396 C226.24839942 513.39469259 222.45840359 513.41360111 218.66827393 513.42811584 C211.2442421 513.45095632 203.82058648 513.4414556 196.3965621 513.42061498 C190.36361047 513.40433896 184.33076159 513.40012944 178.29779053 513.40458107 C177.43954961 513.40521175 176.58130869 513.40584242 175.69706047 513.40649221 C173.95362677 513.40783825 172.21019309 513.40921782 170.46675944 513.41063056 C154.11384029 513.42257106 137.7611275 513.39849177 121.40825534 513.36161248 C107.37300857 513.33071897 93.33799942 513.32834801 79.30273438 513.34741211 C63.00885177 513.36951857 46.7151024 513.37567356 30.42121315 513.35508949 C28.68414944 513.35292652 26.94708572 513.35077742 25.21002197 513.34864235 C23.92797845 513.3470428 23.92797845 513.3470428 22.62003505 513.34541094 C16.59348757 513.33893817 10.56700858 513.34371092 4.54046631 513.35266685 C-2.80272861 513.36319686 -10.14564475 513.35571986 -17.48878813 513.32521107 C-21.23632788 513.31007055 -24.98342739 513.3029337 -28.73097992 513.31740189 C-32.79094711 513.33279384 -36.84976347 513.30953458 -40.90966797 513.28227234 C-42.09788713 513.29274383 -43.2861063 513.30321532 -44.51033211 513.31400412 C-53.37348922 513.20263249 -53.37348922 513.20263249 -56.45462036 510.22552204 C-62.34208875 501.73055934 -59.62888152 485.62485164 -58 475.8515625 C-54.52744641 461.06172284 -46.53555666 451.26278289 -35.24609375 441.640625 C-36.7519503 438.45175231 -38.55325731 435.5811342 -40.49609375 432.640625 C-56.56035484 407.31108469 -60.44026357 376.24424599 -54.28515625 346.92578125 C-48.35843247 321.62232336 -38.44381105 298.70302159 -23.24609375 277.640625 C-20.81275991 273.99062424 -20.98076202 272.18226804 -20.9375 267.83203125 C-20.91493216 266.44099176 -20.89188255 265.04996003 -20.8684082 263.65893555 C-20.85470688 262.56758804 -20.85470688 262.56758804 -20.84072876 261.45419312 C-20.5365718 240.14789696 -19.45950342 217.14224714 -9.34765625 197.8359375 C-6.25412664 191.87852895 -4.61939138 188.0160941 -6.52514648 181.53515625 C-7.46831058 178.81138266 -8.49910655 176.13011201 -9.56835938 173.45361328 C-14.05128223 161.46147167 -13.3960346 147.10234132 -13.40722656 134.52197266 C-13.41186859 133.15064362 -13.41689504 131.77931585 -13.42227173 130.4079895 C-13.43524886 126.72246478 -13.44180938 123.03695813 -13.44628239 119.3514142 C-13.44923196 117.04435649 -13.45333972 114.73730354 -13.45778656 112.43024826 C-13.47141134 105.1975805 -13.4811072 97.96492383 -13.48498845 90.73224413 C-13.48948265 82.40669883 -13.50711435 74.08131659 -13.53598905 65.75582087 C-13.55760562 59.29778575 -13.56769241 52.83979658 -13.56902957 46.38172567 C-13.57007592 42.53297002 -13.57594966 38.68436873 -13.59384918 34.8356514 C-13.61033365 31.22233635 -13.61248376 27.60929187 -13.60371017 23.99595261 C-13.60257427 22.04342428 -13.61628124 20.09090489 -13.63046265 18.13842773 C-13.57846809 7.22549477 -13.57846809 7.22549477 -10.24609375 2.640625 C-6.57472258 0.19304422 -4.34310858 -0.07586216 0 0 Z " fill="#000001" transform="translate(68.24609375,-0.640625)"/>
<path d="M0 0 C3.2268251 3.12273396 6.22326745 6.37582039 9.1875 9.75 C23.98280723 26.17571115 42.72754176 37.85117265 64 44 C64.72832031 44.21398437 65.45664063 44.42796875 66.20703125 44.6484375 C86.69794906 50.22584708 112.27454877 48.81973245 132 41 C132.9075 40.65195313 133.815 40.30390625 134.75 39.9453125 C156.0884344 31.44328004 173.37252216 18.53512259 187 0 C196.45732262 9.45732262 196.30212934 33.31315048 196.375 45.6875 C196.27063784 63.54516999 193.88592096 80.83709218 189 98 C188.67644531 99.24523437 188.35289062 100.49046875 188.01953125 101.7734375 C182.3828116 122.89993654 173.19329055 142.99119168 163.9296875 162.7265625 C146.75039712 197.26707718 146.75039712 197.26707718 143 235 C144.37252707 238.11937969 144.979543 239.4897715 148 241 C150.12445026 241.07900848 152.24965193 241.13823697 154.375 241.1875 C162.69001223 241.75094025 170.02757609 243.97347693 176.0078125 250.03515625 C184.26707298 260.70835517 182 265.6224167 182 282 C156.26 282 130.52 282 104 282 C104 232.83 104 183.66 104 133 C109.28 131.02 114.56 129.04 120 127 C128.2391861 122.31757038 128.2391861 122.31757038 133.6875 114.9140625 C134.2722577 110.63071238 134.44301287 108.70024615 132.0625 104.9375 C128.99295097 102.99554041 126.88924282 102.15533627 123.23046875 102.375 C119.44877238 103.43466974 116.66362921 105.84643739 113.5546875 108.17578125 C105.32412169 114.05295898 96.95531085 115.12140283 87 114 C80.62725261 112.43753576 75.65764718 109.36838245 70.59375 105.26953125 C67.51737282 102.8189857 64.8903001 102.64898436 60.9765625 102.734375 C58.81179557 102.8983299 58.81179557 102.8983299 56.5 104.4375 C54.2541922 108.27408833 54.13386288 111.66931441 55 116 C56.82718148 118.83200792 56.82718148 118.83200792 60 121 C60.68191406 121.55429687 61.36382812 122.10859375 62.06640625 122.6796875 C69.30612361 128.23769128 74.76176585 129.70063066 84 133 C84 182.17 84 231.34 84 282 C57.93 282 31.86 282 5 282 C5 257.06060606 5 257.06060606 12.93359375 249.046875 C14.88355895 247.48082108 16.82040468 246.2209173 19 245 C20.03125 244.401875 21.0625 243.80375 22.125 243.1875 C26.76053458 241.32683299 31.86634928 241.53435278 36.79296875 241.40625 C40.21323574 240.97298841 41.60118662 240.42743884 44 238 C51.85987798 214.42036605 33.27939768 182.87718878 23.64453125 162.5 C11.44646462 136.53926912 0.52366832 109.81006723 -5.25 81.625 C-5.41346924 80.82860107 -5.57693848 80.03220215 -5.74536133 79.21166992 C-10.51041289 54.64433477 -11.48228632 22.96457263 0 0 Z " fill="#858DAE" transform="translate(76,210)"/>
<path d="M0 0 C2.98443584 1.76074223 5.66374967 3.41531229 8.1640625 5.8203125 C8.72295166 6.35084229 9.28184082 6.88137207 9.85766602 7.42797852 C10.73249634 8.26800415 10.73249634 8.26800415 11.625 9.125 C16.64858785 13.87530257 21.78850613 18.34495363 27.19140625 22.6640625 C31.15982751 25.96464096 34.91931034 29.47575891 38.67407227 33.01586914 C43.89073484 38.0839375 43.89073484 38.0839375 50.79296875 39.390625 C54.72435847 38.69480381 58.23692379 36.91417822 61.87109375 35.30859375 C81.55246409 27.07730903 106.40786127 27.43032884 126.07836914 35.35693359 C127.95098783 36.14082049 129.80630311 36.96567924 131.66015625 37.79296875 C135.17722229 39.06404876 137.30666984 39.53462548 141 39 C145.49336971 36.50822225 149.15852762 33.19858517 152.875 29.6875 C153.93692066 28.69989753 154.99942004 27.71291696 156.0625 26.7265625 C156.57039062 26.25379883 157.07828125 25.78103516 157.6015625 25.29394531 C160.66979663 22.45497169 163.83156266 19.72594868 167 17 C167.52916016 16.54447754 168.05832031 16.08895508 168.60351562 15.61962891 C172.7281205 12.07089099 176.85567423 8.52569755 181 5 C181.57073242 4.51176758 182.14146484 4.02353516 182.72949219 3.52050781 C186.88423645 0 186.88423645 0 188 0 C188.07037244 15.51734331 188.12312551 31.03467452 188.15543652 46.55214024 C188.17084409 53.75869168 188.19181522 60.96514344 188.22631836 68.17163086 C188.25640947 74.45964966 188.27561928 80.74759619 188.28226548 87.035685 C188.28614479 90.35903926 188.29675433 93.68202461 188.31719017 97.00534248 C188.5105736 129.77791177 182.0261853 155.11150723 158.9375 179.5 C145.88990427 192.22365542 130.51949279 199.36150572 113 204 C112.42499756 204.17128418 111.84999512 204.34256836 111.25756836 204.51904297 C96.49287544 207.66454368 78.15566491 206.1974049 64 201 C62.79730469 200.56429687 61.59460938 200.12859375 60.35546875 199.6796875 C47.79802585 194.70024644 37.70641183 187.27794543 28 178 C27.31292969 177.38769531 26.62585938 176.77539062 25.91796875 176.14453125 C10.48656083 161.869718 1.09858789 138.80889814 -0.18098831 118.06604958 C-0.2437024 114.92355863 -0.24774904 111.78684636 -0.22705078 108.64379883 C-0.22734283 107.4620105 -0.22763489 106.28022217 -0.22793579 105.06262207 C-0.22655322 101.19401457 -0.21104269 97.32560471 -0.1953125 93.45703125 C-0.19046 90.75990406 -0.18863488 88.06277704 -0.18673706 85.36564636 C-0.18054987 79.01589629 -0.16417693 72.66621604 -0.14403808 66.31649655 C-0.12159251 59.08059699 -0.110664 51.84469388 -0.10064721 44.60876811 C-0.07980786 29.73914 -0.0446863 14.86957702 0 0 Z " fill="#9CA4BD" transform="translate(76,33)"/>
<path d="M0 0 C4.47916667 3.58333333 4.47916667 3.58333333 5.8125 6.25 C6.2210132 10.53938857 6.29275674 13.11254983 4.625 17.0625 C1.3443043 21.02196033 -2.9617302 22.62231065 -7.6875 24.375 C-25.27928421 31.61102946 -36.76210697 44.60453519 -44.3203125 61.83203125 C-47.46456037 70.54739792 -47.39022921 79.84128405 -47.4375 89 C-47.458125 90.01449219 -47.47875 91.02898437 -47.5 92.07421875 C-47.70367794 99.26420034 -47.70367794 99.26420034 -44.1875 105.25 C-42.2075 105.91 -40.2275 106.57 -38.1875 107.25 C-38.1875 114.84 -38.1875 122.43 -38.1875 130.25 C-36.2075 130.58 -34.2275 130.91 -32.1875 131.25 C-29.60265745 133.42670951 -28.41697517 135.06616546 -27.76953125 138.40625 C-27.50642673 142.67280979 -27.79235079 144.6921423 -30.3125 148.25 C-33.40742454 150.40299098 -35.45959179 150.98991338 -39.1875 151.25 C-39.21328125 151.90484375 -39.2390625 152.5596875 -39.265625 153.234375 C-39.73222638 160.74241544 -41.55136583 167.22439592 -44.1875 174.25 C-44.77917969 174.19199219 -45.37085938 174.13398438 -45.98046875 174.07421875 C-46.77066406 174.02910156 -47.56085938 173.98398437 -48.375 173.9375 C-49.15230469 173.87949219 -49.92960937 173.82148438 -50.73046875 173.76171875 C-54.41540142 174.49401857 -55.78441958 176.4235197 -58.1875 179.25 C-59.64595023 181.44173411 -61.02554276 183.62050262 -62.375 185.875 C-73.75532116 204.10365601 -92.05342195 218.14515023 -113.1875 223.25 C-114.30769531 223.52585937 -115.42789063 223.80171875 -116.58203125 224.0859375 C-127.45847211 226.5359113 -138.0828655 226.55719788 -149.1875 226.25 C-150.5885918 223.44781639 -150.76242626 220.72670997 -151.1875 217.625 C-151.3525 216.43648437 -151.5175 215.24796875 -151.6875 214.0234375 C-152.20722688 210.10112372 -152.70208141 206.17668964 -153.1875 202.25 C-152.50872803 202.2406543 -151.82995605 202.23130859 -151.13061523 202.22167969 C-128.8803042 201.83750166 -108.03728163 199.60328714 -91.1875 183.25 C-77.45500185 167.68344533 -72.71680031 150.33723121 -72.80737495 129.95528221 C-72.81669279 127.65988152 -72.80603235 125.36526274 -72.79075623 123.06990051 C-72.75122141 116.55499103 -72.74943912 110.04015632 -72.75170898 103.52514648 C-72.75176077 99.50820905 -72.73226753 95.49169805 -72.70237541 91.47487831 C-72.69178569 89.24776792 -72.70353383 87.02155763 -72.71620178 84.79447937 C-72.65445441 60.18272016 -63.46518472 38.5444481 -46.60546875 20.58203125 C-37.25072908 11.55977021 -13.5738892 -7.45233132 0 0 Z " fill="#9BA3BC" transform="translate(476.1875,136.75)"/>
<path d="M0 0 C0.66 0.33 1.32 0.66 2 1 C2.73291016 3.34033203 2.73291016 3.34033203 3.4140625 6.3828125 C9.88963862 33.78072444 22.30309596 59.26200969 34.27581787 84.59341431 C37.87780701 92.23114191 41.33125247 99.88342309 44.25 107.8125 C44.51345215 108.52817139 44.7769043 109.24384277 45.04833984 109.98120117 C47.23363888 116.19122897 49 122.39024127 49 129 C48.34515625 129.13535156 47.6903125 129.27070313 47.015625 129.41015625 C35.10545278 132.21947653 25.05733723 137.82357176 18 148 C12.088139 158.00265768 9.77662536 167.02607741 9.375 178.5 C9.25125 181.635 9.1275 184.77 9 188 C-1.23 188 -11.46 188 -22 188 C-22 176.59694433 -20.84482249 167.57700593 -13 159 C-10.42850042 156.54930913 -7.71960879 154.28353359 -5 152 C-3.18039285 150.40389951 -1.36799383 148.79954807 0.4375 147.1875 C1.28183594 146.43855469 2.12617187 145.68960938 2.99609375 144.91796875 C5.66623155 142.36233979 5.95192529 141.26441092 6.625 137.5625 C6.5773258 130.9953793 1.1312166 126.59928547 -3 122 C-18.29604598 104.03321583 -21.50812081 80.76508363 -20 58 C-18.11564896 41.21598862 -12.35870781 12.35870781 0 0 Z " fill="#9BA3BC" transform="translate(52,304)"/>
<path d="M0 0 C3 1 3 1 4.796875 4.078125 C5.46334237 5.46142337 6.11316956 6.85280992 6.75 8.25 C7.09635498 9.00651855 7.44270996 9.76303711 7.79956055 10.54248047 C19.58507041 36.97059349 27.65055236 70.85513848 17 99 C13.01670733 108.77194604 7.95762746 117.04024513 1 125 C-3.41000577 130.02123924 -3.41000577 130.02123924 -5.5 136.1875 C-4.97944804 139.11560477 -4.44743471 141.39461753 -3 144 C-1.67183831 144.67691119 -0.33767372 145.34208569 1 146 C10.08970819 153.14494408 20.05318668 161.42600297 23 173 C23.1959375 173.73863281 23.391875 174.47726562 23.59375 175.23828125 C24.164668 179.11942571 24 183.07708913 24 187 C13.44 187 2.88 187 -8 187 C-8.3125 176.125 -8.3125 176.125 -8.38793945 172.76220703 C-8.86531748 159.65812204 -12.98093125 148.36829628 -22.6875 139.1875 C-29.76089901 133.47384177 -38.10244977 129.71106735 -47 128 C-46.57835649 111.70922816 -38.42230248 96.99944108 -31.66552734 82.5625 C-12.6855282 42.42729062 -12.6855282 42.42729062 0 0 Z " fill="#9BA3BB" transform="translate(286,305)"/>
<path d="M0 0 C3.50165855 2.5881824 4.77470816 4.27111465 6.0625 8.4375 C5.96874752 13.78139164 3.43042074 16.3116837 0.13671875 20.19921875 C-0.50652344 20.97910156 -1.14976562 21.75898438 -1.8125 22.5625 C-2.43769531 23.28566406 -3.06289062 24.00882813 -3.70703125 24.75390625 C-5.25619977 26.95643967 -5.25619977 26.95643967 -4.79296875 29.671875 C-3.73569593 32.77598633 -2.9151985 33.46952079 0 35 C1.49388863 35.34051873 2.99494136 35.65035065 4.5 35.9375 C7.34898297 36.52888691 9.04320582 37.02634501 11.5625 38.5625 C13.76698303 42.30053644 13.89510154 45.78023561 13 50 C10.5246037 53.12681638 8.27693622 55.7006614 4.1875 56.23828125 C-2.20052526 56.45501782 -7.33019132 54.9367251 -13 52 C-13.66 51.34 -14.32 50.68 -15 50 C-20.6163177 50.34038289 -26.03506886 53.51753443 -31 56 C-35.55414548 56.63758037 -39.66200286 56.77602706 -43.5 54 C-46.19606611 50.76472067 -46.95111316 49.03569061 -47.17578125 44.9296875 C-46.90838929 41.99431804 -45.85267389 40.24967544 -44 38 C-40.61973078 35.74648719 -38.08482771 35.33456209 -34.15625 34.66015625 C-31.59201856 33.87509264 -30.48540817 33.24316707 -29 31 C-29.06401709 26.28674142 -31.67968935 23.40482606 -34.5 19.8125 C-40.68076594 11.89997147 -40.68076594 11.89997147 -40 6 C-37.63322884 1.73981191 -37.63322884 1.73981191 -35 0 C-31.43606327 -1.01138745 -28.55833818 -1.04754816 -25 0 C-22.74104209 1.87419035 -21.10876337 3.78925762 -19.375 6.15234375 C-18.12083922 8.12730867 -18.12083922 8.12730867 -16 9 C-15.773125 8.443125 -15.54625 7.88625 -15.3125 7.3125 C-11.40762902 0.43248923 -7.5866628 -1.80022507 0 0 Z " fill="#020203" transform="translate(187,146)"/>
<path d="M0 0 C2.2112061 4.08222665 2.57216559 7.45360519 1.625 12 C-0.7683321 15.37882179 -2.40778722 16.67073608 -6.3125 18 C-10.18545073 18 -12.16097162 17.14268559 -15.375 15 C-17.56053732 12.30450398 -18.29365919 10.47787726 -18.875 7.0625 C-18.18281859 2.82288884 -16.44871479 0.93710525 -13.375 -2 C-8.55814915 -3.85263494 -3.96325001 -3.3374737 0 0 Z " fill="#010101" transform="translate(446.375,270)"/>
<path d="M0 0 C3.64051176 0.81120099 5.09653944 2.45526886 7.15625 5.48046875 C8.2910641 9.45231809 8.59348824 11.49668272 6.90625 15.29296875 C4.91636892 17.78032009 3.25472284 19.26653396 0.0703125 19.88671875 C-4.4766094 20.07294081 -6.25740613 19.95911681 -9.90625 16.98046875 C-12.55940523 13.07006924 -12.57676898 10.0984883 -11.84375 5.48046875 C-8.69025092 0.59763146 -5.54911362 -0.34219534 0 0 Z " fill="#040404" transform="translate(132.84375,111.51953125)"/>
<path d="M0 0 C2.8100346 1.79363911 4.50940468 3.01880935 6 6 C6.50761671 10.39934481 6.25800237 12.54225386 4.0625 16.4375 C0.48106205 19.43421338 -1.29669582 19.84907564 -5.84375 19.515625 C-9.46739079 18.6491022 -10.93805301 17.02848464 -13 14 C-14.0625 10.5625 -14.0625 10.5625 -14 7 C-10.50783138 0.4973412 -7.3180641 -1.05144599 0 0 Z " fill="#030304" transform="translate(211,112)"/>
</svg>
