<?xml version="1.0" encoding="UTF-8"?>
<svg version="1.1" xmlns="http://www.w3.org/2000/svg" width="512" height="512">
<path d="M0 0 C6.41641158 5.00719969 8.50615872 10.05322704 10.69140625 17.83984375 C15.34039325 34.26873406 23.88878556 46.20184485 35.671875 58.3046875 C36.50477051 59.16827881 36.50477051 59.16827881 37.35449219 60.04931641 C44.02951745 66.95007618 50.75939174 73.56144102 58.359375 79.44921875 C60.671875 81.3046875 60.671875 81.3046875 62.296875 83.06640625 C63.77298165 84.80969892 63.77298165 84.80969892 66.671875 86.3046875 C70.53843019 85.8501459 74.0269633 84.63494724 77.671875 83.3046875 C82.53529869 81.76460333 86.55770281 80.65379286 91.671875 81.3046875 C94.17366039 82.73742803 95.63720518 84.17076549 97.671875 86.3046875 C97.671875 87.2946875 97.671875 88.2846875 97.671875 89.3046875 C98.826875 88.9953125 99.981875 88.6859375 101.171875 88.3671875 C108.37848233 86.58136741 115.28216282 86.15073516 122.671875 86.3046875 C122.56875 85.5828125 122.465625 84.8609375 122.359375 84.1171875 C122.671875 81.3046875 122.671875 81.3046875 124.546875 78.4921875 C128.36189726 75.82167192 130.71836407 75.57763842 135.2890625 75.81640625 C139.02219611 76.58139264 140.59487043 78.18918064 142.671875 81.3046875 C142.984375 84.1171875 142.984375 84.1171875 142.671875 86.3046875 C143.868125 86.2634375 145.064375 86.2221875 146.296875 86.1796875 C153.01018815 86.16898046 161.60439568 86.27094784 167.671875 89.3046875 C167.73375 88.7271875 167.795625 88.1496875 167.859375 87.5546875 C169.05526514 84.24299172 170.68831059 83.12077019 173.671875 81.3046875 C180.09853905 80.7499816 185.06090327 82.54077263 190.97460938 84.703125 C194.8527556 86.09341375 194.8527556 86.09341375 198.84765625 85.69921875 C199.44964844 85.23902344 200.05164063 84.77882813 200.671875 84.3046875 C201.455625 83.71816406 202.239375 83.13164063 203.046875 82.52734375 C210.14475016 76.68638398 217.00253349 70.63020707 223.671875 64.3046875 C224.24373535 63.76682617 224.8155957 63.22896484 225.40478516 62.67480469 C239.137412 49.68154038 250.0524947 36.35205367 254.609375 17.6171875 C256.56130792 9.90352488 259.29352262 4.49423979 265.859375 -0.1328125 C272.66378376 -3.91303959 281.10233911 -3.97328638 288.53515625 -1.89453125 C299.5713314 3.10006746 304.85133765 12.33949241 309.13671875 23.1328125 C320.25480759 52.66289272 319.06843262 86.33599082 306.859375 115.3671875 C306.44042969 116.28628906 306.02148438 117.20539063 305.58984375 118.15234375 C304.54110604 120.22131142 304.54110604 120.22131142 304.671875 122.3046875 C305.30053467 122.59077881 305.92919434 122.87687012 306.5769043 123.17163086 C318.63943869 128.6981318 330.18416521 134.08220535 340.671875 142.3046875 C341.64253906 143.05621094 342.61320312 143.80773437 343.61328125 144.58203125 C363.93151447 160.75368626 376.99704411 181.44743406 386.671875 205.3046875 C387.05472656 206.17609375 387.43757813 207.0475 387.83203125 207.9453125 C389.29777848 212.0630396 389.31035693 216.00557587 388.671875 220.3046875 C385.55691627 225.61165422 380.24483506 226.8472893 374.5859375 228.390625 C373.28297812 228.70261985 371.97819332 229.00706966 370.671875 229.3046875 C369.67752441 229.53333496 369.67752441 229.53333496 368.66308594 229.76660156 C357.05379843 232.2748144 345.37833966 232.61524012 333.546875 232.6796875 C332.84478912 232.68754272 332.14270325 232.69539795 331.41934204 232.70349121 C320.23791536 232.80079909 309.6437098 231.41447089 298.671875 229.3046875 C298.69282227 230.26318604 298.71376953 231.22168457 298.73535156 232.20922852 C299.29784062 260.59599804 297.65663828 287.5364424 290.51513672 315.19995117 C290.13446045 316.69425659 290.13446045 316.69425659 289.74609375 318.21875 C289.51494873 319.0845166 289.28380371 319.9502832 289.0456543 320.84228516 C288.42260141 324.94686477 289.11710946 327.51658709 291.4921875 330.890625 C292.25273437 331.81101562 293.01328125 332.73140625 293.796875 333.6796875 C309.72441803 354.01969798 311.99246534 378.94886146 309.390625 404.01416016 C306.37295568 424.84207953 293.58267244 444.42068368 276.98461914 456.96337891 C241.19135772 483.11557633 193.20840141 489.34822658 149.9296875 489.5078125 C148.6549205 489.51478149 147.3801535 489.52175049 146.0667572 489.52893066 C141.97679211 489.54820253 137.88688056 489.55310543 133.796875 489.5546875 C133.10170147 489.55527664 132.40652794 489.55586578 131.69028854 489.55647278 C111.2090579 489.56873639 90.96914904 489.363315 70.671875 486.3046875 C69.13805176 486.0878833 69.13805176 486.0878833 67.57324219 485.86669922 C33.43283591 480.95609284 -5.45697181 470.08443137 -27.53515625 441.44140625 C-43.74770051 419.37330029 -47.59911293 394.11272067 -43.703125 367.22265625 C-41.18332454 353.67797345 -34.46636539 341.28860658 -25.89453125 330.63671875 C-23.70745736 327.38065114 -23.11446863 324.72129481 -23.7019043 320.82641602 C-23.93304932 319.95428467 -24.16419434 319.08215332 -24.40234375 318.18359375 C-24.65612793 317.18231445 -24.90991211 316.18103516 -25.17138672 315.14941406 C-25.44998535 314.0662793 -25.72858398 312.98314453 -26.015625 311.8671875 C-32.65761212 284.22132167 -33.92365959 257.5650944 -33.328125 229.3046875 C-34.43172363 229.51689941 -35.53532227 229.72911133 -36.67236328 229.94775391 C-47.26821693 231.90117451 -57.43971243 232.80011297 -68.203125 232.6796875 C-68.93526215 232.67569946 -69.66739929 232.67171143 -70.42172241 232.66760254 C-82.23039363 232.59254437 -93.78693226 231.95854465 -105.328125 229.3046875 C-105.98586914 229.15483398 -106.64361328 229.00498047 -107.32128906 228.85058594 C-112.57203336 227.59329028 -117.08867595 226.09980576 -121.640625 223.1796875 C-124.13442052 218.93099884 -123.86172774 215.13398425 -123.328125 210.3046875 C-122.31863982 206.72656644 -120.88436355 203.42622293 -119.328125 200.0546875 C-118.91949219 199.14082275 -118.51085937 198.22695801 -118.08984375 197.28540039 C-101.54259613 160.90899169 -75.18320101 138.43947171 -39.328125 122.3046875 C-40.72474964 118.08241764 -42.13013085 113.86607334 -43.609375 109.671875 C-54.39414833 78.76935141 -54.48249092 44.89531539 -40.30859375 14.98828125 C-36.51249786 7.56594997 -30.91060913 0.80547113 -22.9140625 -2.140625 C-15.35006044 -3.76311487 -6.77798898 -4.20003591 0 0 Z " fill="#010101" transform="translate(123.328125,12.6953125)"/>
<path d="M0 0 C1.70767296 -0.01052147 1.70767296 -0.01052147 3.44984436 -0.02125549 C7.10592656 -0.03866 10.76184663 -0.04510818 14.41796875 -0.046875 C15.66846008 -0.04754974 16.91895142 -0.04822449 18.20733643 -0.04891968 C60.11096522 -0.01301283 110.31737717 1.3865304 145.60546875 27.203125 C146.98992187 28.20279297 146.98992187 28.20279297 148.40234375 29.22265625 C158.71567448 37.12859348 166.15228528 46.97869977 170.60546875 59.203125 C170.92386719 60.04359375 171.24226563 60.8840625 171.5703125 61.75 C173.74212045 68.67576545 173.91313081 75.56679603 173.98046875 82.765625 C173.99440674 83.72307617 174.00834473 84.68052734 174.02270508 85.66699219 C173.97710429 92.58646796 172.72987088 98.63250075 170.60546875 105.203125 C170.26386719 106.27304687 169.92226563 107.34296875 169.5703125 108.4453125 C162.44158245 126.71437734 147.72740191 139.30819811 130.16796875 147.296875 C106.08442962 157.62451367 80.65722772 162.50032901 54.60546875 164.203125 C53.4438623 164.28771973 53.4438623 164.28771973 52.25878906 164.37402344 C23.72507599 166.39252386 -5.99238228 166.7312422 -34.39453125 163.203125 C-35.29703613 163.09597168 -36.19954102 162.98881836 -37.12939453 162.87841797 C-65.72680036 159.41405228 -94.46534753 152.49233899 -117.39453125 134.203125 C-118.02488281 133.74808594 -118.65523437 133.29304687 -119.3046875 132.82421875 C-131.3793172 123.61009358 -138.22372371 107.81989579 -140.39453125 93.203125 C-142.14937871 72.41389018 -138.50779654 54.059862 -124.83203125 37.7421875 C-107.67915984 19.87461312 -84.11341313 11.68484697 -60.41113281 6.64038086 C-59.04009125 6.34310054 -57.67223234 6.03083119 -56.30761719 5.70532227 C-50.13181671 4.24856969 -43.94055127 3.39952027 -37.64453125 2.640625 C-36.649375 2.51494141 -35.65421875 2.38925781 -34.62890625 2.25976562 C-23.0950714 0.84033105 -11.62075899 0.04836051 0 0 Z " fill="#FE9DB0" transform="translate(239.39453125,316.796875)"/>
<path d="M0 0 C9.87015958 5.13392916 17.8226565 11.54395368 26 19 C27.12728516 20.00160156 27.12728516 20.00160156 28.27734375 21.0234375 C53.18460809 44.35171371 65.59450994 81.32768165 67.17700195 114.73681641 C67.24512427 119.03313596 67.29888069 123.32816243 67.3125 127.625 C67.31511841 128.4146817 67.31773682 129.2043634 67.32043457 130.01797485 C67.33710672 177.32578657 67.33710672 177.32578657 58 196 C54.47733184 194.66891546 51.14842893 193.08072079 47.78808594 191.38574219 C29.56066779 182.34627032 10.0279017 177.13500965 -10 174 C-11.0813623 173.82484863 -12.16272461 173.64969727 -13.27685547 173.46923828 C-16.78678041 172.90359943 -20.29881484 172.35426837 -23.8125 171.8125 C-24.88483887 171.64524414 -25.95717773 171.47798828 -27.06201172 171.30566406 C-42.89797804 168.96727354 -58.70292779 168.81352071 -74.67822266 168.81469727 C-77.96660543 168.81252209 -81.25464541 168.79432861 -84.54296875 168.77539062 C-126.9686595 168.66312659 -173.29507909 172.95607808 -210.82421875 194.27734375 C-214 196 -214 196 -216 196 C-218.58027507 189.14300803 -219.97063176 182.35611515 -221.0625 175.125 C-221.23168945 174.02075684 -221.40087891 172.91651367 -221.57519531 171.77880859 C-222.06476617 168.52113433 -222.53664885 165.26149733 -223 162 C-223.1844165 160.72576172 -223.1844165 160.72576172 -223.37255859 159.42578125 C-225.39503712 144.98727983 -225.21216885 130.55315137 -225 116 C-223.44539063 116.52400391 -223.44539063 116.52400391 -221.859375 117.05859375 C-220.48961023 117.51830932 -219.11981707 117.9779403 -217.75 118.4375 C-217.06808594 118.66759766 -216.38617188 118.89769531 -215.68359375 119.13476562 C-207.8773484 121.74947887 -201.48150781 122.18296723 -193.25 122.1875 C-191.5175 122.20586914 -191.5175 122.20586914 -189.75 122.22460938 C-175.06538776 122.24975426 -160.92175685 118.19225019 -150 108 C-149.32453125 107.40058594 -148.6490625 106.80117187 -147.953125 106.18359375 C-142.4901213 100.77352613 -139.86477964 94.63978915 -136.93164062 87.67358398 C-132.13528755 76.37647633 -125.62011649 66.90627141 -114 62 C-105.83572549 59.40642734 -96.40375818 60.28051741 -88.4375 63 C-74.73855521 67.36935696 -58.62788786 66.16595087 -45 62 C-43.9171875 61.67128906 -42.834375 61.34257812 -41.71875 61.00390625 C-24.95337802 55.23581994 -13.80930695 44.78527594 -6 29 C-5.4225 27.845 -4.845 26.69 -4.25 25.5 C-1.32193548 17.30141935 -0.63459459 8.63382645 0 0 Z " fill="#E6E8EE" transform="translate(335,129)"/>
<path d="M0 0 C3.73313361 0.76498639 5.30580793 2.37277439 7.3828125 5.48828125 C7.6953125 8.30078125 7.6953125 8.30078125 7.3828125 10.48828125 C8.5790625 10.44703125 9.7753125 10.40578125 11.0078125 10.36328125 C17.72112565 10.35257421 26.31533318 10.45454159 32.3828125 13.48828125 C32.86410094 15.4776068 33.34054293 17.46973652 33.72265625 19.48046875 C34.56525096 22.04315327 35.18123045 22.89157831 37.3828125 24.48828125 C40.05326513 25.44161021 42.66102167 26.28315875 45.3828125 27.05078125 C53.01748803 29.2447316 53.01748803 29.2447316 56.3828125 31.48828125 C57.07408367 34.51862113 56.9051779 37.63855008 56.8828125 40.73828125 C56.87709229 41.63909424 56.87137207 42.53990723 56.86547852 43.46801758 C56.5784311 54.32652849 53.65161541 64.13106115 46.45703125 72.52734375 C33.82786378 84.46678268 19.04647025 86.96922624 2.40234375 86.7890625 C-1.71704787 86.64016883 -5.10819341 85.94413599 -8.9921875 84.48828125 C-20.00110807 80.49540851 -35.56856232 80.30863999 -46.3125 85.234375 C-47.45332031 85.85505859 -47.45332031 85.85505859 -48.6171875 86.48828125 C-49.88175781 87.12443359 -49.88175781 87.12443359 -51.171875 87.7734375 C-64.94409237 95.28745883 -72.6414779 107.49092683 -78.1171875 121.80078125 C-81.74366126 130.83684544 -87.30437459 136.48127338 -96.125 140.515625 C-96.94742188 140.83660156 -97.76984375 141.15757812 -98.6171875 141.48828125 C-99.92429687 142.03548828 -99.92429687 142.03548828 -101.2578125 142.59375 C-105.93959875 143.84041169 -110.41552572 143.8714558 -115.2421875 143.86328125 C-116.2226001 143.86166992 -117.2030127 143.86005859 -118.21313477 143.85839844 C-128.5978752 143.68289624 -136.87583088 141.05096273 -145.6171875 135.48828125 C-145.91100534 129.68924494 -144.92839494 124.90007361 -143.2421875 119.36328125 C-142.97962158 118.50017334 -142.71705566 117.63706543 -142.4465332 116.74780273 C-137.58838382 101.52578426 -130.49733677 87.07351312 -120.6171875 74.48828125 C-120.19324707 73.94768066 -119.76930664 73.40708008 -119.33251953 72.85009766 C-107.01858424 57.3148333 -92.46701677 45.93234201 -74.9921875 36.67578125 C-74.13383301 36.21953369 -73.27547852 35.76328613 -72.39111328 35.29321289 C-64.49308994 31.21179009 -56.38464941 27.94885565 -47.6796875 26.05078125 C-44.19986794 25.12746251 -42.75079062 24.60597924 -39.9921875 22.17578125 C-38.48751369 19.2348279 -37.92216578 16.76679778 -37.6171875 13.48828125 C-29.20008329 11.23369976 -21.31395198 10.30709866 -12.6171875 10.48828125 C-12.7203125 9.76640625 -12.8234375 9.04453125 -12.9296875 8.30078125 C-12.6171875 5.48828125 -12.6171875 5.48828125 -10.7421875 2.67578125 C-6.92716524 0.00526567 -4.57069843 -0.23876783 0 0 Z " fill="#858FAE" transform="translate(258.6171875,88.51171875)"/>
<path d="M0 0 C2.75 0 2.75 0 6 1 C19.32572129 15.30077407 19.7349577 38.16929574 19.34765625 56.515625 C19.02593157 64.51838231 17.62427671 71.4296566 15 79 C14.79101074 79.64936523 14.58202148 80.29873047 14.36669922 80.96777344 C9.60895131 95.74352088 1.96025298 109.85437276 -9 121 C-9.66 121 -10.32 121 -11 121 C-12.16050642 119.65064476 -13.25156471 118.24146852 -14.3125 116.8125 C-26.422351 101.39204225 -41.35505954 90.13922569 -58 80 C-54.48493302 76.43995045 -50.88342142 72.99756559 -47.1875 69.625 C-46.66196533 69.14313232 -46.13643066 68.66126465 -45.5949707 68.16479492 C-42.67020442 65.49163106 -39.70747485 62.87829894 -36.6875 60.3125 C-32.71798925 56.84731234 -29.33827637 53.07058601 -26 49 C-25.5884668 48.50612793 -25.17693359 48.01225586 -24.75292969 47.50341797 C-13.04478977 33.39371655 -4.80026481 19.12433987 -1 1 C-0.67 0.67 -0.34 0.34 0 0 Z " fill="#FCD88D" transform="translate(400,30)"/>
<path d="M0 0 C0.15855469 0.64324219 0.31710938 1.28648438 0.48046875 1.94921875 C5.27407145 20.5144977 13.47497675 34.64050364 26 49 C26.82757813 49.95003906 27.65515625 50.90007812 28.5078125 51.87890625 C32.74624995 56.64228778 37.04282597 61.13157832 41.91796875 65.2421875 C44.42882688 67.36204896 46.87020163 69.55157802 49.3125 71.75 C50.13363281 72.48734375 50.95476562 73.2246875 51.80078125 73.984375 C53.5828654 75.61768836 55.29872324 77.28439605 57 79 C56.51233154 79.31638428 56.02466309 79.63276855 55.5222168 79.95874023 C43.16673727 88.00413492 31.65135875 96.24967354 21.125 106.625 C20.32098755 107.4147522 20.32098755 107.4147522 19.50073242 108.22045898 C15.86914783 111.88282455 12.90815515 115.73971367 10 120 C0.31043953 116.31085542 -6.03322302 102.11865628 -10.1796875 93.17578125 C-21.22327597 68.28379047 -24.53822748 39.83270937 -14.83837891 13.87280273 C-8.65459048 -2.04977143 -8.65459048 -2.04977143 0 0 Z " fill="#FCD88D" transform="translate(113,31)"/>
<path d="M0 0 C22.44164257 3.4393322 44.93955792 21.46725835 58.6484375 38.68359375 C74 59.66666667 74 59.66666667 74 69 C54.01324688 73.33820998 23.89844488 77.02297435 5 67 C4.00854492 64.87133789 4.00854492 64.87133789 3.48046875 62.22265625 C3.26688721 61.24280762 3.05330566 60.26295898 2.83325195 59.25341797 C2.51360474 57.67391357 2.51360474 57.67391357 2.1875 56.0625 C-0.59557587 43.6545813 -4.56226855 31.91283135 -10.80078125 20.7890625 C-12 18 -12 18 -12 15.48046875 C-10.62411294 12.0676239 -8.54140963 9.95859838 -6 7.3125 C-2.60430215 3.93780615 -2.60430215 3.93780615 0 0 Z " fill="#848EAD" transform="translate(414,153)"/>
<path d="M0 0 C1.90234375 2.046875 1.90234375 2.046875 3.9375 4.75 C6.8563805 8.60477689 6.8563805 8.60477689 10.31640625 11.953125 C12 14 12 14 11.953125 16.81640625 C10.88404681 20.38730265 9.42039838 23.62133908 7.75 26.9375 C3.45586282 35.83399237 -0.01129528 44.95269983 -1.984375 54.65234375 C-2.14591064 55.42852051 -2.30744629 56.20469727 -2.47387695 57.00439453 C-2.7767375 58.51215841 -3.05507264 60.02511346 -3.30541992 61.54248047 C-3.71484375 63.61328125 -3.71484375 63.61328125 -5 67 C-7.65234375 68.37890625 -7.65234375 68.37890625 -11 69 C-12.16789062 69.28101563 -13.33578125 69.56203125 -14.5390625 69.8515625 C-33.98852805 73.73227335 -54.70208825 73.63149882 -74 69 C-73.4996066 63.28641721 -71.21890928 59.13821156 -68.4375 54.25 C-67.98713379 53.45086182 -67.53676758 52.65172363 -67.07275391 51.82836914 C-63.56429172 45.72607568 -59.67574377 40.26979318 -55 35 C-54.4121875 34.27039063 -53.824375 33.54078125 -53.21875 32.7890625 C-42.38191466 19.70220626 -17.91660988 0 0 0 Z " fill="#848EAC" transform="translate(98,153)"/>
<path d="M0 0 C4.36492736 2.40706674 5.93942071 4.83284673 7.8125 9.4375 C8.65633459 15.23886278 7.24370373 19.77146779 3.8125 24.4375 C0.55665256 27.38012667 -2.82540886 28.66698272 -7.1875 28.9375 C-11.54959114 28.66698272 -14.93165256 27.38012667 -18.1875 24.4375 C-21.61870373 19.77146779 -23.03133459 15.23886278 -22.1875 9.4375 C-20.42898855 4.50534364 -17.74068059 1.40845153 -13.0390625 -0.90234375 C-8.34602817 -2.57559861 -4.45447532 -1.90552555 0 0 Z " fill="#040404" transform="translate(323.1875,263.5625)"/>
<path d="M0 0 C4.36492736 2.40706674 5.93942071 4.83284673 7.8125 9.4375 C8.65633459 15.23886278 7.24370373 19.77146779 3.8125 24.4375 C0.55665256 27.38012667 -2.82540886 28.66698272 -7.1875 28.9375 C-11.54959114 28.66698272 -14.93165256 27.38012667 -18.1875 24.4375 C-21.61870373 19.77146779 -23.03133459 15.23886278 -22.1875 9.4375 C-20.42898855 4.50534364 -17.74068059 1.40845153 -13.0390625 -0.90234375 C-8.34602817 -2.57559861 -4.45447532 -1.90552555 0 0 Z " fill="#040404" transform="translate(203.1875,263.5625)"/>
<path d="M0 0 C3.125 2.0625 3.125 2.0625 5 5 C5.75169094 10.16787521 4.83932804 13.63960337 2 18 C-1.15310177 20.39200824 -4.13305998 20.39458572 -8 20 C-11.11695474 18.65404227 -12.59722209 17.69047642 -14.3125 14.75 C-15.18671391 11.25314436 -15.44917718 8.59341747 -15 5 C-11.28256825 -0.82397641 -6.39082298 -1.28864135 0 0 Z " fill="#010101" transform="translate(261,89)"/>
<path d="M0 0 C3.16872216 0.68885264 4.96142228 2.13674555 7.15625 4.46875 C8.9139322 7.98411439 8.10059624 11.7507994 7.15625 15.46875 C5.01480167 18.12933731 3.58757584 19.1940511 0.22265625 19.83984375 C-3.35470567 20.06300621 -5.53223069 19.62119562 -8.78125 18.03125 C-11.29892877 14.90322487 -11.88383683 12.69913965 -12.09375 8.73046875 C-11.82279947 6.27921321 -11.35591629 4.93401739 -9.96875 2.90625 C-6.3286049 0.06693683 -4.49425182 -0.29961679 0 0 Z " fill="#050303" transform="translate(287.84375,357.53125)"/>
<path d="M0 0 C3.16872216 0.68885264 4.96142228 2.13674555 7.15625 4.46875 C8.9139322 7.98411439 8.10059624 11.7507994 7.15625 15.46875 C5.01480167 18.12933731 3.58757584 19.1940511 0.22265625 19.83984375 C-3.35470567 20.06300621 -5.53223069 19.62119562 -8.78125 18.03125 C-11.29892877 14.90322487 -11.88383683 12.69913965 -12.09375 8.73046875 C-11.82279947 6.27921321 -11.35591629 4.93401739 -9.96875 2.90625 C-6.3286049 0.06693683 -4.49425182 -0.29961679 0 0 Z " fill="#050303" transform="translate(227.84375,357.53125)"/>
</svg>
