<?xml version="1.0" encoding="UTF-8"?>
<svg version="1.1" xmlns="http://www.w3.org/2000/svg" width="512" height="512">
<path d="M0 0 C1.53349927 -0.00390332 3.06699749 -0.00824123 4.60049438 -0.01298523 C7.79229255 -0.02038255 10.98397998 -0.02020379 14.17578125 -0.01489258 C18.21855888 -0.00910427 22.26087741 -0.02604537 26.30357933 -0.04923725 C29.46449325 -0.06413538 32.62530062 -0.06482479 35.78624344 -0.06172752 C37.27463312 -0.06223263 38.7630301 -0.06731322 40.25138474 -0.07753944 C69.05167031 -0.25121999 92.98894131 9.27893488 113.9140625 29.23828125 C120.01655967 35.56449522 124.56667464 42.75414034 128.6640625 50.48828125 C129.2621875 51.61621094 129.8603125 52.74414062 130.4765625 53.90625 C131.87544248 57.90502206 131.71110102 60.22515933 130.6640625 64.30078125 C128.08745559 67.41983172 126.5096521 69.01891805 122.6640625 70.30078125 C120.80906578 70.39286456 118.95089353 70.42543045 117.09361267 70.425354 C115.93437286 70.42791702 114.77513306 70.43048004 113.58076477 70.43312073 C111.6708802 70.42997108 111.6708802 70.42997108 109.72241211 70.42675781 C108.36875347 70.42815274 107.01509528 70.43005217 105.66143799 70.43241882 C102.74438565 70.43691649 99.82734739 70.43877193 96.91029167 70.43888092 C92.29078999 70.44002211 87.67136808 70.45286823 83.05189514 70.46844482 C81.88168451 70.4723041 81.88168451 70.4723041 80.68783325 70.47624135 C79.09233278 70.48150813 77.49683237 70.48679361 75.90133202 70.49209738 C65.14783226 70.52717261 54.39443087 70.55376423 43.64086914 70.55126953 C36.38663225 70.5496771 29.13266708 70.56580834 21.87851721 70.60197616 C18.0428387 70.62037957 14.20761347 70.62982901 10.37190056 70.61750031 C6.75764845 70.60599674 3.14420494 70.61792098 -0.46994019 70.64713478 C-2.4145948 70.65685695 -4.35932467 70.64207594 -6.30393982 70.62632751 C-14.81940657 70.72630709 -21.75626882 72.18829352 -28.24034214 78.01091385 C-33.01016966 82.99626331 -35.06427238 88.44829746 -35.7109375 95.23828125 C-35.27199872 104.21018997 -31.55916514 110.04345374 -25.3359375 116.30078125 C-24.62308594 115.96304688 -23.91023438 115.6253125 -23.17578125 115.27734375 C-9.78140238 109.03985372 1.79499463 106.97508539 16.04296875 112.1328125 C18.6640625 113.30078125 18.6640625 113.30078125 21.25390625 115 C23.50984632 116.50466826 23.50984632 116.50466826 25.703125 116.11328125 C27.84170422 115.22717671 29.9393146 114.27540826 32.0390625 113.30078125 C42.50434165 109.09927947 53.1465931 109.57550965 63.6640625 113.30078125 C64.7984375 113.87828125 65.9328125 114.45578125 67.1015625 115.05078125 C69.53557551 116.48265694 69.53557551 116.48265694 71.9765625 116.23828125 C75.24263328 115.09895423 78.35256667 113.71278622 81.48046875 112.23828125 C89.76278977 108.68236525 101.14389349 109.03867327 109.6015625 111.92578125 C116.23183324 114.74164924 123.03929772 118.67063282 127.6640625 124.30078125 C127.6640625 124.96078125 127.6640625 125.62078125 127.6640625 126.30078125 C128.24671875 126.08421875 128.829375 125.86765625 129.4296875 125.64453125 C139.65629075 122.17134524 149.65070604 122.0207501 159.6640625 126.30078125 C165.42814339 129.23767752 170.37495653 132.43979449 174.6640625 137.30078125 C177.60570046 135.91259255 180.19301976 134.29499345 182.8515625 132.42578125 C193.95897965 124.98453774 206.26865359 121.5360434 219.609375 123.80078125 C233.75747924 126.98500931 244.70919992 133.77747986 252.6640625 146.11328125 C254.46873846 149.11962846 256.1082808 152.16054558 257.6640625 155.30078125 C269.36442765 151.40591576 280.53874922 146.51548001 291.7890625 141.48828125 C298.73222872 138.39027208 305.68779603 135.32354919 312.6640625 132.30078125 C313.5557312 131.91085999 314.4473999 131.52093872 315.36608887 131.11920166 C318.01723242 129.96816519 320.67829399 128.84399462 323.34375 127.7265625 C324.13314972 127.38046432 324.92254944 127.03436615 325.73587036 126.67778015 C332.45897931 123.913492 339.02443688 122.9960098 345.9765625 125.48828125 C352.35138398 129.78757945 355.41479191 135.03617498 358.7890625 141.73828125 C359.43294922 142.98834961 359.43294922 142.98834961 360.08984375 144.26367188 C360.92109371 145.88141218 361.74512107 147.50288902 362.56103516 149.12841797 C363.48425863 150.94666552 364.4588455 152.73871103 365.4453125 154.5234375 C367.95658858 160.24624934 367.45028962 166.80335392 365.6015625 172.67578125 C360.6638205 179.36562525 354.02195863 182.9763171 346.671875 186.55859375 C345.72649872 187.02893036 344.78112244 187.49926697 343.80709839 187.9838562 C340.80566938 189.47397014 337.79747226 190.94982095 334.7890625 192.42578125 C332.77690552 193.42359593 330.76518244 194.4222861 328.75390625 195.421875 C320.45308961 199.53451773 312.16066011 203.60497494 303.6640625 207.30078125 C304.3353418 207.30442688 305.00662109 207.30807251 305.69824219 207.31182861 C312.70689077 207.35375133 319.71489047 207.42316607 326.72314453 207.50830078 C329.33603413 207.53646599 331.94900823 207.55770254 334.56201172 207.57177734 C338.32563396 207.59326738 342.08824498 207.63995268 345.8515625 207.69140625 C347.01333008 207.69263489 348.17509766 207.69386353 349.37207031 207.69512939 C357.13354949 207.83419396 362.72351835 208.82383053 368.72265625 214.1171875 C369.17769531 214.69339844 369.63273437 215.26960937 370.1015625 215.86328125 C370.57464844 216.44207031 371.04773438 217.02085937 371.53515625 217.6171875 C374.05738981 221.37871921 373.84032311 225.25554752 373.8671875 229.6015625 C373.87288757 230.3155571 373.87858765 231.0295517 373.88446045 231.7651825 C373.89389901 233.27565027 373.90043989 234.78613852 373.90429688 236.29663086 C373.91398379 238.59460911 373.94500856 240.89168539 373.9765625 243.18945312 C373.98309506 244.66015096 373.98834454 246.13085517 373.9921875 247.6015625 C374.0045343 248.28301834 374.0168811 248.96447418 374.02960205 249.6665802 C374.00371481 255.27816017 372.5525152 259.27145607 368.7265625 263.3828125 C368.0459375 263.95386719 367.3653125 264.52492188 366.6640625 265.11328125 C365.9834375 265.69722656 365.3028125 266.28117187 364.6015625 266.8828125 C361.23371396 269.34758875 358.33297414 269.43213701 354.29206848 269.45899963 C352.61987999 269.47368286 352.61987999 269.47368286 350.91390991 269.48866272 C349.69039825 269.49441818 348.4668866 269.50017365 347.20629883 269.50610352 C345.91838943 269.51600311 344.63048004 269.52590271 343.30354309 269.53610229 C339.77079542 269.56314624 336.23803441 269.58415856 332.70524049 269.60410428 C329.01364853 269.62596698 325.32209771 269.65335428 321.63053894 269.68016052 C314.63954941 269.73008357 307.64853704 269.77502384 300.65750283 269.81818289 C292.69867003 269.86755858 284.7398785 269.92247548 276.78108561 269.97786248 C260.40878262 270.09167657 244.03644179 270.19851686 227.6640625 270.30078125 C228.07543457 270.8311499 228.48680664 271.36151855 228.91064453 271.90795898 C229.72057861 272.96672241 229.72057861 272.96672241 230.546875 274.046875 C231.08199707 274.74224365 231.61711914 275.4376123 232.16845703 276.15405273 C237.59347568 283.9408939 237.53637161 293.1268338 236.6640625 302.30078125 C234.44250613 311.63884869 228.7714519 319.53386928 220.9140625 324.98046875 C211.71651301 330.37764189 202.16626895 331.97786179 191.7109375 329.640625 C184.9602171 327.46266912 179.88080525 324.03782352 174.6640625 319.30078125 C173.70371094 318.43324219 172.74335938 317.56570313 171.75390625 316.671875 C157.54774756 303.38748997 149.87523398 288.56781013 146.6640625 269.30078125 C119.9340625 269.30078125 93.2040625 269.30078125 65.6640625 269.30078125 C67.6440625 272.27078125 69.6240625 275.24078125 71.6640625 278.30078125 C76.04664022 287.82155354 76.62280279 297.21147687 73.6640625 307.30078125 C69.69039905 317.20289419 62.57331968 323.85614334 53.05859375 328.390625 C44.63899256 331.59089756 34.64045815 331.36544381 26.16796875 328.46875 C17.78568506 324.5587612 10.79863956 318.11838338 4.6640625 311.30078125 C4.00792969 310.57503906 3.35179687 309.84929687 2.67578125 309.1015625 C-6.71072491 298.07469604 -14.67976201 284.10672437 -14.3359375 269.30078125 C-15.91568359 269.15382813 -15.91568359 269.15382813 -17.52734375 269.00390625 C-42.42862024 266.50040332 -66.56879802 257.94471372 -86.3359375 242.30078125 C-88.74884736 238.68141647 -88.25111044 238.05049699 -87.6484375 233.92578125 C-87.50479568 229.39553922 -88.24372167 227.02134221 -91.1875 223.69140625 C-93.50153715 221.33106893 -95.92398005 219.11287853 -98.39453125 216.91796875 C-101.3359375 214.30078125 -101.3359375 214.30078125 -102.3359375 212.30078125 C-103.31433594 212.38779297 -103.31433594 212.38779297 -104.3125 212.4765625 C-112.34184605 212.89105676 -112.34184605 212.89105676 -115.8984375 209.92578125 C-118.72443569 206.88239858 -119.25423992 206.15043605 -119.6484375 202.05078125 C-119.3359375 198.30078125 -119.3359375 198.30078125 -117.1171875 195.56640625 C-115.08248181 192.6330929 -115.08248181 192.6330929 -115.6472168 190.41699219 C-116.49151777 188.30014044 -117.45758422 186.31511143 -118.5234375 184.30078125 C-120.87799009 179.60051116 -122.77921895 175.61868978 -123.3359375 170.30078125 C-124.3878125 170.40390625 -125.4396875 170.50703125 -126.5234375 170.61328125 C-130.3359375 170.30078125 -130.3359375 170.30078125 -133.1484375 168.23828125 C-142.62586311 155.51145258 -139.76304862 127.69073995 -137.65234375 112.28125 C-136.83600632 107.53614815 -135.69315034 102.91802769 -134.3359375 98.30078125 C-134.13226563 97.58647949 -133.92859375 96.87217773 -133.71875 96.13623047 C-127.39709913 74.63969082 -115.62181927 56.49685563 -100.3359375 40.30078125 C-99.65144531 39.55183594 -98.96695313 38.80289063 -98.26171875 38.03125 C-72.88909243 11.25163886 -35.98788161 -0.03891822 0 0 Z " fill="#010100" transform="translate(138.3359375,90.69921875)"/>
<path d="M0 0 C1.37991968 -0.00390613 2.75983819 -0.00824457 4.13975525 -0.01298523 C7.00442438 -0.02036409 9.86897007 -0.02021649 12.73364258 -0.01489258 C16.36295784 -0.00908893 19.99176423 -0.02609121 23.62099552 -0.04923725 C26.46185646 -0.06412353 29.3025987 -0.06482667 32.14349174 -0.06172752 C34.11839433 -0.06247388 36.09327884 -0.07620579 38.06813049 -0.09040833 C61.14760822 0.02629144 79.00076147 8.04767077 95.99609375 23.1875 C97.92432584 25.19360301 98.86543607 26.81483168 100.02734375 29.30078125 C99.12261212 29.30436378 99.12261212 29.30436378 98.19960308 29.30801868 C83.48304603 29.36730852 68.76663473 29.44294729 54.05025768 29.53649616 C46.93334121 29.5813479 39.81647359 29.62078662 32.69946289 29.6472168 C26.49196157 29.67028339 20.28461624 29.70377691 14.07723886 29.74948281 C10.79435498 29.77329926 7.51165556 29.79054735 4.22868919 29.79839516 C0.55221225 29.80807018 -3.12370973 29.83617163 -6.80004883 29.8684082 C-7.87323868 29.86697311 -8.94642853 29.86553802 -10.05213928 29.86405945 C-24.01586195 30.03631273 -36.86158424 34.44384749 -46.97265625 44.30078125 C-56.44057878 56.7354416 -59.27738429 68.88934785 -57.97265625 84.30078125 C-55.62003007 96.22523509 -48.79494814 106.67291094 -38.92578125 113.7734375 C-34.31104617 116.74872722 -30.32975293 119.25545247 -24.72265625 119.36328125 C-20.17599284 118.07505995 -17.47124153 115.90200262 -13.890625 112.89453125 C-9.06091457 108.88124844 -2.95552747 109.91905204 3.02734375 110.30078125 C6.53511241 111.40125769 8.59272664 112.93656493 11.390625 115.28125 C12.69580078 116.37373047 12.69580078 116.37373047 14.02734375 117.48828125 C14.83171875 118.20371094 15.63609375 118.91914063 16.46484375 119.65625 C19.67004368 121.71324569 21.28111878 121.8992042 25.02734375 121.30078125 C27.73623437 119.66742614 27.73623437 119.66742614 30.15234375 117.42578125 C36.25759092 112.11935146 39.85968232 110.78541329 47.984375 110.9140625 C52.580246 111.4981334 55.49780455 113.41818775 59.02734375 116.30078125 C59.97609375 117.04328125 60.92484375 117.78578125 61.90234375 118.55078125 C62.60359375 119.12828125 63.30484375 119.70578125 64.02734375 120.30078125 C66.87418742 121.72420308 68.86875371 121.59883448 72.02734375 121.30078125 C74.66822282 119.69985612 74.66822282 119.69985612 77.02734375 117.48828125 C82.46024472 112.90680506 86.5069109 109.69882232 93.9453125 110.01171875 C102.31270549 111.17342059 107.60240035 115.34714935 112.65234375 121.92578125 C113.22210938 122.70179688 113.791875 123.4778125 114.37890625 124.27734375 C116.77511323 127.21865943 118.43596846 128.23120769 122.21484375 128.67578125 C125.76725094 128.32636415 126.82430052 127.9989754 129.71484375 126.30078125 C135.51373033 123.14798854 142.12476669 123.15636821 148.3984375 124.99609375 C156.68824427 128.72572326 160.17836842 136.05060893 164.37890625 143.69140625 C165.92027699 146.52347814 165.92027699 146.52347814 169.02734375 148.30078125 C174.51179942 149.05247703 174.51179942 149.05247703 179.11328125 146.609375 C181.13694446 144.16858937 182.36627029 141.85146874 183.71484375 138.98828125 C187.51760541 131.76882511 193.1832091 126.7778764 201.02734375 124.30078125 C210.1966123 123.30526066 218.42634419 123.5896854 226.02734375 129.30078125 C233.11636688 135.7306732 235.84267489 143.06513385 238.18359375 152.1640625 C238.92947819 154.6473241 238.92947819 154.6473241 242.02734375 156.30078125 C267.58369002 159.38034097 296.150922 140.97727808 318.79907227 131.02815247 C320.21084747 130.40826812 321.62337626 129.79009626 323.03677368 129.17391968 C324.36358686 128.59192983 325.68670139 128.00143379 327.00595093 127.40249634 C329.870625 126.12072325 331.84919143 125.30078125 335.02734375 125.30078125 C336.39380076 127.89914261 337.74565044 130.50343681 339.08984375 133.11328125 C339.47978516 133.85126953 339.86972656 134.58925781 340.27148438 135.34960938 C340.63564453 136.06181641 340.99980469 136.77402344 341.375 137.5078125 C341.71539307 138.16241455 342.05578613 138.8170166 342.40649414 139.49145508 C343.02734375 141.30078125 343.02734375 141.30078125 342.02734375 144.30078125 C340.25927734 145.4765625 340.25927734 145.4765625 337.92578125 146.61328125 C337.0548584 147.04326416 336.18393555 147.47324707 335.28662109 147.91625977 C333.85890381 148.6015979 333.85890381 148.6015979 332.40234375 149.30078125 C331.41830566 149.78281006 330.43426758 150.26483887 329.42041016 150.76147461 C326.29538325 152.28733376 323.16293768 153.79676733 320.02734375 155.30078125 C319.04636719 155.7714502 318.06539063 156.24211914 317.0546875 156.72705078 C313.21857207 158.56443649 309.38075213 160.39814723 305.53930664 162.22436523 C296.61612878 166.47244263 287.77475504 170.87727112 278.95239258 175.33032227 C277.60293861 176.01061136 276.23459459 176.6540939 274.85424805 177.26928711 C272.25191661 178.73859759 271.92796225 180.5296474 271.02734375 183.30078125 C270.69734375 183.96078125 270.36734375 184.62078125 270.02734375 185.30078125 C269.30515867 192.43975834 269.5777414 197.56313611 274.02734375 203.30078125 C278.51596029 206.88913639 281.51373306 207.80602246 287.22607422 207.84667969 C287.91945389 207.85701736 288.61283356 207.86735504 289.32722473 207.87800598 C291.59990089 207.90730598 293.87168153 207.90893033 296.14453125 207.91015625 C297.72781052 207.92514668 299.3110742 207.94187565 300.89431763 207.96026611 C305.04696391 208.0038555 309.19939927 208.02391986 313.35223389 208.03900146 C317.5956261 208.05860307 321.83879154 208.10056958 326.08203125 208.140625 C334.39710372 208.21583612 342.71201189 208.26411363 351.02734375 208.30078125 C351.02734375 215.23078125 351.02734375 222.16078125 351.02734375 229.30078125 C305.81734375 229.30078125 260.60734375 229.30078125 214.02734375 229.30078125 C213.69734375 224.68078125 213.36734375 220.06078125 213.02734375 215.30078125 C211.82251592 211.82016753 210.86293342 209.35222774 209.02734375 206.30078125 C208.61613281 205.60339844 208.20492188 204.90601563 207.78125 204.1875 C203.1528634 197.22525273 195.92545248 192.84482799 188.02734375 190.30078125 C176.2178814 189.19924789 165.79009683 190.16602797 156.21484375 197.80078125 C146.91281336 206.85275706 145.75561455 216.33875028 144.02734375 229.30078125 C113.99734375 229.30078125 83.96734375 229.30078125 53.02734375 229.30078125 C52.36734375 224.35078125 51.70734375 219.40078125 51.02734375 214.30078125 C46.84543316 203.79500586 41.5534205 196.37962525 30.96484375 191.80078125 C22.68818388 189.19322596 12.18124686 188.56829173 4.02734375 191.92578125 C1.96522347 193.02142055 1.96522347 193.02142055 0.02734375 194.30078125 C-0.66746094 194.72488281 -1.36226563 195.14898437 -2.078125 195.5859375 C-9.22890122 200.40231398 -13.67235549 207.02380618 -15.97265625 215.30078125 C-16.24846488 217.58530932 -16.45703485 219.87896508 -16.59765625 222.17578125 C-16.70980469 223.90441406 -16.70980469 223.90441406 -16.82421875 225.66796875 C-16.89769531 226.97121094 -16.89769531 226.97121094 -16.97265625 228.30078125 C-36.43715543 227.56348961 -56.13292454 221.18187695 -71.66015625 209.17578125 C-75.69352636 206.09825468 -78.72081854 205.60565589 -83.74609375 205.859375 C-86.10761991 206.3275372 -87.8496973 207.19139454 -89.97265625 208.30078125 C-92.28921428 206.01318576 -94.60019108 203.72003238 -96.91015625 201.42578125 C-97.89918945 200.44931641 -97.89918945 200.44931641 -98.90820312 199.453125 C-99.53662109 198.82792969 -100.16503906 198.20273437 -100.8125 197.55859375 C-101.68442993 196.69451904 -101.68442993 196.69451904 -102.57397461 195.81298828 C-103.97265625 194.30078125 -103.97265625 194.30078125 -104.97265625 192.30078125 C-105.95105469 192.38779297 -105.95105469 192.38779297 -106.94921875 192.4765625 C-114.9785648 192.89105676 -114.9785648 192.89105676 -118.53515625 189.92578125 C-121.36115444 186.88239858 -121.89095867 186.15043605 -122.28515625 182.05078125 C-121.97265625 178.30078125 -121.97265625 178.30078125 -119.75390625 175.5625 C-117.48210031 172.31151651 -117.48210031 172.31151651 -119.078125 168.4609375 C-119.74468052 167.08144586 -120.4399042 165.71551289 -121.16015625 164.36328125 C-123.75664692 159.24337188 -125.46977759 155.05761603 -125.97265625 149.30078125 C-125.16828125 148.84703125 -124.36390625 148.39328125 -123.53515625 147.92578125 C-120.88409053 146.5535246 -120.88409053 146.5535246 -119.97265625 144.30078125 C-119.8755562 142.55298043 -119.84287349 140.80127068 -119.84765625 139.05078125 C-119.84507813 138.1175 -119.8425 137.18421875 -119.83984375 136.22265625 C-119.91074983 133.30236906 -119.91074983 133.30236906 -120.46606445 130.46850586 C-125.00722806 102.0725551 -117.13737365 71.87176827 -100.40234375 48.6328125 C-85.26513827 28.4707972 -65.25003799 12.79605724 -40.97265625 5.30078125 C-40.11671875 5.02621094 -39.26078125 4.75164062 -38.37890625 4.46875 C-25.82860428 0.72211574 -13.02040752 -0.00928128 0 0 Z " fill="#D3E878" transform="translate(140.97265625,110.69921875)"/>
<path d="M0 0 C6.86436146 5.88373839 6.86436146 5.88373839 7.62084961 10.54541016 C7.76125604 13.74564634 7.78575746 16.92188481 7.75 20.125 C7.67430022 29.89609479 8.03741067 38.82173266 15.09765625 46.265625 C16.13330643 47.23516985 17.18421691 48.18868013 18.25 49.125 C23.19408952 53.58130481 26.68255783 57.46664034 27.6875 64.25 C26.89834564 69.97136908 24.23319697 73.94963815 20.0625 77.875 C14.80500473 79.70369401 9.10983728 80.28453724 3.9765625 77.80859375 C1.88375056 76.29068469 0.049526 74.66806208 -1.8125 72.875 C-2.48023438 72.27171875 -3.14796875 71.6684375 -3.8359375 71.046875 C-15.45330021 60.09717681 -22.55286776 46.5271968 -23.18359375 30.46875 C-23.21654327 28.10429263 -23.23842115 25.73965859 -23.25 23.375 C-23.28287109 22.19035156 -23.31574219 21.00570313 -23.34960938 19.78515625 C-23.39429466 12.49739217 -22.71349786 7.45391367 -17.8125 1.875 C-13.01377302 -2.51240752 -5.81839952 -2.32735981 0 0 Z " fill="#D2E777" transform="translate(327.8125,321.125)"/>
<path d="M0 0 C4.41571083 2.00714128 6.81480309 4.50658092 9.16381836 8.74584961 C10.91087782 13.45551385 10.55959704 18.53594329 10.5625 23.5 C10.60552953 36.30713904 10.60552953 36.30713904 17.25 46.9375 C17.85585937 47.59878906 18.46171875 48.26007813 19.0859375 48.94140625 C19.71757812 49.62074219 20.34921875 50.30007813 21 51 C22.29711643 52.45348817 23.58897782 53.91168669 24.875 55.375 C25.44992188 56.02210938 26.02484375 56.66921875 26.6171875 57.3359375 C29.17735753 60.41682008 29.27964235 62.93193613 29.21484375 66.90625 C28.74435645 71.49136259 26.7875653 74.28927034 23.4375 77.3125 C18.49346252 80.73529518 13.90647216 80.94149488 8 80 C4.75846119 78.19980963 2.52450404 75.68464049 0 73 C-0.8765625 72.22398437 -1.753125 71.44796875 -2.65625 70.6484375 C-11.63522586 62.48348967 -19.39093471 51.10155395 -20.22460938 38.64355469 C-20.33066181 35.10818369 -20.41279693 31.57511388 -20.45996094 28.03857422 C-20.48653398 26.51969816 -20.52742403 25.00100141 -20.58300781 23.48291016 C-21.09688751 9.25215731 -21.09688751 9.25215731 -16.59375 4.015625 C-11.51369279 -0.71962003 -6.75321127 -0.66863478 0 0 Z " fill="#D3E777" transform="translate(164,320)"/>
<path d="M0 0 C3.0625 1.9375 3.0625 1.9375 5 5 C5.77993882 9.73771348 5.68990329 12.96514506 3 17 C2.34 17 1.68 17 1 17 C1 17.66 1 18.32 1 19 C-2.14911479 20.57455739 -4.52008816 20.34799118 -8 20 C-10.97672584 18.22719439 -13.42804007 16.14391985 -15 13 C-15.37453505 8.03741054 -15.14142028 4.95586258 -12 1 C-7.92218003 -0.35927332 -4.25929481 -0.63404564 0 0 Z " fill="#010100" transform="translate(34,283)"/>
<path d="M0 0 C3.0625 1.9375 3.0625 1.9375 5 5 C6.03945854 9.75058323 5.669717 12.94141507 3.0625 17.0625 C-1.05858493 19.669717 -4.24941677 20.03945854 -9 19 C-12.0625 17.0625 -12.0625 17.0625 -14 14 C-15.03945854 9.24941677 -14.669717 6.05858493 -12.0625 1.9375 C-7.94141507 -0.669717 -4.75058323 -1.03945854 0 0 Z " fill="#030302" transform="translate(354,255)"/>
</svg>
