<?xml version="1.0" encoding="UTF-8"?>
<svg version="1.1" xmlns="http://www.w3.org/2000/svg" width="512" height="512">
<path d="M0 0 C0.97356445 0.33572021 0.97356445 0.33572021 1.96679688 0.67822266 C19.14065712 6.71069875 35.78351571 15.62341149 50 27 C50.56203125 27.44923828 51.1240625 27.89847656 51.703125 28.36132812 C61.62543896 36.39527377 72.61475687 45.32741203 80.21218872 55.64642334 C84.25582435 60.93497721 88.23859852 62.78610636 94.4921875 64.7890625 C95.39695831 65.10024017 96.30172913 65.41141785 97.23391724 65.73202515 C100.10767641 66.7172742 102.99011698 67.6728679 105.875 68.625 C108.75107755 69.58836278 111.62462787 70.55816573 114.49465942 71.53939819 C116.27393362 72.14629728 118.05688184 72.74257208 119.84396362 73.32608032 C131.68457704 77.3264073 139.86865359 84.01544284 146 95 C149.48544233 103.34193544 148.89871998 113.23870451 146.03515625 121.65625 C144.27289547 125.64627441 141.92579094 128.78697387 139 132 C138.43539063 132.63035156 137.87078125 133.26070312 137.2890625 133.91015625 C128.78513538 142.36026105 117.2984331 143.50108269 105.83605957 143.52870178 C105.10548843 143.52464891 104.3749173 143.52059605 103.62220764 143.51642036 C101.26886955 143.50349498 98.91665607 143.51535152 96.56335449 143.53245544 C91.54218155 143.56431838 86.52125419 143.56419551 81.5 143.5625 C74.92694564 143.56538933 68.35415465 143.58326448 61.78125 143.62890625 C60.97964006 143.63431742 60.17803013 143.63972858 59.35212898 143.64530373 C26.81880032 143.92037612 -4.39036541 149.35673871 -35.65039062 158.06689453 C-40.42817593 159.39784901 -45.21392707 160.69922339 -50 162 C-49.66983887 163.22746948 -49.66983887 163.22746948 -49.33300781 164.47973633 C-47.59928956 170.99436393 -46.36026553 177.26753794 -46 184 C-45.95875 184.66773438 -45.9175 185.33546875 -45.875 186.0234375 C-45.09541578 211.45737253 -53.91904532 235.52005135 -70 255 C-70.61230469 255.77601563 -71.22460938 256.55203125 -71.85546875 257.3515625 C-85.46689227 273.77814185 -106.69718198 286.16470869 -127.82421875 289.4375 C-131.61189459 289.63783988 -133.77540869 289.14036957 -137 287.125 C-140.11790499 283.81222595 -140.51688548 281.17993968 -140.48046875 276.61328125 C-139.70630736 272.40259856 -137.29373537 269.44403316 -134.88671875 265.97265625 C-125.8362308 251.71298476 -124.5473393 232.12481755 -127.671875 215.7578125 C-128.3442241 213.11281651 -129.11995922 210.57919643 -130 208 C-134.41258704 212.08853768 -138.81250575 216.19021755 -143.19726562 220.30859375 C-144.59102664 221.61628285 -145.98979647 222.91863463 -147.390625 224.21875 C-182.30329135 257.6644976 -202.98353271 310.03656096 -204.203125 357.9375 C-204.22403869 359.95828552 -204.23962328 361.9791329 -204.25 364 C-204.270625 365.03511719 -204.29125 366.07023437 -204.3125 367.13671875 C-204.31765625 368.12285156 -204.3228125 369.10898437 -204.328125 370.125 C-204.3374707 371.01445312 -204.34681641 371.90390625 -204.35644531 372.8203125 C-204.18000488 373.89925781 -204.18000488 373.89925781 -204 375 C-198.41858002 378.72094665 -191.11095006 376.40075021 -184.7578125 375.2578125 C-169.61220415 372.54882869 -151.56866654 369.74118244 -137 376 C-136.10837158 376.37125 -136.10837158 376.37125 -135.19873047 376.75 C-117.1316532 384.43395509 -105.82605466 396.2226768 -98.00390625 414.37109375 C-95.45275326 421.05173951 -94.13133204 426.99249515 -96 434 C-101.381396 440.50231294 -109.30639378 440.71827434 -117.1875 441.89453125 C-118.69260691 442.13259527 -120.19748698 442.37209739 -121.70214844 442.61296082 C-124.85418279 443.11325006 -128.00789236 443.60017502 -131.16357422 444.0769043 C-135.16970888 444.68259214 -139.17107371 445.31472618 -143.17158508 445.95639515 C-146.2813188 446.4531866 -149.39273504 446.9386817 -152.50479126 447.42069054 C-153.97849845 447.64966215 -155.45180392 447.88123755 -156.9246521 448.11567116 C-168.97848111 450.02033512 -181.169152 451.49722782 -193.125 448.375 C-193.78604736 448.20258789 -194.44709473 448.03017578 -195.12817383 447.85253906 C-200.61027285 446.32646446 -205.50569613 443.99674507 -210.44921875 441.171875 C-213.26762344 439.87704896 -214.94043502 439.49868614 -218 440 C-219.40878093 441.3493585 -219.40878093 441.3493585 -220.3125 443.3125 C-231.95547719 463.89757566 -248.23767918 473.83724763 -269.375 482.875 C-272.55777293 484.25371912 -275.73770521 485.6389421 -278.91796875 487.0234375 C-279.69741348 487.36119202 -280.47685822 487.69894653 -281.27992249 488.04693604 C-286.01763038 490.10706697 -290.70277144 492.24714373 -295.36328125 494.4765625 C-296.44625488 494.99234863 -297.52922852 495.50813477 -298.64501953 496.03955078 C-300.60438913 496.98008593 -302.55777196 497.93324966 -304.50341797 498.90185547 C-310.06488398 501.55110564 -314.80948591 502.96264744 -321 502 C-325.93118922 499.58919638 -327.37945806 495.62574029 -329.15234375 490.6875 C-334.56116467 473.53879587 -332.83422274 455.92520229 -325.3125 439.6875 C-315.95029884 422.39441165 -302.04925221 414.07422093 -284.94433594 406.03369141 C-283.62302794 405.40954471 -282.30392187 404.78071047 -280.98730469 404.14672852 C-279.2287523 403.29995834 -277.46224944 402.46975714 -275.6953125 401.640625 C-272.83531712 399.89975825 -271.82164259 399.21713577 -271 396 C-271.12869172 390.321478 -273.89318882 386.63596086 -277 382.125 C-282.43668429 373.96201745 -287.43420799 365.68071716 -292 357 C-292.36834961 356.30277832 -292.73669922 355.60555664 -293.11621094 354.88720703 C-315.63880116 311.5903109 -315.63880116 311.5903109 -312 293 C-309.81840855 290.24430553 -308.12822506 288.56411253 -305 287 C-305.0721875 286.35675781 -305.144375 285.71351563 -305.21875 285.05078125 C-305.97577262 277.68032493 -306.10595877 270.40534071 -306 263 C-307.41345703 262.80277344 -307.41345703 262.80277344 -308.85546875 262.6015625 C-312.63573244 261.87838162 -313.78278077 261.12053076 -316 258 C-317.1213777 253.96304028 -317.25020696 251.7228201 -315.875 247.75 C-313.82920821 244.74950537 -312.29178371 243.48130267 -309 242 C-308.01 242 -307.02 242 -306 242 C-306.01160156 241.09378906 -306.02320313 240.18757812 -306.03515625 239.25390625 C-306.08588915 232.40496536 -305.93601269 225.786092 -305 219 C-305.94875 218.443125 -306.8975 217.88625 -307.875 217.3125 C-311.23453686 214.82644273 -312.19465889 214.02670557 -313 210 C-309.54906382 165.74938802 -286.18784689 116.90476406 -257.14453125 83.7109375 C-254.70264029 81.13060721 -254.70264029 81.13060721 -254.6875 77.625 C-254.790625 76.75875 -254.89375 75.8925 -255 75 C-270.01775402 70.68205626 -283.05007559 70.00928558 -298.2734375 73.44140625 C-303.61478438 74.24204839 -307.4779538 74.12499067 -311.875 70.875 C-314.48387339 67.34534777 -314.8155382 65.37309429 -315 61 C-314.02666702 58.21153255 -313.06638186 55.94047927 -311.6875 53.375 C-311.14706055 52.33666016 -311.14706055 52.33666016 -310.59570312 51.27734375 C-298.64175214 29.08005827 -278.22635084 12.3707789 -254.25 4.5625 C-232.1568665 -1.4034633 -210.45660996 -0.10104593 -188.8671875 7.1328125 C-183.88814169 8.63873644 -179.06434313 9.17196476 -173.875 9.25 C-172.35519531 9.28867187 -172.35519531 9.28867187 -170.8046875 9.328125 C-161.37769889 8.51511982 -152.44083294 5.22981618 -143.5625 2.125 C-132.49732189 -1.63316379 -121.46099639 -4.71885279 -110 -7 C-108.82606689 -7.24556641 -108.82606689 -7.24556641 -107.62841797 -7.49609375 C-72.79630832 -14.49868609 -33.3944023 -11.74234064 0 0 Z " fill="#7FB5FE" transform="translate(348,10)"/>
<path d="M0 0 C0.97356445 0.33572021 0.97356445 0.33572021 1.96679688 0.67822266 C19.14065712 6.71069875 35.78351571 15.62341149 50 27 C50.56203125 27.44923828 51.1240625 27.89847656 51.703125 28.36132812 C61.62543896 36.39527377 72.61475687 45.32741203 80.21218872 55.64642334 C84.25582435 60.93497721 88.23859852 62.78610636 94.4921875 64.7890625 C95.39695831 65.10024017 96.30172913 65.41141785 97.23391724 65.73202515 C100.10767641 66.7172742 102.99011698 67.6728679 105.875 68.625 C108.75107755 69.58836278 111.62462787 70.55816573 114.49465942 71.53939819 C116.27393362 72.14629728 118.05688184 72.74257208 119.84396362 73.32608032 C131.68457704 77.3264073 139.86865359 84.01544284 146 95 C149.48544233 103.34193544 148.89871998 113.23870451 146.03515625 121.65625 C144.27289547 125.64627441 141.92579094 128.78697387 139 132 C138.43539063 132.63035156 137.87078125 133.26070312 137.2890625 133.91015625 C128.78513538 142.36026105 117.2984331 143.50108269 105.83605957 143.52870178 C105.10548843 143.52464891 104.3749173 143.52059605 103.62220764 143.51642036 C101.26886955 143.50349498 98.91665607 143.51535152 96.56335449 143.53245544 C91.54218155 143.56431838 86.52125419 143.56419551 81.5 143.5625 C74.92694564 143.56538933 68.35415465 143.58326448 61.78125 143.62890625 C60.97964006 143.63431742 60.17803013 143.63972858 59.35212898 143.64530373 C26.81880032 143.92037612 -4.39036541 149.35673871 -35.65039062 158.06689453 C-40.42817593 159.39784901 -45.21392707 160.69922339 -50 162 C-49.66983887 163.22746948 -49.66983887 163.22746948 -49.33300781 164.47973633 C-47.59928956 170.99436393 -46.36026553 177.26753794 -46 184 C-45.95875 184.66773438 -45.9175 185.33546875 -45.875 186.0234375 C-45.09541578 211.45737253 -53.91904532 235.52005135 -70 255 C-70.61230469 255.77601563 -71.22460938 256.55203125 -71.85546875 257.3515625 C-85.46689227 273.77814185 -106.69718198 286.16470869 -127.82421875 289.4375 C-131.61189459 289.63783988 -133.77540869 289.14036957 -137 287.125 C-140.11790499 283.81222595 -140.51688548 281.17993968 -140.48046875 276.61328125 C-139.70630736 272.40259856 -137.29373537 269.44403316 -134.88671875 265.97265625 C-125.8362308 251.71298476 -124.5473393 232.12481755 -127.671875 215.7578125 C-128.3442241 213.11281651 -129.11995922 210.57919643 -130 208 C-134.41258704 212.08853768 -138.81250575 216.19021755 -143.19726562 220.30859375 C-144.59102664 221.61628285 -145.98979647 222.91863463 -147.390625 224.21875 C-182.30329135 257.6644976 -202.98353271 310.03656096 -204.203125 357.9375 C-204.22403869 359.95828552 -204.23962328 361.9791329 -204.25 364 C-204.270625 365.03511719 -204.29125 366.07023437 -204.3125 367.13671875 C-204.31765625 368.12285156 -204.3228125 369.10898437 -204.328125 370.125 C-204.3374707 371.01445312 -204.34681641 371.90390625 -204.35644531 372.8203125 C-204.18000488 373.89925781 -204.18000488 373.89925781 -204 375 C-198.41858002 378.72094665 -191.11095006 376.40075021 -184.7578125 375.2578125 C-169.61220415 372.54882869 -151.56866654 369.74118244 -137 376 C-136.10837158 376.37125 -136.10837158 376.37125 -135.19873047 376.75 C-117.1316532 384.43395509 -105.82605466 396.2226768 -98.00390625 414.37109375 C-95.45275326 421.05173951 -94.13133204 426.99249515 -96 434 C-101.381396 440.50231294 -109.30639378 440.71827434 -117.1875 441.89453125 C-118.69260691 442.13259527 -120.19748698 442.37209739 -121.70214844 442.61296082 C-124.85418279 443.11325006 -128.00789236 443.60017502 -131.16357422 444.0769043 C-135.16970888 444.68259214 -139.17107371 445.31472618 -143.17158508 445.95639515 C-146.2813188 446.4531866 -149.39273504 446.9386817 -152.50479126 447.42069054 C-153.97849845 447.64966215 -155.45180392 447.88123755 -156.9246521 448.11567116 C-168.97848111 450.02033512 -181.169152 451.49722782 -193.125 448.375 C-193.78604736 448.20258789 -194.44709473 448.03017578 -195.12817383 447.85253906 C-200.61027285 446.32646446 -205.50569613 443.99674507 -210.44921875 441.171875 C-213.26762344 439.87704896 -214.94043502 439.49868614 -218 440 C-219.40878093 441.3493585 -219.40878093 441.3493585 -220.3125 443.3125 C-231.95547719 463.89757566 -248.23767918 473.83724763 -269.375 482.875 C-272.55777293 484.25371912 -275.73770521 485.6389421 -278.91796875 487.0234375 C-279.69741348 487.36119202 -280.47685822 487.69894653 -281.27992249 488.04693604 C-286.01763038 490.10706697 -290.70277144 492.24714373 -295.36328125 494.4765625 C-296.44625488 494.99234863 -297.52922852 495.50813477 -298.64501953 496.03955078 C-300.60438913 496.98008593 -302.55777196 497.93324966 -304.50341797 498.90185547 C-310.06488398 501.55110564 -314.80948591 502.96264744 -321 502 C-325.93118922 499.58919638 -327.37945806 495.62574029 -329.15234375 490.6875 C-334.56116467 473.53879587 -332.83422274 455.92520229 -325.3125 439.6875 C-315.95029884 422.39441165 -302.04925221 414.07422093 -284.94433594 406.03369141 C-283.62302794 405.40954471 -282.30392187 404.78071047 -280.98730469 404.14672852 C-279.2287523 403.29995834 -277.46224944 402.46975714 -275.6953125 401.640625 C-272.83531712 399.89975825 -271.82164259 399.21713577 -271 396 C-271.12869172 390.321478 -273.89318882 386.63596086 -277 382.125 C-282.43668429 373.96201745 -287.43420799 365.68071716 -292 357 C-292.36834961 356.30277832 -292.73669922 355.60555664 -293.11621094 354.88720703 C-315.61255247 311.64077076 -315.61255247 311.64077076 -312 293 C-309.47031526 289.71824682 -307.92268669 288.30756223 -304 287 C-300.02688702 287.14715233 -297.67160236 287.50680803 -294.44140625 289.87890625 C-291.03880306 294.22879417 -290.40113133 298.47539545 -289.3125 303.8125 C-283.50558219 329.30036049 -271.42275743 352.65605581 -256.64550781 374.0612793 C-256.07155273 374.8944165 -255.49759766 375.72755371 -254.90625 376.5859375 C-254.13764648 377.68494385 -254.13764648 377.68494385 -253.35351562 378.80615234 C-249.03895689 385.79941078 -249.34336607 393.06221004 -250 401 C-250.82716636 404.42258656 -252.07808538 407.06196738 -254 410 C-254.41636719 410.67289062 -254.83273438 411.34578125 -255.26171875 412.0390625 C-260.16063078 418.69952557 -267.49851614 421.5625691 -274.77246094 424.95263672 C-289.69426981 431.96869986 -302.22802047 438.86650478 -308.75 454.875 C-310.19860918 459.64087447 -310.35262894 464.37941079 -310.578125 469.3203125 C-310.62018066 470.15570557 -310.66223633 470.99109863 -310.70556641 471.85180664 C-310.80809879 473.90098959 -310.90464826 475.95047038 -311 478 C-306.00501142 475.70771839 -301.01031639 473.41479872 -296.01586914 471.12133789 C-294.32388847 470.34447829 -292.63183364 469.56778017 -290.93969727 468.79125977 C-286.06242064 466.55300793 -281.18654689 464.31175107 -276.31289673 462.06561279 C-274.79759715 461.36747413 -273.28196378 460.67005939 -271.76596069 459.97344971 C-269.70986871 459.02804022 -267.65548324 458.07902175 -265.6015625 457.12890625 C-263.86447021 456.32755249 -263.86447021 456.32755249 -262.09228516 455.51000977 C-252.37874787 450.76674211 -246.28372229 445.31391242 -241.14257812 435.81567383 C-237.67519075 429.41581513 -234.55051961 424.54764449 -228 421 C-226.88625 420.38125 -225.7725 419.7625 -224.625 419.125 C-212.75604224 415.44153035 -203.5543526 420.54405154 -193.12890625 425.94921875 C-180.11705641 432.37158133 -160.86123273 427.00978212 -147.3125 424.5 C-144.5275987 423.99497487 -141.74198311 423.49480566 -138.95487976 423.0020752 C-137.24270009 422.69834219 -135.53179768 422.38727421 -133.82258606 422.06726074 C-128.79812228 421.16327106 -124.10603459 420.85706166 -119 421 C-124.98761349 408.1075216 -131.94635782 401.21445058 -145.1875 395.5625 C-157.58752637 391.54510015 -170.34989053 394.42521849 -182.83032227 396.55859375 C-205.36736526 400.32651368 -205.36736526 400.32651368 -213.2265625 395.453125 C-220.52611234 389.47199606 -225.08055869 383.16470302 -226.29760742 373.6809082 C-226.44127562 371.19521626 -226.46615458 368.73968715 -226.4375 366.25 C-226.43210205 365.3226001 -226.4267041 364.3952002 -226.42114258 363.43969727 C-226.06250041 346.12139158 -223.11969031 328.7912299 -219 312 C-218.54367188 310.07800781 -218.54367188 310.07800781 -218.078125 308.1171875 C-208.50054214 270.62004706 -188.95501908 236.67107608 -162 209 C-161.43490723 208.41444336 -160.86981445 207.82888672 -160.28759766 207.22558594 C-152.91272237 199.60427047 -145.40920356 192.48709989 -137 186 C-137.45375 184.9275 -137.9075 183.855 -138.375 182.75 C-138.64699219 182.10675781 -138.91898438 181.46351563 -139.19921875 180.80078125 C-139.99727631 178.92222164 -139.99727631 178.92222164 -141.1875 176.9375 C-142.36252168 174.13552523 -142.3071354 172.00992688 -142 169 C-140.33237678 165.50593231 -139.25993978 164.17329319 -136 162 C-129.11464362 161.33367519 -129.11464362 161.33367519 -125.5234375 163.48046875 C-122.16427775 166.83442856 -120.45468279 170.40014051 -118.5 174.6875 C-117.91690063 175.94095215 -117.91690063 175.94095215 -117.32202148 177.21972656 C-113.68608036 185.26721555 -111.2208055 193.47353391 -109 202 C-108.65066406 203.1859375 -108.30132812 204.371875 -107.94140625 205.59375 C-103.1573986 222.90352041 -103.09898267 243.01597952 -109 260 C-95.32233936 251.19323918 -84.83248655 241.53838258 -77 227 C-76.51789063 226.10667969 -76.03578125 225.21335938 -75.5390625 224.29296875 C-66.613243 206.25199419 -64.74222975 184.54266812 -70.7890625 165.30859375 C-74.08996361 156.07488536 -74.08996361 156.07488536 -78.61328125 147.41015625 C-80.22354277 144.61147636 -80.67202657 142.24040349 -80.54296875 139.0078125 C-79.64619061 135.69166888 -77.7085418 134.00916129 -75.00390625 132.00390625 C-73 131 -73 131 -69.375 130.875 C-64.25469927 132.58176691 -61.82129379 134.52733527 -59.1875 139.25 C-58.795625 140.1575 -58.40375 141.065 -58 142 C-57.41226807 141.82259277 -56.82453613 141.64518555 -56.21899414 141.46240234 C-30.56557726 133.74003392 -5.03256548 127.27040247 21.65795898 124.36425781 C23.42220001 124.17196856 25.18624741 123.97656472 26.947052 123.75500488 C39.16215926 122.22074865 51.29517494 121.81036158 63.58984375 121.7265625 C64.37033962 121.72082151 65.15083549 121.71508053 65.95498276 121.70916557 C73.28300134 121.6578034 80.61101428 121.62646543 87.93920898 121.61914062 C91.99013473 121.61412319 96.04057872 121.58990714 100.09134102 121.55381393 C101.61865916 121.54406486 103.14604375 121.5416571 104.67338371 121.54698563 C106.79702707 121.55407055 108.91921867 121.53676271 111.04272461 121.51416016 C112.2451329 121.51131012 113.4475412 121.50846008 114.68638611 121.50552368 C118.67538864 120.89696296 120.85533725 119.48003668 124 117 C125.99822977 114.11559876 126.3454452 111.60142228 126.4375 108.125 C126.47746094 107.30257812 126.51742188 106.48015625 126.55859375 105.6328125 C125.76772878 101.90523915 123.75327661 99.51879974 121 97 C118.47176098 95.56300089 115.84989605 94.65493272 113.09375 93.74609375 C112.33259888 93.47789322 111.57144775 93.20969269 110.78723145 92.93336487 C108.36392077 92.08359938 105.93270712 91.25992912 103.5 90.4375 C101.89782057 89.88263758 100.29625101 89.32601084 98.6953125 88.76757812 C96.34204889 87.94779008 93.98877506 87.12805012 91.63479614 86.31031799 C90.13223874 85.78828613 88.62996125 85.26544776 87.12799072 84.74172974 C85.75380628 84.26274576 84.37897155 83.7856215 83.00335693 83.3107605 C81.21331895 82.68768413 79.43061945 82.04364106 77.6484375 81.3984375 C76.66536621 81.0482959 75.68229492 80.6981543 74.66943359 80.33740234 C69.59309508 77.79412611 66.42251475 73.40809099 63 69 C46.53890643 49.64852169 26.96161827 35.67882964 4 25 C2.98292969 24.52691406 1.96585937 24.05382813 0.91796875 23.56640625 C-23.77393686 12.72358587 -50.28809882 10.09998355 -77 11 C-78.41273893 11.02224299 -79.82549856 11.04323635 -81.23828125 11.0625 C-93.7153738 11.47710744 -105.85501413 14.27715548 -118 17 C-118.73105957 17.16371094 -119.46211914 17.32742187 -120.21533203 17.49609375 C-129.71076692 19.68641606 -138.82683938 22.93685796 -147.97119141 26.27075195 C-165.06109989 32.41918354 -183.18812601 31.56761975 -200.4375 26.5 C-222.12723006 20.19834903 -242.60810924 20.85264623 -262.5859375 31.72021484 C-270.99092735 36.54423665 -277.93875443 42.47197614 -284 50 C-283.05382812 49.95359375 -282.10765625 49.9071875 -281.1328125 49.859375 C-273.36252663 49.60089569 -266.10539471 50.06842122 -258.5 51.75 C-257.40776123 51.98541504 -257.40776123 51.98541504 -256.29345703 52.22558594 C-247.63998062 54.28565503 -241.07971882 57.56240546 -236 65 C-232.41442229 71.09548211 -232.10383511 77.10574142 -233 84 C-235.10657734 91.14452951 -239.97136519 96.65429492 -244.56982422 102.35302734 C-264.77680597 127.56989387 -278.79434294 157.87509391 -287 189 C-287.36980234 190.35191641 -287.74090331 191.70347825 -288.11328125 193.0546875 C-289.56959366 198.38927992 -290.96526392 203.66658352 -291.875 209.125 C-292.53636019 212.14103053 -293.39767621 213.90103794 -295.625 216.0625 C-300.07670646 218.61810926 -301.93436952 218.80406833 -307 218 C-310.44145311 215.58366058 -311.74745289 214.03943073 -312.7421875 209.9453125 C-313.06641787 204.98360526 -312.2795987 200.76406201 -311.1875 195.9375 C-310.96521729 194.9472583 -310.74293457 193.9570166 -310.51391602 192.93676758 C-301.26496951 153.74115054 -283.84535291 114.22750986 -257.14453125 83.7109375 C-254.70264029 81.13060721 -254.70264029 81.13060721 -254.6875 77.625 C-254.790625 76.75875 -254.89375 75.8925 -255 75 C-270.01775402 70.68205626 -283.05007559 70.00928558 -298.2734375 73.44140625 C-303.61478438 74.24204839 -307.4779538 74.12499067 -311.875 70.875 C-314.48387339 67.34534777 -314.8155382 65.37309429 -315 61 C-314.02666702 58.21153255 -313.06638186 55.94047927 -311.6875 53.375 C-311.14706055 52.33666016 -311.14706055 52.33666016 -310.59570312 51.27734375 C-298.64175214 29.08005827 -278.22635084 12.3707789 -254.25 4.5625 C-232.1568665 -1.4034633 -210.45660996 -0.10104593 -188.8671875 7.1328125 C-183.88814169 8.63873644 -179.06434313 9.17196476 -173.875 9.25 C-172.35519531 9.28867187 -172.35519531 9.28867187 -170.8046875 9.328125 C-161.37769889 8.51511982 -152.44083294 5.22981618 -143.5625 2.125 C-132.49732189 -1.63316379 -121.46099639 -4.71885279 -110 -7 C-108.82606689 -7.24556641 -108.82606689 -7.24556641 -107.62841797 -7.49609375 C-72.79630832 -14.49868609 -33.3944023 -11.74234064 0 0 Z " fill="#000101" transform="translate(348,10)"/>
<path d="M0 0 C3.50165855 2.5881824 4.77470816 4.27111465 6.0625 8.4375 C5.98454913 12.88069934 4.87270176 14.66145471 2 18 C-1.20407303 20.34965355 -4.10274765 20.54561533 -8 20 C-11.95364129 17.53829882 -13.67678008 16.0457115 -15.0625 11.5625 C-14.99013712 7.43781582 -14.31762915 5.39918943 -12 2 C-7.97139968 -1.4690725 -5.03308547 -1.43802442 0 0 Z " fill="#010203" transform="translate(46,253)"/>
<path d="M0 0 C3.9295493 0.92685276 5.41241975 2.29808529 8.00390625 5.47265625 C8.80273521 8.65073116 8.75254633 11.28805653 8.00390625 14.47265625 C6.06640625 17.53515625 6.06640625 17.53515625 3.00390625 19.47265625 C-1.74667698 20.51211479 -4.93750882 20.14237325 -9.05859375 17.53515625 C-11.66285898 13.41873702 -12.04313378 10.21866555 -10.99609375 5.47265625 C-8.10250338 1.041846 -5.38309693 -0.3983696 0 0 Z " fill="#020304" transform="translate(340.99609375,78.52734375)"/>
</svg>
