<?xml version="1.0" encoding="UTF-8"?>
<svg version="1.1" xmlns="http://www.w3.org/2000/svg" width="512" height="512">
<path d="M0 0 C1.17409424 0.00757324 2.34818848 0.01514648 3.55786133 0.02294922 C29.12744044 0.49984423 53.34513035 9.096611 73.6328125 24.67578125 C74.41398437 25.25714844 75.19515625 25.83851562 76 26.4375 C77.17755859 27.39269531 77.17755859 27.39269531 78.37890625 28.3671875 C81.0913404 29.81499259 81.0913404 29.81499259 84.26953125 28.26953125 C85.46256645 27.61794028 86.64347617 26.94374857 87.8125 26.25 C96.10922548 21.50504998 103.321054 20.06232437 112.875 20.125 C114.20217041 20.13237183 114.20217041 20.13237183 115.55615234 20.13989258 C121.81734231 20.25250391 127.23330314 20.85932349 133 23.4375 C133.78890625 23.74300781 134.5778125 24.04851562 135.390625 24.36328125 C148.9459488 30.22446686 157.7869715 41.47703723 163.3125 54.8125 C165.39004748 60.19483819 166.13128859 64.58956795 166.17700195 70.40234375 C166.18357315 71.09566299 166.19014435 71.78898224 166.19691467 72.50331116 C166.21659233 74.79387538 166.2283023 77.08437396 166.23828125 79.375 C166.24235678 80.16173096 166.2464323 80.94846191 166.25063133 81.7590332 C166.27147569 85.92903376 166.28578043 90.09900163 166.29516602 94.26904297 C166.30618402 98.54797183 166.34053453 102.826374 166.38033772 107.1051178 C166.40666493 110.41856763 166.41487235 113.73189548 166.41844749 117.04544067 C166.42327764 118.62089567 166.43478788 120.19634655 166.45348549 121.771698 C166.64366366 138.86738635 162.28907377 152.47503966 150.44921875 165.078125 C142.44744404 172.78637369 133.69509157 176.8054275 123 179.4375 C122.95341072 186.82702521 122.91799692 194.21651811 122.89637566 201.60616112 C122.8859922 205.03843799 122.87193404 208.47061348 122.84912109 211.90283203 C122.82298926 215.85968766 122.81348229 219.81650397 122.8046875 223.7734375 C122.79436493 224.99050385 122.78404236 226.20757019 122.77340698 227.46151733 C122.7717809 239.95295915 124.39965846 251.57385877 133.0625 261.1875 C141.46337744 268.76616391 150.73490832 271.18077546 161.70581055 272.32519531 C171.57778543 273.43328411 179.20956377 277.14671584 186 284.4375 C193.79119555 294.35356706 195.19627856 304.12480297 194 316.4375 C191.90897743 325.71641264 186.11352023 333.70650511 178.27783203 339.02648926 C169.71353385 344.33167268 161.80367672 345.03205216 151.875 344.96875 C150.51993534 344.97145499 149.16487259 344.97534569 147.80981445 344.98034668 C144.97897743 344.98621077 142.14864849 344.97779116 139.31787109 344.95898438 C135.74514986 344.93636774 132.17363145 344.94959728 128.6009531 344.97274971 C97.858344 345.14191547 67.97383417 339.93007832 44.9551239 317.43954468 C44.24765518 316.72650177 43.54018646 316.01345886 42.8112793 315.27880859 C42.09602585 314.55921967 41.3807724 313.83963074 40.6438446 313.09823608 C40.10137589 312.55019318 39.55890717 312.00215027 39 311.4375 C38.99413376 312.12130737 38.98826752 312.80511475 38.98222351 313.50964355 C38.91812607 320.64797336 38.83366388 327.78585915 38.73754883 334.92382812 C38.70274213 337.58532607 38.67631239 340.24653143 38.65356445 342.90820312 C38.61990411 346.74118497 38.56757986 350.57353516 38.51171875 354.40625 C38.50532883 355.58989136 38.4989389 356.77353271 38.49235535 357.99304199 C38.32504045 367.46482734 36.86672764 374.57077236 30 381.4375 C24.6445062 384.91586176 19.90510235 384.88207601 13.73120117 384.87329102 C12.71090317 384.88336685 11.69060516 384.89344269 10.63938904 384.90382385 C7.27380346 384.93226916 3.90866698 384.93817885 0.54296875 384.94140625 C-1.80344322 384.95105004 -4.14985339 384.96114272 -6.4962616 384.97166443 C-11.41299622 384.98961749 -16.32957281 384.99518632 -21.24633789 384.9934082 C-27.53452446 384.99310349 -33.8216936 385.03405116 -40.10963917 385.08572483 C-44.95595416 385.11914635 -49.80202479 385.12516397 -54.64844322 385.12357903 C-56.96601555 385.12711047 -59.28359479 385.14033137 -61.60105324 385.16357613 C-64.84909107 385.19310399 -68.0949415 385.18429675 -71.34301758 385.16625977 C-72.76710937 385.19154755 -72.76710937 385.19154755 -74.2199707 385.21734619 C-81.17881825 385.11957231 -85.77998107 383.06229745 -91 378.4375 C-96.09066585 372.05654232 -95.5223403 364.79944968 -95.390625 356.96875 C-95.38496521 355.69269897 -95.37930542 354.41664795 -95.37347412 353.10192871 C-95.35495798 349.73467342 -95.31912089 346.36853409 -95.2746582 343.00158691 C-95.23349433 339.55584447 -95.2151981 336.10998261 -95.1953125 332.6640625 C-95.15474205 325.92125357 -95.07643061 319.18037819 -95 312.4375 C-108.86 312.4375 -122.72 312.4375 -137 312.4375 C-136.96519531 316.23121094 -136.93039063 320.02492188 -136.89453125 323.93359375 C-136.87110316 327.62718962 -136.85290504 331.32077706 -136.83520508 335.0144043 C-136.8201629 337.57205947 -136.79972411 340.12968904 -136.77368164 342.68725586 C-136.73709796 346.37359963 -136.72022732 350.05960091 -136.70703125 353.74609375 C-136.69154739 354.88082626 -136.67606354 356.01555878 -136.66011047 357.18467712 C-136.65845056 365.09945675 -137.39019592 372.3436477 -142.3125 378.8125 C-148.16635622 384.53022003 -153.47946225 384.88437466 -161.26879883 384.87329102 C-162.28909683 384.88336685 -163.30939484 384.89344269 -164.36061096 384.90382385 C-167.72619654 384.93226916 -171.09133302 384.93817885 -174.45703125 384.94140625 C-176.80344322 384.95105004 -179.14985339 384.96114272 -181.4962616 384.97166443 C-186.41299622 384.98961749 -191.32957281 384.99518632 -196.24633789 384.9934082 C-202.53452446 384.99310349 -208.8216936 385.03405116 -215.10963917 385.08572483 C-219.95595416 385.11914635 -224.80202479 385.12516397 -229.64844322 385.12357903 C-231.96601555 385.12711047 -234.28359479 385.14033137 -236.60105324 385.16357613 C-239.84909107 385.19310399 -243.0949415 385.18429675 -246.34301758 385.16625977 C-247.76710937 385.19154755 -247.76710937 385.19154755 -249.2199707 385.21734619 C-256.2119947 385.11910617 -260.82319016 383.1761118 -266 378.4375 C-270.75613874 373.2055572 -270.56923077 367.31255589 -270.51416016 360.55200195 C-270.52128525 359.47785538 -270.52841034 358.4037088 -270.53575134 357.29701233 C-270.55500231 353.75641375 -270.54675571 350.21641469 -270.5390625 346.67578125 C-270.54897414 344.20345695 -270.56091716 341.73114004 -270.57479858 339.25883484 C-270.60715967 332.75164658 -270.61755127 326.24462652 -270.62164307 319.73736572 C-270.63039588 309.34077383 -270.66611259 298.94432033 -270.7138176 288.54784203 C-270.72633264 284.92973461 -270.72565022 281.31180434 -270.72354126 277.69367981 C-270.73012828 275.4524421 -270.73713586 273.21120557 -270.74462891 270.9699707 C-270.74050491 269.97682861 -270.73638092 268.98368652 -270.73213196 267.96044922 C-270.79949514 256.08720024 -273.10958819 246.2081901 -278 235.4375 C-283.95644268 222.3169607 -288.88773273 209.5315979 -292 195.4375 C-292.20496094 194.52613281 -292.40992188 193.61476563 -292.62109375 192.67578125 C-293.20371143 189.2341325 -293.05908615 185.92358287 -293 182.4375 C-295.95188114 184.87601051 -296.42884192 186.71071651 -297 190.4375 C-297.08459244 191.97899278 -297.12465519 193.52344862 -297.12457275 195.06726074 C-297.12713577 195.96722275 -297.12969879 196.86718475 -297.13233948 197.79441833 C-297.13023972 198.76911575 -297.12813995 199.74381317 -297.12597656 200.74804688 C-297.1278447 201.78437759 -297.12971283 202.82070831 -297.13163757 203.88844299 C-297.1356362 206.13538871 -297.13771592 208.38233848 -297.13809967 210.62928772 C-297.14151855 215.40421302 -297.16288064 220.17900255 -297.18333054 224.95388031 C-297.2213544 233.84248197 -297.25261019 242.73093659 -297.25048828 251.61962891 C-297.24970244 257.8047399 -297.27300687 263.98935111 -297.3123703 270.17433167 C-297.32284747 272.5314357 -297.3243418 274.88859729 -297.31671906 277.24571228 C-297.30712514 280.54001252 -297.32822687 283.83279049 -297.35644531 287.12695312 C-297.34624863 288.10165054 -297.33605194 289.07634796 -297.32554626 290.08058167 C-297.39674143 294.70935518 -297.48817794 296.77132806 -300.38397217 300.54040527 C-303.21956258 302.5967227 -304.53853066 303.11658546 -308 303.0625 C-309.2375 303.08183594 -309.2375 303.08183594 -310.5 303.1015625 C-314.30542472 302.09074656 -315.61621126 300.58212921 -318 297.4375 C-318.74535024 293.78645927 -318.67281059 290.18757138 -318.63110352 286.47192383 C-318.63825882 285.36559601 -318.64541412 284.25926819 -318.65278625 283.11941528 C-318.66969857 279.46070087 -318.65024774 275.8032078 -318.62890625 272.14453125 C-318.629735 269.59730427 -318.63219461 267.05007734 -318.63621521 264.50285339 C-318.63907537 259.16049721 -318.62488638 253.81857197 -318.59692383 248.47631836 C-318.56495427 242.32153296 -318.56485608 236.16738204 -318.5821386 230.01255208 C-318.59807665 224.07247559 -318.59111909 218.13259171 -318.57420158 212.1925106 C-318.56903409 209.67484745 -318.56948408 207.15716606 -318.57574654 204.63950539 C-318.58122882 201.10929447 -318.56072198 197.58013931 -318.53344727 194.05004883 C-318.53997314 193.01852188 -318.54649902 191.98699493 -318.55322266 190.92420959 C-318.41017644 179.972994 -314.79440792 172.03792944 -307 164.4375 C-303.45702082 161.24017732 -298.98658394 157.4375 -294 157.4375 C-294.04382813 156.365 -294.08765625 155.2925 -294.1328125 154.1875 C-294.12528446 148.47622546 -293.00563619 143.01787324 -291.875 137.4375 C-291.65271729 136.3347876 -291.43043457 135.2320752 -291.20141602 134.09594727 C-289.30881103 125.12818348 -286.6879628 116.81459002 -283 108.4375 C-282.44119141 107.13039062 -282.44119141 107.13039062 -281.87109375 105.796875 C-280.17362936 102.09573695 -278.76818147 99.16882662 -275 97.4375 C-274.37222656 97.47101563 -273.74445313 97.50453125 -273.09765625 97.5390625 C-270.29114297 97.64757444 -268.6277873 97.51713354 -266 96.4375 C-261.94887959 92.38055274 -259.01203173 87.27724853 -256 82.4375 C-255.01 80.9525 -255.01 80.9525 -254 79.4375 C-254.27942455 77.76095271 -254.62331656 76.09490715 -255 74.4375 C-255.35656769 69.44555229 -255.17650864 66.4081358 -252 62.4375 C-248.58071806 59.87303855 -245.1498078 60.14108516 -241 60.4375 C-238.78125 61.453125 -238.78125 61.453125 -237 62.4375 C-236.05640625 61.65826172 -236.05640625 61.65826172 -235.09375 60.86328125 C-230.97957089 57.51121665 -227.06482896 54.379604 -222.375 51.875 C-220.42732812 50.80213292 -220.42732812 50.80213292 -219 49.4375 C-218.58326793 45.97949641 -218.58326793 45.97949641 -219 42.4375 C-216.59928819 36.17792593 -213.56912979 34.64989534 -207.70703125 31.94921875 C-196.20133877 27.12871408 -184.28811885 23.58059726 -172 21.4375 C-171.00974319 21.26291763 -170.01948639 21.08833527 -168.9992218 20.90846252 C-163.97955257 20.2044583 -158.95778122 20.32551115 -153.89916992 20.35913086 C-151.62688747 20.36524366 -149.35460452 20.37117075 -147.08232117 20.37693787 C-145.28590966 20.3839462 -145.28590966 20.3839462 -143.45320702 20.39109612 C-137.08532786 20.4103356 -130.71749734 20.39505938 -124.34960938 20.38476562 C-116.25817357 20.37251804 -108.1672752 20.3699659 -100.07592773 20.41333008 C-93.52534757 20.44831779 -86.97555208 20.44125604 -80.42495155 20.40976143 C-77.93518111 20.4048457 -75.44533958 20.41407749 -72.95567894 20.43797112 C-69.46561816 20.4695034 -65.97902006 20.45112949 -62.48901367 20.42163086 C-60.96046249 20.45310463 -60.96046249 20.45310463 -59.40103149 20.48521423 C-52.20894504 20.3510126 -48.48395082 18.20335482 -43.17955494 13.38979435 C-40.11747439 10.64699468 -36.80543982 8.89692309 -33.125 7.125 C-32.50753906 6.80466797 -31.89007813 6.48433594 -31.25390625 6.15429688 C-21.27409614 1.22487552 -11.02118885 -0.10088411 0 0 Z " fill="#89A7BC" transform="translate(318,63.5625)"/>
<path d="M0 0 C1.17409424 0.00757324 2.34818848 0.01514648 3.55786133 0.02294922 C29.12744044 0.49984423 53.34513035 9.096611 73.6328125 24.67578125 C74.41398437 25.25714844 75.19515625 25.83851562 76 26.4375 C77.17755859 27.39269531 77.17755859 27.39269531 78.37890625 28.3671875 C81.0913404 29.81499259 81.0913404 29.81499259 84.26953125 28.26953125 C85.46256645 27.61794028 86.64347617 26.94374857 87.8125 26.25 C96.10922548 21.50504998 103.321054 20.06232437 112.875 20.125 C114.20217041 20.13237183 114.20217041 20.13237183 115.55615234 20.13989258 C121.81734231 20.25250391 127.23330314 20.85932349 133 23.4375 C133.78890625 23.74300781 134.5778125 24.04851562 135.390625 24.36328125 C148.9459488 30.22446686 157.7869715 41.47703723 163.3125 54.8125 C165.39004748 60.19483819 166.13128859 64.58956795 166.17700195 70.40234375 C166.18357315 71.09566299 166.19014435 71.78898224 166.19691467 72.50331116 C166.21659233 74.79387538 166.2283023 77.08437396 166.23828125 79.375 C166.24235678 80.16173096 166.2464323 80.94846191 166.25063133 81.7590332 C166.27147569 85.92903376 166.28578043 90.09900163 166.29516602 94.26904297 C166.30618402 98.54797183 166.34053453 102.826374 166.38033772 107.1051178 C166.40666493 110.41856763 166.41487235 113.73189548 166.41844749 117.04544067 C166.42327764 118.62089567 166.43478788 120.19634655 166.45348549 121.771698 C166.64366366 138.86738635 162.28907377 152.47503966 150.44921875 165.078125 C142.44744404 172.78637369 133.69509157 176.8054275 123 179.4375 C122.95341072 186.82702521 122.91799692 194.21651811 122.89637566 201.60616112 C122.8859922 205.03843799 122.87193404 208.47061348 122.84912109 211.90283203 C122.82298926 215.85968766 122.81348229 219.81650397 122.8046875 223.7734375 C122.79436493 224.99050385 122.78404236 226.20757019 122.77340698 227.46151733 C122.7717809 239.95295915 124.39965846 251.57385877 133.0625 261.1875 C141.46337744 268.76616391 150.73490832 271.18077546 161.70581055 272.32519531 C171.57778543 273.43328411 179.20956377 277.14671584 186 284.4375 C193.79119555 294.35356706 195.19627856 304.12480297 194 316.4375 C191.90897743 325.71641264 186.11352023 333.70650511 178.27783203 339.02648926 C169.71353385 344.33167268 161.80367672 345.03205216 151.875 344.96875 C150.51993534 344.97145499 149.16487259 344.97534569 147.80981445 344.98034668 C144.97897743 344.98621077 142.14864849 344.97779116 139.31787109 344.95898438 C135.74514986 344.93636774 132.17363145 344.94959728 128.6009531 344.97274971 C97.858344 345.14191547 67.97383417 339.93007832 44.9551239 317.43954468 C44.24765518 316.72650177 43.54018646 316.01345886 42.8112793 315.27880859 C42.09602585 314.55921967 41.3807724 313.83963074 40.6438446 313.09823608 C40.10137589 312.55019318 39.55890717 312.00215027 39 311.4375 C38.99413376 312.12130737 38.98826752 312.80511475 38.98222351 313.50964355 C38.91812607 320.64797336 38.83366388 327.78585915 38.73754883 334.92382812 C38.70274213 337.58532607 38.67631239 340.24653143 38.65356445 342.90820312 C38.61990411 346.74118497 38.56757986 350.57353516 38.51171875 354.40625 C38.50532883 355.58989136 38.4989389 356.77353271 38.49235535 357.99304199 C38.32504045 367.46482734 36.86672764 374.57077236 30 381.4375 C24.6445062 384.91586176 19.90510235 384.88207601 13.73120117 384.87329102 C12.71090317 384.88336685 11.69060516 384.89344269 10.63938904 384.90382385 C7.27380346 384.93226916 3.90866698 384.93817885 0.54296875 384.94140625 C-1.80344322 384.95105004 -4.14985339 384.96114272 -6.4962616 384.97166443 C-11.41299622 384.98961749 -16.32957281 384.99518632 -21.24633789 384.9934082 C-27.53452446 384.99310349 -33.8216936 385.03405116 -40.10963917 385.08572483 C-44.95595416 385.11914635 -49.80202479 385.12516397 -54.64844322 385.12357903 C-56.96601555 385.12711047 -59.28359479 385.14033137 -61.60105324 385.16357613 C-64.84909107 385.19310399 -68.0949415 385.18429675 -71.34301758 385.16625977 C-72.76710937 385.19154755 -72.76710937 385.19154755 -74.2199707 385.21734619 C-81.17881825 385.11957231 -85.77998107 383.06229745 -91 378.4375 C-96.09066585 372.05654232 -95.5223403 364.79944968 -95.390625 356.96875 C-95.38496521 355.69269897 -95.37930542 354.41664795 -95.37347412 353.10192871 C-95.35495798 349.73467342 -95.31912089 346.36853409 -95.2746582 343.00158691 C-95.23349433 339.55584447 -95.2151981 336.10998261 -95.1953125 332.6640625 C-95.15474205 325.92125357 -95.07643061 319.18037819 -95 312.4375 C-108.86 312.4375 -122.72 312.4375 -137 312.4375 C-136.96519531 316.23121094 -136.93039063 320.02492188 -136.89453125 323.93359375 C-136.87110316 327.62718962 -136.85290504 331.32077706 -136.83520508 335.0144043 C-136.8201629 337.57205947 -136.79972411 340.12968904 -136.77368164 342.68725586 C-136.73709796 346.37359963 -136.72022732 350.05960091 -136.70703125 353.74609375 C-136.69154739 354.88082626 -136.67606354 356.01555878 -136.66011047 357.18467712 C-136.65845056 365.09945675 -137.39019592 372.3436477 -142.3125 378.8125 C-148.16635622 384.53022003 -153.47946225 384.88437466 -161.26879883 384.87329102 C-162.28909683 384.88336685 -163.30939484 384.89344269 -164.36061096 384.90382385 C-167.72619654 384.93226916 -171.09133302 384.93817885 -174.45703125 384.94140625 C-176.80344322 384.95105004 -179.14985339 384.96114272 -181.4962616 384.97166443 C-186.41299622 384.98961749 -191.32957281 384.99518632 -196.24633789 384.9934082 C-202.53452446 384.99310349 -208.8216936 385.03405116 -215.10963917 385.08572483 C-219.95595416 385.11914635 -224.80202479 385.12516397 -229.64844322 385.12357903 C-231.96601555 385.12711047 -234.28359479 385.14033137 -236.60105324 385.16357613 C-239.84909107 385.19310399 -243.0949415 385.18429675 -246.34301758 385.16625977 C-247.76710937 385.19154755 -247.76710937 385.19154755 -249.2199707 385.21734619 C-256.2119947 385.11910617 -260.82319016 383.1761118 -266 378.4375 C-270.75613874 373.2055572 -270.56923077 367.31255589 -270.51416016 360.55200195 C-270.52128525 359.47785538 -270.52841034 358.4037088 -270.53575134 357.29701233 C-270.55500231 353.75641375 -270.54675571 350.21641469 -270.5390625 346.67578125 C-270.54897414 344.20345695 -270.56091716 341.73114004 -270.57479858 339.25883484 C-270.60715967 332.75164658 -270.61755127 326.24462652 -270.62164307 319.73736572 C-270.63039588 309.34077383 -270.66611259 298.94432033 -270.7138176 288.54784203 C-270.72633264 284.92973461 -270.72565022 281.31180434 -270.72354126 277.69367981 C-270.73012828 275.4524421 -270.73713586 273.21120557 -270.74462891 270.9699707 C-270.74050491 269.97682861 -270.73638092 268.98368652 -270.73213196 267.96044922 C-270.79949514 256.08720024 -273.10958819 246.2081901 -278 235.4375 C-283.95644268 222.3169607 -288.88773273 209.5315979 -292 195.4375 C-292.20496094 194.52613281 -292.40992188 193.61476563 -292.62109375 192.67578125 C-293.20371143 189.2341325 -293.05908615 185.92358287 -293 182.4375 C-295.95188114 184.87601051 -296.42884192 186.71071651 -297 190.4375 C-297.08459244 191.97899278 -297.12465519 193.52344862 -297.12457275 195.06726074 C-297.12713577 195.96722275 -297.12969879 196.86718475 -297.13233948 197.79441833 C-297.13023972 198.76911575 -297.12813995 199.74381317 -297.12597656 200.74804688 C-297.1278447 201.78437759 -297.12971283 202.82070831 -297.13163757 203.88844299 C-297.1356362 206.13538871 -297.13771592 208.38233848 -297.13809967 210.62928772 C-297.14151855 215.40421302 -297.16288064 220.17900255 -297.18333054 224.95388031 C-297.2213544 233.84248197 -297.25261019 242.73093659 -297.25048828 251.61962891 C-297.24970244 257.8047399 -297.27300687 263.98935111 -297.3123703 270.17433167 C-297.32284747 272.5314357 -297.3243418 274.88859729 -297.31671906 277.24571228 C-297.30712514 280.54001252 -297.32822687 283.83279049 -297.35644531 287.12695312 C-297.34624863 288.10165054 -297.33605194 289.07634796 -297.32554626 290.08058167 C-297.39674143 294.70935518 -297.48817794 296.77132806 -300.38397217 300.54040527 C-303.21956258 302.5967227 -304.53853066 303.11658546 -308 303.0625 C-309.2375 303.08183594 -309.2375 303.08183594 -310.5 303.1015625 C-314.30542472 302.09074656 -315.61621126 300.58212921 -318 297.4375 C-318.74535024 293.78645927 -318.67281059 290.18757138 -318.63110352 286.47192383 C-318.63825882 285.36559601 -318.64541412 284.25926819 -318.65278625 283.11941528 C-318.66969857 279.46070087 -318.65024774 275.8032078 -318.62890625 272.14453125 C-318.629735 269.59730427 -318.63219461 267.05007734 -318.63621521 264.50285339 C-318.63907537 259.16049721 -318.62488638 253.81857197 -318.59692383 248.47631836 C-318.56495427 242.32153296 -318.56485608 236.16738204 -318.5821386 230.01255208 C-318.59807665 224.07247559 -318.59111909 218.13259171 -318.57420158 212.1925106 C-318.56903409 209.67484745 -318.56948408 207.15716606 -318.57574654 204.63950539 C-318.58122882 201.10929447 -318.56072198 197.58013931 -318.53344727 194.05004883 C-318.53997314 193.01852188 -318.54649902 191.98699493 -318.55322266 190.92420959 C-318.41017644 179.972994 -314.79440792 172.03792944 -307 164.4375 C-303.45702082 161.24017732 -298.98658394 157.4375 -294 157.4375 C-294.04382813 156.365 -294.08765625 155.2925 -294.1328125 154.1875 C-294.12528446 148.47622546 -293.00563619 143.01787324 -291.875 137.4375 C-291.65271729 136.3347876 -291.43043457 135.2320752 -291.20141602 134.09594727 C-289.30881103 125.12818348 -286.6879628 116.81459002 -283 108.4375 C-282.44119141 107.13039062 -282.44119141 107.13039062 -281.87109375 105.796875 C-278.78859068 99.07580948 -278.78859068 99.07580948 -275 97.4375 C-271.98185195 97.21257735 -269.01958958 97.26329291 -266 97.4375 C-266 98.0975 -266 98.7575 -266 99.4375 C-265.360625 99.72625 -264.72125 100.015 -264.0625 100.3125 C-262 101.4375 -262 101.4375 -261 103.4375 C-260.62552528 109.31675304 -261.32380475 113.09755526 -263.75 118.5625 C-273.72211791 142.08881005 -276.76200551 169.574917 -270 194.4375 C-269.81195801 195.17468262 -269.62391602 195.91186523 -269.43017578 196.67138672 C-266.58221902 207.74828458 -262.71111835 217.91202101 -257.51538086 228.10791016 C-251.26954139 240.45271456 -249.83705325 251.86259875 -249.88647461 265.55688477 C-249.88632858 266.63109177 -249.88618256 267.70529877 -249.8860321 268.8120575 C-249.88672431 272.33436153 -249.89448413 275.85661154 -249.90234375 279.37890625 C-249.90421039 281.83227001 -249.90563313 284.28563415 -249.90663147 286.73899841 C-249.91043728 293.17511028 -249.92025094 299.61119935 -249.93133545 306.04730225 C-249.94159129 312.62332857 -249.94613801 319.1993586 -249.95117188 325.77539062 C-249.96187503 338.66277201 -249.97945606 351.55013054 -250 364.4375 C-235.48 364.4375 -220.96 364.4375 -206 364.4375 C-206.05800781 359.81492187 -206.11601562 355.19234375 -206.17578125 350.4296875 C-206.20134021 347.49475641 -206.22541021 344.55996323 -206.24414062 341.625 C-206.27398861 336.97008641 -206.30923268 332.31566627 -206.37719727 327.66113281 C-206.43167052 323.90689832 -206.46145222 320.1531932 -206.47438622 316.3985939 C-206.48359892 314.96884964 -206.50158988 313.53913317 -206.52865028 312.10961533 C-206.75772582 299.50268839 -206.75772582 299.50268839 -203.65698242 295.57470703 C-200.12912284 292.73698923 -197.66233155 292.31251683 -193.27580261 292.29032898 C-191.81856026 292.27959602 -191.81856026 292.27959602 -190.33187866 292.26864624 C-189.26740509 292.26595734 -188.20293152 292.26326843 -187.10620117 292.26049805 C-185.98398666 292.25392685 -184.86177216 292.24735565 -183.70555115 292.24058533 C-179.9846897 292.22084315 -176.26386861 292.20918843 -172.54296875 292.19921875 C-171.27343164 292.19514322 -170.00389454 292.1910677 -168.69588661 292.18686867 C-162.67094988 292.16815691 -156.64603765 292.1535911 -150.62107962 292.1452567 C-143.67241375 292.13548505 -136.72406649 292.10916489 -129.77551287 292.06875581 C-123.75217802 292.0349324 -117.72899764 292.02310976 -111.70556068 292.01905251 C-109.14548899 292.01417601 -106.58542097 292.00253202 -104.02541161 291.98401451 C-100.4440092 291.95971652 -96.86344169 291.9605714 -93.28198242 291.9675293 C-91.6943811 291.94831421 -91.6943811 291.94831421 -90.07470703 291.92871094 C-84.08418385 291.97115893 -80.54317023 292.39877684 -76 296.4375 C-74.59392244 299.24965512 -74.88049514 301.5779422 -74.88647461 304.72314453 C-74.88632858 305.36717224 -74.88618256 306.01119995 -74.8860321 306.67474365 C-74.8867296 308.80663402 -74.89451434 310.93843737 -74.90234375 313.0703125 C-74.90420851 314.54718986 -74.90563214 316.02406784 -74.90663147 317.50094604 C-74.91045208 321.39062199 -74.92027848 325.28026067 -74.93133545 329.16992188 C-74.9433565 333.83551768 -74.94795398 338.50112593 -74.95378876 343.16673279 C-74.96349047 350.25701445 -74.9826502 357.34721434 -75 364.4375 C-60.48 364.4375 -45.96 364.4375 -31 364.4375 C-31.04640625 359.51457031 -31.0928125 354.59164063 -31.140625 349.51953125 C-31.16106709 346.39776533 -31.18032298 343.27608211 -31.1953125 340.15429688 C-31.2192094 335.20091581 -31.24745658 330.24783096 -31.30175781 325.29467773 C-31.34527028 321.30056707 -31.36914846 317.30677411 -31.37950897 313.31244469 C-31.38689073 311.78980191 -31.40130586 310.26717621 -31.42292023 308.74466896 C-31.45202778 306.60910312 -31.4559532 304.47484413 -31.45410156 302.33911133 C-31.46298401 301.1244368 -31.47186646 299.90976227 -31.48101807 298.65827942 C-30.9058386 294.80701825 -29.71062576 293.18013472 -27 290.4375 C-24.66015625 289.25 -24.66015625 289.25 -22.0625 288.4375 C-20.60650391 287.95216797 -20.60650391 287.95216797 -19.12109375 287.45703125 C-18.09113281 287.12058594 -17.06117188 286.78414063 -16 286.4375 C-5.45975815 282.71510976 5.16106674 278.43233927 14 271.4375 C13.89042969 270.91285156 13.78085937 270.38820313 13.66796875 269.84765625 C12.80706555 265.64112922 11.99055011 261.43202356 11.26953125 257.19921875 C11.14231689 256.45599365 11.01510254 255.71276855 10.8840332 254.94702148 C10.63244204 253.46674419 10.38473696 251.98579994 10.14135742 250.50415039 C8.98317505 243.70660137 7.73067495 238.73593924 2.75 233.6875 C-9.32929321 220.67903039 -14.79405274 204.44707713 -14.40234375 186.81640625 C-13.90420132 178.63517022 -10.06306671 172.01869964 -4.1875 166.4375 C4.05332509 160.07807083 11.5902135 158.19793855 22 159.4375 C30.99771556 161.66502903 37.22617464 166.41462766 42.3125 174.0625 C45.06381043 178.87181983 45.97891531 183.39973862 46.578125 188.87109375 C46.85702539 191.66979408 46.85702539 191.66979408 49 194.4375 C51.54503265 195.05923897 51.54503265 195.05923897 54.5 195.3125 C63.87888984 196.70529322 70.63405115 199.98809462 76.59765625 207.453125 C81.66604415 214.62510565 82.86803338 221.81829534 82 230.4375 C79.80829132 239.56753214 75.85181795 246.08038704 68 251.25 C59.13467733 256.66154071 48.47997304 256.69285872 38.51171875 254.76171875 C35.97050423 254.06626316 33.48154471 253.32076168 31 252.4375 C35.48850276 268.66516384 41.41014222 282.92781224 53 295.4375 C53.65871094 296.16453125 54.31742187 296.8915625 54.99609375 297.640625 C70.72570853 314.22476614 93.44002022 323.28407898 116.04219055 324.01141357 C120.86029619 324.08577221 125.67406412 324.08421031 130.49243164 324.03442383 C134.22031464 323.99969429 137.94587198 324.01393783 141.67382812 324.03320312 C144.06771834 324.02631382 146.46160254 324.01664977 148.85546875 324.00390625 C149.95763229 324.00886612 151.05979584 324.01382599 152.19535828 324.01893616 C158.5439577 323.92219108 163.78923062 323.31558037 169 319.4375 C172.6466348 315.25310605 173.66939946 311.08812529 173.37890625 305.578125 C172.51715976 300.70970153 169.88510024 298.16524908 166.1875 295.125 C162.49270454 293.17870518 159.00379263 293.16157994 154.875 293 C141.67555443 292.42667759 127.22116283 286.18887969 118 276.4375 C105.77113716 262.13409793 101.68785665 248.11996472 101.72875977 229.62255859 C101.72091965 227.75697296 101.72091965 227.75697296 101.71292114 225.85369873 C101.7027221 223.1669698 101.69596765 220.48049588 101.69503975 217.79377365 C101.69308056 213.52908075 101.67492523 209.26454634 101.65428162 204.99990845 C101.60533616 194.40541964 101.57430988 183.81088804 101.55297852 173.21630859 C101.53637076 164.98096164 101.51331851 156.74575213 101.46995777 148.51049674 C101.4519154 144.97328495 101.43954358 141.43626001 101.44125557 137.89899826 C101.45315815 103.65013645 94.91142725 75.30362845 70.75 49.75 C51.32797445 31.21079379 25.44512764 20.99805189 -1.35058594 21.13720703 C-12.36527713 21.39569133 -24.60070456 24.023357 -32.68359375 32.125 C-34 33.4375 -34 33.4375 -36 33.4375 C-35.4225 34.0665625 -34.845 34.695625 -34.25 35.34375 C-27.4234915 43.2131973 -27.4234915 43.2131973 -27.25 47.75 C-28.06879126 51.7757237 -29.07418145 53.59773494 -32 56.4375 C-35.22272328 58.04886164 -38.51438695 58.03194564 -42 57.4375 C-44.5625 55.3125 -44.5625 55.3125 -47 52.4375 C-53.94812015 45.22504919 -62.57615076 41.21865168 -72.625 40.875 C-78.73181428 41.13797286 -83.62811175 42.56615442 -89 45.4375 C-89.63550781 45.76492187 -90.27101562 46.09234375 -90.92578125 46.4296875 C-97.76640893 50.58563425 -102.50183514 58.5232271 -104.58457947 66.12921143 C-105.54007398 71.43842678 -105.32660515 76.88449225 -105.3359375 82.26171875 C-105.34237863 83.61302323 -105.34910793 84.96432636 -105.35610962 86.31562805 C-105.36804399 89.14233628 -105.37179464 91.96892268 -105.37060547 94.7956543 C-105.37040297 98.38517161 -105.39764899 101.97389103 -105.43214989 105.56322002 C-105.45459695 108.3542679 -105.45843757 111.1451295 -105.45738602 113.93625832 C-105.46083732 115.89243591 -105.48239146 117.84855535 -105.50448608 119.80461121 C-105.45168764 130.2539077 -103.76648079 141.73030532 -96 149.4375 C-88.45853086 155.64120366 -80.36679026 159.08386682 -70.5390625 158.71875 C-61.55469791 157.72355885 -53.2532989 154.28514634 -47.2109375 147.3984375 C-42.29085943 140.5394124 -40.45298183 133.28391481 -39.125 125.0625 C-38.47116762 121.68170817 -38.08766582 120.54269898 -35.8125 117.8125 C-31.64678123 115.77592638 -28.16477175 115.77604197 -23.75 117.125 C-20.78377537 119.34966847 -19.27451032 121.6272157 -18.7109375 125.34375 C-18.16093725 139.14375626 -24.0799022 152.58940388 -33.125 162.75 C-43.93159503 174.22694277 -57.95826299 179.43732611 -73.625 179.9375 C-88.17914066 179.48125735 -100.32570832 173.49130537 -110.8984375 163.703125 C-123.18274503 150.45981948 -126.32098001 135.22673582 -126.30078125 117.76171875 C-126.30467877 116.34601214 -126.30901557 114.93030667 -126.31376648 113.51460266 C-126.32119038 110.55860593 -126.32096593 107.60272871 -126.31567383 104.64672852 C-126.30989124 100.89149669 -126.32679924 97.13676005 -126.3500185 93.38160992 C-126.36487869 90.46018193 -126.36561091 87.53886976 -126.36250877 84.61741066 C-126.36301607 83.23456659 -126.36814029 81.851715 -126.37832069 80.46890831 C-126.45319422 68.87662929 -125.19460178 58.41572992 -119.375 48.25 C-118.76398438 47.16332031 -118.15296875 46.07664063 -117.5234375 44.95703125 C-116 42.4375 -116 42.4375 -115 41.4375 C-120.99160594 41.38747053 -126.98308606 41.3514874 -132.97485352 41.32763672 C-135.00645063 41.31767712 -137.03803378 41.30410456 -139.06958008 41.28662109 C-154.56388579 41.15676988 -169.34051235 41.50725508 -184.25 46.25 C-185.09844482 46.50990723 -185.94688965 46.76981445 -186.82104492 47.03759766 C-191.48572238 48.50510652 -195.90076899 50.18248957 -200.3125 52.3125 C-204.41875282 54.28863417 -207.37678535 55.34401268 -212 54.4375 C-216.00535091 51.98978556 -217.66804391 50.51147557 -219.0625 46 C-218.990046 41.8701218 -218.14185106 39.94108826 -216 36.4375 C-204.18724922 27.71423789 -186.20316031 23.91458818 -172 21.4375 C-171.00974319 21.26291763 -170.01948639 21.08833527 -168.9992218 20.90846252 C-163.97955257 20.2044583 -158.95778122 20.32551115 -153.89916992 20.35913086 C-151.62688747 20.36524366 -149.35460452 20.37117075 -147.08232117 20.37693787 C-145.28590966 20.3839462 -145.28590966 20.3839462 -143.45320702 20.39109612 C-137.08532786 20.4103356 -130.71749734 20.39505938 -124.34960938 20.38476562 C-116.25817357 20.37251804 -108.1672752 20.3699659 -100.07592773 20.41333008 C-93.52534757 20.44831779 -86.97555208 20.44125604 -80.42495155 20.40976143 C-77.93518111 20.4048457 -75.44533958 20.41407749 -72.95567894 20.43797112 C-69.46561816 20.4695034 -65.97902006 20.45112949 -62.48901367 20.42163086 C-60.96046249 20.45310463 -60.96046249 20.45310463 -59.40103149 20.48521423 C-52.20894504 20.3510126 -48.48395082 18.20335482 -43.17955494 13.38979435 C-40.11747439 10.64699468 -36.80543982 8.89692309 -33.125 7.125 C-32.50753906 6.80466797 -31.89007813 6.48433594 -31.25390625 6.15429688 C-21.27409614 1.22487552 -11.02118885 -0.10088411 0 0 Z " fill="#000001" transform="translate(318,63.5625)"/>
<path d="M0 0 C7.67286311 4.98153844 12.13488405 12.40465214 15 21 C15.11422091 23.06742558 15.16929979 25.138296 15.19287109 27.20874023 C15.20893402 28.49115097 15.22499695 29.77356171 15.24154663 31.09483337 C15.25304121 32.49941336 15.26364854 33.90400084 15.2734375 35.30859375 C15.27876118 36.01901384 15.28408485 36.72943394 15.28956985 37.46138191 C15.31629577 41.22937057 15.33566331 44.99732633 15.35009766 48.76538086 C15.36337523 51.86431808 15.39111162 54.96258715 15.43212891 58.0612793 C15.48185929 61.81904014 15.50626856 65.57620045 15.51332474 69.3342762 C15.5199766 70.75625225 15.53503737 72.17821815 15.55921555 73.6000042 C15.75426165 85.77456327 13.58770921 96.25490633 4.96875 105.30859375 C0.92963487 108.77870655 -3.56776672 112 -9 112 C-8.99887207 110.68209473 -8.99774414 109.36418945 -8.99658203 108.00634766 C-9.03608676 70.77367533 -9.79615607 33.92411197 -34.82421875 3.8046875 C-35.21222656 3.20914063 -35.60023438 2.61359375 -36 2 C-35 -1 -35 -1 -33.171875 -2.16796875 C-21.56215935 -7.05528453 -10.94143333 -6.16927302 0 0 Z " fill="#6C90AA" transform="translate(449,109)"/>
<path d="M0 0 C0 23.1 0 46.2 0 70 C-9.24 70 -18.48 70 -28 70 C-28 50.86 -28 31.72 -28 12 C-24.04 10.35 -20.08 8.7 -16 7 C-13.44316818 5.75996055 -10.89817913 4.49465488 -8.375 3.1875 C-2.21748401 0 -2.21748401 0 0 0 Z " fill="#6B90AA" transform="translate(335,358)"/>
<path d="M0 0 C9.24 0 18.48 0 28 0 C28 17.16 28 34.32 28 52 C18.76 52 9.52 52 0 52 C0 34.84 0 17.68 0 0 Z " fill="#6C91AB" transform="translate(132,376)"/>
<path d="M0 0 C4.52192009 0.44477903 6.95265077 1.95844461 9.8125 5.375 C10.9372401 7.95575591 11.449822 10.54813575 11.9375 13.3125 C13.53903339 21.80379832 16.62048201 27.15726145 23.8125 32.375 C28.11276999 34.65161353 31.62503959 35.5286128 36.4375 36.1875 C40.12578699 36.80136895 42.44579833 37.32338278 45 40.125 C47.02751263 43.76053989 47.66021208 45.30598203 46.8125 49.375 C44.7168266 52.79341783 42.7056978 55.0772674 38.8125 56.375 C27.3267631 57.30126911 16.73688041 53.58965701 7.8125 46.375 C5.125 43.9375 5.125 43.9375 2.8125 41.375 C2.33167969 40.90964844 1.85085938 40.44429688 1.35546875 39.96484375 C-6.44858533 31.92370448 -9.59473186 19.98472065 -9.55078125 9.01171875 C-9.1875 6.375 -9.1875 6.375 -6.75 3.25 C-5.904375 2.63125 -5.05875 2.0125 -4.1875 1.375 C-3.1875 0.375 -3.1875 0.375 0 0 Z " fill="#FBEFD6" transform="translate(333.1875,242.625)"/>
<path d="M0 0 C2.875 2.4375 2.875 2.4375 5 5 C5.33 5.33 5.66 5.66 6 6 C6.58968059 13.07616708 6.58968059 13.07616708 4.125 16.9375 C1.13549686 19.83907658 0.42370761 19.97949802 -3.875 20.1875 C-7.06908768 20.13542248 -9.38958792 20.00800929 -12 18 C-14.54594764 14.56297069 -14.36399464 11.14953888 -14 7 C-12.74544028 4.17724064 -11.71615278 2.53711459 -9.25 0.6875 C-5.93788168 -0.32453615 -3.44560774 -0.42314481 0 0 Z " fill="#000101" transform="translate(77,124)"/>
<path d="M0 0 C4.21809905 0.2723607 7.23384463 0.54297026 10.171875 3.77734375 C12.32051921 7.45083223 12.97427169 8.93833964 12.109375 13.08984375 C10.0409516 16.62618054 8.81036537 18.48080922 4.94921875 19.86328125 C2.51047397 20.29484543 0.56213384 20.44531605 -1.890625 20.08984375 C-4.69727887 17.92638139 -6.314659 16.24177574 -7.890625 13.08984375 C-8.265625 9.77734375 -8.265625 9.77734375 -7.890625 6.08984375 C-5.453125 3.21484375 -5.453125 3.21484375 -2.890625 1.08984375 C-1.890625 0.08984375 -1.890625 0.08984375 0 0 Z " fill="#030405" transform="translate(348.890625,171.91015625)"/>
</svg>
