<?xml version="1.0" encoding="UTF-8"?>
<svg version="1.1" xmlns="http://www.w3.org/2000/svg" width="512" height="512">
<path d="M0 0 C3.62452102 2.75048802 6.83411757 5.73749279 10 9 C10.96873047 9.95519531 10.96873047 9.95519531 11.95703125 10.9296875 C24.85061755 24.46935764 27.15232583 41.84226798 27.16796875 59.6484375 C27.17119112 60.98776279 27.17455588 62.32708775 27.17805481 63.66641235 C27.18402515 66.47211519 27.1858972 69.27778735 27.18530273 72.08349609 C27.18522191 74.92666038 27.19209506 77.76966206 27.20581055 80.61279297 C27.33864479 108.58706932 25.89475302 133.12880604 12 158 C11.45601562 158.98613281 10.91203125 159.97226563 10.3515625 160.98828125 C3.57290535 172.41279855 -5.98183906 181.57604627 -16.30859375 189.78125 C-22.00675114 194.47871502 -26.65340305 198.76446973 -27.875 206.25 C-28.32651158 212.2902216 -27.23229224 217.3663968 -23.26171875 222.05078125 C-18.15622971 226.83903602 -13.62057305 228.66476175 -6.625 229.3125 C1.41742104 228.61918784 7.55286857 226.01402746 13 220 C14.96968365 217.41962841 16.84090344 214.78233296 18.7109375 212.12890625 C26.09634618 202.03383398 34.45862063 193.08110883 44 185 C44.77472656 184.32710937 45.54945313 183.65421875 46.34765625 182.9609375 C77.28723573 157.03160712 119.81636389 143.47638687 159.9765625 146.27734375 C167.67915729 146.97027953 175.13472174 148.33146962 182.625 150.25 C183.33938232 150.43006592 184.05376465 150.61013184 184.78979492 150.7956543 C198.00920948 154.39236227 210.24092546 160.40072034 222.3125 166.75 C223.67085169 167.45890442 225.02933289 168.16756072 226.38793945 168.87597656 C230.26619905 170.90311205 234.13520785 172.94732145 238 175 C239.02448242 175.54398438 240.04896484 176.08796875 241.10449219 176.6484375 C243.6392154 178.00315701 246.16594594 179.37095397 248.6875 180.75 C249.39237549 181.13124023 250.09725098 181.51248047 250.82348633 181.90527344 C255.05572958 184.26155448 258.78754417 186.57508834 261 191 C261.01953125 192.91796875 261.01953125 192.91796875 260.8125 195.1875 C260.72935547 196.29158203 260.72935547 196.29158203 260.64453125 197.41796875 C259.73538177 201.06007668 257.95148584 203.79706031 256 207 C257.52753906 208.07314453 257.52753906 208.07314453 259.0859375 209.16796875 C301.46324122 238.98285065 301.46324122 238.98285065 302.37109375 244.0859375 C302.39300781 244.84132812 302.41492188 245.59671875 302.4375 246.375 C302.47746094 247.12523437 302.51742188 247.87546875 302.55859375 248.6484375 C301.71702561 252.19126283 299.71478029 253.63759903 297 256 C293.98901367 257.26342773 293.98901367 257.26342773 290.66796875 258.18359375 C275.74614287 261.75430535 275.74614287 261.75430535 264.58740234 271.1418457 C263.23713272 274.03724894 262.11868399 277.00895669 261 280 C244.73532943 305.76081364 220.89880369 321.85148677 191.69140625 329.19140625 C175.49979967 332.73813912 159.1828501 333.15224988 142.6875 333.0625 C141.06054827 333.05747003 139.43359501 333.0529098 137.80664062 333.04882812 C133.87105525 333.03795245 129.93554507 333.02077226 126 333 C127.90050181 336.68133242 129.80284563 340.3617056 131.70678711 344.04125977 C132.35213169 345.28905447 132.99700153 346.53709484 133.64135742 347.78540039 C138.66243638 357.51561195 138.66243638 357.51561195 144.06567383 367.03735352 C145.98665608 371.07257075 146.21909304 373.36463018 144.75 377.625 C142.54460266 381.87826631 140.64263161 383.93626025 136.26977539 385.82177734 C135.15699974 386.30775894 135.15699974 386.30775894 134.02174377 386.80355835 C133.22179489 387.14424347 132.42184601 387.48492859 131.59765625 387.8359375 C130.34824501 388.37778183 130.34824501 388.37778183 129.07359314 388.93057251 C126.40606394 390.08541054 123.73436144 391.23022626 121.0625 392.375 C119.29855324 393.13738514 117.53487831 393.90039955 115.77148438 394.6640625 C110.853802 396.7905313 105.92817742 398.89799279 101 401 C100.33587097 401.28460083 99.67174194 401.56920166 98.98748779 401.86242676 C97.28368424 402.59186431 95.57749463 403.31572184 93.87109375 404.0390625 C92.96157959 404.42529785 92.05206543 404.8115332 91.11499023 405.20947266 C89 406 89 406 87 406 C87.00999275 407.21696312 87.00999275 407.21696312 87.02018738 408.45851135 C87.08042594 416.123424 87.12603892 423.78822104 87.15543652 431.45330906 C87.17105847 435.39353641 87.19223273 439.33356732 87.22631836 443.27368164 C87.25903646 447.07975622 87.27687909 450.88564244 87.28463173 454.69184685 C87.290153 456.1402476 87.3009346 457.58863864 87.31719017 459.03695869 C87.487239 474.82289415 87.487239 474.82289415 82.203125 481.15234375 C81.23632812 482.03599609 81.23632812 482.03599609 80.25 482.9375 C77.49403554 485.547353 74.9049177 488.17734793 72.4375 491.0625 C71.86644531 491.71347656 71.29539063 492.36445313 70.70703125 493.03515625 C69.55786874 494.35787649 68.43039715 495.69972192 67.32421875 497.05859375 C64.98408515 499.73226364 63.24414471 501.68467367 59.734375 502.57421875 C55.66124049 502.76978316 53.49972313 502.31232696 50 500.125 C46.94188632 496.87575422 46.82662488 494.68708408 46.57421875 490.265625 C47.48597828 485.41406054 50.72108987 482.0966648 54.40478516 479.06225586 C60.50897172 473.8792998 65.05958753 469.17987049 66.23339844 461.00439453 C66.76329869 454.18430638 66.58555373 447.39269212 66.375 440.5625 C66.35295069 438.17387879 66.33727525 435.78518983 66.328125 433.39648438 C66.29219794 427.5942634 66.17015981 421.79977291 66 416 C61.05 418.31 56.1 420.62 51 423 C50.79110342 427.94976818 50.79110342 427.94976818 50.61206055 432.90063477 C50.35100001 437.88492204 49.34930783 441.57481922 47 446 C42.98141405 448.6790573 39.72358279 448.69610694 35 448 C32.12970131 446.20606332 30.50868362 445.01736724 29 442 C28.7186907 437.7910431 28.68632437 433.57840783 28.64990234 429.36132812 C28.63338325 427.96076799 28.6061458 426.56029075 28.56787109 425.16015625 C28.51276825 423.13237155 28.49117965 421.10656006 28.4765625 419.078125 C28.45674316 417.86543945 28.43692383 416.65275391 28.41650391 415.40332031 C29.14003027 411.18325444 30.80625044 408.72301376 34 406 C36.36771388 404.6508863 38.48606854 403.58301294 40.98046875 402.5703125 C41.63453201 402.2902536 42.28859528 402.0101947 42.96247864 401.72164917 C45.031362 400.84070329 47.10905941 399.98311387 49.1875 399.125 C50.59370145 398.52745755 51.99930736 397.92851153 53.40429688 397.328125 C63.62475904 393 63.62475904 393 66 393 C66 369.24 66 345.48 66 321 C63.03 320.34 60.06 319.68 57 319 C55.02374248 318.37182468 53.0599276 317.70179276 51.1171875 316.9765625 C50.09496094 316.595 49.07273438 316.2134375 48.01953125 315.8203125 C46.98183594 315.42585938 45.94414062 315.03140625 44.875 314.625 C43.82957031 314.23828125 42.78414062 313.8515625 41.70703125 313.453125 C27.36716552 308.05074828 27.36716552 308.05074828 24 303 C23.67 300.36 23.34 297.72 23 295 C16.73 292.36 10.46 289.72 4 287 C3.34 288.32 2.68 289.64 2 291 C-1.03323453 292.81994072 -2.94561776 293.00097111 -6.5 292.9375 C-10.84291002 291.77422053 -12.44923694 290.71020082 -15 287 C-15.39834576 283.95112282 -15.29945877 281.05447943 -15 278 C-18.6299229 276.70314488 -22.17901777 275.55903575 -26 275 C-28.73486777 276.73787565 -28.73486777 276.73787565 -31 279 C-38.42487332 280.45845726 -44.11433639 277.13456212 -50.31542969 273.17285156 C-55.3595582 269.66096847 -59.69518901 265.36187034 -64 261 C-64.67933594 260.319375 -65.35867187 259.63875 -66.05859375 258.9375 C-80.37008932 243.63790563 -84.56080411 224.00252941 -84.26953125 203.72265625 C-83.61514591 184.20392101 -74.60481788 166.34335751 -60.74609375 152.796875 C-57.13197298 149.50331103 -53.37017985 146.52560435 -49.4375 143.625 C-40.17447286 136.47969809 -33.53674462 126.48210723 -31 115 C-31.83660156 114.97421875 -32.67320312 114.9484375 -33.53515625 114.921875 C-49.74767833 114.13189607 -64.81041441 110.20124081 -77 99 C-86.16074867 107.64143186 -90.15645023 117.19917811 -94.40234375 128.8125 C-94.82644531 129.9675 -95.25054687 131.1225 -95.6875 132.3125 C-96.04199219 133.33988281 -96.39648438 134.36726562 -96.76171875 135.42578125 C-98.14545566 138.30238258 -99.25978997 139.41274627 -102 141 C-105.85879672 141.98223917 -108.0588913 142.40638785 -111.75 140.8125 C-116.03741528 137.3587488 -117.5292926 133.95573868 -119.0078125 128.6953125 C-119.35457031 127.47199219 -119.70132813 126.24867188 -120.05859375 124.98828125 C-120.3213208 124.03622803 -120.3213208 124.03622803 -120.58935547 123.06494141 C-121.12202008 121.13579236 -121.66839804 119.21044706 -122.21484375 117.28515625 C-126.47274841 102.11936101 -128.56097492 87.46042631 -120.5 73.0625 C-115.72241496 65.65843163 -109.69092464 58.91201164 -103.65234375 52.51171875 C-98.7811363 47.09420766 -96.93419639 42.03670733 -95.42480469 35.03735352 C-92.91317228 23.54649962 -87.29818055 15.21218904 -79 7 C-78.40832031 6.37480469 -77.81664062 5.74960938 -77.20703125 5.10546875 C-73.00841048 0.99953277 -68.25075143 -1.6622867 -63.0625 -4.3125 C-62.07817993 -4.81934326 -62.07817993 -4.81934326 -61.07397461 -5.33642578 C-41.37345137 -14.949405 -18.15582827 -10.88928447 0 0 Z M87 327 C87 345.48 87 363.96 87 383 C94.21213002 380.59595666 101.0434738 377.99774259 108 375 C109.04800781 374.56171875 110.09601563 374.1234375 111.17578125 373.671875 C112.16964844 373.24390625 113.16351563 372.8159375 114.1875 372.375 C115.08855469 371.99085938 115.98960937 371.60671875 116.91796875 371.2109375 C119.32864916 370.11585031 119.32864916 370.11585031 120 367 C118.9210326 364.22265281 118.9210326 364.22265281 117.24609375 361.1875 C116.63830078 360.02863281 116.03050781 358.86976563 115.40429688 357.67578125 C114.74887155 356.45042795 114.09327172 355.22516796 113.4375 354 C112.80834318 352.80646442 112.18007849 351.61245812 111.55273438 350.41796875 C110.31557594 348.06646726 109.06453044 345.72419576 107.80566406 343.3840332 C106.62987539 341.18046279 105.4793091 338.96318703 104.35839844 336.73120117 C103.85211914 335.74095947 103.34583984 334.75071777 102.82421875 333.73046875 C102.38811279 332.85543701 101.95200684 331.98040527 101.50268555 331.07885742 C99.67674307 328.55279728 98.36010962 328.05309163 95.375 327.3125 C92.55011511 326.98045213 89.85681724 327 87 327 Z " fill="#010000" transform="translate(180,10)"/>
<path d="M0 0 C0.81724656 25.27410671 -6.7031763 47.12808612 -24 66 C-27.64636761 69.58228382 -31.49016776 72.84037462 -35.54296875 75.953125 C-44.91601082 83.1566127 -52.03737334 91.0212097 -54 103 C-55.01879893 116.15706044 -53.61030946 127.0254726 -44.75 137.4375 C-35.41552621 146.9416915 -26.09772221 151.21647966 -12.75 151.5 C-0.67424244 151.44532839 10.36347891 147.62081832 19 139 C23.11834874 134.4290154 27.00176377 129.70349607 30.66015625 124.75390625 C39.52491372 112.76041085 50.69698404 102.37360082 63 94 C63.83144531 93.4121875 64.66289062 92.824375 65.51953125 92.21875 C77.74108806 83.95840439 91.7308273 77.66139443 106 74 C107.35680292 73.63814113 108.71357188 73.2761549 110.0703125 72.9140625 C129.74236959 67.77605697 152.29595534 66.01919174 172 72 C172.65645508 72.19384277 173.31291016 72.38768555 173.98925781 72.58740234 C193.63874655 78.5694589 212.60080847 89.22716532 230 100 C220.29997981 118.92307521 204.78103314 133.26851612 184.51171875 140.19140625 C172.73231311 143.68017011 161.64242033 145.28633027 149.36590767 145.27439499 C147.14162386 145.27341558 144.9178048 145.2865302 142.69358826 145.30337524 C136.3791742 145.34926416 130.06481985 145.3742902 123.75024414 145.38085938 C119.86645848 145.38587038 115.98317667 145.41007572 112.09956169 145.44618607 C110.62641357 145.45597194 109.15319616 145.45832258 107.6800251 145.45301437 C105.62670716 145.4459509 103.57490318 145.46319977 101.52172852 145.48583984 C100.35577652 145.48868988 99.18982452 145.49153992 97.98854065 145.49447632 C94.34980796 146.1099826 93.16391754 147.04933462 91 150 C90.39381114 154.77373727 90.28408166 156.83971856 92.8125 160.9375 C96.33646337 164.26009403 99.35554623 164.1320222 104.00585938 164.16113281 C105.24565552 164.17074036 106.48545166 164.1803479 107.76281738 164.19024658 C109.12312636 164.19510199 110.48343751 164.19937898 111.84375 164.203125 C112.53440048 164.20595238 113.22505096 164.20877975 113.93663025 164.21169281 C117.60896181 164.22670377 121.28125407 164.23591453 124.95361328 164.24023438 C127.95601815 164.24458137 130.95812953 164.25832083 133.96044922 164.28125 C169.29632492 164.54564739 201.55324977 161.01696993 228.04516602 135.19262695 C232.54673944 130.99176062 232.54673944 130.99176062 236 126 C239.31727736 126.61856209 241.41523757 127.80266641 244.1171875 129.80078125 C245.27541016 130.64866211 245.27541016 130.64866211 246.45703125 131.51367188 C247.25496094 132.10728516 248.05289062 132.70089844 248.875 133.3125 C250.45500731 134.47624111 252.03572201 135.6390225 253.6171875 136.80078125 C254.36452148 137.35330566 255.11185547 137.90583008 255.88183594 138.47509766 C257.74406649 139.81574912 259.63255186 141.0657962 261.5703125 142.29296875 C262.37210937 142.85628906 263.17390625 143.41960937 264 144 C264 144.66 264 145.32 264 146 C263.20335937 146.24234375 262.40671875 146.4846875 261.5859375 146.734375 C260.52632813 147.06953125 259.46671875 147.4046875 258.375 147.75 C257.33085937 148.07484375 256.28671875 148.3996875 255.2109375 148.734375 C247.99202438 151.57978601 245.07989271 154.77854632 242.0625 161.625 C231.88569874 183.2041958 215.11173728 199.19048809 192.81201172 207.84960938 C176.8803673 213.45432082 160.84113923 214.33511365 144.11328125 214.26074219 C141.2680098 214.25006757 138.42337685 214.26067412 135.578125 214.2734375 C113.87532953 214.28904688 93.13374126 211.73310099 72.29052734 205.66015625 C70.12172234 205.03508178 67.94760375 204.4355898 65.76953125 203.84375 C56.89430637 201.38821196 48.45755201 198.34140454 40.03759766 194.59057617 C34.76497944 192.34022661 29.75907188 190.88686541 24 192 C20.93275543 194.31256004 20.93275543 194.31256004 19 197 C11.81783567 194.72564796 4.9241798 191.96415819 -2 189 C-2.42732422 189.94939453 -2.42732422 189.94939453 -2.86328125 190.91796875 C-4 193 -4 193 -6.1875 194.3125 C-9.89327742 195.2183567 -12.31261103 194.98769347 -16 194 C-18.9375 192 -18.9375 192 -21 189 C-21.39834576 185.95112282 -21.29945877 183.05447943 -21 180 C-21.62648437 179.79503906 -22.25296875 179.59007812 -22.8984375 179.37890625 C-23.71570313 179.10949219 -24.53296875 178.84007812 -25.375 178.5625 C-26.18710938 178.29566406 -26.99921875 178.02882813 -27.8359375 177.75390625 C-30 177 -30 177 -32 176 C-31.91298828 175.11248047 -31.91298828 175.11248047 -31.82421875 174.20703125 C-31.58606861 170.03600159 -31.47462981 167.74568673 -33.9375 164.25 C-36.360501 162.469836 -38.55064496 161.13388137 -41.1875 159.75 C-55.29625463 152.24884545 -62.52212008 140.19469981 -68.25 125.875 C-69.28177653 121.91985664 -69.73048047 118.07413249 -70 114 C-70.06574219 113.07960938 -70.13148437 112.15921875 -70.19921875 111.2109375 C-70.76418929 96.4437766 -64.65026561 83.51393608 -55.3125 72.3125 C-51.28700495 67.98216164 -46.66277531 64.64641086 -41.89453125 61.1796875 C-27.82571821 50.58535865 -19.26188781 35.19904483 -16 18 C-16.00966797 16.87851563 -16.00966797 16.87851563 -16.01953125 15.734375 C-15.99861451 13.20763339 -15.89974514 11.37006037 -15 9 C-12.64296189 7.02506825 -10.28435251 5.67392697 -7.54296875 4.2890625 C-5.37463724 3.18990828 -2.35254034 0 0 0 Z " fill="#ED7097" transform="translate(186,108)"/>
<path d="M0 0 C8.70410671 7.41283814 15.16132436 16.86307565 16.5703125 28.39453125 C16.90321749 39.16955605 15.06969127 50.17126373 8.125 58.75 C7.71765625 59.30945313 7.3103125 59.86890625 6.890625 60.4453125 C1.30531665 67.6936621 -7.09992689 72.36733866 -15.875 74.75 C-19.17857828 75.17279772 -22.42241325 75.22799545 -25.75 75.1875 C-26.63478027 75.17847656 -27.51956055 75.16945313 -28.43115234 75.16015625 C-40.82449421 74.83094739 -49.13925115 69.82474715 -57.66015625 60.875 C-66.53007077 49.98610238 -68.20584138 38.31239119 -66.875 24.75 C-65.10622207 13.52686925 -56.69642807 4.34317807 -47.875 -2.25 C-32.82772123 -11.78940692 -14.24677086 -10.34156463 0 0 Z " fill="#EE7197" transform="translate(169.875,28.25)"/>
<path d="M0 0 C6.9051472 5.04904363 14.24120876 7.10706022 22.75 5.8125 C29.46880985 4.22424266 34.66281698 1.34009763 40.25 -2.625 C51.2919048 -10.10622195 64.11550839 -11.78163686 77.0625 -9.5625 C85.23771842 -7.97100096 91.61032208 -4.55838667 98.47265625 0.02734375 C105.8979727 4.84026677 113.63374403 7.40564388 122.5625 5.875 C127.23136584 4.60167295 131.2328027 2.15083477 135.32421875 -0.3828125 C138.48493254 -1.85012197 140.55080645 -1.98116672 144 -1.625 C149.57894737 1.53289474 149.57894737 1.53289474 151 4.375 C151.51600107 8.68064826 151.59328048 12.24002864 149.5625 16.125 C139.76941176 24.72380918 126.85308405 28.51337052 114 28.375 C103.82598503 27.55247391 95.34446628 24.7346251 86.92407227 18.97802734 C78.88045311 13.48753957 71.51596438 10.26604949 61.5 11.8125 C54.70151161 13.70917973 48.6227627 17.96624821 42.796875 21.83984375 C31.0602371 29.20883969 17.11500071 29.36063946 4 26.375 C-2.3954697 24.42626276 -7.6622312 21.75756293 -13 17.75 C-19.80737684 12.77244606 -27.14953782 10.66200945 -35.5625 11.8125 C-40.76002795 12.99000633 -44.92167469 15.43477913 -49.4921875 18.09765625 C-52.87759664 19.82200016 -55.27493958 20.04551088 -59 19.375 C-61.82275936 18.12044028 -63.46288541 17.09115278 -65.3125 14.625 C-66.58037251 10.47559906 -66.68549264 6.83509932 -64.828125 2.87890625 C-58.79073622 -5.39025231 -46.87288393 -8.68630134 -37.1875 -10.234375 C-23.91897726 -11.7806134 -10.59083689 -7.9515331 0 0 Z " fill="#000000" transform="translate(361,461.625)"/>
<path d="M0 0 C7.52026463 5.00378715 13.6563843 7.282419 22.6953125 5.90625 C28.91120479 4.43349503 33.98161847 1.39733256 39.25 -2.125 C50.21627661 -9.23248943 62.66318945 -11.9639239 75.625 -9.9375 C84.44997316 -8.00343477 93.02648879 -4.58276828 99.9375 1.375 C102.30506639 5.13436261 102.80806095 9.03081469 101.9375 13.375 C98.90566761 17.12489795 96.71358979 19.11598691 91.9375 19.8125 C88.27958016 19.78973286 86.10926251 18.4504975 83.0625 16.5 C76.32974883 12.19144668 70.13107133 10.63315869 62.1796875 11.84375 C55.96379521 13.31650497 50.89338153 16.35266744 45.625 19.875 C34.65872339 26.98248943 22.21181055 29.7139239 9.25 27.6875 C-0.24710203 25.59073721 -7.9718262 21.41526445 -16.08203125 16.1796875 C-22.82627353 12.09601786 -29.68492258 10.56813245 -37.5 11.9375 C-41.19305506 12.85915248 -43.99054895 14.45414479 -47.1875 16.5 C-51.34926466 19.13901046 -54.03442179 20.26230792 -59.0625 19.375 C-62.6011994 17.72360695 -63.87320153 16.65894771 -66.0625 13.375 C-66.85817878 8.90244772 -66.81581025 5.45474469 -64.1875 1.6875 C-43.76419866 -13.42574299 -21.23538797 -14.15223697 0 0 Z " fill="#000000" transform="translate(66.0625,461.625)"/>
<path d="M0 0 C3.00511754 3.59148194 3.21173622 5.26813745 3.1640625 9.78125 C2.27726143 13.14418394 1.12233648 14.67567858 -1.4375 17.0625 C-4.46609556 18.24724194 -7.56802016 18.85943875 -10.75 19.5 C-27.87271107 23.36751782 -42.69600949 30.09162743 -56.61328125 40.9140625 C-65.45170808 47.63762371 -65.45170808 47.63762371 -69.5 47.6875 C-73.4375 47.0625 -73.4375 47.0625 -76.4375 44.5625 C-79.15723922 40.64940581 -79.17694481 37.72100231 -78.4375 33.0625 C-76.4375 30.5 -76.4375 30.5 -73.4375 28.0625 C-72.70466797 27.33353516 -72.70466797 27.33353516 -71.95703125 26.58984375 C-58.83896204 13.89203305 -18.49388615 -10.42382674 0 0 Z " fill="#030102" transform="translate(320.4375,195.9375)"/>
<path d="M0 0 C3.03215675 2.19831364 3.81654398 3.44963194 5 7 C5.48127165 11.33144485 5.51297129 13.2849491 2.9375 16.875 C-0.59683871 19.43175566 -2.64826225 20 -7 20 C-11.01519063 18.48483372 -12.60368353 17.5944747 -15 14 C-15.60203459 10.90878395 -15.60109238 8.09210586 -15 5 C-10.88064957 -0.17559413 -6.48540526 -1.35626346 0 0 Z " fill="#030102" transform="translate(180,283)"/>
<path d="M0 0 C3.9295493 0.92685276 5.41241975 2.29808529 8.00390625 5.47265625 C8.80057367 8.64213167 8.7964518 11.30247406 8.00390625 14.47265625 C5.56640625 17.47265625 5.56640625 17.47265625 3.00390625 19.47265625 C2.67390625 19.80265625 2.34390625 20.13265625 2.00390625 20.47265625 C-3.25862884 21.08457894 -5.89200905 19.71774648 -9.99609375 16.47265625 C-11.74074823 12.98334729 -11.56059927 9.27978648 -10.99609375 5.47265625 C-8.10250338 1.041846 -5.38309693 -0.3983696 0 0 Z " fill="#050203" transform="translate(352.99609375,195.52734375)"/>
<path d="M0 0 C3.24812693 0.84648156 4.88992576 2.9648036 6.93359375 5.50390625 C7.26359375 5.83390625 7.59359375 6.16390625 7.93359375 6.50390625 C8.33397929 10.66791587 8.37543703 12.82641321 6.05859375 16.37890625 C3.14648717 19.29101283 2.33331605 19.4645893 -1.87890625 19.87890625 C-5.5251015 19.85901791 -5.98676304 19.56999317 -9.00390625 17.06640625 C-9.68453125 16.22078125 -10.36515625 15.37515625 -11.06640625 14.50390625 C-11.39640625 14.17390625 -11.72640625 13.84390625 -12.06640625 13.50390625 C-11.90986001 8.807519 -11.68450684 6.40296165 -9.00390625 2.50390625 C-5.70513762 0.25793612 -3.91056843 -0.22916375 0 0 Z " fill="#060304" transform="translate(124.06640625,54.49609375)"/>
<path d="M0 0 C2.11238155 2.11238155 3.40468564 3.97158414 4.203125 6.875 C3.80238319 11.06737583 0.24145423 13.69370406 -2.59765625 16.5546875 C-4.66631381 18.66034544 -6.34277706 20.69571771 -8 23.125 C-8.66 24.07375 -9.32 25.0225 -10 26 C-10.33 26 -10.66 26 -11 26 C-11.61714848 17.63420943 -10.44671073 12.29547247 -5.17578125 5.7265625 C-3.489228 3.77659222 -1.77236856 1.87193983 0 0 Z " fill="#848CC6" transform="translate(86,83)"/>
</svg>
