<?xml version="1.0" encoding="UTF-8"?>
<svg version="1.1" xmlns="http://www.w3.org/2000/svg" width="512" height="512">
<path d="M0 0 C2.87029869 1.79393668 4.49131638 2.98263276 6 6 C6.08308638 7.37548156 6.10736016 8.75485796 6.09765625 10.1328125 C6.09515869 10.85871582 6.09266113 11.58461914 6.09008789 12.33251953 C6.07643188 13.71479736 6.07643188 13.71479736 6.0625 15.125 C6.041875 18.05375 6.02125 20.9825 6 24 C12.6 24 19.2 24 26 24 C25.80335924 18.34518299 25.80335924 18.34518299 25.54956055 12.69287109 C25.47838911 8.61268147 25.68855901 5.7724447 28.20703125 2.45703125 C31.94419444 -0.830627 33.84658792 -0.81587032 38.62109375 -0.53125 C42.24916824 0.2789604 43.86838276 2.0432406 46 5 C46.98043964 7.94131891 47.11621202 9.82501665 47.09765625 12.88671875 C47.09443359 13.82451172 47.09121094 14.76230469 47.08789062 15.72851562 C47.07951172 16.70498047 47.07113281 17.68144531 47.0625 18.6875 C47.05798828 19.67556641 47.05347656 20.66363281 47.04882812 21.68164062 C47.03704303 24.12115474 47.02059011 26.56054689 47 29 C47.62092529 29.29946533 48.24185059 29.59893066 48.8815918 29.9074707 C51.1870751 31.09648047 52.87670141 32.46459983 54.8125 34.1875 C55.85857422 35.115625 55.85857422 35.115625 56.92578125 36.0625 C58.8655849 37.87444465 60.68077628 39.75587573 62.5 41.6875 C67.82992316 47.12744451 74.44581744 49.94371211 82.0078125 50.39453125 C82.99523437 50.46349609 83.98265625 50.53246094 85 50.60351562 C87.05924478 50.74122762 89.11917661 50.86907399 91.1796875 50.98632812 C100.91580227 51.69888057 109.38169255 54.50912962 116 62 C121.6749585 70.45362989 122.20384181 77.17694177 122.25 87.1875 C122.2809375 88.83588867 122.2809375 88.83588867 122.3125 90.51757812 C122.35810627 100.07779319 120.87886132 108.90033572 114 116 C107.37492547 121.3147548 101.1657762 124.18095491 92.578125 124.37890625 C90.79341797 124.43014648 90.79341797 124.43014648 88.97265625 124.48242188 C87.12994141 124.52206055 87.12994141 124.52206055 85.25 124.5625 C82.79677276 124.6222418 80.34363542 124.68584122 77.890625 124.75390625 C76.80813477 124.77783447 75.72564453 124.8017627 74.61035156 124.82641602 C72.01813093 124.82973402 72.01813093 124.82973402 70 126 C69.99641747 127.45303858 69.99641747 127.45303858 69.99276257 128.93543148 C69.93382191 152.56673022 69.85784978 176.19792819 69.76428509 199.82911587 C69.71942626 211.25724296 69.67998899 222.68533958 69.65356445 234.11352539 C69.63050382 244.08080881 69.5970165 254.04799498 69.55129844 264.01520115 C69.52747452 269.28687108 69.50867506 274.55844534 69.50238609 279.83016777 C69.49628586 284.80505488 69.47611045 289.77969756 69.44572449 294.75449371 C69.43702265 296.56791287 69.43320511 298.38136408 69.43499184 300.19480324 C69.44578025 316.21526316 68.23781664 331.42155683 61 346 C60.319375 347.41732422 60.319375 347.41732422 59.625 348.86328125 C55.91626951 356.14972729 55.91626951 356.14972729 53.09562302 358.76720905 C48.65583277 362.99990894 46.47486062 366.1170736 46.0269165 372.31889343 C45.99838707 374.77455324 46.0133236 377.23096594 46.06347656 379.6862793 C46.06241713 381.04731959 46.05777474 382.40836103 46.04985046 383.76937866 C46.04042407 386.6836611 46.05588949 389.59633189 46.09122467 392.51041222 C46.14685499 397.12112472 46.14532082 401.73077611 46.13641357 406.3417511 C46.12892983 413.63382537 46.15857485 420.92518559 46.20463252 428.21710092 C46.28682269 441.27994853 46.3240176 454.34281929 46.32002425 467.40592128 C46.32033703 471.98661715 46.3428876 476.56650398 46.3835597 481.14701307 C46.40532859 483.99675634 46.41088988 486.84637483 46.41248512 489.6961937 C46.41875129 491.64166558 46.44519127 493.58703992 46.47227478 495.53233337 C46.45060083 506.26831642 46.45060083 506.26831642 42 511 C38.72549453 512.63725273 35.0990247 512.17452274 31.4987793 512.19287109 C30.61894379 512.20104858 29.73910828 512.20922607 28.83261108 512.21765137 C25.91315395 512.24251862 22.99374545 512.25902434 20.07421875 512.2734375 C18.58038634 512.28142302 18.58038634 512.28142302 17.0563755 512.28956985 C11.78571975 512.31630658 6.51508773 512.33568025 1.24438477 512.35009766 C-4.20341693 512.36675139 -9.65061436 512.41153391 -15.09818745 512.4624691 C-19.28377489 512.49610139 -23.46921816 512.50767066 -27.65492821 512.51332474 C-29.66321623 512.52004779 -31.67149442 512.53529709 -33.67965126 512.55921555 C-36.49046918 512.59078525 -39.29964752 512.5909163 -42.1105957 512.58349609 C-42.94039444 512.59990143 -43.77019318 512.61630676 -44.62513733 512.63320923 C-48.89726928 512.58703671 -50.5163923 512.37953423 -53.99308777 509.65103149 C-56.67248102 506.11168593 -57.12499828 503.62343401 -57.12025452 499.31135559 C-57.12231651 497.86634926 -57.12231651 497.86634926 -57.12442017 496.39215088 C-57.12082489 495.33695251 -57.11722961 494.28175415 -57.11352539 493.19458008 C-57.11367142 492.08223495 -57.11381744 490.96988983 -57.1139679 489.82383728 C-57.11327 486.13904892 -57.10548331 482.45431081 -57.09765625 478.76953125 C-57.09579163 476.21791105 -57.09436794 473.66629049 -57.09336853 471.1146698 C-57.08993763 465.07987877 -57.08205231 459.04510939 -57.07201904 453.01032704 C-57.06084404 446.13977402 -57.05534395 439.26922014 -57.05032361 432.3986603 C-57.03986933 418.26576167 -57.02152939 404.13288588 -57 390 C-71.85 390 -86.7 390 -102 390 C-101.97643433 395.07967163 -101.97643433 395.07967163 -101.95239258 400.26196289 C-101.90267187 411.45375399 -101.86938813 422.64555372 -101.84456348 433.83742619 C-101.82911217 440.62271325 -101.80805606 447.40789547 -101.77368164 454.19311523 C-101.74052123 460.74183699 -101.72314375 467.29049076 -101.71536827 473.83929253 C-101.70982742 476.33712922 -101.69900756 478.83496 -101.68280983 481.33275032 C-101.66101684 484.83272276 -101.65803394 488.33224596 -101.65942383 491.83227539 C-101.648638 492.86374191 -101.63785217 493.89520844 -101.6267395 494.95793152 C-101.65155742 500.73768841 -102.11707545 504.93560261 -105 510 C-108.87621439 512.58414293 -112.11736041 512.30280478 -116.61474609 512.30639648 C-117.49472763 512.31472 -118.37470917 512.32304352 -119.28135681 512.33161926 C-122.19542849 512.35574901 -125.10927646 512.36449494 -128.0234375 512.37109375 C-130.04741484 512.3800577 -132.07139149 512.3891795 -134.09536743 512.39845276 C-138.34061291 512.41495332 -142.58577942 512.42264484 -146.83105469 512.42553711 C-152.2710202 512.43092251 -157.71024371 512.46860472 -163.14999962 512.51428127 C-167.33131623 512.54402274 -171.51245353 512.55126003 -175.69386673 512.55226326 C-177.69935124 512.55647122 -179.70483601 512.56892849 -181.71021652 512.58978081 C-184.51618773 512.61663519 -187.32043078 512.61188767 -190.12646484 512.59936523 C-191.36880638 512.62161667 -191.36880638 512.62161667 -192.63624573 512.64431763 C-196.90279363 512.59009263 -198.52080292 512.37635629 -201.99209595 509.65003967 C-204.49801516 506.34271764 -205.12880287 504.01379058 -205.084198 499.97602844 C-205.07503609 498.7486647 -205.07503609 498.7486647 -205.06568909 497.49650574 C-205.04840004 496.1530584 -205.04840004 496.1530584 -205.03076172 494.7824707 C-205.01463397 492.81578397 -204.99893885 490.84909365 -204.98361206 488.88240051 C-204.97407375 487.83365061 -204.96453545 486.7849007 -204.9547081 485.7043705 C-204.90247231 478.85962257 -204.9088862 472.01460534 -204.90334892 465.16969013 C-204.89527463 459.21826158 -204.86897321 453.26817176 -204.79785156 447.31713867 C-204.44494126 416.20253328 -206.91608546 387.77136591 -215.23846817 357.69944572 C-216.92698382 351.58387669 -218.12322919 345.59761376 -218.1328125 339.22265625 C-218.13410156 338.37896484 -218.13539063 337.53527344 -218.13671875 336.66601562 C-218.13285156 335.80685547 -218.12898438 334.94769531 -218.125 334.0625 C-218.13080078 332.77956055 -218.13080078 332.77956055 -218.13671875 331.47070312 C-218.12871508 326.22429681 -217.75800859 321.19175723 -217 316 C-226.14984958 321.63250481 -231.46120912 329.60210722 -234 340 C-234.17867137 342.52867432 -234.26291515 345.06513257 -234.27124023 347.60009766 C-234.27908035 348.68686043 -234.27908035 348.68686043 -234.28707886 349.795578 C-234.29725745 351.35602296 -234.30308845 352.91650127 -234.30496025 354.4769783 C-234.30864589 356.94903445 -234.32542952 359.42069729 -234.34571838 361.89266968 C-234.40093813 368.91632785 -234.43185974 375.94004142 -234.45629883 382.96386719 C-234.47218329 387.27089974 -234.50240215 391.57764784 -234.54106331 395.88453293 C-234.55269562 397.52152868 -234.5586435 399.15857526 -234.55874443 400.79561234 C-234.55893676 403.08360773 -234.57721942 405.37081814 -234.59936523 407.65869141 C-234.60697121 409.60891708 -234.60697121 409.60891708 -234.61473083 411.59854126 C-235.02820084 415.2489792 -235.77905443 417.10613142 -238 420 C-242.02314866 422.68209911 -245.27219919 422.68843415 -250 422 C-253.49890004 419.88608123 -254.70578686 418.88263941 -256 415 C-256.10590537 412.58448538 -256.15722093 410.19739665 -256.16113281 407.78149414 C-256.16609772 407.04930664 -256.17106262 406.31711914 -256.17617798 405.56274414 C-256.19079596 403.13687193 -256.19760435 400.71106531 -256.203125 398.28515625 C-256.20888094 396.59183247 -256.21463861 394.8985087 -256.22039795 393.20518494 C-256.23090978 389.64842425 -256.23674987 386.09168615 -256.24023438 382.53491211 C-256.24569056 378.00607476 -256.26965559 373.47754241 -256.29820633 368.94880009 C-256.31696308 365.44576694 -256.3220454 361.94280496 -256.32357025 358.43972588 C-256.32657283 356.77218412 -256.33451907 355.10464288 -256.34775543 353.43715096 C-256.4818229 335.2338685 -253.18308367 319.64820285 -240.15234375 305.9921875 C-232.0970359 298.53627642 -222.23645522 292.63397959 -211.1875 291.375 C-208.19835651 290.79318457 -207.24440753 290.30494365 -205.3125 287.89453125 C-204.18139866 286.01026868 -203.07365756 284.11186783 -201.984375 282.203125 C-190.0329926 262.91152349 -169.26076175 251.06655257 -147.66043091 245.97512817 C-139.82905865 244.25876872 -131.87427256 243.28467361 -123.92866325 242.26122856 C-120.82835993 241.8615562 -117.72983783 241.44992282 -114.63148499 241.03541565 C-106.95150595 240.01026931 -99.26906748 239.00411295 -91.58642578 237.99914551 C-85.0558449 237.1443188 -78.52643964 236.28138498 -71.99841499 235.40724373 C-68.95558657 235.00316425 -65.91136948 234.61105684 -62.8669281 234.21934509 C-60.99836234 233.97032541 -59.12987349 233.72072767 -57.26147461 233.47045898 C-56.4234581 233.36596939 -55.58544159 233.2614798 -54.72203064 233.15382385 C-48.54193459 232.30662671 -43.0690412 231.1779381 -38.625 226.5 C-36.51175904 223.24886006 -35.87685385 220.77265017 -35.8581543 216.97509766 C-35.85111984 216.17061188 -35.84408539 215.3661261 -35.83683777 214.53726196 C-35.83059135 213.23877823 -35.83059135 213.23877823 -35.82421875 211.9140625 C-35.80102248 210.07811351 -35.77690522 208.24217597 -35.75195312 206.40625 C-35.71683056 203.51391919 -35.68748614 200.6220104 -35.67407227 197.72949219 C-35.65858647 194.93633079 -35.6183773 192.14439861 -35.57421875 189.3515625 C-35.57612717 188.48995514 -35.57803558 187.62834778 -35.58000183 186.7406311 C-35.50011864 182.81311018 -35.26026242 180.47354524 -33.33911133 176.97802734 C-31 175 -31 175 -25 174 C-25 165.75 -25 157.5 -25 149 C-26.98 148.67 -28.96 148.34 -31 148 C-33.19889224 146.44284455 -33.85411051 145.49306956 -34.6171875 142.9140625 C-35.04837925 139.08560244 -35.28502209 136.66980191 -33.75 133.0625 C-32 131 -32 131 -29 129 C-27.68 129 -26.36 129 -25 129 C-25 120.75 -25 112.5 -25 104 C-27.97 103.505 -27.97 103.505 -31 103 C-33.52213649 100.88016426 -34.77854561 99.24741921 -35.36157227 95.96331787 C-35.5308819 93.46321867 -35.5542986 90.99791983 -35.53125 88.4921875 C-35.5350769 87.57092072 -35.53890381 86.64965393 -35.54284668 85.70046997 C-35.54556435 83.75212511 -35.53821329 81.80374368 -35.52148438 79.85546875 C-35.50021912 76.90539817 -35.52121432 73.9578039 -35.546875 71.0078125 C-35.56715903 57.54207268 -34.52644435 46.30588071 -25 36 C-17.83969466 29 -17.83969466 29 -15 29 C-15.02094727 28.36497559 -15.04189453 27.72995117 -15.06347656 27.07568359 C-15.14704581 24.17561924 -15.19878774 21.27580884 -15.25 18.375 C-15.28351563 17.37597656 -15.31703125 16.37695312 -15.3515625 15.34765625 C-15.43256035 9.23231829 -15.14794175 5.62418692 -11 1 C-7.54260443 -0.72869779 -3.78024432 -0.48966895 0 0 Z " fill="#010101" transform="translate(323,0)"/>
<path d="M0 0 C1.19923599 -0.00006042 1.19923599 -0.00006042 2.42269897 -0.00012207 C4.10186688 0.00520908 5.78103621 0.02268832 7.45996094 0.05175781 C10.02356415 0.09375207 12.58454684 0.09280857 15.1484375 0.0859375 C16.7864765 0.0964271 18.42450204 0.10936397 20.0625 0.125 C21.20484604 0.12530212 21.20484604 0.12530212 22.37026978 0.12561035 C27.95318571 0.24937054 31.20307626 1.50697652 35.21484375 5.3203125 C35.79105469 5.94679688 36.36726562 6.57328125 36.9609375 7.21875 C43.4860118 13.91716593 50.92606298 19.60896851 59.3984375 23.59375 C59.07230469 24.47804688 58.74617188 25.36234375 58.41015625 26.2734375 C56.78476448 31.9745027 57.14883569 37.84195768 57.2109375 43.71875 C57.21158203 44.88535156 57.21222656 46.05195312 57.21289062 47.25390625 C57.23829376 52.18211372 57.29036817 56.77351025 58.3984375 61.59375 C57.80675781 61.9340625 57.21507812 62.274375 56.60546875 62.625 C50.49916897 66.37046283 45.89900013 70.38760771 43.85658264 77.47369385 C43.10157058 80.96749488 43.15748943 84.51715357 43.08203125 88.078125 C43.0508596 89.30151581 43.0508596 89.30151581 43.01905823 90.54962158 C42.95382453 93.14758105 42.89479982 95.74563913 42.8359375 98.34375 C42.79272736 100.108083 42.74911228 101.87240613 42.70507812 103.63671875 C42.59817005 107.95562884 42.49682923 112.27463784 42.3984375 116.59375 C41.40481201 116.8707373 41.40481201 116.8707373 40.39111328 117.15332031 C33.61183381 119.10299798 28.21219345 121.57766858 22.3984375 125.59375 C21.6971875 126.07328125 20.9959375 126.5528125 20.2734375 127.046875 C11.67099456 133.70032696 5.00939609 145.864453 3.3984375 156.59375 C2.06581545 171.67430836 5.69873351 185.80511286 15.140625 197.80859375 C21.40318315 204.57787341 29.36488212 209.33806136 38.09985352 212.19018555 C38.90608658 212.45470016 39.71231964 212.71921478 40.54298401 212.991745 C41.46143349 213.28973747 41.46143349 213.28973747 42.3984375 213.59375 C42.44501412 221.24403963 42.48043432 228.89431434 42.50206184 236.54471397 C42.512448 240.0980573 42.52651127 243.6513028 42.54931641 247.20458984 C42.57543593 251.30046466 42.58495295 255.39623856 42.59375 259.4921875 C42.60407257 260.7530014 42.61439514 262.01381531 42.62503052 263.31283569 C42.62726929 281.10435088 37.58874204 295.61065136 25.33984375 308.8125 C15.11712359 318.56628804 1.6748239 324.83014103 -12.53125 324.9921875 C-16.06510792 326.01900659 -17.37500684 327.66804394 -19.6015625 330.59375 C-20.35964119 334.35597066 -20.2916666 338.0742077 -20.26098633 341.90161133 C-20.27147003 343.04350922 -20.28195374 344.1854071 -20.29275513 345.36190796 C-20.32153919 349.13347431 -20.3152091 352.90412458 -20.30859375 356.67578125 C-20.32170662 359.29181572 -20.33700957 361.90784006 -20.35441589 364.52384949 C-20.3918438 370.70380856 -20.4040031 376.88354759 -20.4070403 383.06360883 C-20.41173253 390.10118162 -20.44466099 397.13853418 -20.47993815 404.17600977 C-20.55185412 418.6485519 -20.58738491 433.121039 -20.6015625 447.59375 C-27.5315625 447.59375 -34.4615625 447.59375 -41.6015625 447.59375 C-41.60298752 446.15159622 -41.60441254 444.70944244 -41.60588074 443.22358704 C-41.62253998 429.64199765 -41.66498367 416.0606691 -41.73365307 402.47924519 C-41.76829616 395.49662602 -41.79365766 388.51420413 -41.79711914 381.53149414 C-41.80048493 374.79451215 -41.82978165 368.05810147 -41.87499428 361.32124901 C-41.88799803 358.74923783 -41.89226686 356.17716736 -41.88771629 353.60512733 C-41.88283115 350.00614269 -41.90881359 346.40861963 -41.94213867 342.80981445 C-41.93351303 341.74310516 -41.92488739 340.67639587 -41.91600037 339.57736206 C-41.99142804 333.55907378 -41.99142804 333.55907378 -45.01777649 328.45524597 C-49.09230442 325.51974075 -51.3183322 325.45060974 -56.34619141 325.38842773 C-57.03898697 325.37852814 -57.73178253 325.36862854 -58.4455719 325.35842896 C-60.73972128 325.32679503 -63.03389139 325.30204914 -65.328125 325.27734375 C-66.91710962 325.25677585 -68.50608874 325.23577942 -70.09506226 325.21437073 C-74.28059445 325.15913309 -78.46617616 325.10973131 -82.65179443 325.06152344 C-86.9215537 325.01132074 -91.19124092 324.95562826 -95.4609375 324.90039062 C-103.84108495 324.79278837 -112.2212926 324.69134801 -120.6015625 324.59375 C-120.55515625 323.56894531 -120.50875 322.54414063 -120.4609375 321.48828125 C-120.42340239 320.12763344 -120.38700409 318.76695395 -120.3515625 317.40625 C-120.31804687 316.73271484 -120.28453125 316.05917969 -120.25 315.36523438 C-120.17866283 311.70920443 -120.49052629 309.76706286 -122.48071289 306.66064453 C-124.78925161 304.41083576 -125.87515206 303.80871958 -129.0390625 303.46875 C-129.78027344 303.36304688 -130.52148438 303.25734375 -131.28515625 303.1484375 C-134.95363117 303.85367551 -136.34549731 305.70026913 -138.6015625 308.59375 C-139.4868101 311.90595895 -139.4868101 311.90595895 -139.6640625 315.53125 C-141.65365111 335.22114944 -149.45620462 348.34619339 -163.6015625 361.59375 C-167.73062379 365.46602377 -167.73062379 365.46602377 -168.75978088 370.87136841 C-168.78050606 372.30236526 -168.79576719 373.73344704 -168.80688477 375.16455078 C-168.81678436 375.94512848 -168.82668396 376.72570618 -168.83688354 377.52993774 C-168.86853228 380.11628155 -168.89326926 382.70264375 -168.91796875 385.2890625 C-168.93853537 387.07982874 -168.95953176 388.87059008 -168.98094177 390.66134644 C-169.03619263 395.37953743 -169.0855886 400.09777245 -169.13378906 404.81604004 C-169.1839821 409.62870207 -169.23967962 414.4413 -169.29492188 419.25390625 C-169.40254033 428.70046816 -169.50346858 438.14708438 -169.6015625 447.59375 C-176.2015625 447.59375 -182.8015625 447.59375 -189.6015625 447.59375 C-189.58996094 444.91902588 -189.57835937 442.24430176 -189.56640625 439.48852539 C-189.53342803 430.50397478 -189.54562443 421.51985628 -189.57821655 412.53531742 C-189.59660311 407.10472082 -189.60124359 401.67494458 -189.57080078 396.24438477 C-189.44054361 371.08639147 -190.30668847 347.88359133 -197.66479492 323.70526123 C-203.30277662 304.97847802 -207.14784789 281.95056417 -198.6015625 263.59375 C-198.10398438 262.51351563 -197.60640625 261.43328125 -197.09375 260.3203125 C-187.58286475 241.34277867 -187.58286475 241.34277867 -180.33203125 238.796875 C-179.76097656 238.72984375 -179.18992188 238.6628125 -178.6015625 238.59375 C-177.87066406 239.53734375 -177.87066406 239.53734375 -177.125 240.5 C-168.95647261 250.36164033 -158.31056743 257.5055529 -145.3190918 258.82568359 C-130.8371485 259.67188633 -117.96409136 258.26155274 -106.5546875 248.39453125 C-105.91015625 247.80027344 -105.265625 247.20601562 -104.6015625 246.59375 C-103.66570312 245.81064453 -103.66570312 245.81064453 -102.7109375 245.01171875 C-93.62359621 236.89237686 -90.47281735 225.01121048 -87.6015625 213.59375 C-78.27909904 211.53172567 -68.86267031 210.39680473 -59.38867188 209.26953125 C-46.41400682 207.59406269 -36.37268103 204.75560444 -27.6015625 194.59375 C-23.86643359 188.72916828 -21.50167424 183.05486726 -21.44042969 176.07226562 C-21.43082214 175.18454468 -21.4212146 174.29682373 -21.41131592 173.38220215 C-21.40706604 172.43107544 -21.40281616 171.47994873 -21.3984375 170.5 C-21.39273743 169.51632446 -21.38703735 168.53264893 -21.38116455 167.51916504 C-21.37172849 165.44133578 -21.36518611 163.36349164 -21.36132812 161.28564453 C-21.35159854 158.10553065 -21.32055215 154.92605669 -21.2890625 151.74609375 C-21.28253446 149.72656633 -21.27728321 147.7070343 -21.2734375 145.6875 C-21.2549173 144.26080994 -21.2549173 144.26080994 -21.23602295 142.80529785 C-21.2405246 141.47371643 -21.2405246 141.47371643 -21.24511719 140.11523438 C-21.24147156 139.33676147 -21.23782593 138.55828857 -21.23406982 137.75622559 C-21.72063343 134.89308846 -22.54046559 133.64337185 -24.6015625 131.59375 C-27.5715625 130.60375 -27.5715625 130.60375 -30.6015625 129.59375 C-30.6015625 121.34375 -30.6015625 113.09375 -30.6015625 104.59375 C-33.5715625 104.09875 -33.5715625 104.09875 -36.6015625 103.59375 C-38.80045474 102.03659455 -39.45567301 101.08681956 -40.21875 98.5078125 C-40.64994175 94.67935244 -40.88658459 92.26355191 -39.3515625 88.65625 C-37.6015625 86.59375 -37.6015625 86.59375 -34.6015625 84.59375 C-33.2815625 84.59375 -31.9615625 84.59375 -30.6015625 84.59375 C-30.6015625 76.34375 -30.6015625 68.09375 -30.6015625 59.59375 C-28.2915625 58.60375 -25.9815625 57.61375 -23.6015625 56.59375 C-20.99180539 52.67911434 -21.3407969 49.37000855 -21.36328125 44.83203125 C-21.34785364 43.05533097 -21.33154943 41.27863813 -21.31445312 39.50195312 C-21.29804597 36.70857305 -21.28903837 33.91573843 -21.29614258 31.12231445 C-21.29877777 28.42076542 -21.27052653 25.72085977 -21.23828125 23.01953125 C-21.24848801 22.19528152 -21.25869476 21.3710318 -21.26921082 20.52180481 C-21.15311754 13.56254709 -18.93221265 8.92670769 -14.01582336 4.00691223 C-9.53945569 0.36030278 -5.64290719 -0.12213208 0 0 Z " fill="#FDD88D" transform="translate(328.6015625,44.40625)"/>
<path d="M0 0 C8.39306775 7.10764296 13.49167454 14.74925058 14.5078125 25.73046875 C15.09295701 37.56385887 12.90399117 46.0926576 5.1171875 55.484375 C-2.56977733 63.00301213 -11.70018479 66.47562857 -22.3359375 66.703125 C-30.25939826 66.61259627 -36.23187523 64.48837627 -42.8359375 60.015625 C-43.58359375 59.53222656 -44.33125 59.04882812 -45.1015625 58.55078125 C-51.89863947 53.45297352 -56.8346152 45.27743515 -58.18066406 36.85986328 C-59.16144504 25.67945302 -57.73761079 15.80137621 -50.5625 6.9296875 C-36.9535446 -8.1571635 -17.31045623 -12.11255064 0 0 Z " fill="#020201" transform="translate(332.8359375,282.984375)"/>
<path d="M0 0 C0 36.63 0 73.26 0 111 C-6.6 111 -13.2 111 -20 111 C-20 76.68 -20 42.36 -20 7 C-17.03 6.01 -14.06 5.02 -11 4 C-9.15892184 3.2906155 -7.32362755 2.56561201 -5.5 1.8125 C-1.1011236 0 -1.1011236 0 0 0 Z " fill="#FECC68" transform="translate(348,381)"/>
<path d="M0 0 C0.33 0 0.66 0 1 0 C1 32.01 1 64.02 1 97 C-5.93 97 -12.86 97 -20 97 C-20.18102736 87.60293921 -20.32766803 78.20704354 -20.41449738 68.80863094 C-20.45618007 64.44410664 -20.51267559 60.08084094 -20.60351562 55.71704102 C-20.69069803 51.50237814 -20.73832617 47.28892244 -20.75901794 43.0734272 C-20.77375492 41.46856243 -20.80253558 39.86376086 -20.84584045 38.25941277 C-21.17211938 25.66606012 -21.17211938 25.66606012 -18.25874329 21.52496338 C-16.25720629 19.77788648 -14.24022733 18.41570605 -12 17 C-10.19080076 15.06390046 -8.74970194 13.03112015 -7.1875 10.875 C-6.45917969 9.88242187 -5.73085937 8.88984375 -4.98046875 7.8671875 C-3.68969327 5.99849085 -2.45869261 4.08662155 -1.30078125 2.1328125 C-0.87152344 1.42898438 -0.44226563 0.72515625 0 0 Z " fill="#F9C866" transform="translate(199,395)"/>
<path d="M0 0 C4.14327184 2.25631664 6.69711307 5.08172615 8.8125 9.3125 C9.53160796 16.42105901 9.32642888 21.64115346 4.8125 27.3125 C-0.1252116 31.24251535 -4.24898033 32.011974 -10.53125 31.76171875 C-15.97884206 30.8404348 -18.92937789 28.01705253 -22.125 23.6875 C-24.05655438 17.55197433 -24.36484011 11.7107854 -21.5 5.875 C-15.33400005 -0.95759454 -8.89514858 -4.11566576 0 0 Z " fill="#C38863" transform="translate(318.1875,297.6875)"/>
<path d="M0 0 C0 18.15 0 36.3 0 55 C-8.88495545 52.03834818 -13.71617319 47.42454255 -18.08984375 39.2109375 C-20.69456484 32.88358928 -21.22096262 25.05511421 -19.24609375 18.49609375 C-18.27578518 16.24726095 -17.20392443 14.1319495 -16 12 C-15.4225 10.948125 -14.845 9.89625 -14.25 8.8125 C-10.35463957 3.94329947 -6.40137353 0 0 0 Z " fill="#C38763" transform="translate(371,182)"/>
<path d="M0 0 C-2.16581566 8.91078443 -6.47977711 14.91885208 -14.1875 19.9375 C-21.18384037 24.14100389 -30.07171767 24.08323585 -38 23 C-44.88051621 20.66062449 -49.89078373 16.95127873 -54 11 C-52.55212293 8.10424586 -50.82368672 8.02916928 -47.7890625 7.01171875 C-41.06162335 4.86447308 -34.36031673 3.7467664 -27.375 2.8125 C-26.22515625 2.64814453 -25.0753125 2.48378906 -23.890625 2.31445312 C-7.43645622 0 -7.43645622 0 0 0 Z " fill="#C28763" transform="translate(220,261)"/>
<path d="M0 0 C2.64999795 1.20454452 4.41007498 2.17617489 6.11328125 4.5546875 C7.46972149 8.2953553 7.40878501 11.92509343 7.4375 15.875 C7.47037109 16.66519531 7.50324219 17.45539063 7.53710938 18.26953125 C7.57511235 22.42222036 7.31048018 25.17918093 4.6875 28.5 C1.32633949 31.62666094 -0.42944875 32.16037022 -5 32 C-8.74669241 30.02061533 -10.64677369 28.52983947 -13 25 C-13.52452878 21.91380145 -13.50823859 18.81342922 -13.5625 15.6875 C-13.61212891 14.84509766 -13.66175781 14.00269531 -13.71289062 13.13476562 C-13.77241374 9.50952457 -13.78253421 7.01115845 -11.51171875 4.0769043 C-7.77013702 0.74825821 -5.18694964 -1.01483797 0 0 Z " fill="#F78C6D" transform="translate(418,72)"/>
<path d="M0 0 C3.5386994 1.65139305 4.81070153 2.71605229 7 6 C7.66923077 12.91538462 7.66923077 12.91538462 5.1875 16.9375 C2.34478523 19.61777392 0.49274294 19.95437565 -3.375 20.3125 C-7 20 -7 20 -9.875 18.5625 C-12.87942161 14.939521 -13.29851972 11.64364014 -13 7 C-10.29968773 0.65426617 -6.65643736 -0.57383081 0 0 Z " fill="#020201" transform="translate(301,129)"/>
<path d="M0 0 C3.0625 1.9375 3.0625 1.9375 5 5 C6.03945854 9.75058323 5.669717 12.94141507 3.0625 17.0625 C-1.05858493 19.669717 -4.24941677 20.03945854 -9 19 C-12.0625 17.0625 -12.0625 17.0625 -14 14 C-15.03945854 9.24941677 -14.669717 6.05858493 -12.0625 1.9375 C-7.94141507 -0.669717 -4.75058323 -1.03945854 0 0 Z " fill="#040402" transform="translate(350,76)"/>
</svg>
