<?xml version="1.0" encoding="UTF-8"?>
<svg version="1.1" xmlns="http://www.w3.org/2000/svg" width="512" height="512">
<path d="M0 0 C3.30236004 1.30092971 4.85551914 3.03570698 7.0625 5.8125 C7.69519573 8.82638433 7.54878481 11.73955017 7.41796875 14.8046875 C7.40031642 16.57941393 7.38408453 18.35415495 7.36914062 20.12890625 C7.31734545 22.91013528 7.24994505 25.68911793 7.15551758 28.46923828 C6.36006318 39.07634359 6.36006318 39.07634359 10.16650391 48.45410156 C12.72423899 50.2054034 15.25425206 51.51314917 18.0625 52.8125 C20.859375 55.3984375 20.859375 55.3984375 23.0625 57.8125 C23.91328125 58.71226563 24.7640625 59.61203125 25.640625 60.5390625 C30.84961318 66.18974851 35.86747468 71.91564711 40.6875 77.90625 C42.90105439 80.61494156 45.1653874 83.26618092 47.45727539 85.90820312 C61.19483935 101.75238197 71.14537184 113.72740532 70.23730469 135.62890625 C69.53892709 144.35277389 65.12517102 151.69208926 59.0625 157.8125 C50.30651335 165.15438766 40.94523006 169.2313623 29.36181641 169.02563477 C19.45895944 168.10769103 10.31924137 164.07309082 1.3125 160.125 C0.1265625 159.61388672 -1.059375 159.10277344 -2.28125 158.57617188 C-5.17028555 157.32969283 -8.05546951 156.07507027 -10.9375 154.8125 C-13.16825642 158.62407187 -15.39681163 162.4369264 -17.625 166.25 C-18.25083984 167.31927734 -18.87667969 168.38855469 -19.52148438 169.49023438 C-20.76180347 171.61371261 -21.99299346 173.74255034 -23.21484375 175.87670898 C-24.25386761 177.64743772 -25.33414872 179.39604569 -26.48828125 181.09399414 C-30.90185234 187.85227486 -30.59592952 194.49005869 -30.5625 202.375 C-30.89316214 229.86108228 -37.7142214 251.92808402 -57.828125 271.66796875 C-61.75968792 275.27740781 -66.0208893 278.26992088 -70.4375 281.25 C-85.05234509 291.21125844 -94.30326573 304.75133363 -98.9375 321.8125 C-100.91601338 332.47101308 -101.27628943 343.04983743 -101.30859375 353.859375 C-101.3175945 355.44826321 -101.32671674 357.03715074 -101.33595276 358.6260376 C-101.35228156 361.92698199 -101.3601147 365.22782681 -101.36303711 368.52880859 C-101.36844659 372.7303396 -101.40630063 376.93092112 -101.45178127 381.13218307 C-101.48168438 384.40270337 -101.4887633 387.67299662 -101.48976326 390.94364166 C-101.49392859 392.49202132 -101.5062119 394.04040402 -101.52728081 395.58864594 C-101.63283828 404.00382229 -101.28654757 410.91257386 -97.06044006 418.46807861 C-94.59301513 423.6194522 -95.27774992 428.86990255 -97.0625 434.125 C-100.39972117 438.90835034 -104.37269663 442.09402086 -109.9375 443.8125 C-112.85072217 444.11624917 -115.74844048 444.14031554 -118.67578125 444.1484375 C-119.51537888 444.1550943 -120.3549765 444.1617511 -121.22001648 444.16860962 C-122.99260273 444.17871029 -124.7652268 444.18342744 -126.5378418 444.18310547 C-129.2309538 444.18746914 -131.92241298 444.22378822 -134.61523438 444.26171875 C-136.34374444 444.26758962 -138.07226223 444.2715572 -139.80078125 444.2734375 C-140.59688309 444.28780853 -141.39298492 444.30217957 -142.21321106 444.31698608 C-147.8957823 444.27122262 -152.17491039 442.95797871 -156.9375 439.8125 C-162.93086234 433.6614176 -163.23801322 427.78682082 -163.25634766 419.60620117 C-163.26639328 418.58134613 -163.2764389 417.55649109 -163.28678894 416.50057983 C-163.3176373 413.11888175 -163.33466089 409.73726291 -163.3515625 406.35546875 C-163.37027279 404.00848203 -163.3898461 401.66150204 -163.4102478 399.31452942 C-163.46158953 393.14144867 -163.50120448 386.9683461 -163.53839111 380.79516602 C-163.57841785 374.4942484 -163.62951629 368.19342169 -163.6796875 361.89257812 C-163.77647103 349.53261592 -163.86086818 337.17260242 -163.9375 324.8125 C-167.01971616 335.7137332 -170.07280078 346.62266984 -173.08941936 357.54224968 C-174.49122045 362.61298366 -175.90273639 367.68057565 -177.3371582 372.7421875 C-178.72227878 377.63122945 -180.08095442 382.52693483 -181.42194557 387.42825699 C-181.93693406 389.29264888 -182.46124315 391.15449315 -182.99518394 393.01354599 C-187.05769213 406.47526439 -187.05769213 406.47526439 -183.9375 419.8125 C-182.83095344 426.07287964 -184.66574008 431.52113519 -187.9375 436.8125 C-191.63247869 441.08871129 -196.23601289 443.43386793 -201.87490845 444.01068115 C-204.09201066 444.1086807 -206.30027094 444.14203948 -208.51953125 444.1484375 C-209.33314621 444.1550943 -210.14676117 444.1617511 -210.98503113 444.16860962 C-212.70036574 444.17869638 -214.41573928 444.18342788 -216.13110352 444.18310547 C-218.73195321 444.18746972 -221.33109155 444.22380485 -223.93164062 444.26171875 C-241.76646338 444.38376122 -241.76646338 444.38376122 -248.49511719 438.43554688 C-252.9296831 433.62123399 -254.19106016 428.65638544 -254.12309074 422.24833298 C-253.7378236 417.19179631 -252.44968228 412.29501788 -251.29125977 407.36962891 C-250.86938889 405.52927063 -250.86938889 405.52927063 -250.43899536 403.6517334 C-249.67207236 400.3073394 -248.89437024 396.96553831 -248.11448789 393.62414598 C-247.29884323 390.12177465 -246.492776 386.61719958 -245.68553162 383.11288452 C-244.33027997 377.23584237 -242.96853108 371.36033766 -241.60229492 365.48583984 C-239.84774291 357.94154171 -238.10369543 350.39485637 -236.3630228 342.84734535 C-234.86574106 336.35540545 -233.36400564 329.86449718 -231.86137271 323.37379408 C-231.37850426 321.28732552 -230.89618499 319.20073052 -230.41391182 317.1141243 C-229.51694378 313.23498404 -228.61535283 309.35692664 -227.71313477 305.47900391 C-227.44555862 304.32056976 -227.17798248 303.16213562 -226.90229797 301.96859741 C-226.65691284 300.91722595 -226.41152771 299.86585449 -226.15870667 298.78262329 C-225.94577249 297.8656901 -225.73283831 296.9487569 -225.51345158 296.00403786 C-224.9375 293.8125 -224.9375 293.8125 -223.9375 291.8125 C-235.1575 291.8125 -246.3775 291.8125 -257.9375 291.8125 C-259.4225 296.2675 -259.4225 296.2675 -260.9375 300.8125 C-261.55492689 302.30492807 -262.20000922 303.78699981 -262.89868164 305.24316406 C-263.2523732 305.9871344 -263.60606476 306.73110474 -263.97047424 307.49761963 C-264.34244431 308.2666864 -264.71441437 309.03575317 -265.09765625 309.828125 C-265.48819687 310.64698181 -265.87873749 311.46583862 -266.28111267 312.30950928 C-267.51581589 314.89623018 -268.75753992 317.47949724 -270 320.0625 C-271.24472123 322.66038864 -272.48793493 325.25898622 -273.729599 327.8583374 C-274.49882657 329.46760176 -275.27002121 331.0759278 -276.04347229 332.6831665 C-276.39401169 333.4145282 -276.74455109 334.14588989 -277.10571289 334.89941406 C-277.41199112 335.53623108 -277.71826935 336.1730481 -278.03382874 336.8291626 C-278.33204025 337.48366394 -278.63025177 338.13816528 -278.9375 338.8125 C-279.29896118 339.58514191 -279.66042236 340.35778381 -280.03283691 341.15383911 C-281.10765174 344.31254888 -281.21243654 346.92827443 -281.24389648 350.26416016 C-281.25988388 351.54964752 -281.27587128 352.83513489 -281.29234314 354.15957642 C-281.29872298 355.55690105 -281.30411473 356.95423048 -281.30859375 358.3515625 C-281.31757191 359.79780159 -281.32669395 361.24403978 -281.33595276 362.6902771 C-281.35242117 365.72143806 -281.36013818 368.75248892 -281.36303711 371.78369141 C-281.36840052 375.64028635 -281.40600307 379.49582367 -281.45178127 383.35212135 C-281.48175211 386.34129461 -281.48876505 389.33022016 -281.48976326 392.31953049 C-281.49393068 393.73952421 -281.50622284 395.15952109 -281.52728081 396.57936478 C-281.63974056 404.82205735 -281.0849877 411.13692774 -277.06044006 418.42660522 C-274.61808016 423.61585256 -275.26751575 428.8397686 -277.0625 434.125 C-280.40653805 438.91812121 -284.37452923 442.06255281 -289.9375 443.8125 C-292.54356025 444.00369912 -295.04156629 444.09624929 -297.64599609 444.0871582 C-298.78602333 444.0948246 -298.78602333 444.0948246 -299.94908142 444.10264587 C-302.45311432 444.11650744 -304.95687087 444.11558756 -307.4609375 444.11328125 C-309.20822247 444.11717038 -310.9555065 444.1215055 -312.70278931 444.12626648 C-316.36276312 444.13372153 -320.02264047 444.13344283 -323.68261719 444.12817383 C-328.36212485 444.12238349 -333.04123616 444.13930304 -337.72067833 444.1625185 C-341.32903332 444.17728464 -344.93729352 444.17812357 -348.54567337 444.17500877 C-350.27036956 444.17552065 -351.99507124 444.18073318 -353.71973801 444.19082069 C-356.13682185 444.2032224 -358.55314229 444.19637131 -360.97021484 444.18481445 C-361.67590103 444.19245819 -362.38158722 444.20010193 -363.10865784 444.20797729 C-368.80528513 444.14808069 -373.5794847 442.92156149 -377.8984375 439.05859375 C-378.36507812 438.46175781 -378.83171875 437.86492187 -379.3125 437.25 C-379.79460937 436.65058594 -380.27671875 436.05117188 -380.7734375 435.43359375 C-382.71127375 432.73492917 -383.07422522 431.00303963 -383.14282227 427.72998047 C-383.1727401 426.46889969 -383.1727401 426.46889969 -383.20326233 425.18234253 C-383.21997482 424.27396637 -383.23668732 423.36559021 -383.25390625 422.4296875 C-383.27468735 421.50028351 -383.29546844 420.57087952 -383.31687927 419.61331177 C-383.38237646 416.6381179 -383.44126052 413.66283423 -383.5 410.6875 C-383.54318506 408.67316772 -383.58679934 406.65884459 -383.63085938 404.64453125 C-383.73805803 399.70061337 -383.83932501 394.75660497 -383.9375 389.8125 C-384.53788086 390.51407227 -385.13826172 391.21564453 -385.75683594 391.93847656 C-386.55379883 392.85081055 -387.35076172 393.76314453 -388.171875 394.703125 C-388.95788086 395.61094727 -389.74388672 396.51876953 -390.55371094 397.45410156 C-394.01767954 400.88117414 -396.1120968 401.49080645 -400.9375 401.8125 C-415.53792589 397.1310936 -425.97687275 381.09743403 -432.92578125 368.23828125 C-442.18254366 350.01683923 -442.55038228 332.07857671 -442.47480202 312.03127074 C-442.4645255 308.44281745 -442.47410659 304.85440077 -442.48034668 301.26594543 C-442.48757651 295.25054447 -442.47815445 289.23534146 -442.45898438 283.2199707 C-442.43717476 276.2970244 -442.44431519 269.37454875 -442.46629 262.45161361 C-442.48451894 256.46552963 -442.48696744 250.47958616 -442.47653532 244.49348336 C-442.47034763 240.93634956 -442.4693335 237.37943616 -442.48268127 233.82231712 C-442.49652448 229.85816904 -442.4772682 225.89453715 -442.45507812 221.93041992 C-442.46317505 220.77532425 -442.47127197 219.62022858 -442.47961426 218.43013 C-442.3304374 203.95877653 -436.70145632 190.71087182 -426.875 180.0625 C-417.58484162 171.3579223 -404.91373397 164.44241133 -391.9375 164.8125 C-391.66292969 164.21695313 -391.38835937 163.62140625 -391.10546875 163.0078125 C-383.94667973 149.55216224 -365.69382302 142.03386093 -351.9375 137.8125 C-343.9992182 135.44936987 -335.15170518 134.70475576 -326.9375 135.8125 C-324.05078125 137.4609375 -324.05078125 137.4609375 -321.9375 139.8125 C-321.6075 141.7925 -321.2775 143.7725 -320.9375 145.8125 C-312.6875 145.8125 -304.4375 145.8125 -295.9375 145.8125 C-295.6075 143.8325 -295.2775 141.8525 -294.9375 139.8125 C-292.81291793 137.36601156 -291.22184901 136.06677516 -288.00390625 135.4296875 C-284.31105675 135.22026314 -282.28256699 135.62161188 -279 137.4375 C-276.9375 139.8125 -276.9375 139.8125 -275.9375 145.8125 C-267.6875 145.8125 -259.4375 145.8125 -250.9375 145.8125 C-250.6075 143.8325 -250.2775 141.8525 -249.9375 139.8125 C-247.08621779 136.54589637 -245.37787411 135.87458162 -241.06518555 135.26660156 C-239.56860766 135.22563583 -238.07135526 135.20554007 -236.57421875 135.203125 C-235.78223587 135.18658875 -234.99025299 135.17005249 -234.17427063 135.15301514 C-231.65776743 135.10463428 -229.14186804 135.08318725 -226.625 135.0625 C-224.91338124 135.03433187 -223.20179049 135.00440325 -221.49023438 134.97265625 C-217.30603933 134.89887853 -213.1221775 134.84924382 -208.9375 134.8125 C-208.53547363 133.92691406 -208.13344727 133.04132813 -207.71923828 132.12890625 C-194.36322294 102.79257616 -179.63089728 74.41269286 -153.9375 53.8125 C-152.97199219 53.03261719 -152.00648438 52.25273438 -151.01171875 51.44921875 C-122.16604686 28.50989499 -85.42870839 13.40088023 -48.26171875 13.65234375 C-47.38465775 13.65599442 -46.50759674 13.65964508 -45.60395813 13.66340637 C-42.02933979 13.68794082 -38.4573308 13.72590563 -34.8840332 13.8293457 C-24.44951621 14.56454425 -24.44951621 14.56454425 -15.33056641 10.62939453 C-13.47277536 8.02149655 -13.47277536 8.02149655 -12.26489258 5.26000977 C-9.45527273 0.07949865 -5.58615777 -0.54059591 0 0 Z " fill="#010100" transform="translate(441.9375,34.1875)"/>
<path d="M0 0 C6.89040506 5.33007783 12.29001976 11.89173035 17.71484375 18.65625 C20.42891541 22.0043288 23.21854322 25.27781826 26.03125 28.54296875 C27.05081069 29.72914137 28.07034184 30.91533937 29.08984375 32.1015625 C29.59628418 32.69050293 30.10272461 33.27944336 30.62451172 33.88623047 C49.50946524 55.85345884 49.50946524 55.85345884 49.37109375 65.32421875 C48.92194636 70.22400842 46.97310579 73.66958946 43.90625 77.41796875 C38.79387197 81.6008235 33.88903523 83.25463143 27.37329102 83.17407227 C19.9188914 82.00134931 13.045203 78.32036626 6.21875 75.23046875 C4.60427425 74.51456278 2.98904443 73.80035481 1.37304688 73.08789062 C-0.89544446 72.08733735 -3.16251757 71.08442822 -5.42405701 70.06825256 C-10.82995347 67.63935707 -14.84303253 66.04720487 -20.84375 66.66796875 C-24.53706601 69.84790595 -26.91992258 73.12972652 -29.2265625 77.39453125 C-30.13414307 79.0494458 -30.13414307 79.0494458 -31.06005859 80.73779297 C-32.02824242 82.53565211 -32.99173432 84.33596419 -33.95440674 86.13677979 C-34.95038217 87.99809993 -35.95015645 89.85728274 -36.953125 91.71484375 C-37.4466597 92.62996231 -37.4466597 92.62996231 -37.95016479 93.56356812 C-39.84251643 97.01603001 -41.86831575 100.22668843 -44.234375 103.37109375 C-53.47238522 115.99676529 -52.98072957 128.67884528 -52.75090027 143.76864624 C-52.5059487 161.30494611 -57.87453797 175.62722726 -69.84375 188.66796875 C-74.17439807 193.06325336 -78.96548533 196.44477544 -84.09375 199.85546875 C-102.30160834 212.15971918 -114.65083187 230.60973094 -120.30078125 251.83984375 C-121.61400325 258.67993532 -121.9946475 265.50555968 -122.00488281 272.45727539 C-122.00984772 273.28454636 -122.01481262 274.11181732 -122.01992798 274.9641571 C-122.03439411 277.66882185 -122.04132275 280.37342812 -122.046875 283.078125 C-122.04970238 284.0086865 -122.05252975 284.93924801 -122.05544281 285.89800835 C-122.07036649 290.81555331 -122.07964097 295.73306942 -122.08398438 300.65063477 C-122.0894816 305.71327503 -122.1135555 310.77564809 -122.14195633 315.83820438 C-122.16061766 319.74939239 -122.16579001 323.66051616 -122.16732025 327.57174492 C-122.17033569 329.43796702 -122.17832655 331.30418829 -122.19150543 333.17036629 C-122.20865136 335.78313569 -122.20666584 338.39525308 -122.20019531 341.00805664 C-122.2094101 341.76931854 -122.21862488 342.53058044 -122.2281189 343.31491089 C-122.18352521 349.09301874 -121.03604534 351.82184785 -118.84375 357.66796875 C-126.76375 357.66796875 -134.68375 357.66796875 -142.84375 357.66796875 C-142.8530957 354.02983154 -142.86244141 350.39169434 -142.87207031 346.64331055 C-142.90588992 334.60123974 -142.96126737 322.55935774 -143.02765274 310.5174284 C-143.06736546 303.21889086 -143.09979717 295.92045992 -143.11474609 288.62182617 C-143.12780313 282.25608238 -143.15487018 275.89057393 -143.19836307 269.52496272 C-143.22088764 266.15820672 -143.23666616 262.79173999 -143.23563385 259.42490196 C-143.23801001 255.65490152 -143.26514485 251.88580978 -143.29785156 248.1159668 C-143.2928212 247.01472473 -143.28779083 245.91348267 -143.28260803 244.77886963 C-143.42281111 234.28190599 -146.23350252 224.71797435 -153.48828125 216.89453125 C-162.13506415 208.5471278 -172.0328014 207.07070777 -183.65893555 207.12207031 C-184.88949173 207.11173264 -186.12004791 207.10139496 -187.38789368 207.09074402 C-190.72624867 207.0664904 -194.06376582 207.05947357 -197.40214896 207.06046391 C-200.90423439 207.05731259 -204.40615742 207.0316488 -207.90815735 207.00848389 C-214.52349169 206.96808881 -221.13872786 206.94762226 -227.75416642 206.93450999 C-235.29245507 206.91858368 -242.83057799 206.88014473 -250.36877 206.83991671 C-265.8603806 206.75774383 -281.35195793 206.70351093 -296.84375 206.66796875 C-296.48933838 205.71100098 -296.13492676 204.7540332 -295.76977539 203.76806641 C-295.30589349 202.49781585 -294.84228484 201.22746549 -294.37890625 199.95703125 C-294.14514282 199.32804932 -293.91137939 198.69906738 -293.67053223 198.05102539 C-291.92261385 193.23363018 -291.00066725 189.72646525 -291.84375 184.66796875 C-293.71390094 182.23677252 -295.12513345 181.02727702 -297.84375 179.66796875 C-301.45194749 179.26705792 -303.27271717 179.30242826 -306.36526489 181.28208923 C-309.28940908 184.09697632 -310.28026349 186.35803533 -311.68701172 190.15454102 C-311.93009064 190.79760193 -312.17316956 191.44066284 -312.4236145 192.10321045 C-313.22155383 194.22510701 -313.99746804 196.35435661 -314.7734375 198.484375 C-315.33112013 199.98063385 -315.8901555 201.47638915 -316.45046997 202.97166443 C-317.92449683 206.91646341 -319.37996495 210.86786259 -320.83166504 214.82092285 C-322.28679905 218.77343286 -323.75937262 222.71942542 -325.23046875 226.66601562 C-326.89668364 231.14151739 -328.56081786 235.61775948 -330.21481323 240.09779358 C-330.46802873 240.78309961 -330.72124422 241.46840565 -330.98213291 242.17447853 C-331.48828373 243.55119519 -331.99072891 244.92927992 -332.48944759 246.30870628 C-333.82977997 250.00181275 -335.23889404 253.64613752 -336.76017761 257.26881409 C-341.4672446 268.72227229 -342.83060865 278.49239994 -342.59765625 290.8125 C-342.58964198 292.56457988 -342.58448981 294.3166749 -342.58201599 296.06877136 C-342.56991923 299.69686243 -342.53541567 303.32370608 -342.48168945 306.95141602 C-342.41317679 311.59024696 -342.38476219 316.22821252 -342.37069798 320.86749744 C-342.35557205 325.32844454 -342.32123904 329.78918123 -342.28515625 334.25 C-342.27987978 335.091056 -342.27460331 335.93211201 -342.26916695 336.79865456 C-342.25065007 339.1808993 -342.2184925 341.56255276 -342.18188477 343.94458008 C-342.17617462 344.98953644 -342.17617462 344.98953644 -342.17034912 346.05560303 C-342.08203492 350.54441861 -341.33028211 353.20837242 -339.84375 357.66796875 C-347.76375 357.66796875 -355.68375 357.66796875 -363.84375 357.66796875 C-363.8530957 354.01637695 -363.86244141 350.36478516 -363.87207031 346.60253906 C-363.90600373 334.46872977 -363.96144614 322.33510536 -364.02765274 310.20143509 C-364.06723568 302.85271148 -364.09973228 295.50409173 -364.11474609 288.15527344 C-364.12787151 281.74000381 -364.15510777 275.32496473 -364.19836307 268.90982509 C-364.22073761 265.52203353 -364.23456743 262.1347681 -364.23563385 258.74686432 C-364.24540118 243.26050836 -364.92220919 228.6963439 -368.84375 213.66796875 C-369.26426132 212.0469223 -369.26426132 212.0469223 -369.69326782 210.39312744 C-370.35234265 207.99133404 -371.0959261 205.64764783 -371.90625 203.29296875 C-372.19153564 202.4426709 -372.47682129 201.59237305 -372.77075195 200.71630859 C-375.15057814 193.94946964 -378.23116369 187.65256717 -381.53125 181.29296875 C-390.23807061 164.5108724 -393.48998766 148.99945778 -388.171875 130.5390625 C-383.08363772 114.6911604 -371.25179132 103.55870155 -356.90625 95.85546875 C-348.41448886 91.87118272 -339.76616404 90.3599529 -330.4375 90.171875 C-327.05321986 89.51438684 -325.94984502 88.3606297 -323.84375 85.66796875 C-323.18375 84.01796875 -322.52375 82.36796875 -321.84375 80.66796875 C-313.59375 80.66796875 -305.34375 80.66796875 -296.84375 80.66796875 C-296.51375 78.68796875 -296.18375 76.70796875 -295.84375 74.66796875 C-293.71916793 72.22148031 -292.12809901 70.92224391 -288.91015625 70.28515625 C-285.21730675 70.07573189 -283.18881699 70.47708063 -279.90625 72.29296875 C-277.84375 74.66796875 -277.84375 74.66796875 -276.84375 80.66796875 C-268.59375 80.66796875 -260.34375 80.66796875 -251.84375 80.66796875 C-249.86375 84.62796875 -249.86375 84.62796875 -247.84375 88.66796875 C-245.09432954 90.04267898 -242.87361611 89.81038672 -239.79614258 89.82910156 C-238.52333939 89.83870911 -237.25053619 89.84831665 -235.93916321 89.85821533 C-234.53887105 89.86306878 -233.1385768 89.86734625 -231.73828125 89.87109375 C-231.03068853 89.87392113 -230.32309582 89.8767485 -229.5940609 89.87966156 C-225.83557129 89.89467947 -222.07712018 89.90388716 -218.31860352 89.90820312 C-214.47494026 89.91363331 -210.63164115 89.93753575 -206.78809071 89.96617508 C-203.80306572 89.98503174 -200.8181235 89.99001951 -197.83304405 89.991539 C-196.41917661 89.99452418 -195.00530912 90.00240848 -193.59150124 90.01572418 C-179.84152992 90.1357772 -167.17929408 88.09644218 -154.34375 83.04296875 C-153.01174561 82.52464478 -153.01174561 82.52464478 -151.65283203 81.99584961 C-138.89889848 76.86322514 -128.19119127 69.71668615 -117.84375 60.66796875 C-116.67117595 59.65555115 -115.4979605 58.6438761 -114.32421875 57.6328125 C-111.7728672 55.43104757 -109.22807782 53.22199776 -106.6875 51.0078125 C-102.98887201 47.7874231 -99.26215447 44.60084231 -95.53125 41.41796875 C-91.52015744 37.9937027 -87.55719294 34.530696 -83.65625 30.98046875 C-79.3918654 27.10756864 -74.97216784 23.4657602 -70.484375 19.85546875 C-68.06865704 17.85428228 -65.80649079 15.76273409 -63.53125 13.60546875 C-48.68197684 0.34435315 -18.77128028 -11.47490935 0 0 Z " fill="#D0A083" transform="translate(442.84375,99.33203125)"/>
<path d="M0 0 C1.50626953 0.00676758 1.50626953 0.00676758 3.04296875 0.01367188 C5.48704471 0.02531033 7.9309882 0.0416576 10.375 0.0625 C8.77738931 4.72219784 6.98229355 8.74271099 2.40332031 11.06054688 C-0.04462814 12.04304973 -2.51237413 12.9354539 -5 13.8125 C-19.93045896 19.46763113 -30.93151527 27.77251526 -42.73388672 38.37304688 C-45.83167327 41.14049884 -48.98026602 43.84868067 -52.125 46.5625 C-53.37396116 47.64422738 -54.62265891 48.72625898 -55.87109375 49.80859375 C-56.48968262 50.34468262 -57.10827148 50.88077148 -57.74560547 51.43310547 C-59.63436858 53.07062236 -61.52235475 54.70903092 -63.41015625 56.34765625 C-67.14547467 59.58936697 -70.88409933 62.82723321 -74.625 66.0625 C-75.23794922 66.59294922 -75.85089844 67.12339844 -76.48242188 67.66992188 C-80.00182104 70.71261936 -83.53181504 73.74206022 -87.08056641 76.75048828 C-88.46926358 77.93020036 -89.85036046 79.11884522 -91.23046875 80.30859375 C-104.79551946 91.66074875 -126.21094354 103.25050364 -144.625 102.0625 C-133.32166533 65.90307615 -104.87045159 34.72876495 -71.8125 17.0625 C-64.94729705 13.52590408 -57.94255572 10.54474778 -50.625 8.0625 C-49.59246094 7.70542969 -48.55992187 7.34835938 -47.49609375 6.98046875 C-32.01222774 1.90784025 -16.25147593 -0.14103417 0 0 Z " fill="#C38863" transform="translate(400.625,67.9375)"/>
<path d="M0 0 C1.41693016 2.83386032 0.4746559 4.18346657 -0.4375 7.1875 C-6.32008769 29.9588072 1.89728993 50.30020283 12.1875 70.1875 C21.14868235 87.84200327 24.18722898 107.23205697 24.29516602 126.82373047 C24.30660873 128.26035471 24.32693648 129.69693909 24.35668945 131.13330078 C24.64783551 145.26120381 22.49570131 158.3107485 16.0625 171.0625 C15.74087891 171.74248047 15.41925781 172.42246094 15.08789062 173.12304688 C12.82204322 177.78434638 10.10256033 181.8506628 7 186 C-5.30660018 176.70726109 -12.59612699 161.06148608 -15 146 C-15.28165528 141.91657227 -15.29386444 137.84620486 -15.29052734 133.75415039 C-15.29724457 132.55945633 -15.30396179 131.36476227 -15.31088257 130.13386536 C-15.3265417 126.8817242 -15.33323252 123.62973698 -15.33451414 120.37756276 C-15.33594287 118.34000464 -15.3402259 116.30247275 -15.34550858 114.26492119 C-15.36396466 107.14054558 -15.37218437 100.01624443 -15.37060547 92.8918457 C-15.36940382 86.27579106 -15.39052181 79.66006249 -15.4220928 73.04409033 C-15.44832708 67.34102425 -15.45896985 61.63806426 -15.45769465 55.93493837 C-15.4571873 52.5386777 -15.46274379 49.14270758 -15.48405075 45.74650764 C-15.50371852 41.95581324 -15.49786893 38.16595292 -15.48583984 34.37524414 C-15.49707886 33.26584473 -15.50831787 32.15644531 -15.51989746 31.01342773 C-15.43423527 20.35187916 -12.15443452 11.94123934 -5 4 C-2.125 1.5 -2.125 1.5 0 0 Z " fill="#C48864" transform="translate(35,225)"/>
<path d="M0 0 C8.58 0 17.16 0 26 0 C24.3125 6.75 24.3125 6.75 23.7253418 9.09204102 C22.74984874 12.98450729 21.78339329 16.87890532 20.83203125 20.77734375 C18.49799129 30.29679016 15.96904469 39.73211212 13.23095703 49.14331055 C11.51960735 55.06615913 9.9621498 61.01108159 8.5 67 C6.80809641 73.91906703 4.97273822 80.78061421 3 87.625 C2.75040527 88.49342529 2.50081055 89.36185059 2.24365234 90.2565918 C1.25423152 93.68870554 0.26059489 97.11935152 -0.75292969 100.54443359 C-1.46901892 102.96466386 -2.17264398 105.38825528 -2.875 107.8125 C-3.09027344 108.52293457 -3.30554688 109.23336914 -3.52734375 109.96533203 C-5.05454704 115.28399449 -6.27460767 121.05246976 -4 126.3125 C-3.67 126.869375 -3.34 127.42625 -3 128 C-3 128.99 -3 129.98 -3 131 C-11.91 131 -20.82 131 -30 131 C-28.00892862 120.93669343 -25.94092528 110.89710445 -23.75 100.875 C-23.60071045 100.19091064 -23.4514209 99.50682129 -23.29760742 98.80200195 C-20.89471811 87.81248449 -18.31128771 76.87499954 -15.62817383 65.95019531 C-13.4129954 56.87173715 -11.39853463 47.76066082 -9.4375 38.625 C-6.65059538 25.64327985 -3.45822305 12.82072935 0 0 Z " fill="#C48864" transform="translate(239,326)"/>
<path d="M0 0 C7.92 0 15.84 0 24 0 C22.7625 2.76375 21.525 5.5275 20.25 8.375 C19.82294769 9.35410339 19.39589539 10.33320679 18.9559021 11.34197998 C16.82482094 16.18975584 14.57285644 20.83383504 11.89306641 25.40332031 C1.14492654 44.51562586 1.45568687 62.31447611 2.05944824 83.70996094 C2.14798319 87.30939309 2.18201097 90.90846491 2.21399117 94.50877953 C2.25308579 98.82643732 2.31398251 103.14366018 2.3828125 107.4609375 C2.3956641 108.27457134 2.4085157 109.08820518 2.42175674 109.9264946 C2.46370586 112.21756568 2.52023285 114.50774148 2.58251953 116.79833984 C2.61427277 118.09669769 2.646026 119.39505554 2.67874146 120.73275757 C2.98018028 123.79843084 3.52917608 125.37613271 5 128 C5 128.99 5 129.98 5 131 C-0.94 131 -6.88 131 -13 131 C-17.71592892 122.16183842 -18.90979725 114.78735275 -19.12109375 104.86328125 C-19.14196611 104.14541632 -19.16283848 103.42755138 -19.18434334 102.68793297 C-19.3419302 97.22948446 -19.40164377 91.7729208 -19.4375 86.3125 C-19.44595947 85.51371429 -19.45441895 84.71492859 -19.46313477 83.89193726 C-19.77674247 52.70874739 -13.93130131 28.19430026 0 0 Z " fill="#C38863" transform="translate(138,326)"/>
<path d="M0 0 C2.8100346 1.79363911 4.50940468 3.01880935 6 6 C6.54724071 11.69130337 5.59333707 14.56117185 2 19 C-1.21694364 20.60847182 -4.52137222 20.61309149 -8 20 C-10.69105198 17.82425584 -12.45532928 16.08934144 -14 13 C-14.39447548 8.81855989 -14.45035186 6.69053952 -12.125 3.125 C-8.51880254 -0.48119746 -4.93573703 -0.70915762 0 0 Z " fill="#020101" transform="translate(160,170)"/>
<path d="M0 0 C3.02848464 2.06194699 4.6491022 3.53260921 5.515625 7.15625 C5.84907564 11.70330418 5.43421338 13.48106205 2.4375 17.0625 C-1.54335936 19.30625709 -3.50588566 19.73540053 -8 19 C-10.75329021 17.20437595 -12.52627461 15.94745078 -14 13 C-14.70153846 5.86769231 -14.70153846 5.86769231 -11.625 2.0625 C-7.32198817 -1.31843787 -5.37649402 -1.27577824 0 0 Z " fill="#040302" transform="translate(436,123)"/>
</svg>
