<?xml version="1.0" encoding="UTF-8"?>
<svg version="1.1" xmlns="http://www.w3.org/2000/svg" width="512" height="512">
<path d="M0 0 C1.6109939 1.53453102 3.21502472 3.07640078 4.8125 4.625 C9.42086564 8.90110103 13.8647577 10.74014635 19.75390625 12.765625 C37.75987729 19.61266092 46.04695052 34.81776779 54.26171875 51.125 C56.98423019 55.62785038 60.09018068 58.94783532 65 60.9375 C69.18216552 62.94937508 71.60935093 64.89107191 74 69 C75.17700796 74.78620709 74.67877906 79.66036824 71.625 84.75 C64.48678364 94.06795143 53.34334071 99.25218554 42.03515625 101.62109375 C32.98218824 102.75125835 22.37387384 103.18693692 14 99 C13.85087158 99.81682251 13.85087158 99.81682251 13.69873047 100.65014648 C12.5262884 106.51423774 10.63730075 111.65031306 8.125 117.0625 C7.78597656 117.81337891 7.44695312 118.56425781 7.09765625 119.33789062 C5.7402226 122.32372851 4.39120408 125.2854801 2.81542969 128.16357422 C2.44063477 128.85080566 2.06583984 129.53803711 1.6796875 130.24609375 C1.33405762 130.84993896 0.98842773 131.45378418 0.63232422 132.07592773 C-0.67346728 136.04926472 1.04245134 139.2503249 2.81005859 142.80541992 C3.58370228 144.28349495 4.36353546 145.75834133 5.1484375 147.23046875 C5.99749839 148.8547641 6.84645333 150.47911485 7.6953125 152.10351562 C9.0310713 154.64121271 10.36964562 157.17738129 11.7109375 159.7121582 C13.0100615 162.17275863 14.29837051 164.63880601 15.5859375 167.10546875 C16.18140884 168.21851631 16.18140884 168.21851631 16.78890991 169.35404968 C21.14073789 177.7112825 23.5618117 185.86678368 23.4375 195.3125 C23.42614014 196.54299072 23.42614014 196.54299072 23.41455078 197.79833984 C23.11435822 208.99311207 19.89330804 218.17934386 13 227 C12.56042969 227.61359375 12.12085938 228.2271875 11.66796875 228.859375 C7.04745001 234.87803342 0.27167692 239.97839697 -7.15234375 241.75390625 C-11.10168505 242.09520735 -12.75828217 241.27609975 -16 239 C-20.804728 231.9913458 -24.51921812 224.36840155 -28.375 216.8125 C-29.65183316 214.31807822 -30.93076395 211.82474021 -32.2109375 209.33203125 C-32.52230652 208.72521515 -32.83367554 208.11839905 -33.15447998 207.49319458 C-36.35106492 201.28255949 -39.66323801 195.13631432 -43 189 C-47.4057289 192.23829591 -51.66117158 195.56393859 -55.8125 199.125 C-83.56440355 222 -83.56440355 222 -94 222 C-94.02578125 222.76441406 -94.0515625 223.52882813 -94.078125 224.31640625 C-95.46724633 250.55185677 -106.80113782 273.28165083 -126.0625 290.8125 C-127.95477563 292.48165016 -129.56154263 293.83207809 -131.93113708 294.73959351 C-134.51767281 295.87978834 -136.09618194 296.89096977 -138 299 C-139.22256147 303.861685 -139.0722185 308.72596508 -139 313.70703125 C-139.00752232 315.15722324 -139.01855963 316.60740089 -139.03295898 318.05754089 C-139.06134882 321.86389511 -139.04213453 325.66856405 -139.01287842 329.47485352 C-138.99145861 333.36290402 -139.01523019 337.25065232 -139.03515625 341.13867188 C-139.06757403 348.75953463 -139.04968592 356.37918326 -139 364 C-137.8761792 363.98428955 -136.7523584 363.9685791 -135.59448242 363.95239258 C-131.37694627 363.89759792 -127.15944079 363.86347192 -122.94165039 363.83520508 C-121.1251901 363.82023027 -119.30876526 363.79984316 -117.49243164 363.77368164 C-99.5732478 363.52227081 -84.85050708 365.64149249 -71.32421875 378.48828125 C-62.59480796 387.92191341 -57.66153732 399.68730815 -56.90234375 412.51953125 C-57.05704813 416.44902243 -57.90533879 418.64854206 -60 422 C-63.66317939 424.70064474 -66.25392264 425.37584021 -70.76867676 425.38095093 C-71.92106339 425.3894104 -73.07345001 425.39786987 -74.26075745 425.40658569 C-75.51597702 425.400513 -76.77119659 425.39444031 -78.06445312 425.38818359 C-79.40681892 425.39225106 -80.74918136 425.39759393 -82.09153748 425.40411377 C-85.72997458 425.41777253 -89.36815604 425.4124948 -93.00659752 425.40297651 C-96.81727148 425.39537241 -100.6279238 425.40242761 -104.43859863 425.40713501 C-110.83752363 425.41259038 -117.23634469 425.40540672 -123.63525391 425.39111328 C-131.02948412 425.37478713 -138.42346617 425.38007579 -145.81769037 425.3965925 C-152.17027995 425.41021363 -158.52279488 425.41212398 -164.87539434 425.40427649 C-168.66774913 425.3996034 -172.45998733 425.39896505 -176.25233459 425.40888596 C-179.81798461 425.41756253 -183.38331517 425.41152143 -186.94893074 425.39420319 C-188.87903023 425.38835484 -190.80915679 425.39724803 -192.73924255 425.40658569 C-193.89162918 425.39812622 -195.04401581 425.38966675 -196.23132324 425.38095093 C-197.23050529 425.37981985 -198.22968735 425.37868877 -199.25914764 425.37752342 C-203.41322588 424.80534308 -205.93651802 423.12683145 -208.78757954 420.10593796 C-210.21015119 417.63497369 -210.38267399 416.14323816 -210.39872742 413.30499268 C-210.41126556 412.36552292 -210.42380371 411.42605316 -210.4367218 410.45811462 C-210.43528671 409.43456375 -210.43385162 408.41101288 -210.43237305 407.35644531 C-210.44766052 405.73159966 -210.44766052 405.73159966 -210.46325684 404.07392883 C-210.49346138 400.49194212 -210.50266441 396.9102225 -210.51171875 393.328125 C-210.52855985 390.8451854 -210.54670932 388.36225436 -210.56611633 385.8793335 C-210.60882152 380.01106018 -210.63832607 374.14283652 -210.66143972 368.27445579 C-210.691149 360.93678175 -210.74134611 353.59928264 -210.79101562 346.26171875 C-210.87712572 333.17454411 -210.94500624 320.08734048 -211 307 C-212.64548828 306.4901355 -212.64548828 306.4901355 -214.32421875 305.9699707 C-215.77866489 305.51780217 -217.23309091 305.06556893 -218.6875 304.61328125 C-219.40873047 304.38999146 -220.12996094 304.16670166 -220.87304688 303.93664551 C-225.65146662 302.44884416 -230.34485751 300.84266057 -235 299 C-235.15033691 299.69859131 -235.30067383 300.39718262 -235.45556641 301.11694336 C-244.161093 341.18013206 -259.22397689 378.78656288 -294.85205078 402.26147461 C-317.90439125 416.86318521 -344.836059 423.97903183 -372 425 C-372.66483398 425.02723145 -373.32966797 425.05446289 -374.01464844 425.08251953 C-391.44256189 425.70747177 -408.82012764 423.81619987 -425.75 419.625 C-426.91982422 419.34813354 -426.91982422 419.34813354 -428.11328125 419.06567383 C-432.90825746 417.77203814 -435.49242725 416.33008696 -438 412 C-439.05006298 407.49090601 -438.57040311 403.94411549 -436.1875 400 C-432.88325504 396.97897603 -429.99708233 396.84565944 -425.6875 396.60546875 C-392.24937239 394.53564587 -357.27779343 386.24378848 -333.0625 361.25 C-320.48270751 346.23389761 -319.03180528 328.29532322 -316.78149414 309.63760376 C-314.34368201 289.616704 -311.30180476 269.70649391 -308 249.8125 C-307.79680145 248.57287506 -307.59360291 247.33325012 -307.38424683 246.05606079 C-305.20226808 232.78869258 -302.81329302 219.59145137 -299.9296875 206.45703125 C-299.57825684 204.8443914 -299.57825684 204.8443914 -299.21972656 203.19917297 C-295.96221251 188.76631733 -290.99750475 174.86940176 -284.8125 161.4375 C-284.50393066 160.76509277 -284.19536133 160.09268555 -283.87744141 159.39990234 C-281.61089505 154.71169851 -278.80825104 149.40412552 -274 147 C-273.1028125 147.17789063 -273.1028125 147.17789063 -272.1875 147.359375 C-269.36895411 147.86268677 -267.75961167 147.86730652 -265 147 C-261.02630099 143.07039196 -257.86061386 138.79555935 -255 134 C-254.7763932 131.0745356 -254.7763932 131.0745356 -256 129 C-256.37712577 124.00308353 -256.09290612 121.00932275 -253 117 C-249.28405881 114.52270587 -246.29721562 114.66157459 -242 115 C-241.23042969 115.2578125 -240.46085938 115.515625 -239.66796875 115.78125 C-235.64077535 116.11144448 -233.23641323 114.04351707 -230.1875 111.6875 C-229.29998047 111.00941284 -229.29998047 111.00941284 -228.39453125 110.31762695 C-225.78522466 108.14533412 -224.15341859 106.62444056 -223.33203125 103.28125 C-223.43108024 100.7072846 -223.43108024 100.7072846 -224.03125 98.32421875 C-224 96 -224 96 -221.97265625 93.4765625 C-218.79801139 90.8317204 -215.54084536 88.67989028 -211.9375 86.6875 C-211.24849609 86.30505127 -210.55949219 85.92260254 -209.84960938 85.52856445 C-181.06684523 70.00825841 -152.3973413 66.55758092 -120.25 71 C-107.96913747 72.68670828 -95.89705407 73.39791154 -83.5 73.375 C-82.35053894 73.37717529 -82.35053894 73.37717529 -81.17785645 73.37939453 C-67.31619736 73.89924114 -67.31619736 73.89924114 -55.125 68.625 C-51.8892333 64.00878676 -51.11039285 58.42339243 -50 53 C-49.52822161 50.70586196 -49.05181502 48.41300558 -48.56469727 46.12207031 C-48.23867121 44.58212418 -47.92340635 43.0398458 -47.62084961 41.49511719 C-45.46448074 31.20579801 -40.29815585 22.72642356 -31.80859375 16.35546875 C-28.89401219 14.49292768 -26.29143823 13.09714608 -23 12 C-32.42059393 6.68581881 -42.68976944 5.84916199 -53.25 7.6875 C-57.78824055 8.06568671 -60.09365887 7.29784772 -64 5 C-66.87434293 1.85618742 -67 0.29758561 -67 -4 C-66.45631711 -6.94032584 -65.81608062 -8.28200972 -64.125 -10.875 C-46.02874413 -23.18045399 -15.24560447 -12.36396356 0 0 Z " fill="#DBB8A2" transform="translate(438,51)"/>
<path d="M0 0 C1.6109939 1.53453102 3.21502472 3.07640078 4.8125 4.625 C9.42086564 8.90110103 13.8647577 10.74014635 19.75390625 12.765625 C37.75987729 19.61266092 46.04695052 34.81776779 54.26171875 51.125 C56.98423019 55.62785038 60.09018068 58.94783532 65 60.9375 C69.18216552 62.94937508 71.60935093 64.89107191 74 69 C75.17700796 74.78620709 74.67877906 79.66036824 71.625 84.75 C64.48678364 94.06795143 53.34334071 99.25218554 42.03515625 101.62109375 C32.98218824 102.75125835 22.37387384 103.18693692 14 99 C13.85087158 99.81682251 13.85087158 99.81682251 13.69873047 100.65014648 C12.5262884 106.51423774 10.63730075 111.65031306 8.125 117.0625 C7.78597656 117.81337891 7.44695312 118.56425781 7.09765625 119.33789062 C5.7402226 122.32372851 4.39120408 125.2854801 2.81542969 128.16357422 C2.44063477 128.85080566 2.06583984 129.53803711 1.6796875 130.24609375 C1.33405762 130.84993896 0.98842773 131.45378418 0.63232422 132.07592773 C-0.67346728 136.04926472 1.04245134 139.2503249 2.81005859 142.80541992 C3.58370228 144.28349495 4.36353546 145.75834133 5.1484375 147.23046875 C5.99749839 148.8547641 6.84645333 150.47911485 7.6953125 152.10351562 C9.0310713 154.64121271 10.36964562 157.17738129 11.7109375 159.7121582 C13.0100615 162.17275863 14.29837051 164.63880601 15.5859375 167.10546875 C16.18140884 168.21851631 16.18140884 168.21851631 16.78890991 169.35404968 C21.14073789 177.7112825 23.5618117 185.86678368 23.4375 195.3125 C23.42614014 196.54299072 23.42614014 196.54299072 23.41455078 197.79833984 C23.11435822 208.99311207 19.89330804 218.17934386 13 227 C12.56042969 227.61359375 12.12085938 228.2271875 11.66796875 228.859375 C7.04745001 234.87803342 0.27167692 239.97839697 -7.15234375 241.75390625 C-11.10168505 242.09520735 -12.75828217 241.27609975 -16 239 C-20.804728 231.9913458 -24.51921812 224.36840155 -28.375 216.8125 C-29.65183316 214.31807822 -30.93076395 211.82474021 -32.2109375 209.33203125 C-32.52230652 208.72521515 -32.83367554 208.11839905 -33.15447998 207.49319458 C-36.35106492 201.28255949 -39.66323801 195.13631432 -43 189 C-47.4057289 192.23829591 -51.66117158 195.56393859 -55.8125 199.125 C-83.56440355 222 -83.56440355 222 -94 222 C-94.02578125 222.76441406 -94.0515625 223.52882813 -94.078125 224.31640625 C-95.46724633 250.55185677 -106.80113782 273.28165083 -126.0625 290.8125 C-127.95477563 292.48165016 -129.56154263 293.83207809 -131.93113708 294.73959351 C-134.51767281 295.87978834 -136.09618194 296.89096977 -138 299 C-139.22256147 303.861685 -139.0722185 308.72596508 -139 313.70703125 C-139.00752232 315.15722324 -139.01855963 316.60740089 -139.03295898 318.05754089 C-139.06134882 321.86389511 -139.04213453 325.66856405 -139.01287842 329.47485352 C-138.99145861 333.36290402 -139.01523019 337.25065232 -139.03515625 341.13867188 C-139.06757403 348.75953463 -139.04968592 356.37918326 -139 364 C-137.8761792 363.98428955 -136.7523584 363.9685791 -135.59448242 363.95239258 C-131.37694627 363.89759792 -127.15944079 363.86347192 -122.94165039 363.83520508 C-121.1251901 363.82023027 -119.30876526 363.79984316 -117.49243164 363.77368164 C-99.5732478 363.52227081 -84.85050708 365.64149249 -71.32421875 378.48828125 C-62.59480796 387.92191341 -57.66153732 399.68730815 -56.90234375 412.51953125 C-57.05704813 416.44902243 -57.90533879 418.64854206 -60 422 C-63.66317939 424.70064474 -66.25392264 425.37584021 -70.76867676 425.38095093 C-71.92106339 425.3894104 -73.07345001 425.39786987 -74.26075745 425.40658569 C-75.51597702 425.400513 -76.77119659 425.39444031 -78.06445312 425.38818359 C-79.40681892 425.39225106 -80.74918136 425.39759393 -82.09153748 425.40411377 C-85.72997458 425.41777253 -89.36815604 425.4124948 -93.00659752 425.40297651 C-96.81727148 425.39537241 -100.6279238 425.40242761 -104.43859863 425.40713501 C-110.83752363 425.41259038 -117.23634469 425.40540672 -123.63525391 425.39111328 C-131.02948412 425.37478713 -138.42346617 425.38007579 -145.81769037 425.3965925 C-152.17027995 425.41021363 -158.52279488 425.41212398 -164.87539434 425.40427649 C-168.66774913 425.3996034 -172.45998733 425.39896505 -176.25233459 425.40888596 C-179.81798461 425.41756253 -183.38331517 425.41152143 -186.94893074 425.39420319 C-188.87903023 425.38835484 -190.80915679 425.39724803 -192.73924255 425.40658569 C-193.89162918 425.39812622 -195.04401581 425.38966675 -196.23132324 425.38095093 C-197.23050529 425.37981985 -198.22968735 425.37868877 -199.25914764 425.37752342 C-203.41322588 424.80534308 -205.93651802 423.12683145 -208.78757954 420.10593796 C-210.21015119 417.63497369 -210.38267399 416.14323816 -210.39872742 413.30499268 C-210.41126556 412.36552292 -210.42380371 411.42605316 -210.4367218 410.45811462 C-210.43528671 409.43456375 -210.43385162 408.41101288 -210.43237305 407.35644531 C-210.44766052 405.73159966 -210.44766052 405.73159966 -210.46325684 404.07392883 C-210.49346138 400.49194212 -210.50266441 396.9102225 -210.51171875 393.328125 C-210.52855985 390.8451854 -210.54670932 388.36225436 -210.56611633 385.8793335 C-210.60882152 380.01106018 -210.63832607 374.14283652 -210.66143972 368.27445579 C-210.691149 360.93678175 -210.74134611 353.59928264 -210.79101562 346.26171875 C-210.87712572 333.17454411 -210.94500624 320.08734048 -211 307 C-212.64548828 306.4901355 -212.64548828 306.4901355 -214.32421875 305.9699707 C-215.77866489 305.51780217 -217.23309091 305.06556893 -218.6875 304.61328125 C-219.40873047 304.38999146 -220.12996094 304.16670166 -220.87304688 303.93664551 C-225.65146662 302.44884416 -230.34485751 300.84266057 -235 299 C-235.15033691 299.69859131 -235.30067383 300.39718262 -235.45556641 301.11694336 C-244.161093 341.18013206 -259.22397689 378.78656288 -294.85205078 402.26147461 C-317.90439125 416.86318521 -344.836059 423.97903183 -372 425 C-372.66483398 425.02723145 -373.32966797 425.05446289 -374.01464844 425.08251953 C-391.44256189 425.70747177 -408.82012764 423.81619987 -425.75 419.625 C-426.91982422 419.34813354 -426.91982422 419.34813354 -428.11328125 419.06567383 C-432.90825746 417.77203814 -435.49242725 416.33008696 -438 412 C-439.05006298 407.49090601 -438.57040311 403.94411549 -436.1875 400 C-432.88325504 396.97897603 -429.99708233 396.84565944 -425.6875 396.60546875 C-392.24937239 394.53564587 -357.27779343 386.24378848 -333.0625 361.25 C-320.48270751 346.23389761 -319.03180528 328.29532322 -316.78149414 309.63760376 C-314.34368201 289.616704 -311.30180476 269.70649391 -308 249.8125 C-307.79680145 248.57287506 -307.59360291 247.33325012 -307.38424683 246.05606079 C-305.20226808 232.78869258 -302.81329302 219.59145137 -299.9296875 206.45703125 C-299.57825684 204.8443914 -299.57825684 204.8443914 -299.21972656 203.19917297 C-295.96221251 188.76631733 -290.99750475 174.86940176 -284.8125 161.4375 C-284.50393066 160.76509277 -284.19536133 160.09268555 -283.87744141 159.39990234 C-281.61089505 154.71169851 -278.80825104 149.40412552 -274 147 C-267.3483927 146.11311903 -267.3483927 146.11311903 -264.10546875 148.24609375 C-260.97513704 151.42041139 -260.0531782 153.44162891 -259.625 157.9375 C-260.62469223 163.2511794 -263.3035297 167.9020462 -265.77514648 172.65332031 C-281.30520444 202.58961848 -285.12846247 238.85622506 -289.57519531 271.88769531 C-290.19818577 276.45199552 -290.87441137 281.00762308 -291.5625 285.5625 C-291.68189941 286.35785156 -291.80129883 287.15320313 -291.92431641 287.97265625 C-292.52287193 291.93573247 -293.14059927 295.89506853 -293.78125 299.8515625 C-295.02072214 307.51424441 -296.18721955 315.16121004 -297.0625 322.875 C-297.22524023 324.27604401 -297.38800011 325.67708574 -297.55078125 327.078125 C-297.83101602 329.52469635 -298.10102322 331.97248725 -298.35546875 334.421875 C-300.56889342 352.39225351 -309.47443354 367.21661743 -322 380 C-322.92619141 380.98033203 -322.92619141 380.98033203 -323.87109375 381.98046875 C-331.20039204 389.13280209 -340.47849155 393.86121154 -349.30688477 398.91186523 C-349.86561279 399.27094971 -350.42434082 399.63003418 -351 400 C-351 400.33 -351 400.66 -351 401 C-327.95188039 395.78965381 -307.91481492 387.94087781 -291 371 C-290.35933594 370.43023437 -289.71867188 369.86046875 -289.05859375 369.2734375 C-266.70979942 349.05063057 -257.08656881 312.64480735 -255.5625 283.6875 C-255.54316406 282.70136719 -255.52382812 281.71523438 -255.50390625 280.69921875 C-254.74137436 276.61464869 -252.44866948 274.09899064 -249.1875 271.625 C-244.71148283 270.34613795 -240.73651874 271.63821647 -236.66796875 273.63671875 C-235.50447509 274.31461656 -234.34445565 274.99850322 -233.1875 275.6875 C-221.82037412 282.08528823 -209.44985115 285.92502481 -196.6015625 288.06640625 C-192.62981506 289.491703 -190.84232508 292.31534983 -189 296 C-188.90803748 297.44449967 -188.87806634 298.89318361 -188.87974548 300.34060669 C-188.87767924 301.70497706 -188.87767924 301.70497706 -188.87557125 303.09691048 C-188.87916936 304.1014974 -188.88276747 305.10608433 -188.88647461 306.14111328 C-188.88635407 307.2118704 -188.88623354 308.28262753 -188.88610935 309.38583183 C-188.88685784 312.86401293 -188.89448322 316.34214095 -188.90234375 319.8203125 C-188.90381337 321.96280898 -188.90483396 324.10530582 -188.90539551 326.24780273 C-188.91064612 334.20687395 -188.92460723 342.16593749 -188.9375 350.125 C-188.958125 367.90375 -188.97875 385.6825 -189 404 C-153.03 404 -117.06 404 -80 404 C-86.23527154 393.60788077 -91.44754779 388.08577027 -103 385 C-106.92488234 384.60353058 -110.8197591 384.62944854 -114.76171875 384.6640625 C-117.03711228 384.65155949 -119.31250293 384.63852281 -121.58789062 384.625 C-125.14959802 384.62105924 -128.71102402 384.62509611 -132.27270508 384.63964844 C-135.72780265 384.6482036 -139.18172481 384.62657418 -142.63671875 384.6015625 C-143.70137863 384.61490631 -144.76603851 384.62825012 -145.86296082 384.64199829 C-153.23901973 384.56815296 -153.23901973 384.56815296 -157.14770508 381.64990234 C-160.29135514 377.1525809 -160.15886385 373.14828279 -160.17700195 367.86010742 C-160.18357315 367.03050003 -160.19014435 366.20089264 -160.19691467 365.34614563 C-160.21663384 362.59925241 -160.22830679 359.85241382 -160.23828125 357.10546875 C-160.24439454 355.69762839 -160.24439454 355.69762839 -160.25063133 354.26134682 C-160.27148552 349.29426926 -160.28579044 344.32721928 -160.29516602 339.36010742 C-160.30623307 334.23200085 -160.34063826 329.10432788 -160.38033772 323.97637463 C-160.40649048 320.03094174 -160.41485663 316.08561242 -160.41844749 312.14010048 C-160.4233164 310.24988181 -160.43493903 308.35966787 -160.45348549 306.46953392 C-160.47785004 303.82203216 -160.47691705 301.17565587 -160.4699707 298.52807617 C-160.48918579 297.36125809 -160.48918579 297.36125809 -160.50878906 296.17086792 C-160.45905113 290.9596384 -159.33091936 287.99071149 -156 284 C-152.8984375 281.98046875 -152.8984375 281.98046875 -149.375 280.1875 C-132.96868702 271.31870377 -124.09089781 257.437804 -118 240 C-111.15299576 216.04840402 -116.12544492 194.74911016 -127 173 C-127.39447548 168.81855989 -127.45035186 166.69053952 -125.125 163.125 C-122.43858355 160.43858355 -121.55493957 160.06403149 -117.75 159.625 C-113.22184591 160.07781541 -111.04359527 161.81522842 -108 165 C-103.03194788 172.68771701 -100.09941056 181.03124237 -97.82421875 189.84375 C-97.01292786 192.95049427 -96.0465681 195.96540952 -95 199 C-77.52130811 189.24494315 -62.29912046 177.77216356 -48.375 163.3125 C-45.95217287 160.99980138 -43.93955237 160.76710649 -40.6875 160.625 C-39.92824219 160.57601562 -39.16898437 160.52703125 -38.38671875 160.4765625 C-34.83177722 161.25620598 -33.41239013 163.32946759 -31 166 C-29.21411133 168.83642578 -29.21411133 168.83642578 -27.58203125 171.9453125 C-26.97174072 173.09660645 -26.3614502 174.24790039 -25.73266602 175.43408203 C-25.09232328 176.66423846 -24.45227331 177.89454733 -23.8125 179.125 C-23.15043392 180.38305827 -22.48758632 181.64070556 -21.82397461 182.89794922 C-20.49966357 185.40998562 -19.18042975 187.92458602 -17.86523438 190.44140625 C-16.1935242 193.63718391 -14.49939804 196.82051112 -12.796875 200 C-11.88527132 201.70825578 -10.97380199 203.41658326 -10.0625 205.125 C-9.64395752 205.90504395 -9.22541504 206.68508789 -8.79418945 207.48876953 C-6 212.77156216 -6 212.77156216 -6 215 C-0.22880877 210.25937863 2.19676327 203.6573079 2.9375 196.375 C2.46029885 183.09033586 -6.56077436 170.34942737 -12.84765625 159.05078125 C-13.80454346 157.3186438 -13.80454346 157.3186438 -14.78076172 155.55151367 C-16.02667294 153.31254262 -17.29190459 151.08418502 -18.57861328 148.8684082 C-21.92226085 142.91016853 -24.62700419 137.90422609 -23 131 C-21.78972328 127.89434412 -20.20138614 125.11035931 -18.5 122.25 C-14.63746552 115.35871523 -11.38664791 108.46616588 -8.625 101.0625 C-8.2952417 100.17860596 -7.9654834 99.29471191 -7.62573242 98.3840332 C-5.87649816 93.60567007 -4.29823568 88.80313635 -2.8125 83.9375 C-1.72799764 80.64643439 -0.98189596 78.97787284 1.25 76.25 C4.93632564 74.57439743 8.07080302 74.25605278 12 75 C14.18686841 75.87084224 16.190681 76.86855984 18.23828125 78.02734375 C24.5626173 81.51905035 34.90000427 80.93337892 41.796875 79.36328125 C45.16181035 78.12860934 45.16181035 78.12860934 48 76 C47.48050781 75.5875 46.96101563 75.175 46.42578125 74.75 C40.33953493 69.71000304 36.8160571 64.84820201 33.45703125 57.73046875 C28.37615539 46.99900784 22.1798355 37.14092837 11 32 C2.83480407 29.09374382 -6.86812354 28.33428884 -15 31.6875 C-19.83125959 34.18734441 -22.99507456 37.49261185 -26 42 C-26.55860432 44.3124234 -26.55860432 44.3124234 -26.89453125 46.90234375 C-27.11665283 48.35338501 -27.11665283 48.35338501 -27.34326172 49.83374023 C-27.49811035 50.85798096 -27.65295898 51.88222168 -27.8125 52.9375 C-29.98450796 66.22127053 -33.14429978 79.18528028 -44.375 87.8125 C-53.7335301 93.92125481 -63.90631582 94.1553001 -74.76171875 94.203125 C-75.78820023 94.20882507 -76.8146817 94.21452515 -77.87226868 94.22039795 C-80.04317203 94.22981115 -82.21408944 94.23636723 -84.38500977 94.24023438 C-87.63259518 94.24983764 -90.87951862 94.28085389 -94.12695312 94.3125 C-108.61649655 94.38489729 -122.63242356 93.34601608 -136.84033203 90.41381836 C-159.67624561 86.03818265 -184.55807745 95.51458925 -203.84985352 107.11206055 C-208.81924597 110.09849029 -212.3120411 111.15407862 -218 110 C-221.04542503 108.70194999 -221.81432726 107.74610165 -224 105 C-224.79105887 101.8300322 -224.96024511 99.13286672 -224 96 C-220.57682235 91.90873005 -216.56067042 89.24378004 -211.9375 86.6875 C-211.24849609 86.30505127 -210.55949219 85.92260254 -209.84960938 85.52856445 C-181.06684523 70.00825841 -152.3973413 66.55758092 -120.25 71 C-107.96913747 72.68670828 -95.89705407 73.39791154 -83.5 73.375 C-82.35053894 73.37717529 -82.35053894 73.37717529 -81.17785645 73.37939453 C-67.31619736 73.89924114 -67.31619736 73.89924114 -55.125 68.625 C-51.8892333 64.00878676 -51.11039285 58.42339243 -50 53 C-49.52822161 50.70586196 -49.05181502 48.41300558 -48.56469727 46.12207031 C-48.23867121 44.58212418 -47.92340635 43.0398458 -47.62084961 41.49511719 C-45.46448074 31.20579801 -40.29815585 22.72642356 -31.80859375 16.35546875 C-28.89401219 14.49292768 -26.29143823 13.09714608 -23 12 C-32.42059393 6.68581881 -42.68976944 5.84916199 -53.25 7.6875 C-57.78824055 8.06568671 -60.09365887 7.29784772 -64 5 C-66.87434293 1.85618742 -67 0.29758561 -67 -4 C-66.45631711 -6.94032584 -65.81608062 -8.28200972 -64.125 -10.875 C-46.02874413 -23.18045399 -15.24560447 -12.36396356 0 0 Z " fill="#010101" transform="translate(438,51)"/>
<path d="M0 0 C2.61360243 0.82534814 3.59474722 1.47317138 5.25 3.625 C6.34961082 7.10710092 6.59717997 10.41692017 6 14 C4.20636089 16.8100346 2.98119065 18.50940468 0 20 C-7.08958838 20.5811138 -7.08958838 20.5811138 -10.9375 18.125 C-13.60446101 15.37722199 -13.95824498 14.553254 -14.25 10.6875 C-13.984656 6.77367606 -13.36680088 5.06807521 -11 2 C-7.28004984 -0.47996677 -4.30573798 -0.41752611 0 0 Z " fill="#020101" transform="translate(196,166)"/>
</svg>
