<?xml version="1.0" encoding="UTF-8"?>
<svg version="1.1" xmlns="http://www.w3.org/2000/svg" width="512" height="512">
<path d="M0 0 C11.54538768 8.58651948 19.73835216 18.62642984 27.625 30.5625 C28.63175781 30.05460937 29.63851562 29.54671875 30.67578125 29.0234375 C41.37585467 23.73722217 52.08153056 19.60266126 63.625 16.5625 C64.7991748 16.24490723 64.7991748 16.24490723 65.99707031 15.92089844 C103.02188194 6.35779728 148.47231031 11.36883755 181.625 30.5625 C182.14707031 29.76328125 182.66914063 28.9640625 183.20703125 28.140625 C197.81567905 6.16525201 215.67674258 -7.78847215 241.625 -14.4375 C266.97955007 -19.20842344 290.7923254 -14.22667719 312 0 C331.6661112 14.62605255 344.99420424 35.10161094 348.625 59.5625 C349.52971843 73.94565115 349.4169921 87.8801015 344.625 101.5625 C344.274375 102.59890625 343.92375 103.6353125 343.5625 104.703125 C336.43940349 123.59911713 322.83382445 139.21659596 305.625 149.5625 C302.20703125 150.8359375 302.20703125 150.8359375 299.625 151.5625 C299.40384521 152.81909424 299.18269043 154.07568848 298.95483398 155.37036133 C297.24048051 163.91373207 294.7205106 172.2585514 292.34765625 180.63671875 C291.81603395 182.52430687 291.28474528 184.41198899 290.75376892 186.29975891 C289.35244262 191.27842005 287.94660567 196.2557964 286.53979492 201.23291016 C285.42541311 205.17777707 284.31378658 209.12341721 283.20247841 213.06915092 C282.38056541 215.98737184 281.55817019 218.90545652 280.73568726 221.82351685 C279.64576489 225.69062628 278.55709341 229.55808505 277.46914673 233.42575073 C275.0512916 242.01372242 272.62254219 250.59783458 270.13571644 259.16612911 C269.08216815 262.79834838 268.03636937 266.43277823 266.99111748 270.06739235 C266.49911661 271.76929061 266.00307479 273.47002649 265.50276375 275.16950035 C264.81662947 277.5006184 264.14410206 279.83527014 263.47436523 282.17114258 C263.27010107 282.85124453 263.06583691 283.53134647 262.85538292 284.23205757 C260.96282255 290.93522697 262.66860655 294.86848612 265.375 301.0625 C273.57668044 321.07689936 278.11584782 344.75870261 270.8125 365.73046875 C265.88405971 377.48415036 257.67529161 387.92223953 246.625 394.5625 C244.69350497 395.16906448 242.76166046 395.77469142 240.82473755 396.36369324 C236.37209693 397.85491599 232.11085157 399.42042377 229.35385132 403.39505005 C226.73905679 408.89324114 225.55694505 414.83667782 224.25 420.75 C223.78204938 422.62606365 223.30717751 424.50041338 222.82568359 426.37304688 C221.84883464 430.20562177 220.90603506 434.04401333 219.9921875 437.89208984 C218.12244196 445.72482119 216.0227504 453.49166033 213.87957764 461.25332642 C213.26651959 463.50190924 212.67912513 465.7558981 212.09619141 468.01245117 C206.83494298 487.92317906 206.83494298 487.92317906 197.9375 493.125 C197.19113281 493.58003906 196.44476563 494.03507812 195.67578125 494.50390625 C192.28827847 496.25250293 189.61384819 496.68984979 185.8609314 496.70294189 C184.38967049 496.71150711 184.38967049 496.71150711 182.88868713 496.72024536 C181.81344284 496.72136322 180.73819855 496.72248108 179.63037109 496.72363281 C178.49656509 496.72859772 177.36275909 496.73356262 176.19459534 496.73867798 C172.42920325 496.7533243 168.66385344 496.76010931 164.8984375 496.765625 C162.27544148 496.77137888 159.65244547 496.77713658 157.02944946 496.78289795 C152.22144497 496.79247576 147.41344954 496.79836698 142.60543668 496.8013947 C135.56864847 496.80585149 128.53205683 496.82328271 121.49532831 496.8523953 C115.37379327 496.87682555 109.25233772 496.88434947 103.13075638 496.88607025 C100.54350344 496.88907659 97.95625091 496.89703589 95.36903 496.91025543 C81.44977164 496.97624005 68.22443419 496.748851 54.625 493.5625 C53.34573891 493.27446251 53.34573891 493.27446251 52.04063416 492.98060608 C30.47428046 487.75719201 10.35631457 477.06677953 -6.375 462.5625 C-7.19226563 461.86640625 -8.00953125 461.1703125 -8.8515625 460.453125 C-27.20284455 444.43126265 -43.43187858 422.27802452 -50.375 398.5625 C-50.68151183 393.56999372 -50.62715582 390.51154636 -47.375 386.5625 C-45.265625 385.9296875 -45.265625 385.9296875 -43.375 385.5625 C-43.57996094 384.84707031 -43.78492187 384.13164062 -43.99609375 383.39453125 C-46.05706461 375.77189738 -47.00640392 368.44283008 -47.375 360.5625 C-48.31601563 360.43875 -49.25703125 360.315 -50.2265625 360.1875 C-53.375 359.5625 -53.375 359.5625 -55.75 357.5625 C-57.95652786 353.4889101 -58.33677595 350.10010961 -57.375 345.5625 C-54.67377067 341.9608609 -52.71144676 340.45202754 -48.375 339.5625 C-47.55762488 335.67494059 -46.80446374 331.77759475 -46.0625 327.875 C-45.82982422 326.77220703 -45.59714844 325.66941406 -45.35742188 324.53320312 C-44.79476109 321.48007656 -44.33558913 318.66796226 -44.375 315.5625 C-46.49399107 312.35546633 -46.49399107 312.35546633 -49.375 310.5625 C-51.36368546 306.58512909 -49.98133868 301.5060281 -48.69970703 297.39794922 C-47.84708427 295.22759062 -46.91933809 293.11501923 -45.9375 291 C-45.4105957 289.84371094 -45.4105957 289.84371094 -44.87304688 288.6640625 C-36.71804447 271.27241688 -25.06490378 255.99328888 -11.375 242.5625 C-12.76746039 239.29220732 -14.76036369 236.73388727 -17.00463867 233.99731445 C-31.33500908 216.52202717 -40.88627091 196.75254493 -45.375 174.5625 C-45.57222656 173.58925781 -45.76945312 172.61601562 -45.97265625 171.61328125 C-46.46453815 167.88357483 -46.4398408 164.32326623 -46.375 160.5625 C-47.48875 160.60890625 -48.6025 160.6553125 -49.75 160.703125 C-73.41707296 161.38477431 -94.28802471 153.29954418 -112.1875 137.75 C-126.87221968 123.73276758 -138.25715785 103.33387742 -139.55200195 82.74853516 C-139.84076234 69.09741668 -139.92429221 56.55192645 -135.375 43.5625 C-135.024375 42.52609375 -134.67375 41.4896875 -134.3125 40.421875 C-126.29656934 19.15739229 -110.17726617 2.01368392 -89.8125 -7.8125 C-59.62378368 -20.85609469 -27.19849007 -18.24547696 0 0 Z " fill="#010101" transform="translate(151.375,15.4375)"/>
<path d="M0 0 C1.17731689 0.30599121 1.17731689 0.30599121 2.37841797 0.61816406 C38.25360297 10.15434208 67.67898831 29.88289614 87 62 C92.72052971 71.89497032 92.72052971 71.89497032 92 77 C91.04985132 78.35464656 90.09682702 79.70739192 89.12744141 81.04833984 C86.53203276 85.54112823 85.5308337 90.83815185 84.1875 95.8125 C83.84275635 97.05427002 83.4980127 98.29604004 83.14282227 99.57543945 C82.43131709 102.14067583 81.72332573 104.70655123 81.02148438 107.27441406 C79.79957469 111.73099671 78.55016385 116.17950268 77.2980957 120.62768555 C76.43325963 123.70257647 75.57325654 126.77877891 74.71484375 129.85546875 C72.98054785 136.07143062 71.2406504 142.28581507 69.5 148.5 C68.91925273 150.57421368 68.33852358 152.64843244 67.7578125 154.72265625 C66.56561178 158.98061111 65.37283589 163.23840435 64.1796875 167.49609375 C63.88046387 168.56504883 63.58124023 169.63400391 63.27294922 170.73535156 C62.68035559 172.84858105 62.08567232 174.96122582 61.48876953 177.07324219 C60.14624469 181.83468983 58.83429666 186.59735812 57.625 191.39453125 C57.41182129 192.22025635 57.19864258 193.04598145 56.97900391 193.89672852 C56.59180699 195.40529401 56.2178436 196.91735501 55.86083984 198.43334961 C54.03802103 205.44738683 49.96083656 208.65732032 43.94042969 212.3347168 C43.01085449 212.88059448 43.01085449 212.88059448 42.0625 213.4375 C41.40282227 213.82655518 40.74314453 214.21561035 40.06347656 214.61645508 C10.05607349 231.94633968 -28.23359421 238.65519532 -62 230 C-63.24394531 229.70996094 -64.48789063 229.41992188 -65.76953125 229.12109375 C-98.68394221 221.0196064 -128.8900956 200.82238729 -146.75 171.6875 C-151.04240666 164.44866609 -154.15505251 156.90161222 -157 149 C-157.31710938 148.16855469 -157.63421875 147.33710938 -157.9609375 146.48046875 C-161.69870422 136.21086217 -162.36668335 125.52804113 -162.3125 114.6875 C-162.30686035 113.50051514 -162.3012207 112.31353027 -162.29541016 111.09057617 C-161.88652477 81.51520826 -148.38506889 56.02529071 -128.3125 34.875 C-95.4230294 3.33006751 -44.55793057 -11.83850298 0 0 Z " fill="#A6BCCC" transform="translate(287,51)"/>
<path d="M0 0 C3.2282875 1.56488378 6.21008891 3.38084264 9.22631836 5.32519531 C37.48755159 23.4773012 67.46501319 32.2989073 101.05796242 32.27439499 C104.02312424 32.27341567 106.98793733 32.28653198 109.95304871 32.30337524 C118.3722376 32.3492516 126.79138333 32.37426873 135.21069336 32.38085938 C140.38819022 32.38588595 145.56531196 32.41017708 150.7426815 32.44618607 C152.70293611 32.45594084 154.66324253 32.45833979 156.62351418 32.45301437 C159.36505784 32.44590739 162.10548555 32.46329486 164.84692383 32.48583984 C165.64348892 32.47766739 166.44005402 32.46949493 167.26075745 32.46107483 C173.81801547 32.55644917 179.96893574 34.20970289 184.88953876 38.73944664 C189.81310675 44.14040951 191.56313867 49.00396968 191.3671875 56.30859375 C190.56897043 62.15935501 188.2638805 67.04537112 183.76953125 70.92578125 C178.44112267 74.56787455 174.47326821 76.11164341 167.9765625 76.140625 C166.19765625 76.16962891 166.19765625 76.16962891 164.3828125 76.19921875 C161.88557814 76.23296516 159.388086 76.25129384 156.890625 76.25390625 C149.74467557 76.11282833 149.74467557 76.11282833 143.65625 79.26171875 C141.41730048 82.96337822 141.56428901 84.78404947 142.28515625 88.91015625 C143.38525284 92.12628561 145.08514307 93.37310311 148 95 C149.32555448 95.36303474 150.65822472 95.70246348 152 96 C149.78293193 106.5074875 147.38871182 116.79781442 144 127 C143.34 127 142.68 127 142 127 C141.64808594 126.23816406 141.29617188 125.47632813 140.93359375 124.69140625 C133.64986395 109.45833165 123.93757352 98.99290327 107.796875 92.9296875 C99.78867004 90.26774228 91.4577953 88.66396272 83 90 C80.41827576 91.90953402 79.22052061 93.07900215 78.46875 96.21875 C78.49384985 101.21110748 78.49384985 101.21110748 80.875 105.5 C84.1132493 107.78582304 85.96126799 108.09118189 89.875 108.25 C101.41635175 109.27589793 110.35077558 114.39802521 118 123 C125.47115359 133.29221158 127.39054257 143.51124395 126 156 C124.92381188 160.43489617 123.327362 164.08475802 121 168 C120.47664062 168.89074219 119.95328125 169.78148437 119.4140625 170.69921875 C117.43739949 173.44842037 115.87176113 175.18831408 113 177 C108.99598836 177.65102421 105.54142235 177.75841798 101.48828125 177.609375 C97.84448692 177.70843796 97.84448692 177.70843796 95.0703125 180.29296875 C92.39756681 183.78770981 92.45177536 185.6925207 93 190 C94.18767855 193.38031589 94.89825225 193.93216817 98 196 C100.91451287 196.19393006 103.7412994 196.27696038 106.65625 196.2734375 C108.41927692 196.29374954 110.18229769 196.31460071 111.9453125 196.3359375 C114.71196661 196.35839886 117.47837654 196.37495385 120.24511719 196.38085938 C134.09028109 196.43064421 146.41654757 196.90287689 157 207 C160.97986977 211.43192625 163.17119834 215.32114047 165 221 C153.13338359 221.04656494 141.2667893 221.08199105 129.40009975 221.10362434 C123.88852625 221.11401294 118.37701577 221.12808104 112.86547852 221.15087891 C107.53567457 221.17278433 102.20593081 221.18460555 96.87608528 221.18975449 C94.85377112 221.19341873 92.83145985 221.20057297 90.80917168 221.21146011 C75.87291201 221.28859251 61.44911624 220.85927771 47.0625 216.375 C46.22187012 216.11630127 45.38124023 215.85760254 44.51513672 215.59106445 C36.20575688 212.92159563 28.5586823 209.34005649 21 205 C20.39994141 204.65598145 19.79988281 204.31196289 19.18164062 203.95751953 C-7.80659975 188.17513796 -25.55174968 164.40565568 -37.11328125 135.69921875 C-38.17508919 133.66447667 -39.1981677 132.42786711 -41 131 C-43.04100238 130.42982192 -43.04100238 130.42982192 -45.1875 130.3125 C-47.0746875 130.1578125 -47.0746875 130.1578125 -49 130 C-51.38994476 121.65773999 -52.5946828 113.66540227 -53 105 C-54.41152344 104.814375 -54.41152344 104.814375 -55.8515625 104.625 C-59 104 -59 104 -61.375 102 C-63.58152786 97.9264101 -63.96177595 94.53760961 -63 90 C-60.29877067 86.3983609 -58.33644676 84.88952754 -54 84 C-53.88406494 83.34402832 -53.76812988 82.68805664 -53.64868164 82.01220703 C-53.12316081 79.04922551 -52.59289082 76.08711346 -52.0625 73.125 C-51.88009766 72.09246094 -51.69769531 71.05992187 -51.50976562 69.99609375 C-51.33251953 69.00996094 -51.15527344 68.02382813 -50.97265625 67.0078125 C-50.81031494 66.09660645 -50.64797363 65.18540039 -50.48071289 64.24658203 C-50 62 -50 62 -49 60 C-46.78457065 59.51467268 -44.57394023 59.23573464 -42.32421875 58.953125 C-37.82626858 57.10858745 -36.31708741 52.71147474 -34.4296875 48.4765625 C-33.91035554 47.19315403 -33.39217719 45.9092783 -32.875 44.625 C-25.54971949 27.32970122 -14.55081951 11.93515241 0 0 Z " fill="#A6BCCC" transform="translate(157,271)"/>
<path d="M0 0 C5.17534421 0.15398825 10.04800708 1.70001949 14.99609375 3.11328125 C16.42211914 3.50483398 16.42211914 3.50483398 17.87695312 3.90429688 C32.83800639 8.08019389 32.83800639 8.08019389 35.05859375 10.30078125 C35.58686514 17.2658363 33.97681234 23.09634441 31.99609375 29.73828125 C31.35005415 31.97389874 30.70422678 34.20957756 30.05859375 36.4453125 C29.72601563 37.58307129 29.3934375 38.72083008 29.05078125 39.89306641 C27.49760524 45.22752279 25.99466733 50.57577278 24.49609375 55.92578125 C24.20605469 56.95719238 23.91601562 57.98860352 23.6171875 59.05126953 C21.65834504 66.05105692 19.80412883 73.0732076 17.99609375 80.11328125 C15.9659478 88.00636023 13.75698032 95.81972771 11.37646484 103.61376953 C8.40267641 113.37709951 5.69313132 123.21322907 2.96289062 133.046875 C2.04461243 136.35108986 1.12267801 139.65426082 0.19921875 142.95703125 C-0.10443604 144.0435498 -0.40809082 145.13006836 -0.72094727 146.24951172 C-1.32026326 148.38732455 -1.92225984 150.52438794 -2.52709961 152.66064453 C-3.75235536 156.9942463 -4.96742416 161.32092778 -6.0234375 165.69921875 C-7.92068656 173.27206818 -10.14426324 178.03683926 -15.94140625 183.30078125 C-16.69292969 184.02265625 -17.44445312 184.74453125 -18.21875 185.48828125 C-21.98214023 188.99493438 -25.02968367 191.59460393 -29.94140625 193.30078125 C-30.00457031 192.16382813 -30.06773437 191.026875 -30.1328125 189.85546875 C-31.05484492 177.12560678 -33.38696132 165.8173699 -43.37890625 156.92578125 C-44.56019202 156.04240977 -45.7466464 155.16584203 -46.94140625 154.30078125 C-45.47895796 147.52477082 -43.82644846 140.81775177 -42.06640625 134.11328125 C-41.66723999 132.58828003 -41.66723999 132.58828003 -41.26000977 131.0324707 C-39.55922483 124.5664003 -37.79083109 118.12769462 -35.92578125 111.70703125 C-34.79906102 107.80822155 -33.71121161 103.89960416 -32.62890625 99.98828125 C-30.61960312 92.73503404 -28.59679246 85.4856554 -26.56640625 78.23828125 C-26.27016357 77.18084717 -25.9739209 76.12341309 -25.66870117 75.03393555 C-25.06205878 72.86880192 -24.45536902 70.70368156 -23.84863281 68.53857422 C-22.66893701 64.32836814 -21.49000216 60.11794927 -20.3112793 55.9074707 C-19.73225645 53.83953198 -19.15299287 51.77166065 -18.57348633 49.70385742 C-17.07247804 44.34696306 -15.57578316 38.98891672 -14.0859375 33.62890625 C-4.86892687 0.49788495 -4.86892687 0.49788495 0 0 Z " fill="#87DD8D" transform="translate(397.94140625,138.69921875)"/>
<path d="M0 0 C1.47339844 0.52787109 1.47339844 0.52787109 2.9765625 1.06640625 C10.08496219 3.79279246 16.01197102 7.32344086 22 12 C23.03060547 12.76570313 23.03060547 12.76570313 24.08203125 13.546875 C30.77759864 18.88219892 38.17408752 27.47639724 40 36 C39.09636719 36.75925781 38.19273437 37.51851562 37.26171875 38.30078125 C36.07025187 39.30461555 34.87884898 40.30852578 33.6875 41.3125 C33.09259766 41.81201172 32.49769531 42.31152344 31.88476562 42.82617188 C31.30791016 43.31279297 30.73105469 43.79941406 30.13671875 44.30078125 C29.34334106 44.96847534 29.34334106 44.96847534 28.53393555 45.6496582 C26.94676301 47.00440779 26.94676301 47.00440779 25.42895508 48.66870117 C24 50 24 50 22 50 C21.61328125 49.18015625 21.2265625 48.3603125 20.828125 47.515625 C20.30734375 46.43796875 19.7865625 45.3603125 19.25 44.25 C18.73953125 43.18265625 18.2290625 42.1153125 17.703125 41.015625 C16.0714286 38.1264745 14.36464465 36.28239614 12 34 C12 33.34 12 32.68 12 32 C11.4225 31.72929688 10.845 31.45859375 10.25 31.1796875 C7.98833002 29.99388137 6.05953997 28.63064854 4 27.125 C-6.88883158 19.88942461 -18.7402138 18.17470438 -31.52734375 20.6953125 C-43.08014272 23.90367441 -53.48927726 30.4887965 -59.76171875 40.93359375 C-66.11526786 53.25609458 -68.18389646 65.22578321 -64.4375 78.8125 C-59.91228302 91.72360859 -50.78684317 101.10263106 -38.5546875 106.9921875 C-32.53499876 109.3669271 -26.96282658 110.34392436 -20.5625 110.625 C-19.83095703 110.66367188 -19.09941406 110.70234375 -18.34570312 110.7421875 C-16.56416468 110.83533984 -14.78211878 110.91870286 -13 111 C-13.75015582 118.37653219 -14.83441535 125.67831776 -16 133 C-35.6814234 133.7966993 -52.7188851 128.41693779 -67.609375 115.33203125 C-77.90081379 105.29283361 -84.60039724 92.96452209 -88 79 C-88.25692627 78.07199585 -88.25692627 78.07199585 -88.51904297 77.12524414 C-92.45075242 59.75187827 -86.96310859 41.78991129 -78 27 C-67.7229946 11.95416835 -51.58312111 0.85669446 -33.55078125 -2.6015625 C-22.2175454 -3.87327873 -10.77459257 -4.12749777 0 0 Z " fill="#A4BACA" transform="translate(121,23)"/>
<path d="M0 0 C7.34283964 4.46753822 12.33343426 12.98183357 15 21 C15.38818359 24.68115234 15.38818359 24.68115234 15.3984375 28.5859375 C15.40130768 29.28715729 15.40417786 29.98837708 15.40713501 30.71084595 C15.40916347 32.18484308 15.40371939 33.65886788 15.39111328 35.1328125 C15.37508906 37.36260655 15.39097677 39.59057511 15.41015625 41.8203125 C15.43034864 54.71612807 13.1858388 63.00316102 4.51171875 72.65625 C-2.14873513 79.13490489 -11.40594091 82.22927836 -20.5625 82.625 C-31.13402276 82.1282658 -39.32003056 77.73251081 -46.8671875 70.4765625 C-54.75795351 61.31402468 -55.28046335 51.83161012 -55.4050293 40.25830078 C-55.42647391 38.76685234 -55.4604143 37.27552504 -55.50756836 35.78466797 C-55.8721814 24.11964569 -54.37045665 15.31028657 -46.5 6.0625 C-45.675 5.381875 -44.85 4.70125 -44 4 C-42.63875 2.7315625 -42.63875 2.7315625 -41.25 1.4375 C-29.18198276 -8.12012769 -13.01407645 -7.49295311 0 0 Z " fill="#010101" transform="translate(276,152)"/>
<path d="M0 0 C11.62219563 9.85319626 21.00788954 24.5926466 23.66796875 39.8515625 C25.20552216 58.59230781 23.05578588 77.18089491 11.25 92.5 C10.13812334 93.80298046 9.01434841 95.09597186 7.875 96.375 C6.99855788 97.47802232 6.12341743 98.58208107 5.25 99.6875 C2.94555544 102.29516095 0.74624821 104.41046175 -2.125 106.375 C-3.115 106.375 -4.105 106.375 -5.125 106.375 C-6.4140625 104.8359375 -6.4140625 104.8359375 -7.75 102.75 C-11.096051 98.00131146 -15.1648914 95.28493038 -20.125 92.375 C-19.444375 91.694375 -18.76375 91.01375 -18.0625 90.3125 C-17.60746094 89.85359375 -17.15242188 89.3946875 -16.68359375 88.921875 C-15.60776435 87.85413455 -14.51539783 86.80289045 -13.41015625 85.765625 C-4.45893209 77.22572624 0.20078903 67.50447976 1.11328125 55.1484375 C1.43144876 40.5797149 -3.04440287 29.74838722 -12.875 19.125 C-22.72899604 9.71976279 -36.04873059 6.66347617 -49.33984375 6.9609375 C-58.84739087 8.00097877 -67.03827644 12.05120123 -74.125 18.375 C-74.99125 19.138125 -75.8575 19.90125 -76.75 20.6875 C-81.20353481 25.72702623 -84.77812143 31.05733637 -87.125 37.375 C-91.00233625 35.7617348 -93.64226426 33.22550638 -96.6875 30.375 C-99.44529678 27.80055742 -101.98454694 25.46863537 -105.125 23.375 C-101.13376915 9.2907613 -88.8155739 -0.9738395 -76.50268555 -7.8918457 C-51.20508803 -21.45959614 -22.15275182 -17.41568539 0 0 Z " fill="#A4BACA" transform="translate(456.125,35.625)"/>
<path d="M0 0 C2 3 2 3 2.75 6.5625 C4.78699299 15.02146325 9.54357016 21.50417863 16.5625 26.53125 C22.04622796 29.83554762 27.71655148 31.86363165 34 33 C33.37688123 39.78956687 31.71884317 46.02835496 29.8125 52.5625 C27.09269693 62.04560762 24.5075199 71.54822397 22.13012695 81.12329102 C20.48996942 87.58100229 18.37615018 93.77671394 16 100 C13.86076254 97.86076254 13.14980746 96.24615883 11.9375 93.5 C5.65899197 80.77776005 -5.40680314 72.83018373 -18 67 C-17.40209542 60.93057332 -16.12103607 55.39684304 -14.375 49.5625 C-13.83248608 47.70988331 -13.29085864 45.85700686 -12.75 44.00390625 C-12.46511719 43.03211426 -12.18023437 42.06032227 -11.88671875 41.05908203 C-10.3386537 35.71842811 -8.86221879 30.35784743 -7.375 25 C-5.04181543 16.62502156 -2.650597 8.28105772 0 0 Z " fill="#87DC8D" transform="translate(325,384)"/>
<path d="M0 0 C2 1 2 1 3.0703125 4.03515625 C6.83433728 17.76073255 8.68593338 32.30123438 1.74609375 45.359375 C-5.03673334 56.37453834 -13.98441663 60.99480554 -26 65 C-33.67090544 65.6401166 -40.69653011 65.87289516 -47 61 C-51.73406473 56.45577245 -53.18236262 52.42417461 -53.4375 45.9375 C-53.35896256 38.88483796 -51.63219372 34.30913226 -47 29 C-41.61129401 23.90875973 -34.94419658 21.8074489 -28.08984375 19.38305664 C-17.01882558 15.33897334 -8.43790383 8.06454525 0 0 Z " fill="#A4BACA" transform="translate(399,333)"/>
<path d="M0 0 C7.08138153 4.03023965 12.44940095 10.10082687 14.6875 18 C15.74862505 26.40554111 14.6523655 33.05159259 9.6875 40 C4.46651646 45.90004536 -1.10621066 49.30321842 -8.91015625 50.34765625 C-17.02356363 50.79269547 -23.28765198 48.55490343 -29.38671875 43.16796875 C-34.91317845 37.29393297 -37.37193727 31.65679741 -37.8125 23.625 C-37.57928059 16.60898268 -35.13039195 11.13033604 -30.4453125 5.92578125 C-21.77172594 -2.12344207 -11.11610106 -5.0158017 0 0 Z " fill="#FCFCFC" transform="translate(111.3125,64)"/>
<path d="M0 0 C6.80740487 3.92645537 11.2467596 9.73116325 13.2890625 17.3203125 C14.47732608 25.79740941 12.67849032 32.25622655 7.96875 39.29296875 C3.76213008 44.70640586 -1.31107838 47.18702613 -7.7109375 49.3203125 C-15.79563129 50.26195737 -22.02424514 49.03631018 -28.7109375 44.3203125 C-34.16781905 39.40809144 -38.11949352 34.00534631 -39.05859375 26.56640625 C-39.48147614 18.07622896 -37.5817695 11.6122392 -31.84375 5.25 C-22.48436306 -3.45386568 -11.68443079 -5.30436064 0 0 Z " fill="#FCFCFC" transform="translate(424.7109375,64.6796875)"/>
<path d="M0 0 C4.45146251 2.18526342 7.18885145 4.9394521 10 9 C11.50361194 13.51083581 11.26625703 17.96146805 11.3125 22.6875 C11.34150391 23.65623047 11.37050781 24.62496094 11.40039062 25.62304688 C11.45544177 31.88617367 10.76835739 36.84738035 7 42 C1.76991503 46.16272069 -2.32858227 47.55595148 -9 47 C-14.35955917 45.04191471 -17.22791831 42.01107074 -20 37 C-21.50940617 32.47178149 -21.26629121 27.99410278 -21.3125 23.25 C-21.34150391 22.27289063 -21.37050781 21.29578125 -21.40039062 20.2890625 C-21.47099747 12.22901949 -19.77979579 8.18659517 -14.4375 2.0625 C-10.18150179 -1.20801262 -5.08125247 -0.8178469 0 0 Z " fill="#6A8EA7" transform="translate(261,167)"/>
<path d="M0 0 C2.0625 1.625 2.0625 1.625 3 4 C3.18232051 8.49171438 2.85212014 11.90049015 0.0625 15.5 C-3.73391734 18.2610308 -6.29582128 18.39865921 -11 18 C-13.75329021 16.20437595 -15.52627461 14.94745078 -17 12 C-17.66739635 7.14707508 -17.75085716 4.00114288 -14.75 0 C-9.29505933 -3.96722958 -5.73526031 -2.90408308 0 0 Z " fill="#020202" transform="translate(111,358)"/>
<path d="M0 0 C2.66058731 2.14144833 3.7253011 3.56867416 4.37109375 6.93359375 C4.59425621 10.51095567 4.15244562 12.68848069 2.5625 15.9375 C-1.05901976 18.85238176 -4.39406378 19.44335215 -9 19 C-11.92143417 17.23496686 -13.47923817 16.04152365 -15 13 C-15.5811138 5.91041162 -15.5811138 5.91041162 -13.125 2.0625 C-9.05289345 -1.88983871 -5.28514995 -1.34240931 0 0 Z " fill="#030304" transform="translate(325,137)"/>
<path d="M0 0 C2.66058731 2.14144833 3.7253011 3.56867416 4.37109375 6.93359375 C4.59425621 10.51095567 4.15244562 12.68848069 2.5625 15.9375 C-1.05901976 18.85238176 -4.39406378 19.44335215 -9 19 C-11.92143417 17.23496686 -13.47923817 16.04152365 -15 13 C-15.5811138 5.91041162 -15.5811138 5.91041162 -13.125 2.0625 C-9.05289345 -1.88983871 -5.28514995 -1.34240931 0 0 Z " fill="#030304" transform="translate(198,137)"/>
</svg>
