<?xml version="1.0" encoding="UTF-8"?>
<svg version="1.1" xmlns="http://www.w3.org/2000/svg" width="512" height="512">
<path d="M0 0 C0.80232056 0.59832642 0.80232056 0.59832642 1.62084961 1.20874023 C4.4163464 3.3689944 6.72101657 5.53649249 8.9140625 8.3125 C11.62493698 11.60668331 14.14114647 14.59343001 18.25 16.0625 C25.00955775 16.16223579 31.61792851 13.69122191 38.05566406 11.86816406 C43.39523866 10.52143553 48.78296013 9.90453558 54.25 9.3125 C55.68593506 9.14113525 55.68593506 9.14113525 57.15087891 8.96630859 C76.79044048 6.81566214 96.62693304 6.89985057 116.35644531 6.93212891 C120.24548233 6.93749377 124.13440392 6.93214388 128.0234375 6.92578125 C147.44421757 6.91962608 166.94067748 7.00064881 186.25 9.3125 C187.84485229 9.49014893 187.84485229 9.49014893 189.47192383 9.67138672 C195.00526488 10.34077883 200.35424792 11.25818216 205.76171875 12.6171875 C206.80134766 12.8759668 207.84097656 13.13474609 208.91210938 13.40136719 C210.87844064 13.91230866 212.83556837 14.46062389 214.77929688 15.05175781 C217.41701581 15.74929651 219.52454395 16.22919899 222.25 16.0625 C225.17461059 14.18418948 227.09931885 11.75981116 229.25 9.0625 C252.56163346 -11.58494678 281.54893754 -28.06270598 313.25 -29.9375 C314.05179687 -29.99035156 314.85359375 -30.04320312 315.6796875 -30.09765625 C331.52879193 -30.63850106 347.39971513 -26.73775963 359.25 -15.9375 C370.45269794 -5.24868729 376.09351894 8.46215866 376.68359375 23.875 C376.70707308 26.27071863 376.70769024 28.66675139 376.6875 31.0625 C376.67614014 32.96890259 376.67614014 32.96890259 376.66455078 34.91381836 C376.47768499 45.70634051 375.0730662 55.66799189 372.25 66.0625 C371.93651611 67.26447021 371.93651611 67.26447021 371.61669922 68.49072266 C365.42639331 91.91187256 355.70111541 116.40067994 342.85546875 136.9609375 C341.07699335 140.39672696 340.92988887 141.57773084 341.875 145.25 C342.09285156 146.19617188 342.31070312 147.14234375 342.53515625 148.1171875 C342.88900391 149.57511719 342.88900391 149.57511719 343.25 151.0625 C346.10939286 165.81936664 346.41137896 180.50931017 346.41796875 195.48046875 C346.42119418 197.23098272 346.42455913 198.98149644 346.42805481 200.73200989 C346.43400025 204.38197452 346.43589948 208.03191564 346.43530273 211.68188477 C346.43520139 216.30268967 346.44884574 220.92333997 346.46607494 225.54410839 C346.47732723 229.15548868 346.47921794 232.76683314 346.47869301 236.37822914 C346.47985363 238.07904912 346.4841638 239.77987063 346.49202538 241.48067284 C346.60874982 269.33828871 343.97674182 296.865778 323.609375 317.765625 C322.83078125 318.52359375 322.0521875 319.2815625 321.25 320.0625 C320.05503906 321.2690625 320.05503906 321.2690625 318.8359375 322.5 C310.40132346 330.85816739 301.54147159 338.66983051 292.25 346.0625 C291.14769445 346.96784605 290.04616735 347.87414052 288.9453125 348.78125 C265.31108872 368.0625 265.31108872 368.0625 252.25 368.0625 C252.17265625 368.97515625 252.17265625 368.97515625 252.09375 369.90625 C249.93060227 386.62148246 239.53980628 401.04460859 227.09765625 411.890625 C220.81906542 416.67923474 213.83860148 420.66402317 206.49609375 423.5703125 C203.32430755 425.02834178 202.27480254 425.69364111 200.5 428.5625 C186.21815989 449.04566543 162.49137251 460.40693737 138.46484375 464.74609375 C110.37196897 468.95857239 81.08963097 463.5070969 57.8125 446.75 C50.50819941 440.90655953 42.41154946 433.93516635 37.25 426.0625 C37.25 425.4025 37.25 424.7425 37.25 424.0625 C36.0125 423.711875 34.775 423.36125 33.5 423 C15.75331561 416.97334818 2.07078373 403.34704612 -6.5625 387 C-9.43259108 380.92044895 -11.75 374.82594373 -11.75 368.0625 C-12.94625 367.876875 -14.1425 367.69125 -15.375 367.5 C-32.22120511 363.69175269 -45.36961584 351.41910217 -58.09130859 340.48291016 C-60.3264476 338.56886266 -62.57841485 336.67517618 -64.83081055 334.78149414 C-66.47786786 333.39364901 -68.11856719 331.99862109 -69.7578125 330.6015625 C-71.5511723 329.07978199 -73.3551565 327.57020227 -75.1796875 326.0859375 C-93.51557063 310.75165802 -103.08897042 289.4781863 -105.28271484 265.94458008 C-105.96314134 257.4493351 -105.91433356 248.9542202 -105.91796875 240.4375 C-105.92119245 238.64168269 -105.92455731 236.84586563 -105.92805481 235.05004883 C-105.93401151 231.29817091 -105.93589842 227.5463159 -105.93530273 223.79443359 C-105.9352016 219.04587687 -105.94881906 214.2974713 -105.96607494 209.5489502 C-105.97733516 205.84059001 -105.97921766 202.13226467 -105.97869301 198.42388916 C-105.97985349 196.67644737 -105.98416283 194.92900408 -105.99202538 193.18157959 C-106.05629522 177.41685982 -105.8232632 161.03458016 -101.3125 145.8125 C-101.10818359 145.06355469 -100.90386719 144.31460938 -100.69335938 143.54296875 C-99.04722646 137.64560785 -99.04722646 137.64560785 -97.75219727 135.10498047 C-96.18230177 131.94131273 -95.46337089 130.07344996 -96.44995117 126.59375 C-97.69418009 123.8677876 -99.07490985 121.28839574 -100.5625 118.6875 C-101.52993709 116.9102634 -102.49491188 115.1316835 -103.45703125 113.3515625 C-103.8950708 112.57506348 -104.33311035 111.79856445 -104.78442383 110.99853516 C-105.75 109.0625 -105.75 109.0625 -105.75 107.0625 C-106.78125 107.145 -107.8125 107.2275 -108.875 107.3125 C-113.51753817 107.01298141 -115.35178225 106.22363279 -118.75 103.0625 C-120.08025999 100.41325342 -120.68703909 98.02738662 -120.75 95.0625 C-119.5 91.8125 -119.5 91.8125 -117.75 89.0625 C-116.30040284 86.73654183 -115.6632172 85.64327721 -116.07373047 82.89599609 C-116.33557129 82.13367676 -116.59741211 81.37135742 -116.8671875 80.5859375 C-117.28291016 79.33296875 -117.28291016 79.33296875 -117.70703125 78.0546875 C-118.00996094 77.19101563 -118.31289062 76.32734375 -118.625 75.4375 C-119.20787564 73.71687147 -119.78870739 71.99554879 -120.3671875 70.2734375 C-120.63128418 69.51337402 -120.89538086 68.75331055 -121.16748047 67.97021484 C-121.75 66.0625 -121.75 66.0625 -121.75 64.0625 C-122.8225 63.98 -123.895 63.8975 -125 63.8125 C-129.13026725 62.98644655 -130.30823172 62.4086269 -132.75 59.0625 C-136.33352099 50.57521344 -135.96169492 41.48707454 -136 32.4375 C-136.020625 31.24253906 -136.04125 30.04757813 -136.0625 28.81640625 C-136.13482975 12.12631642 -131.91027902 -2.49582374 -120.1484375 -14.6875 C-85.90191216 -46.81453355 -31.99124288 -24.19388757 0 0 Z " fill="#020100" transform="translate(135.75,37.9375)"/>
<path d="M0 0 C0.15855469 1.0415625 0.31710938 2.083125 0.48046875 3.15625 C3.38180029 21.34734199 7.29998612 37.8615403 21.7890625 50.44140625 C28.04489925 54.85143958 34.58912184 54.81191439 42 54 C52.02674076 51.10713082 58.27397929 43.53933884 63.1875 34.6875 C68.27639389 23.88402855 70.5291965 11.76642802 72 0 C79.59 0.33 87.18 0.66 95 1 C94.896875 4.3825 94.79375 7.765 94.6875 11.25 C94.54959168 24.50376607 97.7256847 34.26927155 107 44 C114.53721526 51.32784817 123.52123316 55.73416356 133 60 C134.25490234 60.57814453 134.25490234 60.57814453 135.53515625 61.16796875 C144.71444642 64.82252727 155.32009106 64.07879556 164.32421875 60.34375 C172.61553658 56.20590967 172.61553658 56.20590967 179.5625 50.22265625 C180.2740625 49.61744141 180.2740625 49.61744141 181 49 C184.40190458 49.41710193 186.06114602 50.69376273 188.42578125 53.09765625 C189.05387695 53.73010254 189.68197266 54.36254883 190.32910156 55.01416016 C190.98362305 55.6901123 191.63814453 56.36606445 192.3125 57.0625 C192.98893555 57.75134277 193.66537109 58.44018555 194.36230469 59.14990234 C198.74188266 63.63446294 202.9831028 68.18696101 207 73 C207.86109375 73.99515625 208.7221875 74.9903125 209.609375 76.015625 C215.14375394 82.42768199 220.34172639 88.90974459 225 96 C225.75990234 97.13308594 225.75990234 97.13308594 226.53515625 98.2890625 C230 103.59731894 230 103.59731894 230 107 C228.94941406 107.47308594 227.89882813 107.94617188 226.81640625 108.43359375 C215.38287397 113.74999561 205.62415592 119.61301238 201 132 C200.46826172 133.38445312 200.46826172 133.38445312 199.92578125 134.796875 C196.96381681 145.04502201 198.65318269 156.40567351 203 166 C207.65904594 174.1840719 216.99291707 178.8367976 225.77856445 181.54907227 C228.76022596 182.15431777 231.71603439 182.35012241 234.75 182.5625 C235.92046875 182.64628906 237.0909375 182.73007813 238.296875 182.81640625 C239.18890625 182.87699219 240.0809375 182.93757812 241 183 C241.05090046 190.66802115 241.08581765 198.33599836 241.10986328 206.00415039 C241.11989248 208.61028675 241.13351911 211.21641193 241.15087891 213.82250977 C241.1752626 217.57831589 241.18651424 221.33397263 241.1953125 225.08984375 C241.20563507 226.24645004 241.21595764 227.40305634 241.22659302 228.5947113 C241.22748026 235.05813847 240.67156999 240.75041046 239 247 C238.33355469 246.61328125 237.66710937 246.2265625 236.98046875 245.828125 C226.7462454 240.04543097 217.04919623 235.14751662 205 237 C193.37362737 240.90313938 186.89700908 248.62309256 181 259 C180.63519531 259.62003906 180.27039063 260.24007813 179.89453125 260.87890625 C176.86389936 266.78365852 177.16159314 273.46671393 178.65625 279.765625 C181.34047449 287.8645782 185.6727764 296.15356847 192 302 C188.84868188 310.03944224 178.43767783 314.56322393 171.09375 318.1875 C169 319 169 319 166 319 C165.55269531 318.11957031 165.10539062 317.23914063 164.64453125 316.33203125 C164.03996094 315.17058594 163.43539063 314.00914062 162.8125 312.8125 C162.22082031 311.66394531 161.62914062 310.51539063 161.01953125 309.33203125 C159.16231328 305.92597589 159.16231328 305.92597589 156.34765625 303.53125 C153.32632315 300.2736396 153.16120285 298.06062984 152.625 293.6875 C149.70344364 274.97194992 138.61869893 259.58312665 128.40625 244.04296875 C117.35609203 227.21177029 110.82500171 212.40277751 110.8125 192.125 C110.80025391 191.08730469 110.78800781 190.04960937 110.77539062 188.98046875 C110.76344405 182.66471492 111.38655732 177.10939954 113 171 C114.06734375 171.48533203 114.06734375 171.48533203 115.15625 171.98046875 C120.58715197 173.92753663 126.66777092 173.97176212 132 171.75 C136.28138846 168.0037851 137.84339164 164.910622 138.3125 159.1875 C138.28848107 154.83206735 136.59021889 152.48060663 134 149 C134 148.01 134 147.02 134 146 C137.84092673 144.07953664 143.04885911 144.6348123 147.30078125 144.4765625 C151.08195061 143.98944248 153.00641202 143.3010822 156 141 C158.50031654 137.24952518 158.53603554 135.44143734 158 131 C155.35312013 127.56204138 153.91574165 126.14965835 149.58203125 125.44140625 C147.71611328 125.50134766 147.71611328 125.50134766 145.8125 125.5625 C145.14831055 125.58280273 144.48412109 125.60310547 143.79980469 125.62402344 C138.3616795 125.84808579 133.22879507 126.5072771 128 128 C126.64455078 128.38478516 126.64455078 128.38478516 125.26171875 128.77734375 C113.59103466 132.53843558 105.75192205 139.91246693 99.59765625 150.38671875 C88.77780495 171.86198591 88.76564646 200.44583897 96 223 C100.70130484 236.94061176 108.40409837 249.46405009 116.65380859 261.55273438 C119.83441612 266.21638177 122.86601203 270.92231328 125.6875 275.8125 C126.31011719 276.89144531 126.93273437 277.97039062 127.57421875 279.08203125 C128.89839434 281.79205636 129.58805669 284.02851561 130 287 C129.21882813 286.86722656 128.43765625 286.73445313 127.6328125 286.59765625 C126.47523438 286.42105469 125.31765625 286.24445313 124.125 286.0625 C123.48167725 285.96388672 122.83835449 285.86527344 122.17553711 285.76367188 C117.58778215 285.13990047 113.12712494 284.95785403 108.49609375 284.99609375 C106.78365479 284.99307251 106.78365479 284.99307251 105.03662109 284.98999023 C102.75390581 284.99656728 100.47089168 285.04306693 98.18994141 285.13305664 C90.23346048 285.1133239 90.23346048 285.1133239 86.58862305 281.82348633 C84.484375 279.14453125 84.484375 279.14453125 82.72949219 276.47583008 C76.12209067 267.01709789 61.71501329 262.58139938 50.94140625 260.5 C30.92907475 257.96127014 9.29958393 260.16081361 -7.1953125 272.6640625 C-10.42195028 275.36681813 -12.6728737 277.29079018 -14.46484375 281.17578125 C-17.46272033 284.51548043 -18.19919077 284.4604763 -22.515625 284.734375 C-24.76018998 284.76669861 -27.00529515 284.77041792 -29.25 284.75 C-31.59642864 284.77977371 -33.94279523 284.81492603 -36.2890625 284.85546875 C-37.4327832 284.8714209 -38.57650391 284.88737305 -39.75488281 284.90380859 C-46.23302607 285.095833 -52.60164009 286.00448479 -59 287 C-54.61906867 277.35635244 -49.50893391 268.4983214 -43.625 259.6875 C-24.99091959 231.62671282 -14.82833378 203.35189116 -21.07641602 169.17456055 C-24.05049363 155.86963373 -30.01443756 142.25755131 -41.49609375 134.26171875 C-51.50903593 128.40509219 -61.52554144 125.66307075 -73.0625 125.4375 C-73.88427734 125.41059082 -74.70605469 125.38368164 -75.55273438 125.35595703 C-79.69660504 125.38256432 -81.37996214 125.43171182 -84.52734375 128.31640625 C-86.47068014 131.85771156 -86.56946676 134.01373265 -86 138 C-84.20437595 140.75329021 -82.94745078 142.52627461 -80 144 C-76.49572251 144.27980923 -72.991489 144.4472076 -69.48046875 144.62109375 C-66.25406125 144.97234126 -63.91625557 145.62797119 -61 147 C-61.3609375 147.4846875 -61.721875 147.969375 -62.09375 148.46875 C-65.6584606 153.61777642 -66.80716927 156.74443814 -66 163 C-64.3037142 167.6424664 -62.38015372 170.62741674 -58 173 C-51.69618558 173.85654883 -46.45231457 173.53663648 -41 170 C-39.21058982 177.37876942 -38.69204401 184.35975445 -38.75 191.9375 C-38.74226562 192.94490234 -38.73453125 193.95230469 -38.7265625 194.99023438 C-38.78420527 217.39885963 -49.26357737 233.83044438 -61.29199219 251.94580078 C-75.2681272 272.82869882 -75.2681272 272.82869882 -81.3125 296.75 C-81.65910035 301.45869259 -83.93154671 303.59186211 -87.14453125 306.87109375 C-90.26661845 310.45327802 -92.08183483 314.68633823 -94 319 C-104.27666589 317.81071226 -112.74668632 311.01864765 -120 304 C-118.5204321 300.80647721 -116.69669468 298.09066432 -114.625 295.25 C-108.41618873 286.46711906 -105.03787867 278.90404178 -106 268 C-107.41575312 261.04121347 -110.85462105 255.66387337 -115 250 C-115.598125 249.113125 -116.19625 248.22625 -116.8125 247.3125 C-123.1781077 240.58314329 -130.54198107 237.00035873 -139.75 236.625 C-150.0539693 236.82828423 -158.24087851 242.00430334 -167 247 C-168.74984636 239.03206698 -169.27155151 231.47499006 -169.1953125 223.33203125 C-169.1924826 222.17120529 -169.18965271 221.01037933 -169.18673706 219.81437683 C-169.17564091 216.14697474 -169.15055629 212.4798269 -169.125 208.8125 C-169.11495654 206.30924835 -169.10583309 203.80599282 -169.09765625 201.30273438 C-169.07573629 195.20173779 -169.0423656 189.10088707 -169 183 C-167.86199951 182.89260498 -166.72399902 182.78520996 -165.55151367 182.67456055 C-164.02776809 182.51672937 -162.50408984 182.35824724 -160.98046875 182.19921875 C-160.23406128 182.13053589 -159.48765381 182.06185303 -158.71862793 181.99108887 C-149.64477586 181.01352597 -140.76902793 177.41637728 -134.375 170.6875 C-127.77829018 161.67537951 -126.21859072 150.88184773 -127 140 C-128.76079958 129.01738568 -134.07225744 122.06517592 -142.34375 114.8984375 C-147.15906934 111.45690044 -152.54068926 109.22760129 -158 107 C-156.44025471 93.79090708 -140.6164071 79.65652572 -132.109375 70.328125 C-130.24324433 68.26846967 -128.42930212 66.17611105 -126.625 64.0625 C-123.59608638 60.61507139 -120.48892464 57.24894633 -117.3125 53.9375 C-116.84859863 53.43549072 -116.38469727 52.93348145 -115.90673828 52.41625977 C-114.55078125 51.02734375 -114.55078125 51.02734375 -112 49 C-108.4966939 48.98024451 -106.50955443 51.03851395 -103.9375 53.25 C-94.33985558 60.98541491 -84.19495214 64.07897725 -72 63 C-56.26391831 60.0406065 -39.71999835 51.53919096 -30.16015625 38.48828125 C-24.48217623 29.42294885 -22.54129363 22.09791058 -22.8125 11.5 C-22.82603516 10.48679687 -22.83957031 9.47359375 -22.85351562 8.4296875 C-22.88856937 5.95255596 -22.93770236 3.47657073 -23 1 C-20.10425766 0.83160792 -17.20842326 0.66522615 -14.3125 0.5 C-13.08756836 0.42845703 -13.08756836 0.42845703 -11.83789062 0.35546875 C-7.88646942 0.13150156 -3.95981243 -0.06451833 0 0 Z " fill="#FDBF43" transform="translate(220,66)"/>
<path d="M0 0 C4.22619776 3.3557762 5.31299611 6.99440087 7 12 C15.43311381 24.52380334 29.6547332 31.08996579 44 34 C45.44765238 53.34410028 45.44765238 53.34410028 42.48828125 58.7734375 C40.0874291 60.66394215 37.80987829 61.79685428 35 63 C33.92492187 63.59296875 32.84984375 64.1859375 31.7421875 64.796875 C15.9874056 73.32630949 -2.00373188 77.92480628 -19.83203125 74.19921875 C-36.4672466 68.76616862 -47.41172717 58.34509721 -55.6171875 43.1484375 C-58.69370745 36.14370564 -59.31403984 27.1673729 -57.421875 19.7265625 C-53.79505001 11.38486501 -46.52681066 6.3257193 -38.3125 3.0625 C-26.72755547 -1.11034327 -12.10767325 -2.41338278 0 0 Z " fill="#FDD88E" transform="translate(202,370)"/>
<path d="M0 0 C4.27069964 -0.08824695 8.54115989 -0.14080654 12.8125 -0.1875 C14.00810547 -0.21263672 15.20371094 -0.23777344 16.43554688 -0.26367188 C28.29030552 -0.36057726 40.84902897 1.72438324 50.07421875 9.8203125 C55.35158527 15.46277985 58.04223554 21.01763905 58.4375 28.75 C57.96734107 41.542241 51.38935127 53.09988835 42.3125 61.8125 C37.05576054 66.29760798 31.31844242 69.27422215 25 72 C23.80310547 72.54333984 23.80310547 72.54333984 22.58203125 73.09765625 C6.86171604 78.59144265 -11.38373166 74.68660195 -26.05078125 67.97412109 C-32.3045112 64.84882268 -39.04608843 60.95391157 -44 56 C-44.22705078 53.84521484 -44.22705078 53.84521484 -44.1953125 51.2109375 C-44.18886719 50.26992188 -44.18242187 49.32890625 -44.17578125 48.359375 C-44.15902344 47.37453125 -44.14226562 46.3896875 -44.125 45.375 C-44.11597656 44.38242187 -44.10695313 43.38984375 -44.09765625 42.3671875 C-44.07404116 39.91121866 -44.04110799 37.45572832 -44 35 C-42.80503906 34.56429687 -41.61007812 34.12859375 -40.37890625 33.6796875 C-28.01230264 29.12172106 -28.01230264 29.12172106 -17 22 C-16.30777344 21.46761719 -15.61554688 20.93523437 -14.90234375 20.38671875 C-7.97331334 14.75283421 -3.8882081 7.94745175 0 0 Z " fill="#FDD88E" transform="translate(310,370)"/>
<path d="M0 0 C3.08037804 2.24146658 6.06998571 4.56572045 9 7 C7.54811406 10.35043397 5.7180341 12.50486196 3.11328125 15.046875 C2.33919922 15.81 1.56511719 16.573125 0.76757812 17.359375 C-0.04259766 18.14828125 -0.85277344 18.9371875 -1.6875 19.75 C-7.37353963 25.31091895 -12.87874451 30.91100381 -18 37 C-18.49669189 37.59022949 -18.99338379 38.18045898 -19.50512695 38.78857422 C-25.17090138 45.60427125 -30.56571816 52.57202234 -35.5 59.9375 C-36.09518433 60.82223999 -36.09518433 60.82223999 -36.70239258 61.72485352 C-39.50140956 65.99193245 -41.78075394 70.40515191 -44 75 C-44.66 75 -45.32 75 -46 75 C-47.67313323 71.71158124 -49.33739607 68.41875318 -51 65.125 C-51.47695313 64.18785156 -51.95390625 63.25070313 -52.4453125 62.28515625 C-52.89648438 61.38925781 -53.34765625 60.49335938 -53.8125 59.5703125 C-54.23144531 58.74289551 -54.65039062 57.91547852 -55.08203125 57.06298828 C-56 55 -56 55 -56 53 C-57.03125 53.0825 -58.0625 53.165 -59.125 53.25 C-63.76753817 52.95048141 -65.60178225 52.16113279 -69 49 C-70.33025999 46.35075342 -70.93703909 43.96488662 -71 41 C-69.75 37.75 -69.75 37.75 -68 35 C-66.55670171 32.68145933 -65.91169271 31.58665076 -66.32373047 28.84936523 C-66.58557129 28.09341064 -66.84741211 27.33745605 -67.1171875 26.55859375 C-67.39433594 25.72779297 -67.67148438 24.89699219 -67.95703125 24.04101562 C-68.41142578 22.75227539 -68.41142578 22.75227539 -68.875 21.4375 C-69.45935208 19.7290995 -70.04023594 18.01950769 -70.6171875 16.30859375 C-70.88128418 15.55376709 -71.14538086 14.79894043 -71.41748047 14.02124023 C-72 12 -72 12 -72 9 C-71.071875 8.505 -70.14375 8.01 -69.1875 7.5 C-66.73669034 6.0295142 -66.08980651 5.27284074 -65.1796875 2.5078125 C-64.87417969 1.08082031 -64.87417969 1.08082031 -64.5625 -0.375 C-63.42204673 -5.34790671 -62.08110035 -7.86471725 -57.9375 -10.8515625 C-39.38991771 -21.84549232 -16.24019611 -10.53719172 0 0 Z " fill="#FCD88D" transform="translate(86,92)"/>
<path d="M0 0 C1.86791614 1.7876211 2.90058514 3.17644389 3.9765625 5.52734375 C3.84667969 7.77246094 3.84667969 7.77246094 3.2734375 10.19921875 C2.96647949 11.52300537 2.96647949 11.52300537 2.65332031 12.87353516 C2.3183252 14.18717041 2.3183252 14.18717041 1.9765625 15.52734375 C1.78674805 16.2857959 1.59693359 17.04424805 1.40136719 17.82568359 C-3.69559776 37.20699987 -11.62636916 55.8533874 -21.0234375 73.52734375 C-24.0510477 70.79084991 -26.21815752 67.48687999 -28.5234375 64.15234375 C-39.22410184 48.95455635 -51.9805302 35.17382682 -65.36694336 22.30834961 C-66.62199521 21.08407847 -67.8278972 19.80979389 -69.0234375 18.52734375 C-69.0234375 17.86734375 -69.0234375 17.20734375 -69.0234375 16.52734375 C-52.02749556 1.73123117 -21.455416 -15.6152352 0 0 Z " fill="#FCD78D" transform="translate(486.0234375,82.47265625)"/>
<path d="M0 0 C1.83304688 0.55300781 1.83304688 0.55300781 3.703125 1.1171875 C19.88547769 6.27686108 34.9302182 14.12529711 48 25 C48.82628906 25.67546875 49.65257813 26.3509375 50.50390625 27.046875 C54.51450076 30.42274933 54.51450076 30.42274933 56 32 C56 32.66 56 33.32 56 34 C54.28884427 35.18324598 52.52787895 36.29459664 50.75 37.375 C43.53547336 42.03008743 37.85806456 47.76801642 32 54 C28.27968536 51.8712279 24.98364082 49.47024799 21.625 46.8125 C4.05890313 33.45996657 -17.75652879 25.47399442 -40 27 C-42.92460487 27.59888265 -45.71707211 28.34822245 -48.5625 29.24609375 C-51.0252909 30.00782234 -53.46629189 30.53397869 -56 31 C-56.66466784 22.02698412 -54.0867464 15.14796829 -48.375 8.1875 C-36.53078811 -4.34429723 -15.6826424 -4.89488536 0 0 Z " fill="#FCCA67" transform="translate(77,31)"/>
<path d="M0 0 C0.90363281 -0.020625 1.80726563 -0.04125 2.73828125 -0.0625 C12.93827762 -0.12120502 21.80816599 2.88451017 29.44140625 9.77734375 C34.62789044 15.30179433 37.97291825 22.22440522 38 29.875 C37.9175 30.98875 37.835 32.1025 37.75 33.25 C34.36510494 32.63073856 31.20498876 31.75264988 27.9375 30.6875 C8.73830496 25.53524606 -11.27046385 31.91938476 -28.24658203 41.08935547 C-35.73865653 45.42975544 -42.52723312 50.82198822 -49.25 56.25 C-53.31071019 52.80722397 -57.27773934 49.30115823 -61.1875 45.6875 C-65.30774536 41.95214739 -69.43279203 39.01543421 -74.25 36.25 C-70.04766933 25.63486415 -54.78493274 18.50627782 -45.25 13.25 C-44.66460449 12.92370605 -44.07920898 12.59741211 -43.47607422 12.26123047 C-29.81177403 4.73680211 -15.62453892 0.0876552 0 0 Z " fill="#FCCA67" transform="translate(453.25,28.75)"/>
<path d="M0 0 C8.19689216 4.26687537 12.592346 9.6874691 16.65625 18 C18.63872112 28.11060272 17.44699621 36.68940006 11.87890625 45.375 C6.49447138 52.32605529 -0.78842747 56.47511452 -9.4765625 57.73046875 C-19.6721512 58.111516 -26.87217076 55.81644396 -34.53125 49.125 C-41.04002019 41.98386114 -43.67771901 32.96899125 -43.265625 23.43359375 C-41.92595356 15.48168682 -38.07330664 8.25043267 -31.5859375 3.36328125 C-21.30067899 -3.11341919 -11.42997218 -5.20859492 0 0 Z " fill="#030201" transform="translate(401.71875,240.8125)"/>
<path d="M0 0 C6.6348326 4.71217592 11.00814858 10.87210198 13.58203125 18.59375 C14.59986737 28.6994086 13.12767546 37.48140318 6.97265625 45.7578125 C1.92228137 51.20202395 -4.90207077 55.1187088 -12.3515625 55.90234375 C-22.40469287 56.27219136 -29.80899455 54.34058531 -37.578125 47.765625 C-43.61436001 41.4602585 -46.57558835 34.22329431 -46.91796875 25.53125 C-46.71193116 19.79898994 -45.24439562 15.53505572 -42.41796875 10.59375 C-41.88171875 9.5625 -41.34546875 8.53125 -40.79296875 7.46875 C-30.34940513 -5.17345859 -14.20855819 -8.26345872 0 0 Z " fill="#030201" transform="translate(139.41796875,242.40625)"/>
<path d="M0 0 C7.38127294 4.05052645 12.46369379 11.10988949 15.04296875 19.12109375 C16.06984349 28.90028463 15.1678778 37.24003531 9.46484375 45.37109375 C4.0481116 52.00781062 -2.733721 56.4711911 -11.42578125 57.37890625 C-20.74392966 57.77152486 -27.66276601 55.32205248 -34.83203125 49.37109375 C-40.25314584 44.24689533 -43.68242943 38.16809433 -44.1953125 30.609375 C-44.57648269 16.29488892 -44.57648269 16.29488892 -39.95703125 10.12109375 C-39.56773437 9.52167969 -39.1784375 8.92226562 -38.77734375 8.3046875 C-29.77098601 -4.03242385 -13.28353317 -6.26254663 0 0 Z " fill="#020201" transform="translate(315.95703125,131.87890625)"/>
<path d="M0 0 C6.42148668 3.98619233 10.58799691 9.87478946 13 17 C14.31146372 27.13130752 13.4701038 35.65384227 7.4921875 44.140625 C2.74774708 50.09875948 -3.41062146 54.55440409 -11 56 C-21.14310485 56.98838562 -28.89898264 54.83661582 -36.8125 48.375 C-43.61990406 41.78485352 -46.45202713 35.52348699 -46.625 26 C-46.5094448 17.46784252 -44.05329886 11.51129368 -38.5 5.125 C-37.675 4.42375 -36.85 3.7225 -36 3 C-35.21625 2.29875 -34.4325 1.5975 -33.625 0.875 C-23.54171723 -6.32734483 -10.70034814 -6.12820656 0 0 Z " fill="#030201" transform="translate(227,133)"/>
<path d="M0 0 C3.97235827 1.04274405 7.34882144 3.34757351 10.82250977 5.47827148 C22.02797763 12.34427461 32.76153005 16.99948127 45.79711914 19.01342773 C50.80577507 19.80577507 50.80577507 19.80577507 53 22 C33.7387722 37.00067971 10.47165551 41.3809208 -13.41748047 38.73193359 C-27.56749929 36.5462086 -40.19450594 29.87032937 -52 22 C-48.65813308 20.08572671 -45.52428663 19.43463804 -41.75 18.75 C-26.1200903 15.47824688 -13.21714981 8.8114332 0 0 Z " fill="#FBD78D" transform="translate(255,444)"/>
<path d="M0 0 C3.08953278 2.57347895 3.9786828 3.94080116 4.375 8.0625 C3.84025825 14.47940095 -0.27551086 18.71402904 -4.73828125 23.0703125 C-15.3158347 31.44968877 -26.02891692 32.49589558 -38.9375 31.8125 C-48.81168034 30.14799531 -57.66905804 23.41797806 -63.9375 15.8125 C-66.14813936 12.02177278 -66.47835284 9.2165874 -65.9375 4.8125 C-51.65300852 -13.2531804 -17.62793527 -12.72086818 0 0 Z " fill="#C48864" transform="translate(286.9375,353.1875)"/>
<path d="M0 0 C1.82083964 1.82083964 1.30044708 4.48012117 1.375 6.9375 C1.28201586 14.65518326 -0.44621163 20.2113798 -5.7734375 25.890625 C-13.15097494 32.16577179 -24.58548043 39.33625652 -34.5 39.75 C-42.55882644 38.96706544 -48.27138739 34.37057433 -54 29 C-46.98015421 15.37324053 -31.54180407 7.88530511 -17.6484375 3.15234375 C-5.91275935 -0.55432119 -5.91275935 -0.55432119 0 0 Z " fill="#848DAC" transform="translate(177,71)"/>
<path d="M0 0 C19.43486014 0.97174301 38.02992121 10.88841851 51.65234375 24.38671875 C53 26 53 26 54 29 C48.27138739 34.37057433 42.55882644 38.96706544 34.5 39.75 C24.14573839 39.31790562 10.93476291 31.39300716 4 24 C-1.31533677 16.89609019 -1.91572335 9.67320828 -1 1 C-0.67 0.67 -0.34 0.34 0 0 Z " fill="#848EAC" transform="translate(335,71)"/>
<path d="M0 0 C10.56 0 21.12 0 32 0 C30.86534047 12.48125478 30.86534047 12.48125478 28.6875 18.8125 C28.27886719 20.03582031 27.87023437 21.25914063 27.44921875 22.51953125 C25.5958834 26.97053341 23.0687776 32.18315397 19 35 C16.1875 35.625 16.1875 35.625 13 35 C4.97531351 29.22465745 2.24732691 17.26060034 0.26171875 8.09765625 C-0.07263874 5.41780594 0 2.70062819 0 0 Z " fill="#848EAD" transform="translate(240,66)"/>
<path d="M0 0 C5.03673292 3.24526926 9.27372601 7.66104678 12 13 C12.94650493 18.44240337 10.85441359 22.49348643 8 27 C6.10815228 29.44094498 4.11172254 31.74749596 2 34 C-7.8278463 29.52093731 -17.22068857 19.55862285 -22 10 C-19.87609042 8.51924614 -17.75093595 7.04033944 -15.625 5.5625 C-15.02171875 5.14162109 -14.4184375 4.72074219 -13.796875 4.28710938 C-8.79641688 0.81456901 -6.22637821 -0.80340364 0 0 Z " fill="#838DAB" transform="translate(83,322)"/>
<path d="M0 0 C6.25134725 2.47780673 11.53576933 5.97440648 16.1484375 10.8515625 C9.98889965 19.36559947 2.77453227 27.75067112 -5.8515625 33.8515625 C-11.4752129 31.47794383 -14.46767416 26.49353114 -17.2265625 21.2265625 C-18.3826505 16.8334281 -18.44531933 14.01433629 -16.3515625 9.9140625 C-6.937725 -1.61788844 -6.937725 -1.61788844 0 0 Z " fill="#848DAC" transform="translate(434.8515625,322.1484375)"/>
<path d="M0 0 C4.1362199 12.38403933 3.29367457 25.11596935 3 38 C1.26068589 38.04760069 -0.47901034 38.08135158 -2.21875 38.109375 C-3.18748047 38.12967773 -4.15621094 38.14998047 -5.15429688 38.17089844 C-10.37060548 37.85763351 -14.33879701 35.71479018 -17.9375 32 C-20.72003947 26.76227864 -20.58900491 20.78066244 -20 15 C-17.05253548 8.75137521 -11.4860628 3.91998724 -5.1875 1.125 C-2 0 -2 0 0 0 Z " fill="#828CAA" transform="translate(458,191)"/>
<path d="M0 0 C8.16940786 2.55657145 13.92233505 6.07591143 19 13 C21.47434879 17.94869758 20.29881457 24.67667832 19.125 29.875 C16.04803107 34.39995431 12.24684825 36.54589263 7 38 C3.65874432 38.16315841 0.34211553 38.12139028 -3 38 C-3.61916858 10.83596307 -3.61916858 10.83596307 0 0 Z " fill="#838CAB" transform="translate(54,191)"/>
<path d="M0 0 C2.92152702 1.8344472 5.4326609 3.86532181 7 7 C7.59968751 12.27725011 6.27164725 14.88707202 3 19 C-0.53430656 21.35620437 -1.83571287 21.48991613 -6 21 C-9.18328368 19.53079215 -11.31190224 18.36458205 -12.92578125 15.1640625 C-14.08320728 11.45745888 -14.1420903 9.44298741 -12.9375 5.6875 C-9.48536397 0.89905324 -5.91698218 -0.96603791 0 0 Z " fill="#040402" transform="translate(29,124)"/>
<path d="M0 0 C2.92937654 1.81310142 5.43647949 3.87295899 7 7 C7.12243863 11.53022942 6.81830145 14.98332245 3.9375 18.5625 C0.15515476 20.4134349 -2.86951604 20.99298503 -7 20 C-10.61391202 17.07811368 -12.74312565 14.88374526 -13.375 10.25 C-12.8528401 5.7246142 -11.15770622 4.2328897 -8 1 C-5.09704195 -0.45147903 -3.22738221 -0.37239025 0 0 Z " fill="#818BA9" transform="translate(126,258)"/>
<path d="M0 0 C2.91269772 1.8578656 5.42832709 3.85665419 7 7 C7.41204834 11.63554388 6.87454146 14.30416098 4 18 C0.57905881 20.56570589 -2.84773484 20.43708054 -7 20 C-10.38939556 17.86320715 -11.72582557 16.8225233 -13 13 C-13.5 9.6875 -13.5 9.6875 -13 6 C-9.63702621 1.54843354 -5.69565484 -1.3330256 0 0 Z " fill="#818BA9" transform="translate(392,258)"/>
<path d="M0 0 C3.9295493 0.92685276 5.41241975 2.29808529 8.00390625 5.47265625 C8.80206186 8.6480523 8.76446448 11.29214003 8.00390625 14.47265625 C5.48556152 18.13570313 3.80106814 19.22626076 -0.43359375 20.53515625 C-4.82766964 20.4580672 -6.65939372 19.25323961 -9.99609375 16.47265625 C-11.74074823 12.98334729 -11.56059927 9.27978648 -10.99609375 5.47265625 C-8.10250338 1.041846 -5.38309693 -0.3983696 0 0 Z " fill="#828CAA" transform="translate(302.99609375,148.52734375)"/>
<path d="M0 0 C3.4375 1.9375 3.4375 1.9375 6 5 C6.80347713 8.17373465 6.76035188 10.82034669 6 14 C3.48165527 17.66304688 1.79716189 18.75360451 -2.4375 20.0625 C-6.83157589 19.98541095 -8.66329997 18.78058336 -12 16 C-13.75158547 12.49682906 -13.6837198 8.81305274 -13 5 C-9.12550287 0.36950343 -5.97119689 -1.06628516 0 0 Z " fill="#838CAB" transform="translate(214,149)"/>
</svg>
