<?xml version="1.0" encoding="UTF-8"?>
<svg version="1.1" xmlns="http://www.w3.org/2000/svg" width="512" height="512">
<path d="M0 0 C1.15869095 0.00081573 1.15869095 0.00081573 2.34078979 0.00164795 C14.62451832 0.0413564 26.15616142 0.89105017 38 4.375 C38.75974121 4.58930664 39.51948242 4.80361328 40.30224609 5.02441406 C51.5011842 8.24284974 61.79276466 12.7881909 72 18.375 C72.91136719 18.86742188 73.82273437 19.35984375 74.76171875 19.8671875 C93.65253937 30.63586785 110.57435752 46.88641627 122 65.375 C122.5868457 66.32391113 122.5868457 66.32391113 123.18554688 67.29199219 C131.20365174 80.47573188 137.09176048 94.41947009 141 109.375 C141.45052734 111.05529297 141.45052734 111.05529297 141.91015625 112.76953125 C146.34563601 132.80139564 146.26548618 157.54449961 141 177.375 C140.83371094 178.0462793 140.66742188 178.71755859 140.49609375 179.40917969 C134.54043805 203.28694745 122.94846907 224.54156339 106 242.375 C104 243.375 104 243.375 102.046875 243.3046875 C99.3757901 243.24109024 97.50514061 243.41213983 95 244.375 C93.18533244 246.8503475 92.03559879 249.28798075 90.875 252.125 C84.95641975 262.38387243 75.09003117 267.65461745 65 273.13476562 C58.74922416 276.51362219 58.74922416 276.51362219 55.04296875 282.27734375 C54.68720978 283.64114117 54.33967263 285.00710733 54 286.375 C52.82422502 289.25183213 51.49867408 292.05764356 50.1875 294.875 C49.71086914 295.93654297 49.71086914 295.93654297 49.22460938 297.01953125 C47.47443527 300.78120213 45.82160254 303.56479781 42.91259766 306.52685547 C38.04319637 312.97740371 39.11878256 321.45561045 39.16796875 329.1640625 C39.16137484 330.91271632 39.15315232 332.66136468 39.14338684 334.41000366 C39.130062 338.07003539 39.13881859 341.72918939 39.1628418 345.38916016 C39.19130585 350.04288056 39.1614773 354.69405209 39.11420727 359.34754372 C39.0847717 362.95975749 39.08881876 366.57138029 39.10222816 370.18366623 C39.10435921 371.89700679 39.09608068 373.6103975 39.07649803 375.32362747 C38.96298013 387.28369334 40.88811937 395.03691893 47 405.375 C48.82511893 410.8503568 48.82717072 416.25212063 46.4375 421.5625 C43.61138512 426.60913371 39.50740408 430.53919864 34 432.375 C32.51038433 432.4760031 31.01675366 432.52275347 29.52377319 432.53562927 C28.60709869 432.5456749 27.69042419 432.55572052 26.74597168 432.56607056 C25.74231567 432.57190155 24.73865967 432.57773254 23.70458984 432.58374023 C22.64571564 432.59352402 21.58684143 432.6033078 20.49588013 432.61338806 C16.98424539 432.64335266 13.47264882 432.6647323 9.9609375 432.68359375 C8.76134022 432.69016558 7.56174294 432.6967374 6.32579422 432.70350838 C-0.02579316 432.73610899 -6.37736373 432.76055643 -12.72900391 432.7800293 C-17.98250793 432.7978331 -23.23547428 432.83263893 -28.48876953 432.88256836 C-34.83355483 432.94280196 -41.17784202 432.97351003 -47.52289963 432.98320198 C-49.93818326 432.99175345 -52.35345371 433.01056368 -54.76857376 433.0399456 C-58.15571064 433.07892907 -61.54091403 433.0798847 -64.92822266 433.07202148 C-65.91973328 433.09202209 -66.9112439 433.11202271 -67.93280029 433.13262939 C-75.0122389 433.05912628 -79.71093598 431.13723316 -85 426.375 C-89.50877238 420.5929851 -90.15018721 415.04440586 -90.11352539 407.94433594 C-90.11367142 407.20248047 -90.11381744 406.460625 -90.1139679 405.69628906 C-90.11327269 403.25062103 -90.10549866 400.80502969 -90.09765625 398.359375 C-90.09579068 396.66115358 -90.09436743 394.96293162 -90.09336853 393.26470947 C-90.08955432 388.79966745 -90.07973339 384.33465806 -90.06866455 379.86962891 C-90.0566262 374.50982335 -90.05204297 369.15000686 -90.04621124 363.79019165 C-90.03652106 355.65177175 -90.01735683 347.51342343 -90 339.375 C-114.42 339.375 -138.84 339.375 -164 339.375 C-163.9690625 352.059375 -163.9690625 352.059375 -163.9375 365 C-163.949021 367.6395166 -163.96054199 370.2790332 -163.97241211 372.99853516 C-163.90919212 384.42513632 -163.81931298 393.95274356 -157.6081543 403.79882812 C-154.8348764 408.24146186 -154.36821431 412.42848228 -155.453125 417.48828125 C-157.31844767 423.24692276 -160.39155807 427.6640875 -165.50598145 431.01870728 C-170.27544651 432.87009721 -174.51875654 432.79435745 -179.59179688 432.76318359 C-181.17336327 432.77106903 -181.17336327 432.77106903 -182.78688049 432.77911377 C-186.26432202 432.79229314 -189.74130399 432.78358266 -193.21875 432.7734375 C-195.63960864 432.77545882 -198.06046669 432.77837074 -200.48132324 432.78213501 C-205.55189824 432.78655558 -210.62231456 432.78013569 -215.69287109 432.76611328 C-222.1895689 432.74902179 -228.68589488 432.75886437 -235.18257904 432.77683067 C-240.18059079 432.78767556 -245.17851452 432.78421887 -250.17652893 432.7764473 C-252.57190495 432.77444725 -254.96728898 432.77689767 -257.36265564 432.78388596 C-260.71138658 432.79151177 -264.05951687 432.77987961 -267.40820312 432.76318359 C-268.89055199 432.77229263 -268.89055199 432.77229263 -270.40284729 432.78158569 C-276.76090373 432.72291367 -281.25550919 431.92897269 -286.08203125 427.4375 C-286.65308594 426.756875 -287.22414063 426.07625 -287.8125 425.375 C-288.39644531 424.694375 -288.98039062 424.01375 -289.58203125 423.3125 C-292.40680832 419.45274951 -292.13209332 415.87329551 -292.14717102 411.23939514 C-292.15084771 410.50773665 -292.1545244 409.77607817 -292.1583125 409.02224821 C-292.16935143 406.56308354 -292.17319375 404.10396113 -292.17700195 401.64477539 C-292.18326714 399.88370123 -292.18991399 398.1226284 -292.19691467 396.36155701 C-292.21797536 390.56526614 -292.22832846 384.76897499 -292.23828125 378.97265625 C-292.24233001 376.97244185 -292.24644696 374.97222759 -292.25063133 372.97201347 C-292.26969835 363.56082954 -292.28391838 354.14965346 -292.2922433 344.73845392 C-292.30197985 333.91184413 -292.32819869 323.08544075 -292.36874419 312.25890356 C-292.3990613 303.87218632 -292.41372741 295.48552764 -292.41702431 287.09875673 C-292.41935983 282.10026579 -292.42812061 277.10199492 -292.45348549 272.10356331 C-292.47704108 267.3847154 -292.48089104 262.66622802 -292.47072411 257.9473362 C-292.470235 256.23189839 -292.47636632 254.51644117 -292.49028015 252.80105972 C-292.56898236 242.50656042 -291.7107183 233.0567674 -289.13532478 223.0497666 C-288.14790255 218.92666714 -287.76815535 216.99798798 -289.28772449 212.91476536 C-292.93009331 207.51215222 -297.52296949 203.72438136 -304 202.375 C-310.62207373 201.483567 -315.56380827 203.78882117 -321 207.375 C-328.16343033 215.25477337 -327.27672776 226.3940194 -327.1953125 236.37890625 C-327.19106766 238.3574485 -327.19106766 238.3574485 -327.18673706 240.3759613 C-327.17916474 243.85295436 -327.15957277 247.32977565 -327.1373291 250.80670166 C-327.11673129 254.36655353 -327.10770579 257.92643362 -327.09765625 261.48632812 C-327.0763196 268.44928852 -327.04226277 275.41213598 -327 282.375 C-326.08311401 282.85984863 -326.08311401 282.85984863 -325.14770508 283.35449219 C-324.34228271 283.78922852 -323.53686035 284.22396484 -322.70703125 284.671875 C-321.91014893 285.09823242 -321.1132666 285.52458984 -320.29223633 285.96386719 C-316.68646783 288.18362882 -314.34846013 290.89156977 -312 294.375 C-311.58621094 294.9628125 -311.17242187 295.550625 -310.74609375 296.15625 C-305.85613923 304.74348721 -306.91282238 316.76469836 -308.73046875 326.14453125 C-309.65373031 329.32130471 -310.72508968 332.32357529 -312 335.375 C-312.54333984 336.69371094 -312.54333984 336.69371094 -313.09765625 338.0390625 C-317.34973408 347.35039225 -324.61510966 357.68255483 -334 362.375 C-339.33556003 363.12385053 -342.12934267 362.72686312 -346.5 359.5 C-357.92050397 349.69133997 -366.92418346 335.4393195 -368.18017578 320.18701172 C-369.22632183 301.68260043 -369.22632183 301.68260043 -364 294.375 C-363.49082031 293.66085937 -362.98164063 292.94671875 -362.45703125 292.2109375 C-359.56751129 288.5742419 -357.04460176 286.30124138 -352.86425781 284.26098633 C-352.14135559 283.90619705 -351.41845337 283.55140778 -350.67364502 283.18586731 C-350.12134216 282.9182811 -349.56903931 282.65069489 -349 282.375 C-348.99857498 281.52468201 -348.99714996 280.67436401 -348.99568176 279.79827881 C-348.97776265 271.73730012 -348.93588735 263.67686405 -348.86790943 255.61614609 C-348.83379417 251.47319218 -348.80855378 247.33060095 -348.80444336 243.1875 C-348.80012684 239.18006522 -348.77139101 235.17344644 -348.72656822 231.1662674 C-348.71369923 229.6467186 -348.70924743 228.12707161 -348.71384621 226.60747528 C-348.74544035 212.98247499 -345.83777999 201.38604813 -336 191.375 C-327.27539832 183.61979851 -316.40040775 179.54395024 -304.6875 180.0546875 C-293.5160951 181.38616308 -285.17844984 186.20802443 -276 192.375 C-275.12601563 191.17617188 -275.12601563 191.17617188 -274.234375 189.953125 C-256.60605393 166.16639067 -231.81386077 148.20844318 -201.92504883 143.75024414 C-189.02572558 142.09543571 -176.10199446 142.25408479 -163.125 142.3125 C-161.16536573 142.31752803 -159.20573021 142.32208862 -157.24609375 142.32617188 C-152.49736415 142.33706734 -147.74869638 142.35425915 -143 142.375 C-143.01377686 141.54460205 -143.02755371 140.7142041 -143.04174805 139.85864258 C-143.10587793 133.14043476 -142.92981189 126.688639 -141.8125 120.0625 C-141.61503174 118.86065063 -141.61503174 118.86065063 -141.41357422 117.63452148 C-139.26065836 105.35416324 -135.14753976 93.71764902 -130 82.375 C-129.67773438 81.6428125 -129.35546875 80.910625 -129.0234375 80.15625 C-127.33913578 77.22479356 -125.09433759 76.54267456 -122 75.375 C-120.865625 75.54 -119.73125 75.705 -118.5625 75.875 C-114.92041097 75.77151978 -114.92041097 75.77151978 -113.2109375 73.21875 C-112.0064844 71.28738026 -110.84077876 69.33141285 -109.7109375 67.35546875 C-107.46017209 63.43461486 -104.78052885 59.92959549 -102 56.375 C-102.66 55.385 -103.32 54.395 -104 53.375 C-104.67226891 46.42822129 -104.67226891 46.42822129 -102.125 42.4375 C-99.17258396 39.57191973 -97.62657608 39.23670573 -93.625 39.25 C-92.85414063 39.24742188 -92.08328125 39.24484375 -91.2890625 39.2421875 C-89 39.375 -89 39.375 -87.01171875 40.11328125 C-84.82439503 40.61867242 -84.82439503 40.61867242 -82.66796875 38.86328125 C-81.84941406 38.14527344 -81.03085937 37.42726562 -80.1875 36.6875 C-77.17512551 34.09846216 -74.59106771 32.04748219 -70.9375 30.5 C-67.80727903 28.73877707 -67.80727903 28.73877707 -67.52734375 26.08984375 C-67.33578445 23.45925623 -67.33578445 23.45925623 -67.4609375 20.91015625 C-66.77353641 17.12945025 -64.93098054 15.77595167 -62 13.375 C-54.39588074 9.43563062 -46.03250521 6.95080524 -37.8125 4.625 C-37.11358643 4.42648438 -36.41467285 4.22796875 -35.69458008 4.0234375 C-23.84274416 0.8238664 -12.21815537 -0.03239458 0 0 Z " fill="#010100" transform="translate(368,39.625)"/>
<path d="M0 0 C1.5617395 0.00519653 1.5617395 0.00519653 3.1550293 0.01049805 C12.82651929 0.14419847 22.10811145 1.33148869 31.5625 3.3125 C32.53574219 3.50585938 33.50898438 3.69921875 34.51171875 3.8984375 C56.22726008 9.01971371 74.89458421 20.81818992 90.5625 36.3125 C91.64917969 37.29089844 91.64917969 37.29089844 92.7578125 38.2890625 C103.956523 48.58099482 111.32213114 62.64594396 117.5625 76.3125 C117.97113281 77.19164062 118.37976563 78.07078125 118.80078125 78.9765625 C130.95342123 107.03555365 129.47540765 140.76126224 118.453125 168.75390625 C114.26904096 179.01436285 109.27363856 188.45950871 102.5625 197.3125 C100.06888429 196.10868552 97.88106917 194.85821278 95.5625 193.3125 C92.51796509 192.83030847 89.60958913 192.84965102 86.5625 193.3125 C84.06089182 195.18870613 82.94304348 196.55141303 81.5625 199.3125 C81.48374154 201.10352563 81.42438792 202.89542396 81.375 204.6875 C80.69716421 213.24260933 77.43758604 220.98550479 71.1875 227 C66.20449983 230.91656263 60.54913083 233.82317593 55 236.84765625 C50.30627575 239.42187064 45.74497549 242.19331142 41.1875 245 C40.42107178 245.46897705 39.65464355 245.9379541 38.86499023 246.42114258 C35.77369572 248.31641454 32.69861079 250.22383563 29.66015625 252.203125 C19.33910833 258.82733079 7.83151919 262.03802907 -4.4375 260.3125 C-14.79208348 257.8618226 -23.34428995 252.60274795 -32.3125 247.125 C-33.68037292 246.3030094 -35.04886066 245.48204103 -36.41796875 244.66210938 C-70.47548963 224.19107867 -70.47548963 224.19107867 -73.6875 212.4375 C-74.36772668 209.33051868 -74.56677869 206.29613809 -74.75 203.125 C-75.08416981 199.56965231 -75.44035197 198.3080438 -77.4375 195.1875 C-81.50920019 192.64268738 -84.75643374 192.2448884 -89.4375 193.3125 C-91.87617028 194.75579466 -93.43345124 196.25706538 -95.4375 198.3125 C-111.01232833 178.06522317 -119.84799998 152.69261146 -119.69824219 127.22802734 C-119.68758736 125.08011185 -119.69815537 122.93304535 -119.7109375 120.78515625 C-119.72571419 108.46254384 -118.70996825 96.55050388 -114.5 84.875 C-114.24798828 84.13830078 -113.99597656 83.40160156 -113.73632812 82.64257812 C-112.54138872 79.19834103 -111.25302934 75.83596295 -109.7734375 72.50390625 C-108.20747315 68.76299142 -107.91667454 66.3302964 -108.4375 62.3125 C-109.13875 61.466875 -109.84 60.62125 -110.5625 59.75 C-111.18125 58.945625 -111.8 58.14125 -112.4375 57.3125 C-111.35800807 52.06496978 -108.63547926 48.64143012 -105.3125 44.625 C-101.6032182 40.51673984 -101.6032182 40.51673984 -100.4375 35.3125 C-100.7675 34.6525 -101.0975 33.9925 -101.4375 33.3125 C-102.0186138 26.22291162 -102.0186138 26.22291162 -99.5625 22.375 C-96.61008396 19.50941973 -95.06407608 19.17420573 -91.0625 19.1875 C-89.90621094 19.18363281 -89.90621094 19.18363281 -88.7265625 19.1796875 C-86.4375 19.3125 -86.4375 19.3125 -84.44140625 20.046875 C-82.27333898 20.55582913 -82.27333898 20.55582913 -80.17578125 18.8359375 C-78.97501953 17.77246094 -78.97501953 17.77246094 -77.75 16.6875 C-73.24447855 12.87153086 -68.70272269 9.95782928 -63.4375 7.3125 C-61.38671875 9.265625 -61.38671875 9.265625 -59.3359375 11.21875 C-56.54734488 12.82534657 -54.6174279 12.63984552 -51.4375 12.3125 C-48.27917337 11.16276857 -48.27917337 11.16276857 -45.0625 9.5625 C-37.40872673 6.06020613 -29.65432326 4.08043001 -21.4375 2.3125 C-20.67622803 2.13372314 -19.91495605 1.95494629 -19.13061523 1.77075195 C-12.71222777 0.34225192 -6.56549157 -0.03592975 0 0 Z " fill="#FDBF43" transform="translate(365.4375,59.6875)"/>
<path d="M0 0 C1.78302269 0.00212242 1.78302269 0.00212242 3.60206604 0.00428772 C7.38187219 0.00986511 11.16161814 0.0224135 14.94140625 0.03515625 C17.51106685 0.04017417 20.08072838 0.04473657 22.65039062 0.04882812 C28.93491622 0.05982714 35.21940693 0.07654275 41.50390625 0.09765625 C41.63082352 0.72926163 41.75774078 1.360867 41.88850403 2.01161194 C45.30906701 19.1421432 45.30906701 19.1421432 51.19140625 35.53515625 C51.61856934 36.52467285 52.04573242 37.51418945 52.48583984 38.53369141 C58.11479475 51.21068279 65.3919811 62.63125574 74.50390625 73.09765625 C75.34953125 74.10828125 76.19515625 75.11890625 77.06640625 76.16015625 C80.91801838 79.22169409 84.73874639 79.09765625 89.50390625 79.09765625 C89.90609375 80.02384766 89.90609375 80.02384766 90.31640625 80.96875 C94.67549496 90.3895437 99.98043126 96.70260127 108.7890625 102.2734375 C109.39641235 102.65813202 110.00376221 103.04282654 110.6295166 103.43917847 C117.17853459 107.5648847 123.80690022 111.55956614 130.46289062 115.50976562 C132.50585114 116.72381202 134.54397085 117.94571872 136.58203125 119.16796875 C156.81930668 131.23909924 175.47039087 140.37422148 199.53833008 134.66040039 C202.55046051 133.87312738 205.52923814 133.01672612 208.50390625 132.09765625 C200.75363035 141.63645736 192.85732258 148.19679047 181.50390625 153.09765625 C180.78847656 153.41605469 180.07304687 153.73445312 179.3359375 154.0625 C175.69843017 155.47669531 172.21618972 156.16630239 168.34375 156.54296875 C167.59053467 156.61676758 166.83731934 156.69056641 166.0612793 156.76660156 C164.55293026 156.90130123 163.04236866 157.01359681 161.53051758 157.10058594 C157.83974059 157.40600628 155.74047997 157.91225177 152.80316162 160.21424866 C149.97012676 163.76704855 149.86196668 165.54994021 149.82519531 170.05249023 C149.81322113 170.73298935 149.80124695 171.41348846 149.78890991 172.11460876 C149.75679037 174.35823909 149.7615393 176.59992869 149.76953125 178.84375 C149.76107192 180.41732948 149.75142904 181.990903 149.74066162 183.56446838 C149.72427211 186.86571218 149.72697083 190.16628567 149.7421875 193.4675293 C149.75935791 197.66064528 149.72254899 201.85122776 149.66992569 206.04397488 C149.63651463 209.29845493 149.6363007 212.55234812 149.64507294 215.80696297 C149.64471714 217.35006892 149.63368262 218.8932165 149.61096954 220.43615532 C149.58313945 222.61839251 149.60150821 224.79612544 149.62988281 226.97827148 C149.62941956 228.21117416 149.6289563 229.44407684 149.628479 230.71434021 C150.68166458 236.98955031 150.68166458 236.98955031 157.50390625 249.09765625 C142.98390625 249.09765625 128.46390625 249.09765625 113.50390625 249.09765625 C113.46523438 239.87248047 113.46523438 239.87248047 113.42578125 230.4609375 C113.40061433 226.56441142 113.37428268 222.66796307 113.34375 218.77148438 C113.29539964 212.58699243 113.25136089 206.40268041 113.23291016 200.21801758 C113.21776459 195.23168336 113.18335629 190.24581984 113.13559723 185.25969505 C113.12076177 183.35755696 113.112864 181.45535166 113.1120224 179.5531559 C113.10965749 176.88819846 113.08261698 174.22454688 113.04980469 171.55981445 C113.05483505 170.77362732 113.05986542 169.98744019 113.06504822 169.1774292 C112.99475934 165.4869199 112.62497343 163.29213704 110.6572876 160.13127136 C107.53974944 157.18712367 105.00682624 156.9716993 100.89118958 156.93943787 C99.94468033 156.92964905 98.99817108 156.91986023 98.02297974 156.90977478 C96.98648285 156.90401932 95.94998596 156.89826385 94.88208008 156.89233398 C93.7892421 156.88243439 92.69640411 156.87253479 91.57044983 156.86233521 C87.95063458 156.83069457 84.3308062 156.80595255 80.7109375 156.78125 C78.204154 156.76068269 75.69737399 156.73968628 73.19059753 156.71827698 C67.26208867 156.66868274 61.3335567 156.62342336 55.40499848 156.58025461 C47.99326992 156.52602133 40.58159916 156.46507461 33.16992188 156.40429688 C19.94795598 156.29668716 6.72595106 156.19506183 -6.49609375 156.09765625 C-1.71777344 151.30175781 -1.71777344 151.30175781 0.27734375 149.46484375 C9.03563073 141.30468368 13.67403057 131.2731138 17.50390625 120.09765625 C17.93703125 118.96328125 18.37015625 117.82890625 18.81640625 116.66015625 C19.92940741 110.89278658 20.34122504 104.92340819 19.50390625 99.09765625 C17.62785681 96.76224491 16.16976592 95.43058608 13.50390625 94.09765625 C9.82871421 93.75736069 7.41023974 93.55875526 4.19140625 95.47265625 C1.65476431 99.41854372 1.28188951 103.52386758 0.50390625 108.09765625 C-2.09018316 120.88518675 -6.83830466 131.6536508 -17.80859375 139.28515625 C-19.35666585 140.24629373 -20.91907742 141.18478606 -22.49609375 142.09765625 C-23.16125 142.49082031 -23.82640625 142.88398438 -24.51171875 143.2890625 C-30.04017262 146.14824379 -35.67861002 146.807725 -41.82446289 147.15136719 C-45.37956954 147.43782432 -47.3376393 147.97567871 -50.1831665 150.16615295 C-53.01366268 153.75364533 -53.21805995 156.39823513 -53.17480469 160.78686523 C-53.18677887 161.54539291 -53.19875305 162.30392059 -53.21109009 163.08543396 C-53.24323628 165.58872766 -53.23845764 168.09028468 -53.23046875 170.59375 C-53.23892578 172.34669079 -53.24856809 174.09962622 -53.25933838 175.85255432 C-53.27573278 179.53040281 -53.27302329 183.20764966 -53.2578125 186.88549805 C-53.24062959 191.56278603 -53.27747464 196.23780576 -53.33007431 200.91476345 C-53.36343928 204.53981377 -53.36370699 208.16433594 -53.35492706 211.78950691 C-53.35528348 213.51123808 -53.36635716 215.23300603 -53.38903046 216.95458794 C-53.51054102 227.60331015 -52.38454331 235.20219455 -46.99713135 244.4969635 C-45.49609375 247.09765625 -45.49609375 247.09765625 -45.49609375 249.09765625 C-60.01609375 249.09765625 -74.53609375 249.09765625 -89.49609375 249.09765625 C-89.54129107 226.86161798 -89.57811231 204.62561707 -89.59971809 182.38954449 C-89.61001796 172.06428568 -89.62405361 161.7390575 -89.64697266 151.41381836 C-89.66694605 142.41131135 -89.67981956 133.40882653 -89.68427074 124.40629798 C-89.68687143 119.64229923 -89.69295726 114.87836395 -89.70755386 110.1143856 C-89.72120022 105.62386327 -89.72530221 101.13343013 -89.72230911 96.64288902 C-89.72285613 95.00108352 -89.72679134 93.35927481 -89.7345047 91.71748734 C-89.85393368 64.96902145 -81.0922635 43.30859356 -62.62109375 23.91015625 C-45.56897391 7.48350027 -23.30239234 -0.10503451 0 0 Z " fill="#FECC68" transform="translate(185.49609375,202.90234375)"/>
<path d="M0 0 C13.00870958 10.28917908 22.5620362 23.83499547 25.625 40.375 C26.65054531 50.05241847 27.0888896 60.68506731 24 70 C23.67 71.00417969 23.34 72.00835937 23 73.04296875 C16.37041463 91.6450619 5.22482208 101.82820305 -11 112 C-12.08410156 112.68835938 -13.16820312 113.37671875 -14.28515625 114.0859375 C-24.27867966 120.19810537 -34.39102916 124.16320441 -46.2253418 121.49902344 C-52.6953288 119.74611788 -58.12486905 117.00447161 -63.8125 113.5 C-64.67834717 112.97100098 -65.54419434 112.44200195 -66.4362793 111.89697266 C-83.56599448 101.20543155 -95.63059497 88.28395787 -101.421875 68.51953125 C-105.63204843 50.17114028 -102.6011918 33.03305815 -93 17 C-82.89912349 2.3827761 -68.1326244 -8.16221204 -50.53125 -11.55859375 C-32.27057502 -13.84117812 -15.17057706 -10.96719636 0 0 Z " fill="#FCE3B2" transform="translate(407,134)"/>
<path d="M0 0 C2.29043284 1.67041048 2.29043284 1.67041048 4.59375 1.2265625 C5.51414062 0.83791016 5.51414062 0.83791016 6.453125 0.44140625 C13.18674367 -1.80313331 21.2164852 -1.428153 27.7109375 1.46875 C33.86724938 4.90579408 37.92273015 9.55235962 40.03515625 16.30078125 C41.56867604 24.15469568 41.07502105 30.77186217 36.83984375 37.6015625 C35.453125 39.44140625 35.453125 39.44140625 33.703125 40.78515625 C32.11915295 42.48329827 32.11915295 42.48329827 32.81640625 45.3125 C33.12964844 46.48941406 33.44289063 47.66632813 33.765625 48.87890625 C38.88464438 70.56532589 34.97575525 94.17096044 23.81787109 113.36694336 C19.84153388 119.80033096 14.81237924 125.1456691 9.453125 130.44140625 C8.50373047 131.40626953 8.50373047 131.40626953 7.53515625 132.390625 C1.56793917 138.04169813 -5.67797682 142.08199058 -12.68017578 146.30615234 C-14.27229593 147.27441793 -15.84709483 148.27107033 -17.41796875 149.2734375 C-31.1447948 157.94879157 -46.65886708 160.82222043 -62.609375 157.44140625 C-70.14544461 155.24761779 -76.84407864 151.43247033 -83.546875 147.44140625 C-84.60261719 146.81371338 -84.60261719 146.81371338 -85.6796875 146.17333984 C-107.26515076 133.16113517 -123.5744065 116.34920287 -130.9921875 91.71484375 C-134.36815331 77.87813883 -134.74297812 64.23851712 -131.671875 50.37890625 C-130.48105571 45.05541175 -130.48105571 45.05541175 -131.61328125 39.80859375 C-133.14850072 37.86274931 -134.77702302 36.171733 -136.546875 34.44140625 C-139.38568423 28.634751 -139.69952785 21.40321903 -137.89453125 15.19921875 C-135.00498918 8.82486414 -130.31697206 4.15886643 -124.421875 0.50390625 C-118.09032781 -1.81670607 -110.09478726 -1.56897275 -103.921875 0.87890625 C-98.93194855 1.71056066 -96.59571132 -0.74173231 -92.5703125 -3.54296875 C-65.22395633 -21.77387286 -25.956751 -19.68507793 0 0 Z M-97.546875 25.44140625 C-100.26299364 28.60037033 -102.47064155 31.83388252 -104.546875 35.44140625 C-105.08957031 36.37726563 -105.63226563 37.313125 -106.19140625 38.27734375 C-114.90908836 54.44005365 -115.75019281 71.93744515 -110.546875 89.44140625 C-107.87090622 96.73864026 -104.155211 103.20169549 -99.546875 109.44140625 C-99.12019531 110.034375 -98.69351563 110.62734375 -98.25390625 111.23828125 C-91.37033166 120.03956724 -81.28348446 125.78218433 -71.796875 131.37890625 C-71.00514893 131.85166992 -70.21342285 132.32443359 -69.39770508 132.81152344 C-60.27961654 138.06216972 -51.36189531 139.75163963 -40.9140625 138 C-22.80740593 133.07354501 -2.5856408 118.69135967 6.921875 102.47265625 C15.63786734 85.21854896 18.27621269 67.46426006 12.640625 48.7421875 C6.94367441 31.72254762 -4.57009483 18.52867817 -20.546875 10.44140625 C-47.60686426 -1.62056497 -76.89583722 4.29938559 -97.546875 25.44140625 Z " fill="#020201" transform="translate(417.546875,117.55859375)"/>
<path d="M0 0 C0.84175781 -0.01933594 1.68351562 -0.03867188 2.55078125 -0.05859375 C7.02995306 -0.02332468 8.92558204 0.16753827 12.53125 3.0390625 C15.42380856 6.83841521 15.60575483 8.63889151 15.5703125 13.3671875 C15.580625 14.51574219 15.5909375 15.66429687 15.6015625 16.84765625 C15.61713713 19.27470219 15.60947346 21.7020128 15.578125 24.12890625 C15.41421183 30.18714444 15.41421183 30.18714444 18.02612305 35.33911133 C20.69761181 36.92636592 22.95508493 37.63829061 26.0625 37.5625 C28.98065352 36.44013326 31.71183702 35.03629237 34.5 33.625 C34.50410889 32.80298096 34.50821777 31.98096191 34.51245117 31.1340332 C34.54539243 27.40112958 34.61604104 23.66985666 34.6875 19.9375 C34.69330078 18.64392578 34.69910156 17.35035156 34.70507812 16.01757812 C34.73408203 14.77041016 34.76308594 13.52324219 34.79296875 12.23828125 C34.81653442 10.51798706 34.81653442 10.51798706 34.84057617 8.76293945 C35.70073386 4.66978624 37.23216546 3.16768621 40.5 0.625 C42.73242188 -0.02197266 42.73242188 -0.02197266 44.96875 -0.0390625 C45.78730469 -0.04550781 46.60585938 -0.05195313 47.44921875 -0.05859375 C48.29097656 -0.03925781 49.13273437 -0.01992187 50 0 C50.84175781 -0.01933594 51.68351562 -0.03867188 52.55078125 -0.05859375 C56.9673011 -0.023818 58.93128877 0.18837654 62.52734375 2.94921875 C65.03378134 6.34904003 65.57405566 8.40382739 65.5 12.625 C63.9375 16 63.9375 16 61.5 18.625 C58.34765625 19.2890625 58.34765625 19.2890625 55.5 19.625 C55.5314209 20.57753662 55.5314209 20.57753662 55.56347656 21.54931641 C55.64704581 24.44938076 55.69878774 27.34919116 55.75 30.25 C55.78351563 31.24902344 55.81703125 32.24804688 55.8515625 33.27734375 C55.93024391 39.21778986 55.8424431 43.1626735 51.5 47.625 C48.6194147 49.62584677 45.61215703 51.26423502 42.5 52.875 C41.69304687 53.308125 40.88609375 53.74125 40.0546875 54.1875 C37.87833774 55.35109294 35.6950131 56.49706545 33.5 57.625 C32.83693848 57.98980469 32.17387695 58.35460937 31.49072266 58.73046875 C27.82035477 60.3797486 24.42966594 60.27721435 20.5 59.625 C16.49444062 58.06387354 12.84350951 56.02125381 9.125 53.875 C8.14144531 53.33617187 7.15789062 52.79734375 6.14453125 52.2421875 C-2.26371479 47.52620819 -2.26371479 47.52620819 -4.5 43.625 C-4.93237305 41.05957031 -4.93237305 41.05957031 -5.01171875 38.203125 C-5.04716797 37.17832031 -5.08261719 36.15351563 -5.11914062 35.09765625 C-5.14169922 34.03417969 -5.16425781 32.97070312 -5.1875 31.875 C-5.22166016 30.79605469 -5.25582031 29.71710938 -5.29101562 28.60546875 C-5.37340663 25.94541623 -5.44258645 23.28568965 -5.5 20.625 C-6.61375 20.191875 -7.7275 19.75875 -8.875 19.3125 C-12.5 17.625 -12.5 17.625 -14.5 14.625 C-14.87109375 12.5390625 -14.87109375 12.5390625 -14.9375 10.25 C-14.97746094 9.49976563 -15.01742188 8.74953125 -15.05859375 7.9765625 C-13.17864728 0.06238225 -6.78438248 -0.1558434 0 0 Z " fill="#030302" transform="translate(343.5,168.375)"/>
<path d="M0 0 C-0.0030162 0.84587677 -0.00603241 1.69175354 -0.00914001 2.56326294 C-0.03152554 10.59424845 -0.01990966 18.62434666 0.02846622 26.65522957 C0.05216776 30.78261289 0.06341256 34.90919494 0.04467773 39.03662109 C0.02702914 43.03127355 0.04407485 47.02449789 0.08367729 51.01897812 C0.09286366 52.53131535 0.09022579 54.04377924 0.07469368 55.55606461 C0.05483564 57.70052657 0.07978465 59.84065472 0.11352539 61.98486328 C0.115746 63.1973172 0.11796661 64.40977112 0.12025452 65.65896606 C1.18801106 71.89649243 1.18801106 71.89649243 8 84 C-2.56 84 -13.12 84 -24 84 C-24.66 81.36 -25.32 78.72 -26 76 C-27.43796223 73.27058908 -27.43796223 73.27058908 -29.08837891 70.80541992 C-32.63958038 64.52769942 -32.78126307 59.2053779 -32.5859375 52.11328125 C-32.57744781 50.93025925 -32.56895813 49.74723724 -32.56021118 48.52836609 C-32.52690634 44.78877611 -32.45166379 41.0514266 -32.375 37.3125 C-32.34487108 34.76109908 -32.31750046 32.209664 -32.29296875 29.65820312 C-32.22719017 23.43805125 -32.12707211 17.21918574 -32 11 C-30.91750977 10.7417041 -29.83501953 10.4834082 -28.71972656 10.21728516 C-27.27662659 9.86648281 -25.83359641 9.51539329 -24.390625 9.1640625 C-23.67986816 8.99527588 -22.96911133 8.82648926 -22.23681641 8.65258789 C-16.12083995 7.15343637 -10.60139516 4.87903877 -5 2 C-1.10884354 0 -1.10884354 0 0 0 Z " fill="#FBBE43" transform="translate(387,368)"/>
<path d="M0 0 C10.23 0 20.46 0 31 0 C30.979375 3.9290625 30.95875 7.858125 30.9375 11.90625 C30.94474168 15.76232529 30.96563467 19.61810596 30.98779297 23.47412109 C31.00025565 26.13028062 30.98997877 28.78351327 30.96923828 31.43994141 C30.8543374 47.50792283 31.21857037 59.27030447 40 73 C29.77 73 19.54 73 9 73 C7.68 69.37 6.36 65.74 5 62 C4.1025708 60.54537354 3.2051416 59.09074707 2.28051758 57.59204102 C-0.9075087 52.08109291 -0.6326567 46.75329221 -0.48828125 40.52734375 C-0.48120651 39.3636879 -0.47413177 38.20003204 -0.46684265 37.00111389 C-0.43902649 33.3125673 -0.37630764 29.62558182 -0.3125 25.9375 C-0.28740081 23.42515225 -0.2645905 20.91278052 -0.24414062 18.40039062 C-0.19350892 12.2658531 -0.09562162 6.13465784 0 0 Z " fill="#FEC043" transform="translate(152,379)"/>
<path d="M0 0 C3.95403662 0.26360244 5.65370756 0.86143155 8.75 3.25 C11.64458391 7.59187586 11.29566853 11.15035711 10.75 16.25 C9.07424647 23.90411748 6.79565816 30.22324164 1.75 36.25 C-3.00564385 34.40845281 -4.08010667 31.33218629 -6.14453125 26.8984375 C-8.87775258 20.35029595 -10.49582288 13.35851878 -9.25 6.25 C-6.8125 3.1875 -6.8125 3.1875 -4.25 1.25 C-3.25 0.25 -3.25 0.25 0 0 Z " fill="#F9C866" transform="translate(29.25,340.75)"/>
<path d="M0 0 C2.50160818 1.87620613 3.61945652 3.23891303 5 6 C5.36206054 10.41713859 5.51432609 12.94898583 3.5625 16.9375 C-0.07746882 19.867231 -3.37396842 20.4321898 -8 20 C-13.39759036 17.20481928 -13.39759036 17.20481928 -15 14 C-15.5811138 6.91041162 -15.5811138 6.91041162 -13.125 3.0625 C-9.22537559 -0.72242957 -5.23375488 -0.69845483 0 0 Z " fill="#020200" transform="translate(279,79)"/>
</svg>
