<?xml version="1.0" encoding="UTF-8"?>
<svg version="1.1" xmlns="http://www.w3.org/2000/svg" width="512" height="512">
<path d="M0 0 C11.01980313 7.45651349 13.89961624 14.67177681 16.44140625 27.54296875 C16.69664062 28.9196875 16.69664062 28.9196875 16.95703125 30.32421875 C17.46492188 29.26203125 17.9728125 28.19984375 18.49609375 27.10546875 C24.16264788 15.40722252 29.58432184 4.80959879 41.45703125 -1.55078125 C49.01072156 -4.02933588 59.73246094 -4.3069003 67.0546875 -0.91015625 C75.2376275 4.39951324 80.77787298 10.4235509 83.70703125 19.69921875 C84.85034652 31.70402906 82.07523044 39.26904502 76.52099609 49.85888672 C73.53532968 55.7582565 72.09122941 61.82148261 70.95703125 68.32421875 C72.27695068 68.73389893 72.27695068 68.73389893 73.62353516 69.15185547 C78.85273442 70.99092203 83.50909904 73.74247108 88.33203125 76.44921875 C89.33492188 76.99320312 90.3378125 77.5371875 91.37109375 78.09765625 C99.62446703 82.72127374 107.18900899 87.97868406 110.89453125 97.01171875 C111.27480469 97.90246094 111.65507812 98.79320313 112.046875 99.7109375 C117.00449742 113.94548429 111.54764687 127.99450544 105.63671875 141.125 C100.65096999 150.62111218 93.80763386 155.38397771 83.95703125 159.32421875 C82.62747389 159.67230799 81.29465884 160.00855863 79.95703125 160.32421875 C79.95483141 161.26150708 79.95483141 161.26150708 79.95258713 162.21773052 C79.91530552 177.52199701 79.85601305 192.82601318 79.77312851 208.13009167 C79.7335579 215.53147362 79.70105518 222.93275264 79.68603516 230.33422852 C79.6729032 236.79601851 79.645651 243.25757988 79.60241818 249.71924096 C79.58005837 253.13102619 79.56410486 256.54253223 79.5651474 259.9543972 C79.55438467 277.12889803 79.43104764 294.40257028 73.3457489 310.69578552 C71.5328586 315.99186782 71.54582339 321.05085485 71.58813477 326.60449219 C71.58436829 327.69683167 71.58060181 328.78917114 71.57672119 329.91461182 C71.57031367 332.27332453 71.57059517 334.63206309 71.5769062 336.99077606 C71.58606026 340.73379108 71.57574184 344.4763098 71.56028748 348.21929932 C71.52535106 357.51622797 71.51785323 366.81312343 71.52038574 376.11010742 C71.52225493 383.9710385 71.50821409 391.83165655 71.47190666 399.69251251 C71.46114676 403.36222622 71.47317418 407.0314145 71.48573303 410.70111084 C71.46219266 426.14130473 70.66077084 439.53684636 60.95703125 452.32421875 C60.45937256 452.71593262 59.96171387 453.10764648 59.44897461 453.51123047 C56.63365059 455.79275067 55.14955033 457.35495099 54.42871094 460.98413086 C54.24853537 464.19254293 54.2223357 467.3611455 54.26953125 470.57421875 C54.31889244 482.40680182 53.45176985 492.42860484 44.95703125 501.32421875 C38.33103265 507.27571449 32.19876072 509.72728005 23.20703125 509.76171875 C22.50618408 509.76558594 21.80533691 509.76945313 21.08325195 509.7734375 C15.5860894 509.65202312 11.59126099 508.34026472 6.875 505.41796875 C4.8906781 504.07653044 4.8906781 504.07653044 1.95703125 504.32421875 C-0.02705764 505.15358315 -0.02705764 505.15358315 -2.04296875 506.26171875 C-9.83510606 510.37915494 -19.66648584 510.95612351 -28.14453125 508.3828125 C-32.89634649 506.0930405 -36.6048593 503.3690534 -40.04296875 499.32421875 C-40.74421875 498.56109375 -41.44546875 497.79796875 -42.16796875 497.01171875 C-47.75680604 489.00105197 -47.41794549 481.28458323 -47.23046875 471.82421875 C-47.21693359 470.52484375 -47.20339844 469.22546875 -47.18945312 467.88671875 C-47.15429209 464.69878463 -47.10507539 461.51172276 -47.04296875 458.32421875 C-47.66171875 458.040625 -48.28046875 457.75703125 -48.91796875 457.46484375 C-56.41599383 453.44016852 -60.49705005 443.03389346 -63.04296875 435.32421875 C-63.37296875 434.33421875 -63.70296875 433.34421875 -64.04296875 432.32421875 C-64.12864121 430.95829692 -64.16070522 429.58857017 -64.15649414 428.2199707 C-64.15637329 427.38792114 -64.15625244 426.55587158 -64.15612793 425.6986084 C-64.15101196 424.82869263 -64.145896 423.95877686 -64.140625 423.0625 C-64.13961792 422.25953491 -64.13861084 421.45656982 -64.13757324 420.62927246 C-64.13234392 417.63174002 -64.11838264 414.63422794 -64.10546875 411.63671875 C-64.08484375 404.93359375 -64.06421875 398.23046875 -64.04296875 391.32421875 C-83.84296875 391.32421875 -103.64296875 391.32421875 -124.04296875 391.32421875 C-124.25234442 403.33436148 -124.25234442 403.33436148 -124.4309082 415.3449707 C-124.63423941 426.28703819 -125.37876697 436.27998856 -130.79296875 446.07421875 C-131.2415625 446.9146875 -131.69015625 447.75515625 -132.15234375 448.62109375 C-134.04296875 451.32421875 -134.04296875 451.32421875 -135.7824707 452.76074219 C-138.87726842 455.3303645 -140.78828886 457.1167389 -141.63720703 461.14160156 C-141.81315906 464.46878782 -141.81582212 467.7435407 -141.73046875 471.07421875 C-141.53639816 483.52348775 -143.02917767 493.19450526 -151.8828125 502.4453125 C-159.79039849 509.32333937 -169.03073413 510.11594003 -179.06054688 509.57714844 C-182.87494662 509.09048364 -185.90197849 507.41502167 -189.125 505.41796875 C-191.1093219 504.07653044 -191.1093219 504.07653044 -194.04296875 504.32421875 C-196.02705764 505.15358315 -196.02705764 505.15358315 -198.04296875 506.26171875 C-205.83712422 510.38022136 -215.57018023 510.89694019 -224.07421875 508.453125 C-232.74487084 504.37203104 -238.47263755 498.1540701 -242.04296875 489.32421875 C-243.14182447 486.02765159 -243.16869088 483.55191725 -243.18359375 480.08203125 C-243.20292969 478.85097656 -243.22226563 477.61992187 -243.2421875 476.3515625 C-243.27593798 473.75796803 -243.2942629 471.16412524 -243.296875 468.5703125 C-243.32136719 467.33667969 -243.34585938 466.10304688 -243.37109375 464.83203125 C-243.38043945 463.7042627 -243.38978516 462.57649414 -243.39941406 461.41455078 C-244.23303291 457.41153586 -245.99554113 455.95459633 -249.04296875 453.32421875 C-255.76077154 445.68963346 -260.14145079 436.45070598 -260.19013977 426.18760681 C-260.19729507 425.14938278 -260.20445038 424.11115875 -260.21182251 423.04147339 C-260.21585587 421.34053024 -260.21585587 421.34053024 -260.2199707 419.60522461 C-260.2265419 418.40621017 -260.2331131 417.20719574 -260.23988342 415.97184753 C-260.25962698 411.99424996 -260.2712953 408.01669283 -260.28125 404.0390625 C-260.28530111 402.66257775 -260.28941813 401.2860932 -260.29360008 399.90960884 C-260.31265946 393.42920615 -260.32687895 386.94881478 -260.33521205 380.46838945 C-260.34493414 373.03312723 -260.37111719 365.59816673 -260.41171294 358.16301054 C-260.44212309 352.39112851 -260.4567049 346.61933159 -260.45999306 340.84737116 C-260.46231892 337.41328274 -260.4709475 333.97951615 -260.49645424 330.54551506 C-260.62042117 311.17791797 -259.67537876 293.39029563 -252.04296875 275.32421875 C-252.62264404 275.30963623 -253.20231934 275.29505371 -253.79956055 275.2800293 C-256.44384428 275.20523347 -259.08690877 275.10867977 -261.73046875 275.01171875 C-262.64248047 274.98916016 -263.55449219 274.96660156 -264.49414062 274.94335938 C-273.2698502 274.59233099 -273.2698502 274.59233099 -277.04296875 271.32421875 C-280.00749402 267.2953544 -280.4275303 264.36359799 -280.44140625 259.40625 C-280.44571152 258.42032112 -280.44571152 258.42032112 -280.45010376 257.41447449 C-280.45213789 256.0268772 -280.44665356 254.63925081 -280.43408203 253.25170898 C-280.41814587 251.15996685 -280.43388323 249.07019479 -280.453125 246.97851562 C-280.47446363 234.18543428 -278.28289627 224.11972824 -269.4140625 214.5703125 C-262.14312627 207.83921376 -253.29040717 204.96306519 -243.50390625 205.109375 C-233.74849698 205.96103771 -225.62344837 210.1951231 -219.16796875 217.44921875 C-214.04296875 223.57538154 -214.04296875 223.57538154 -214.04296875 227.32421875 C-213.24375 226.81632813 -212.44453125 226.3084375 -211.62109375 225.78515625 C-199.24641173 218.02919357 -187.149398 212.17406813 -173.04296875 208.32421875 C-172.13160156 208.07542969 -171.22023438 207.82664063 -170.28125 207.5703125 C-164.14322841 206.19238929 -157.93479908 206.06421161 -151.66796875 205.94921875 C-150.79881836 205.92303467 -149.92966797 205.89685059 -149.03417969 205.86987305 C-145.01322983 205.85933269 -142.59091219 206.02700521 -139.00390625 207.97265625 C-137.04296875 210.32421875 -137.04296875 210.32421875 -136.04296875 216.32421875 C-128.12296875 216.32421875 -120.20296875 216.32421875 -112.04296875 216.32421875 C-111.71296875 214.67421875 -111.38296875 213.02421875 -111.04296875 211.32421875 C-108.9779373 208.42026827 -107.46149704 206.62231527 -103.88671875 205.87109375 C-99.93954657 205.68689238 -97.55314465 206.04787347 -94.04296875 207.94921875 C-92.04296875 210.32421875 -92.04296875 210.32421875 -91.04296875 216.32421875 C-83.12296875 216.32421875 -75.20296875 216.32421875 -67.04296875 216.32421875 C-66.71296875 214.67421875 -66.38296875 213.02421875 -66.04296875 211.32421875 C-64.05258 208.60313279 -62.55208762 206.63499918 -59.13427734 205.93115234 C-56.97773027 205.83241398 -54.88536669 205.88654595 -52.73046875 206.01171875 C-51.61961914 206.04555664 -51.61961914 206.04555664 -50.48632812 206.08007812 C-48.67099518 206.13863725 -46.85671194 206.22830989 -45.04296875 206.32421875 C-45.0518512 205.4526564 -45.06073364 204.58109406 -45.06988525 203.68312073 C-45.15104659 195.34690978 -45.21143744 187.01083714 -45.25021744 178.67431736 C-45.27082676 174.39150797 -45.29863562 170.10903299 -45.34472656 165.82641602 C-45.61548903 139.96080079 -44.13608962 115.94202181 -36.5078125 91.015625 C-36.27433105 90.24742432 -36.04084961 89.47922363 -35.80029297 88.68774414 C-35.26920525 87.03027791 -34.69382461 85.38666248 -34.08642578 83.75561523 C-32.5525447 79.41562441 -31.79264001 77.18656444 -33.10546875 72.6640625 C-33.74484375 71.54128906 -34.38421875 70.41851562 -35.04296875 69.26171875 C-37.9957534 63.71714143 -40.20087475 58.30907628 -41.91796875 52.26171875 C-42.12035156 51.55974365 -42.32273437 50.85776855 -42.53125 50.13452148 C-45.79521266 38.41942792 -47.8305041 23.85208623 -42.48046875 12.51171875 C-39.66991039 7.80337682 -36.69609459 4.23966274 -32.04296875 1.32421875 C-31.42164063 0.91429687 -30.8003125 0.504375 -30.16015625 0.08203125 C-21.64021158 -4.61527665 -8.55131551 -4.65989469 0 0 Z " fill="#FDFDFD" transform="translate(339.04296875,2.67578125)"/>
<path d="M0 0 C11.01980313 7.45651349 13.89961624 14.67177681 16.44140625 27.54296875 C16.69664062 28.9196875 16.69664062 28.9196875 16.95703125 30.32421875 C17.46492188 29.26203125 17.9728125 28.19984375 18.49609375 27.10546875 C24.16264788 15.40722252 29.58432184 4.80959879 41.45703125 -1.55078125 C49.01072156 -4.02933588 59.73246094 -4.3069003 67.0546875 -0.91015625 C75.2376275 4.39951324 80.77787298 10.4235509 83.70703125 19.69921875 C84.85034652 31.70402906 82.07523044 39.26904502 76.52099609 49.85888672 C73.53532968 55.7582565 72.09122941 61.82148261 70.95703125 68.32421875 C72.27695068 68.73389893 72.27695068 68.73389893 73.62353516 69.15185547 C78.85273442 70.99092203 83.50909904 73.74247108 88.33203125 76.44921875 C89.33492188 76.99320312 90.3378125 77.5371875 91.37109375 78.09765625 C99.62446703 82.72127374 107.18900899 87.97868406 110.89453125 97.01171875 C111.27480469 97.90246094 111.65507812 98.79320313 112.046875 99.7109375 C117.00449742 113.94548429 111.54764687 127.99450544 105.63671875 141.125 C100.65096999 150.62111218 93.80763386 155.38397771 83.95703125 159.32421875 C82.62747389 159.67230799 81.29465884 160.00855863 79.95703125 160.32421875 C79.95483141 161.26150708 79.95483141 161.26150708 79.95258713 162.21773052 C79.91530552 177.52199701 79.85601305 192.82601318 79.77312851 208.13009167 C79.7335579 215.53147362 79.70105518 222.93275264 79.68603516 230.33422852 C79.6729032 236.79601851 79.645651 243.25757988 79.60241818 249.71924096 C79.58005837 253.13102619 79.56410486 256.54253223 79.5651474 259.9543972 C79.55438467 277.12889803 79.43104764 294.40257028 73.3457489 310.69578552 C71.5328586 315.99186782 71.54582339 321.05085485 71.58813477 326.60449219 C71.58436829 327.69683167 71.58060181 328.78917114 71.57672119 329.91461182 C71.57031367 332.27332453 71.57059517 334.63206309 71.5769062 336.99077606 C71.58606026 340.73379108 71.57574184 344.4763098 71.56028748 348.21929932 C71.52535106 357.51622797 71.51785323 366.81312343 71.52038574 376.11010742 C71.52225493 383.9710385 71.50821409 391.83165655 71.47190666 399.69251251 C71.46114676 403.36222622 71.47317418 407.0314145 71.48573303 410.70111084 C71.46219266 426.14130473 70.66077084 439.53684636 60.95703125 452.32421875 C60.45937256 452.71593262 59.96171387 453.10764648 59.44897461 453.51123047 C56.63365059 455.79275067 55.14955033 457.35495099 54.42871094 460.98413086 C54.24853537 464.19254293 54.2223357 467.3611455 54.26953125 470.57421875 C54.31889244 482.40680182 53.45176985 492.42860484 44.95703125 501.32421875 C38.33103265 507.27571449 32.19876072 509.72728005 23.20703125 509.76171875 C22.50618408 509.76558594 21.80533691 509.76945313 21.08325195 509.7734375 C15.5860894 509.65202312 11.59126099 508.34026472 6.875 505.41796875 C4.8906781 504.07653044 4.8906781 504.07653044 1.95703125 504.32421875 C-0.02705764 505.15358315 -0.02705764 505.15358315 -2.04296875 506.26171875 C-9.83510606 510.37915494 -19.66648584 510.95612351 -28.14453125 508.3828125 C-32.89634649 506.0930405 -36.6048593 503.3690534 -40.04296875 499.32421875 C-40.74421875 498.56109375 -41.44546875 497.79796875 -42.16796875 497.01171875 C-47.75680604 489.00105197 -47.41794549 481.28458323 -47.23046875 471.82421875 C-47.21693359 470.52484375 -47.20339844 469.22546875 -47.18945312 467.88671875 C-47.15429209 464.69878463 -47.10507539 461.51172276 -47.04296875 458.32421875 C-47.66171875 458.040625 -48.28046875 457.75703125 -48.91796875 457.46484375 C-56.41599383 453.44016852 -60.49705005 443.03389346 -63.04296875 435.32421875 C-63.37296875 434.33421875 -63.70296875 433.34421875 -64.04296875 432.32421875 C-64.12864121 430.95829692 -64.16070522 429.58857017 -64.15649414 428.2199707 C-64.15637329 427.38792114 -64.15625244 426.55587158 -64.15612793 425.6986084 C-64.15101196 424.82869263 -64.145896 423.95877686 -64.140625 423.0625 C-64.13961792 422.25953491 -64.13861084 421.45656982 -64.13757324 420.62927246 C-64.13234392 417.63174002 -64.11838264 414.63422794 -64.10546875 411.63671875 C-64.08484375 404.93359375 -64.06421875 398.23046875 -64.04296875 391.32421875 C-83.84296875 391.32421875 -103.64296875 391.32421875 -124.04296875 391.32421875 C-124.25234442 403.33436148 -124.25234442 403.33436148 -124.4309082 415.3449707 C-124.63423941 426.28703819 -125.37876697 436.27998856 -130.79296875 446.07421875 C-131.2415625 446.9146875 -131.69015625 447.75515625 -132.15234375 448.62109375 C-134.04296875 451.32421875 -134.04296875 451.32421875 -135.7824707 452.76074219 C-138.87726842 455.3303645 -140.78828886 457.1167389 -141.63720703 461.14160156 C-141.81315906 464.46878782 -141.81582212 467.7435407 -141.73046875 471.07421875 C-141.53639816 483.52348775 -143.02917767 493.19450526 -151.8828125 502.4453125 C-159.79039849 509.32333937 -169.03073413 510.11594003 -179.06054688 509.57714844 C-182.87494662 509.09048364 -185.90197849 507.41502167 -189.125 505.41796875 C-191.1093219 504.07653044 -191.1093219 504.07653044 -194.04296875 504.32421875 C-196.02705764 505.15358315 -196.02705764 505.15358315 -198.04296875 506.26171875 C-205.83712422 510.38022136 -215.57018023 510.89694019 -224.07421875 508.453125 C-232.74487084 504.37203104 -238.47263755 498.1540701 -242.04296875 489.32421875 C-243.14182447 486.02765159 -243.16869088 483.55191725 -243.18359375 480.08203125 C-243.20292969 478.85097656 -243.22226563 477.61992187 -243.2421875 476.3515625 C-243.27593798 473.75796803 -243.2942629 471.16412524 -243.296875 468.5703125 C-243.32136719 467.33667969 -243.34585938 466.10304688 -243.37109375 464.83203125 C-243.38043945 463.7042627 -243.38978516 462.57649414 -243.39941406 461.41455078 C-244.23303291 457.41153586 -245.99554113 455.95459633 -249.04296875 453.32421875 C-255.76077154 445.68963346 -260.14145079 436.45070598 -260.19013977 426.18760681 C-260.19729507 425.14938278 -260.20445038 424.11115875 -260.21182251 423.04147339 C-260.21585587 421.34053024 -260.21585587 421.34053024 -260.2199707 419.60522461 C-260.2265419 418.40621017 -260.2331131 417.20719574 -260.23988342 415.97184753 C-260.25962698 411.99424996 -260.2712953 408.01669283 -260.28125 404.0390625 C-260.28530111 402.66257775 -260.28941813 401.2860932 -260.29360008 399.90960884 C-260.31265946 393.42920615 -260.32687895 386.94881478 -260.33521205 380.46838945 C-260.34493414 373.03312723 -260.37111719 365.59816673 -260.41171294 358.16301054 C-260.44212309 352.39112851 -260.4567049 346.61933159 -260.45999306 340.84737116 C-260.46231892 337.41328274 -260.4709475 333.97951615 -260.49645424 330.54551506 C-260.62042117 311.17791797 -259.67537876 293.39029563 -252.04296875 275.32421875 C-252.62264404 275.30963623 -253.20231934 275.29505371 -253.79956055 275.2800293 C-256.44384428 275.20523347 -259.08690877 275.10867977 -261.73046875 275.01171875 C-262.64248047 274.98916016 -263.55449219 274.96660156 -264.49414062 274.94335938 C-273.2698502 274.59233099 -273.2698502 274.59233099 -277.04296875 271.32421875 C-280.00749402 267.2953544 -280.4275303 264.36359799 -280.44140625 259.40625 C-280.44571152 258.42032112 -280.44571152 258.42032112 -280.45010376 257.41447449 C-280.45213789 256.0268772 -280.44665356 254.63925081 -280.43408203 253.25170898 C-280.41814587 251.15996685 -280.43388323 249.07019479 -280.453125 246.97851562 C-280.47446363 234.18543428 -278.28289627 224.11972824 -269.4140625 214.5703125 C-262.14312627 207.83921376 -253.29040717 204.96306519 -243.50390625 205.109375 C-233.74849698 205.96103771 -225.62344837 210.1951231 -219.16796875 217.44921875 C-214.04296875 223.57538154 -214.04296875 223.57538154 -214.04296875 227.32421875 C-213.24375 226.81632813 -212.44453125 226.3084375 -211.62109375 225.78515625 C-199.24641173 218.02919357 -187.149398 212.17406813 -173.04296875 208.32421875 C-172.13160156 208.07542969 -171.22023438 207.82664063 -170.28125 207.5703125 C-164.14322841 206.19238929 -157.93479908 206.06421161 -151.66796875 205.94921875 C-150.79881836 205.92303467 -149.92966797 205.89685059 -149.03417969 205.86987305 C-144.88042026 205.85898455 -142.62308237 205.97152756 -139.00390625 208.171875 C-136.44069917 210.98527559 -136.04296875 212.52349359 -136.04296875 216.32421875 C-137.20328938 220.12749192 -138.0448465 222.56053091 -141.23828125 225.00390625 C-144.60932665 226.59083291 -147.07481035 226.69271363 -150.79296875 226.76171875 C-164.47709271 227.34224702 -176.93758853 230.89809789 -189.04296875 237.32421875 C-190.02523437 237.82566406 -191.0075 238.32710937 -192.01953125 238.84375 C-213.35890372 250.41430684 -227.92810329 269.34151556 -235.38671875 292.30078125 C-238.13580949 301.62805342 -239.19574477 310.08108695 -239.2199707 319.77050781 C-239.2265419 320.91599594 -239.2331131 322.06148407 -239.23988342 323.24168396 C-239.25955964 327.02440461 -239.27126557 330.80708569 -239.28125 334.58984375 C-239.28532553 335.88473473 -239.28940105 337.1796257 -239.29360008 338.5137558 C-239.31229042 344.66042591 -239.32686266 350.80707632 -239.33521205 356.95376897 C-239.34497836 364.02461347 -239.37129284 371.09514443 -239.41171294 378.16587853 C-239.44562099 384.3104061 -239.45736578 390.45480274 -239.46141624 396.59941864 C-239.46627852 399.20363239 -239.47788216 401.80784287 -239.49645424 404.41199493 C-239.52086816 408.06169954 -239.51987607 411.71058986 -239.51293945 415.36035156 C-239.53215454 416.96138985 -239.53215454 416.96138985 -239.55175781 418.59477234 C-239.49212729 427.23696007 -237.72244055 434.63680433 -231.85546875 441.19921875 C-225.29960235 447.07449733 -218.72925934 449.04097697 -209.96875 448.70703125 C-202.49764736 447.7295038 -196.01364583 443.96626 -191.04296875 438.32421875 C-187.07026478 432.17799894 -185.92012845 426.42392845 -185.91699219 419.14453125 C-185.91318542 417.91976074 -185.90937866 416.69499023 -185.90545654 415.43310547 C-185.90442932 414.11842285 -185.9034021 412.80374023 -185.90234375 411.44921875 C-185.89040848 409.37559896 -185.87504947 407.30202064 -185.85963821 405.22842407 C-185.82171767 400.12425455 -185.7903572 395.02034248 -185.79248047 389.91601562 C-185.79326828 386.35671259 -185.76988496 382.79827396 -185.73059845 379.23919678 C-185.71509152 377.23130085 -185.72546947 375.2232588 -185.73626709 373.21533203 C-185.60051007 363.08635933 -185.60051007 363.08635933 -182.71191406 359.99609375 C-178.96430922 357.64852716 -176.26136422 357.50649901 -172.04296875 358.32421875 C-169.02810929 359.23368942 -166.05205892 360.22255471 -163.07861328 361.25878906 C-136.53757985 370.50450838 -109.45726704 370.76465033 -81.70941162 370.82952881 C-77.25964864 370.84108849 -72.81026327 370.86462898 -68.36065865 370.90422058 C-66.30545158 370.91765729 -64.25077396 370.91365445 -62.19554138 370.90881348 C-60.32552208 370.9239801 -60.32552208 370.9239801 -58.41772461 370.93945312 C-57.32793808 370.94150757 -56.23815155 370.94356201 -55.11534119 370.94567871 C-51.51530923 371.38923048 -49.13047462 372.44056872 -46.04296875 374.32421875 C-43.89684481 377.54340467 -43.79307504 378.39133008 -43.78759766 382.09594727 C-43.78063873 383.06448135 -43.77367981 384.03301544 -43.76651001 385.03089905 C-43.76750702 386.07773361 -43.76850403 387.12456818 -43.76953125 388.203125 C-43.74922779 390.42643719 -43.72837675 392.64974444 -43.70703125 394.87304688 C-43.68451034 398.37284505 -43.66799274 401.87244736 -43.66210938 405.37231445 C-43.65252677 408.75377773 -43.6186629 412.13436105 -43.58203125 415.515625 C-43.58959946 417.06462242 -43.58959946 417.06462242 -43.59732056 418.64491272 C-43.4821029 427.25023691 -41.70018566 434.6650712 -35.85546875 441.19921875 C-29.29865627 447.07534519 -22.73296641 449.03415505 -13.97265625 448.7109375 C-6.80701063 447.76507228 -1.093925 444.375175 3.95703125 439.32421875 C8.51466801 433.05182757 10.23063992 426.2539044 10.1171875 418.52197266 C10.10478027 417.21016022 10.09237305 415.89834778 10.07958984 414.54678345 C10.06917664 413.85519764 10.05876343 413.16361183 10.04803467 412.45106888 C10.00904232 409.50950048 10.00728217 406.5682607 10.00323486 403.62647057 C9.99553502 398.16508614 9.97394592 392.70487234 9.88525391 387.24414062 C9.82473379 383.42929589 9.81353104 379.61697353 9.83395386 375.80173874 C9.83268522 374.35768209 9.81362857 372.91351737 9.77566528 371.46995926 C9.49224379 360.2415135 9.49224379 360.2415135 13.11157227 355.50408936 C15.62405479 353.22370697 18.17764789 351.26481776 20.95703125 349.32421875 C22.36711638 348.13254762 23.76586579 346.9271038 25.14453125 345.69921875 C26.11326172 344.84457031 26.11326172 344.84457031 27.1015625 343.97265625 C27.71386719 343.42867188 28.32617188 342.8846875 28.95703125 342.32421875 C29.79814453 341.60105469 29.79814453 341.60105469 30.65625 340.86328125 C47.3479884 325.53333969 56.71807781 300.44705713 58.15413284 278.28202057 C58.23931066 275.10771636 58.26962959 271.93813214 58.27587891 268.76269531 C58.28592453 267.57100739 58.29597015 266.37931946 58.30632019 265.15151978 C58.33693787 261.25596552 58.35412749 257.36047929 58.37109375 253.46484375 C58.38875812 250.74670988 58.40930362 248.02859979 58.42977905 245.31048584 C58.47632328 238.91479443 58.51318415 232.51908642 58.54645193 226.12331367 C58.58484688 218.83412428 58.6342107 211.5450216 58.68443608 204.25590563 C58.78739304 189.27874097 58.87676969 174.30152354 58.95703125 159.32421875 C58.34706299 159.35040283 57.73709473 159.37658691 57.10864258 159.40356445 C54.32920367 159.50787594 51.55017686 159.57264857 48.76953125 159.63671875 C47.3299707 159.69956055 47.3299707 159.69956055 45.86132812 159.76367188 C38.69987581 159.88757243 38.69987581 159.88757243 34.82275391 156.94726562 C32.91492658 154.26502318 32.27495075 153.06639143 32.33203125 149.82421875 C32.31269531 148.7259375 32.31269531 148.7259375 32.29296875 147.60546875 C33.32629369 144.05569366 35.07964214 142.61402799 37.95703125 140.32421875 C40.88899112 139.63447534 43.73020555 139.6964115 46.73046875 139.7578125 C47.57243805 139.75217789 48.41440735 139.74654327 49.28189087 139.74073792 C51.96584063 139.72431648 54.64813948 139.73979468 57.33203125 139.76171875 C60.00863011 139.77836307 62.68413149 139.7873302 65.36074829 139.77198792 C67.02251562 139.76277626 68.68451636 139.77164279 70.34603882 139.80162048 C76.01653047 139.77505302 79.27458844 138.5525901 83.95703125 135.32421875 C85.43400515 133.6260363 85.43400515 133.6260363 86.14453125 131.69921875 C86.44230469 131.00183594 86.74007813 130.30445313 87.046875 129.5859375 C87.34722656 128.83957031 87.64757812 128.09320313 87.95703125 127.32421875 C88.32957031 126.54691406 88.70210938 125.76960937 89.0859375 124.96875 C91.80394124 119.01187072 93.5090017 112.84056671 91.95703125 106.32421875 C88.61864665 101.75295989 85.70912675 99.25437913 80.609375 96.625 C80.00407455 96.30774963 79.39877411 95.99049927 78.77513123 95.66363525 C76.82099913 94.64246648 74.85809249 93.63961679 72.89453125 92.63671875 C70.86314713 91.58145547 68.83405454 90.52186839 66.80493164 89.46226501 C65.45242015 88.75659934 64.09906762 88.05254329 62.74487305 87.35011292 C56.05246454 83.87482645 49.46275517 80.22161987 42.89819336 76.51098633 C41.79423218 75.89453247 41.79423218 75.89453247 40.66796875 75.265625 C40.04196777 74.91185791 39.4159668 74.55809082 38.77099609 74.19360352 C32.77476133 71.31976879 25.9264184 72.02757111 19.42285156 71.97412109 C17.95263804 71.9575982 16.48250364 71.93035588 15.01269531 71.89208984 C4.09295211 71.40045852 4.09295211 71.40045852 -5.57885742 75.85522461 C-9.88878907 80.17952988 -12.02896128 85.19819594 -13.98046875 90.88671875 C-14.23280273 91.61487793 -14.48513672 92.34303711 -14.74511719 93.09326172 C-16.71750888 98.97455263 -18.33111113 104.92230066 -19.79296875 110.94921875 C-20.09062134 112.16266968 -20.09062134 112.16266968 -20.39428711 113.40063477 C-23.45924937 126.62967811 -24.33297282 139.60411438 -24.347929 153.12860489 C-24.35165466 155.83651795 -24.36853831 158.54408454 -24.38868713 161.25192261 C-24.4435685 168.93773991 -24.47493121 176.62360147 -24.49926758 184.30957031 C-24.51513766 189.04077966 -24.54532303 193.77172911 -24.58403206 198.5028038 C-24.59565731 200.29610314 -24.60161219 202.08944878 -24.60171318 203.8827858 C-24.60190521 206.38063149 -24.6201612 208.87775488 -24.64233398 211.37548828 C-24.63775681 212.11005753 -24.63317963 212.84462677 -24.62846375 213.60145569 C-24.69072882 218.01307947 -25.31172407 220.82780641 -28.04296875 224.32421875 C-32.76938343 227.47516187 -37.82233174 226.69617301 -43.38476562 226.69482422 C-45.40450875 226.69918966 -47.42205084 226.73549451 -49.44140625 226.7734375 C-50.72015625 226.77730469 -51.99890625 226.78117188 -53.31640625 226.78515625 C-55.07090088 226.79748291 -55.07090088 226.79748291 -56.86083984 226.81005859 C-60.67916858 226.22708528 -62.31301078 225.00231652 -65.04296875 222.32421875 C-66.49553875 219.39779567 -67.02602599 216.58852448 -67.04296875 213.32421875 C-65.40374325 210.04576774 -64.3535066 207.97948768 -61.04296875 206.32421875 C-58.32536767 206.25240054 -55.63437487 206.23122369 -52.91796875 206.26171875 C-52.16386719 206.26623047 -51.40976562 206.27074219 -50.6328125 206.27539062 C-48.76949748 206.28718376 -46.9062232 206.30511933 -45.04296875 206.32421875 C-45.0518512 205.4526564 -45.06073364 204.58109406 -45.06988525 203.68312073 C-45.15104659 195.34690978 -45.21143744 187.01083714 -45.25021744 178.67431736 C-45.27082676 174.39150797 -45.29863562 170.10903299 -45.34472656 165.82641602 C-45.61548903 139.96080079 -44.13608962 115.94202181 -36.5078125 91.015625 C-36.27433105 90.24742432 -36.04084961 89.47922363 -35.80029297 88.68774414 C-35.26920525 87.03027791 -34.69382461 85.38666248 -34.08642578 83.75561523 C-32.5525447 79.41562441 -31.79264001 77.18656444 -33.10546875 72.6640625 C-33.74484375 71.54128906 -34.38421875 70.41851562 -35.04296875 69.26171875 C-37.9957534 63.71714143 -40.20087475 58.30907628 -41.91796875 52.26171875 C-42.12035156 51.55974365 -42.32273437 50.85776855 -42.53125 50.13452148 C-45.79521266 38.41942792 -47.8305041 23.85208623 -42.48046875 12.51171875 C-39.66991039 7.80337682 -36.69609459 4.23966274 -32.04296875 1.32421875 C-31.42164063 0.91429687 -30.8003125 0.504375 -30.16015625 0.08203125 C-21.64021158 -4.61527665 -8.55131551 -4.65989469 0 0 Z " fill="#010101" transform="translate(339.04296875,2.67578125)"/>
<path d="M0 0 C0.33 0 0.66 0 1 0 C1.06965599 10.03172633 1.12289034 20.06339467 1.15543652 30.09531403 C1.1710608 34.75405957 1.19223966 39.41263906 1.22631836 44.07128906 C1.25902763 48.57113771 1.27687735 53.07082712 1.28463173 57.57078552 C1.29015453 59.28350835 1.3009391 60.99622293 1.31719017 62.70887756 C1.33911868 65.11665358 1.34196057 67.52378007 1.34057617 69.93164062 C1.351362 70.63223602 1.36214783 71.33283142 1.3732605 72.05465698 C1.3230789 80.17451776 -1.57369167 86.34463176 -7.02734375 92.23828125 C-12.87084272 97.45693083 -19.30456393 99.14519691 -27 99 C-26.59007812 98.17757812 -26.18015625 97.35515625 -25.7578125 96.5078125 C-25.21898437 95.39148438 -24.68015625 94.27515625 -24.125 93.125 C-23.59132813 92.03445313 -23.05765625 90.94390625 -22.5078125 89.8203125 C-18.7284329 80.96719096 -18.82297916 72.00859297 -19.078125 62.5390625 C-19.10653798 59.93753753 -19.13116084 57.33596889 -19.15234375 54.734375 C-19.18787476 50.67565599 -19.24299866 46.62036526 -19.37353516 42.56347656 C-20.10735749 18.69576306 -20.10735749 18.69576306 -14.93945312 12.65136719 C-12.59640912 10.46396908 -10.14735503 8.72837478 -7.40917969 7.07177734 C-4.03988582 5.02423883 -2.29002075 3.15102977 0 0 Z " fill="#E5E7ED" transform="translate(388,353)"/>
<path d="M0 0 C3.14710574 0.63973515 6.29243659 1.28780498 9.4375 1.9375 C10.33533203 2.11990234 11.23316406 2.30230469 12.15820312 2.49023438 C13.01220703 2.66748047 13.86621094 2.84472656 14.74609375 3.02734375 C15.53685303 3.18968506 16.3276123 3.35202637 17.14233398 3.51928711 C19 4 19 4 20 5 C20.12607742 7.70646195 20.18870061 10.3859306 20.203125 13.09375 C20.20882507 13.9144397 20.21452515 14.73512939 20.22039795 15.58068848 C20.22986894 17.32591456 20.23639022 19.0711587 20.24023438 20.81640625 C20.24985905 23.46126734 20.28082724 26.10532423 20.3125 28.75 C20.31903814 30.44791207 20.32428542 32.14582969 20.328125 33.84375 C20.3404718 34.62536499 20.3528186 35.40697998 20.36553955 36.21228027 C20.33036312 45.08382219 17.70637027 53.10153298 11.46875 59.59375 C6.39195044 64.30132778 1.01931811 67.14504445 -6 67.1875 C-6.99 67.125625 -7.98 67.06375 -9 67 C-8.67386719 66.32195312 -8.34773437 65.64390625 -8.01171875 64.9453125 C-7.57472656 64.01460938 -7.13773438 63.08390625 -6.6875 62.125 C-6.25824219 61.22007812 -5.82898438 60.31515625 -5.38671875 59.3828125 C-2.02288161 51.176945 -0.54761413 43.82458754 -0.48828125 34.9609375 C-0.47033005 33.95406891 -0.45237885 32.94720032 -0.43388367 31.90982056 C-0.3802187 28.73158814 -0.34602647 25.55350204 -0.3125 22.375 C-0.27928821 20.20440691 -0.24479505 18.03383302 -0.20898438 15.86328125 C-0.1245182 10.57565225 -0.05598542 5.28800322 0 0 Z " fill="#E1E3E9" transform="translate(174,385)"/>
<path d="M0 0 C2.1640625 0.59375 2.1640625 0.59375 4.7265625 2.65625 C6.5461307 6.37449807 6.69880847 9.55703125 6.1640625 13.59375 C5.17103803 16.38429616 3.80205847 18.89177809 2.3515625 21.46875 C-0.7994318 27.37341532 -3.32178894 33.03243956 -4.8359375 39.59375 C-5.36960937 39.41199219 -5.90328125 39.23023438 -6.453125 39.04296875 C-12.21185533 37.1001445 -18.00587672 35.30990568 -23.8359375 33.59375 C-23.32830921 27.68680259 -22.09649787 22.97713142 -19.6484375 17.59375 C-19.33745117 16.89749512 -19.02646484 16.20124023 -18.70605469 15.48388672 C-14.68255034 6.74309981 -10.67995806 -1.53067803 0 0 Z " fill="#E2E4EA" transform="translate(395.8359375,20.40625)"/>
<path d="M0 0 C3.49406769 1.66762322 4.82670681 2.74006022 7 6 C7.54775562 8.71296763 8.02024454 11.39243188 8.4375 14.125 C9.44987323 20.3542816 10.84649514 26.05222467 13 32 C13 32.99 13 33.98 13 35 C12.14728516 35.14695312 12.14728516 35.14695312 11.27734375 35.296875 C7.18288406 36.08979207 3.71664531 36.95616922 0.125 39.125 C-3 41 -3 41 -6 41 C-9.34026272 32.38161221 -12.00580127 24.24336117 -13 15 C-13.09539062 14.236875 -13.19078125 13.47375 -13.2890625 12.6875 C-13.56760901 8.81716957 -13.00080931 6.52700542 -10.625 3.5625 C-6.93966924 -0.03508479 -5.10373179 -0.40029269 0 0 Z " fill="#E1E3E9" transform="translate(327,20)"/>
<path d="M0 0 C3.19026198 2.10267267 4.88874348 3.44792091 6.75 6.8125 C7.57440161 11.84303225 7.31768467 15.6561053 5.0625 20.25 C2.25971815 23.3557853 -0.03309811 25.5606558 -4.34106445 26.05004883 C-6.75512457 26.10735215 -9.14897515 26.07429161 -11.5625 26 C-12.81643555 25.97969727 -12.81643555 25.97969727 -14.09570312 25.95898438 C-16.14741498 25.92381217 -18.19879275 25.87001048 -20.25 25.8125 C-20.35852923 22.93647545 -20.4375515 20.06459168 -20.5 17.1875 C-20.53351563 16.37925781 -20.56703125 15.57101563 -20.6015625 14.73828125 C-20.69103323 9.23583163 -19.9165666 6.18002786 -16.25 1.8125 C-11.25059415 -2.35367154 -5.82611284 -2.128772 0 0 Z " fill="#E4E6EC" transform="translate(100.25,230.1875)"/>
<path d="M0 0 C6.6 0 13.2 0 20 0 C20.12375 3.5578125 20.12375 3.5578125 20.25 7.1875 C20.28641602 7.92508545 20.32283203 8.6626709 20.36035156 9.42260742 C20.41894961 12.92195025 20.05898429 14.90120793 18.2578125 17.91796875 C15.22010637 20.71917527 13.27032627 21.02182773 9.2578125 21.2734375 C5.28255515 20.79200495 3.65659085 18.92224994 1 16 C-0.7213061 10.83608171 -0.05353552 5.40708764 0 0 Z " fill="#B1B7C9" transform="translate(156,471)"/>
<path d="M0 0 C6.6 0 13.2 0 20 0 C20.12375 3.5578125 20.12375 3.5578125 20.25 7.1875 C20.28641602 7.92508545 20.32283203 8.6626709 20.36035156 9.42260742 C20.41894961 12.92195025 20.05898429 14.90120793 18.2578125 17.91796875 C15.22010637 20.71917527 13.27032627 21.02182773 9.2578125 21.2734375 C5.28255515 20.79200495 3.65659085 18.92224994 1 16 C-0.7213061 10.83608171 -0.05353552 5.40708764 0 0 Z " fill="#B1B7C9" transform="translate(116,471)"/>
<path d="M0 0 C6.6 0 13.2 0 20 0 C20.103125 2.371875 20.20625 4.74375 20.3125 7.1875 C20.38078003 8.29387817 20.38078003 8.29387817 20.45043945 9.42260742 C20.53277652 13.35619453 20.11951477 14.85396972 17.60546875 17.92578125 C14.8430944 20.12491285 13.71023659 20.90314956 10.25 21.375 C5.69721294 20.84967842 4.22094518 19.22094518 1 16 C-0.7213061 10.83608171 -0.05353552 5.40708764 0 0 Z " fill="#B2B7CA" transform="translate(352,471)"/>
<path d="M0 0 C6.6 0 13.2 0 20 0 C20.103125 2.371875 20.20625 4.74375 20.3125 7.1875 C20.38078003 8.29387817 20.38078003 8.29387817 20.45043945 9.42260742 C20.53277652 13.35619453 20.11951477 14.85396972 17.60546875 17.92578125 C14.8430944 20.12491285 13.71023659 20.90314956 10.25 21.375 C5.69721294 20.84967842 4.22094518 19.22094518 1 16 C-0.7213061 10.83608171 -0.05353552 5.40708764 0 0 Z " fill="#B2B8CA" transform="translate(312,471)"/>
<path d="M0 0 C2.87029869 1.79393668 4.49131638 2.98263276 6 6 C6.44408691 9.9079648 6.13704844 11.74548146 4.25 15.25 C1.25521957 18.91028719 -0.30267103 19.78331971 -4.9375 20.375 C-8.94227221 19.88461973 -10.33266083 19.03780294 -13 16 C-14.30181261 13.00412558 -14.98301314 10.27280103 -15 7 C-11.4453395 -0.10932099 -7.49895287 -0.97136695 0 0 Z " fill="#020202" transform="translate(242,209)"/>
<path d="M0 0 C4.99503071 0.4913145 6.31841769 1.88091769 9.8125 5.375 C11.26397903 8.27795805 11.18489025 10.14761779 10.8125 13.375 C8.99939858 16.30437654 6.93954101 18.81147949 3.8125 20.375 C0.5 20.75 0.5 20.75 -3.1875 20.375 C-7.06699018 17.17020377 -8.99576445 15.06866403 -9.5625 10.0625 C-9.09536625 5.46901813 -7.66709782 4.26052015 -4.1875 1.375 C-3.1875 0.375 -3.1875 0.375 0 0 Z " fill="#070707" transform="translate(366.1875,96.625)"/>
</svg>
