<?xml version="1.0" encoding="UTF-8"?>
<svg version="1.1" xmlns="http://www.w3.org/2000/svg" width="512" height="512">
<path d="M0 0 C3.49898352 1.13716964 6.71814462 2.65875256 10 4.3125 C23.32322845 10.83880019 35.03082198 13.09288947 49.8046875 13.28125 C50.92384552 13.29965942 52.04300354 13.31806885 53.19607544 13.33703613 C56.75566651 13.3954577 60.31530398 13.44839622 63.875 13.5 C68.5599864 13.56811979 73.24483844 13.6418188 77.9296875 13.71875 C78.99041473 13.73232544 80.05114197 13.74590088 81.14401245 13.7598877 C86.77755239 13.85272028 92.28109769 14.15577009 97.86911011 14.89604187 C101.41386756 15.0689773 104.07752341 13.78137089 107.25 12.3125 C108.55120683 11.74497857 109.854653 11.18256708 111.16015625 10.625 C111.80484863 10.3465625 112.44954102 10.068125 113.11376953 9.78125 C144.94985365 -3.40480607 180.77653898 0.72251133 212 13 C212.61502884 13.35626465 213.23005768 13.7125293 213.86372375 14.07958984 C216.41601473 15.17923908 217.77450754 15.04169694 220.50439453 14.64038086 C226.32416509 13.91764557 232.07012943 13.81225919 237.9296875 13.75390625 C240.21224351 13.72097393 242.4947955 13.68776218 244.77734375 13.65429688 C248.32728405 13.60697415 251.87720735 13.56247558 255.42724609 13.52319336 C258.88655362 13.48314731 262.34555415 13.43170037 265.8046875 13.37890625 C267.37088333 13.36628502 267.37088333 13.36628502 268.96871948 13.35340881 C278.33537141 13.19875016 287.69393081 12.30911907 296.4375 8.75 C297.51515625 8.31816406 298.5928125 7.88632813 299.703125 7.44140625 C303.08977917 5.9607482 306.37729475 4.33094697 309.6875 2.6875 C314.9472322 0.2325343 320.23202074 -1.81772586 326 0 C329.33144493 2.6765455 330.84195598 4.14692914 331.63110352 8.40649414 C331.63037842 9.68645264 331.62965332 10.96641113 331.62890625 12.28515625 C331.63131821 12.98209091 331.63373016 13.67902557 331.63621521 14.39707947 C331.63523856 15.87049042 331.62188786 17.34393889 331.59692383 18.81713867 C331.56296126 21.03241333 331.57618115 23.24361079 331.59570312 25.45898438 C331.58550519 36.5462466 329.91277396 46.45958226 323.5625 55.875 C323.00691406 56.71804687 322.45132812 57.56109375 321.87890625 58.4296875 C319.70483552 61.4037801 317.38551771 64.19302719 315 67 C315.556875 67.7528125 316.11375 68.505625 316.6875 69.28125 C327.97088542 84.98650268 342.13565626 107.93179994 339 128 C336.6875 131.1875 336.6875 131.1875 334 133 C333.01 133 332.02 133 331 133 C331.08378906 133.88300781 331.16757812 134.76601562 331.25390625 135.67578125 C331.89891577 143.27709596 332.00363565 150.43413122 331 158 C331.78761719 158.29648438 332.57523437 158.59296875 333.38671875 158.8984375 C336.50216041 160.211673 337.48903374 160.97806748 339 164 C339.50375038 168.53375345 339.60448611 170.84140162 337.5 174.875 C335 177 335 177 331.11328125 177.55078125 C328.39003738 178.1822222 327.31198604 178.57139946 325.64794922 180.85742188 C324.51295366 183.30806257 323.57330698 185.76130003 322.6875 188.3125 C322.0487024 190.01810244 321.40685583 191.72256658 320.76171875 193.42578125 C320.4673291 194.2247583 320.17293945 195.02373535 319.86962891 195.84692383 C318.83675381 198.40417409 317.44599584 200.65757683 316 203 C316.27225477 205.38222923 316.93123301 206.86246601 318 209 C318.72819582 212.70166209 318.95251359 214.42681408 318 218 C314.76480764 222.74685746 310.9744935 226.86624735 307 231 C306.30261719 231.74121094 305.60523438 232.48242188 304.88671875 233.24609375 C301.80190961 236.42666193 298.61264901 239.41953642 295 242 C294.34 242 293.68 242 293 242 C298.80196117 270.78577226 305.64230318 299.2840302 312.75018215 327.76949978 C313.31161981 330.01959215 313.87238232 332.26985202 314.43309021 334.52012634 C315.12717107 337.3053214 315.82477548 340.08959861 316.52479553 342.87330627 C316.83630051 344.12006638 317.14780548 345.36682648 317.46875 346.65136719 C317.87770508 348.28002716 317.87770508 348.28002716 318.29492188 349.94158936 C324.65178158 377.51567897 318.36141548 406.20824217 304.11816406 430.21386719 C297.89617785 440.15274298 289.79939315 450.46707123 280 457 C279.55558989 459.41726601 279.55558989 459.41726601 279.62890625 462.2421875 C279.61472656 463.30300537 279.60054688 464.36382324 279.5859375 465.45678711 C279.57820313 466.58479736 279.57046875 467.71280762 279.5625 468.875 C279.21157094 482.38672228 278.2753159 491.72776526 268.44140625 501.8046875 C261.59237222 507.9633389 254.40327903 512.65508197 244.96484375 512.52734375 C238.81494066 511.43348747 233.40331798 508.00789238 228 505 C226.6709954 504.32474524 225.33986832 503.65343332 224 503 C223.43152344 503.39832031 222.86304688 503.79664063 222.27734375 504.20703125 C214.52940406 509.52323027 207.66026535 513.6991105 198 512 C187.09530605 507.87464289 179.75920215 502.13064475 174 492 C173.34 490.35 172.68 488.7 172 487 C162.76 487 153.52 487 144 487 C142.35 490.3 140.7 493.6 139 497 C134.17775374 504.23336939 126.18831067 509.22252502 118 512 C109.54630589 513.5237161 103.13028473 510.29698977 96 506 C94.64910468 505.02385471 93.30837599 504.03243888 92 503 C88.74082623 504.59869424 85.55759926 506.31678854 82.375 508.0625 C75.79991914 511.66733656 71.60761298 512.96514493 64 512 C54.08878671 508.70464736 45.49371741 502.19554281 40.5625 492.875 C39.75390625 491.1171875 39.75390625 491.1171875 39 489 C38.63519531 488.01773437 38.27039063 487.03546875 37.89453125 486.0234375 C36.6808843 481.70888533 36.9791048 477.49809563 37.08007812 473.05322266 C37.59647757 462.57022408 37.59647757 462.57022408 33.5859375 453.3046875 C30.66465018 450.512351 27.3018778 448.31534114 24 446 C5.40025585 426.85150563 -4.06878998 399.61693507 -4.3125 373.3125 C-4.34150391 372.31927734 -4.37050781 371.32605469 -4.40039062 370.30273438 C-4.55230843 351.59347211 1.66448762 332.9696777 6.25753784 315.01086426 C12.44836071 290.79563023 18.19867945 266.53326013 23 242 C22.39800781 241.71656738 21.79601562 241.43313477 21.17578125 241.14111328 C1.27519038 230.70402153 -13.3199106 203.48527037 -20 183 C-29.51575777 150.70882199 -27.57203905 116.82990512 -11.8359375 86.77685547 C-8.00165361 79.87165298 -3.62809966 73.39504489 1 67 C-0.2684375 65.63875 -0.2684375 65.63875 -1.5625 64.25 C-12.1043885 51.8595339 -15.55431682 39.26291868 -15.50097656 23.25512695 C-15.49999267 21.17198057 -15.54200534 19.09239394 -15.5859375 17.00976562 C-15.69434749 5.95740062 -15.69434749 5.95740062 -13.09375 2.05078125 C-8.62984719 -0.90824524 -5.20317902 -0.931445 0 0 Z " fill="#020101" transform="translate(99,0)"/>
<path d="M0 0 C0.53955322 0.13929932 1.07910645 0.27859863 1.63500977 0.42211914 C12.86325386 2.90079662 24.46111176 2.38371492 35.90014648 2.45629883 C49.96094694 2.56249294 62.48539426 3.07988486 75.1875 9.75 C75.86675537 10.09925537 76.54601074 10.44851074 77.24584961 10.80834961 C82.64972569 13.66041325 87.45312524 16.90020288 92 21 C92.57492188 21.48339844 93.14984375 21.96679688 93.7421875 22.46484375 C100.10028771 28.22229394 104.51005375 35.76900042 109 43 C109.67240723 44.0818457 109.67240723 44.0818457 110.35839844 45.18554688 C111.67960703 47.33954615 112.97031243 49.50861998 114.25 51.6875 C114.65718262 52.35837646 115.06436523 53.02925293 115.48388672 53.72045898 C118.15819906 58.40378731 118.15819906 58.40378731 117.375 61.35546875 C116 63 116 63 113.75 64.625 C107.48441813 70.03618435 103.46441979 78.23699699 102.6640625 86.4453125 C102.49516227 102.35571374 107.7569469 115.09779801 118.59765625 126.75 C127.26062782 134.8694201 127.26062782 134.8694201 138 139.125 C147.16142457 137.88539921 156.45254798 128.25578717 162.06640625 121.6015625 C170.69532616 109.99174298 174.21944489 98.43009783 173 84 C171.27437605 74.5090683 165.66332496 66.65626366 158 61 C159.49149789 55.80013304 161.81407082 51.48609139 164.5625 46.875 C165.00577637 46.12871338 165.44905273 45.38242676 165.90576172 44.61352539 C178.18298749 24.26147775 193.11104962 10.51065091 216.23503113 3.65670776 C220.62847046 2.61322198 224.90034655 2.55917577 229.3984375 2.55859375 C230.8327562 2.53878197 230.8327562 2.53878197 232.29605103 2.51856995 C235.32239734 2.47806952 238.34844623 2.45613165 241.375 2.4375 C258.80409424 2.4900293 258.80409424 2.4900293 276 0 C287.85838025 13.69894738 294.83558246 28.60632649 299.54052734 45.99804688 C300.65030908 50.0888404 301.48430809 52.46088917 305 55 C306.99138613 55.38143466 308.99181505 55.72017095 311 56 C311.80542989 64.48799189 312.12298921 72.53438902 311 81 C311.78761719 81.29648438 312.57523437 81.59296875 313.38671875 81.8984375 C316.50216041 83.211673 317.48903374 83.97806748 319 87 C319.50375038 91.53375345 319.60448611 93.84140162 317.5 97.875 C315 100 315 100 311.109375 100.55859375 C308.4112879 101.1852858 307.31842303 101.56496152 305.6640625 103.82519531 C304.54478406 106.24511676 303.62088809 108.66760423 302.75 111.1875 C302.12404479 112.87007796 301.4938905 114.55110024 300.859375 116.23046875 C300.55966797 117.03661621 300.25996094 117.84276367 299.95117188 118.67333984 C298.59531212 121.98990644 296.86785501 124.9461397 295 128 C294.484375 127.835 293.96875 127.67 293.4375 127.5 C290.10784527 126.8169939 287.39545558 126.64258362 284 127 C280.73908951 129.92467913 277.93104316 133.2027646 275.05786133 136.50317383 C259.16760832 154.48902333 236.84137342 166.55368987 213 170 C208.19100037 170.27927042 203.39298655 170.27358044 198.5769043 170.25878906 C197.14826276 170.26150471 195.71962263 170.26506885 194.29098511 170.26940918 C190.43748611 170.27846971 186.5840951 170.27501462 182.7305944 170.26865101 C178.67812564 170.26355504 174.62566557 170.26829267 170.57319641 170.27142334 C163.76696123 170.27505381 156.96076957 170.27028938 150.15454102 170.26074219 C142.31564165 170.24987255 134.47684646 170.25337608 126.63794965 170.264395 C119.88005461 170.27350988 113.1221907 170.27473233 106.36429149 170.26951766 C102.34038993 170.26641925 98.3165371 170.26592914 94.29263878 170.27259064 C90.50453642 170.27842445 86.71656649 170.27425847 82.92847824 170.26280212 C80.89738389 170.25895227 78.86627816 170.26479029 76.83518982 170.27105713 C52.24965127 170.15926657 29.52740703 162.40803575 11 146 C10.34257812 145.484375 9.68515625 144.96875 9.0078125 144.4375 C-9.2751763 129.75236843 -22.12138645 104.59871868 -24.7890625 81.44921875 C-26.67937061 50.53918063 -20.43139518 23.94081689 0 0 Z " fill="#FEF2D9" transform="translate(119,77)"/>
<path d="M0 0 C29.7 0 59.4 0 90 0 C90 14.52 90 29.04 90 44 C90.98287866 54.34992548 90.98287866 54.34992548 92.55126953 64.52392578 C93.02231923 67.12315647 93.41931429 69.72718878 93.80859375 72.33984375 C98.53156114 102.65255924 110.14761707 131.29835332 125 158 C125.67683152 159.32820229 126.34955917 160.65867642 127 162 C125.10807525 162.98669759 123.21128022 163.9640602 121.3125 164.9375 C120.25675781 165.48277344 119.20101562 166.02804687 118.11328125 166.58984375 C115.27564434 167.8751473 113.09858669 168.78381953 110 169 C107.97265625 168.07421875 107.97265625 168.07421875 106.0625 166.6875 C98.93456459 161.92672682 92.48425585 161.163373 84 162 C76.2474496 163.78297375 70.16919932 168.01514793 65 174 C59.70931176 182.52318512 58.86702228 188.59573266 58 199 C49.42 199 40.84 199 32 199 C31.505 193.06 31.505 193.06 31 187 C28.4602505 178.56803166 24.40967197 171.63736039 16.94921875 166.62109375 C14.99583363 165.59319595 13.07090561 164.7603122 11 164 C9.88625 163.5875 8.7725 163.175 7.625 162.75 C-1.10733594 160.94330981 -8.06654654 161.83841652 -16 166 C-16.65226562 166.56074219 -17.30453125 167.12148438 -17.9765625 167.69921875 C-20 169 -20 169 -22.35546875 168.87890625 C-25.51334247 167.82939135 -28.35596572 166.46450122 -31.3125 164.9375 C-32.38113281 164.38964844 -33.44976562 163.84179688 -34.55078125 163.27734375 C-35.35902344 162.85582031 -36.16726562 162.43429687 -37 162 C-36.52691406 161.13761719 -36.05382812 160.27523437 -35.56640625 159.38671875 C-21.37959899 133.30610509 -8.27689699 104.79087092 -4.32421875 75.08203125 C-4 73 -4 73 -3 71 C1.99362231 47.9910937 0.20346385 23.26270001 0 0 Z " fill="#FDE4B3" transform="translate(212,267)"/>
<path d="M0 0 C2.23016908 3.34525362 2.75662941 5.77414443 3.5859375 9.6953125 C3.72786026 10.35612823 3.86978302 11.01694397 4.01600647 11.69778442 C4.47481094 13.83899737 4.92493024 15.98193579 5.375 18.125 C5.99607083 21.03962653 6.62116004 23.95338716 7.24609375 26.8671875 C7.39802689 27.57866943 7.54996002 28.29015137 7.70649719 29.02319336 C9.14091143 35.71826322 10.72356966 42.3703814 12.37109375 49.015625 C13 52 13 52 13 56 C10.45767658 56.08152344 7.91800798 56.14073716 5.375 56.1875 C4.66214844 56.21263672 3.94929688 56.23777344 3.21484375 56.26367188 C-1.6712837 56.33091216 -4.6610434 55.44859247 -9 53 C-12.93018598 52.6069814 -15.69519992 52.75745709 -19 55 C-21.46751239 58.70126859 -21.30721156 60.62223532 -21 65 C-20.02481673 67.83395801 -19.27916657 68.82234854 -16.72265625 70.44921875 C-15.40587891 71.06216797 -15.40587891 71.06216797 -14.0625 71.6875 C-12.74958984 72.31205078 -12.74958984 72.31205078 -11.41015625 72.94921875 C-7.45902449 74.67183535 -4.52141289 75.11939803 -0.23828125 75.09765625 C0.87998047 75.09443359 1.99824219 75.09121094 3.15039062 75.08789062 C4.31763672 75.07951172 5.48488281 75.07113281 6.6875 75.0625 C7.86634766 75.05798828 9.04519531 75.05347656 10.25976562 75.04882812 C13.17322789 75.03703273 16.08658863 75.0205727 19 75 C20.01009266 78.72650762 21.00628554 82.45659459 22 86.1875 C22.28617187 87.24259766 22.57234375 88.29769531 22.8671875 89.38476562 C23.13789063 90.40634766 23.40859375 91.42792969 23.6875 92.48046875 C23.93886719 93.41785889 24.19023437 94.35524902 24.44921875 95.32104492 C24.9922969 97.96253273 25.1023122 100.31217316 25 103 C21.96764223 104.51617889 19.12074987 104.21034412 15.75 104.25 C13.79320312 104.28867187 13.79320312 104.28867187 11.796875 104.328125 C7.78241422 103.98119629 5.48647283 102.92974531 2 101 C-2.40834824 100.38128446 -4.23305758 100.47782644 -7.9375 103 C-10.23429866 106.34079806 -10.76722063 108.10846561 -10.46875 112.078125 C-9.44904464 116.25891697 -6.64465965 117.95532348 -3.1796875 120.15625 C5.68108446 124.6025155 16.30725673 123.8448305 26 124 C26.61714354 144.75430882 15.72625324 165.05628778 2 180 C0.36202866 181.36843175 -1.29718009 182.71315894 -3 184 C-22.37075321 160.03766084 -34.45367661 131.36357844 -43 102 C-43.2575708 101.12891602 -43.5151416 100.25783203 -43.78051758 99.36035156 C-45.74442398 92.49070482 -47.03793123 85.61975049 -48.125 78.5625 C-48.29386719 77.52029297 -48.46273438 76.47808594 -48.63671875 75.40429688 C-50.57990801 63.06428003 -51.16439265 50.93829538 -51.13037109 38.47070312 C-51.12496109 36.10800911 -51.13037531 33.74550115 -51.13671875 31.3828125 C-51.13605867 29.86197875 -51.13477898 28.34114512 -51.1328125 26.8203125 C-51.13483673 26.12334259 -51.13686096 25.42637268 -51.13894653 24.70828247 C-51.11986435 20.70352296 -50.7694516 16.92978113 -50 13 C-49.11441406 12.90203125 -48.22882813 12.8040625 -47.31640625 12.703125 C-31.07108964 10.74219188 -14.75022843 7.37511421 0 0 Z " fill="#DB9165" transform="translate(372,254)"/>
<path d="M0 0 C0.94949272 0.37458847 0.94949272 0.37458847 1.91816711 0.75674438 C18.38735003 7.24433063 33.38700267 11.33655025 51 13 C52.50107981 24.17470526 52.16212847 35.38009356 52.03710938 46.63330078 C52.01499702 48.63941494 51.99857347 50.64562434 51.99414062 52.65185547 C51.86040177 84.32790438 41.92318496 116.81683008 28 145 C27.61730957 145.77778809 27.23461914 146.55557617 26.84033203 147.35693359 C20.58574997 159.93416451 13.53854225 171.82576626 5 183 C-1.08599695 182.17756798 -4.42549579 176.52692145 -8 172 C-18.00737985 157.66800243 -25.09002977 141.59181714 -25 124 C-23.70707031 123.98582031 -22.41414063 123.97164063 -21.08203125 123.95703125 C-10.76995325 123.72169543 -1.11193511 123.42620855 8 118 C10.68804743 115.14358675 10.98627061 114.10811892 11.5 110.0625 C11.35672652 106.72983437 10.94083006 105.91393463 8.9375 103 C5.21453021 100.46521206 3.43525267 100.38824101 -1 101 C-1.99 101.495 -2.98 101.99 -4 102.5 C-9.6298727 105.25007607 -16.90793749 104.39499657 -23 104 C-23.33 103.67 -23.66 103.34 -24 103 C-23.53467932 96.40031092 -22.19950587 90.29947638 -20.4375 83.9375 C-20.20353516 83.07189453 -19.96957031 82.20628906 -19.72851562 81.31445312 C-19.1582666 79.20802305 -18.57998166 77.10377111 -18 75 C-17.01157104 75.03927612 -17.01157104 75.03927612 -16.00317383 75.0793457 C2.2747703 76.2600239 2.2747703 76.2600239 19 70 C21.99392103 65.91264694 22.64530204 63.07023034 22 58 C20.13291495 55.63502561 18.67938569 54.33969285 16 53 C12.36672764 52.66202118 10.34401443 52.82433306 7.0625 54.5 C1.35305146 57.26389213 -5.7995246 56.21546054 -12 56 C-11.36846556 50.21428989 -10.34344014 44.6642872 -9.00390625 39.00390625 C-8.81030014 38.17092514 -8.61669403 37.33794403 -8.41722107 36.47972107 C-7.80279512 33.83974021 -7.18282138 31.20110113 -6.5625 28.5625 C-5.94702081 25.92718497 -5.33268154 23.29160614 -4.7184906 20.6559906 C-4.33772928 19.02396634 -3.95601236 17.39216459 -3.57313538 15.76063538 C-2.34365811 10.51537225 -1.15796909 5.26150711 0 0 Z " fill="#DB9165" transform="translate(141,254)"/>
<path d="M0 0 C3.01512841 1.00204715 6.02795401 2.00953386 9.03515625 3.03515625 C10.03417969 3.37417969 11.03320312 3.71320312 12.0625 4.0625 C13.06410156 4.40410156 14.06570312 4.74570312 15.09765625 5.09765625 C19.68021297 6.52238115 23.83942328 7.12465082 28.63793945 7.1418457 C29.74712234 7.14888016 30.85630524 7.15591461 31.99909973 7.16316223 C33.19177963 7.16732651 34.38445953 7.17149078 35.61328125 7.17578125 C38.16732576 7.1990005 40.72136222 7.22311865 43.27539062 7.24804688 C47.27941182 7.28418304 51.28317714 7.31240094 55.28735352 7.32592773 C79.61317076 7.4240705 100.97823586 9.04662186 120 26 C120.67417969 26.58136719 121.34835938 27.16273437 122.04296875 27.76171875 C133.07008383 37.93567213 141.64551403 53.92398224 143 69 C143.19956946 75.00047764 143.11767324 80.99866487 143 87 C140.17117255 83.57168593 137.69886982 80.05965093 135.3125 76.3125 C131.35621885 70.34517021 127.01669733 65.10072911 122 60 C121.24074219 59.22785156 120.48148437 58.45570312 119.69921875 57.66015625 C109.74550167 48.13000159 97.94822214 42.38741411 85 38 C84.31164062 37.76539063 83.62328125 37.53078125 82.9140625 37.2890625 C75.48396643 34.96925875 67.83599387 34.85366508 60.12890625 34.7890625 C58.23631934 34.76100304 56.34374132 34.73233864 54.45117188 34.703125 C51.50447763 34.6619022 48.55795118 34.62495936 45.61108398 34.59863281 C42.74168877 34.57085597 39.87301746 34.52500548 37.00390625 34.4765625 C36.13488174 34.47330963 35.26585724 34.47005676 34.37049866 34.46670532 C23.70139 34.25487486 15.84591295 30.75333061 8.2734375 23.30078125 C1.87716191 16.2900851 0.48541175 9.25629996 0 0 Z " fill="#FABD42" transform="translate(104,26)"/>
<path d="M0 0 C-0.73063828 12.29487873 -3.73112614 19.49976446 -13 28 C-15.56913212 29.76006841 -18.05647399 31.0007218 -21 32 C-21.99837891 32.33918457 -22.99675781 32.67836914 -24.02539062 33.02783203 C-28.57566609 34.31356076 -33.01097554 34.27880517 -37.7109375 34.2734375 C-39.61589101 34.29375253 -41.52083887 34.31460374 -43.42578125 34.3359375 C-46.38497701 34.3583372 -49.34394656 34.37493786 -52.30322266 34.38085938 C-68.14277826 34.43412844 -83.40122055 35.41834154 -97.8125 42.6875 C-98.51133301 43.02998779 -99.21016602 43.37247559 -99.93017578 43.7253418 C-106.54381474 47.07919564 -112.38620112 51.14955054 -118 56 C-118.91007812 56.78632812 -119.82015625 57.57265625 -120.7578125 58.3828125 C-128.60695149 65.69525823 -134.17645252 74.25058567 -139.84594727 83.29516602 C-141 85 -141 85 -143 87 C-143.81335665 65.8075406 -139.44277287 47.27677577 -125 31 C-124.50371094 30.41089844 -124.00742187 29.82179688 -123.49609375 29.21484375 C-112.63974392 17.27013804 -95.20617191 8.93106832 -79.16239929 7.79994202 C-75.95626859 7.70772868 -72.75429165 7.67141892 -69.546875 7.65625 C-67.78105072 7.6343158 -67.78105072 7.6343158 -65.97955322 7.61193848 C-62.23640297 7.56570762 -58.49330238 7.5313752 -54.75 7.5 C-49.82793927 7.45850941 -44.90622919 7.40468876 -39.984375 7.34375 C-38.87664734 7.3384729 -37.76891968 7.3331958 -36.62762451 7.32775879 C-26.66448918 7.20298307 -16.44953803 6.63812006 -7.3125 2.375 C-2.1300578 0 -2.1300578 0 0 0 Z " fill="#FABD42" transform="translate(410,26)"/>
<path d="M0 0 C0 0.66 0 1.32 0 2 C-1.58066374 3.22606617 -3.21763517 4.37978665 -4.875 5.5 C-14.52607951 12.40775089 -21.53319639 20.15894177 -27.77758789 30.17407227 C-28.80649452 31.81201402 -29.89787741 33.41040011 -31 35 C-31.66 35 -32.32 35 -33 35 C-34.25190923 33.252731 -35.42534833 31.44903722 -36.5625 29.625 C-43.05004888 19.67117952 -51.3441404 9.42266465 -61.765625 3.40234375 C-62.50296875 2.93957031 -63.2403125 2.47679687 -64 2 C-64 1.34 -64 0.68 -64 0 C-62.16830682 -0.48539869 -60.33453941 -0.96297186 -58.5 -1.4375 C-57.4790625 -1.70433594 -56.458125 -1.97117187 -55.40625 -2.24609375 C-37.44691233 -6.2210389 -17.5089247 -5.53173361 0 0 Z " fill="#FAEFD6" transform="translate(289,27)"/>
<path d="M0 0 C3.38385367 1.82152123 5.95093651 3.88716838 7.8359375 7.23828125 C9.81395108 13.87875542 9.70583069 20.13842535 6.7109375 26.42578125 C3.4560669 32.29008068 -0.49386586 37.53084499 -6.1640625 41.23828125 C-13.28699346 38.33634641 -19.06779535 30.65185052 -22.3125 23.8203125 C-24.02400319 18.63084642 -24.24838136 12.97596233 -22.21875 7.8515625 C-17.2564037 -0.59066816 -9.45518081 -3.32808711 0 0 Z " fill="#FBBE43" transform="translate(264.1640625,152.76171875)"/>
<path d="M0 0 C4.42223274 2.34118204 6.97774199 4.43097901 9 9 C9.49255472 12.7754945 9.50962277 16.50909902 9.5 20.3125 C9.52835937 21.31990234 9.55671875 22.32730469 9.5859375 23.36523438 C9.60369224 30.17861402 8.46990015 34.76034369 4 40 C1.18843027 42.37902054 -0.22048857 42.9491623 -3.875 43.1875 C-8.93157115 41.26600296 -12.59025808 36.81948383 -15 32 C-15.29539232 28.25646257 -15.27804015 24.50382594 -15.3125 20.75 C-15.34150391 19.71230469 -15.37050781 18.67460937 -15.40039062 17.60546875 C-15.45191628 11.39860953 -15.19571703 7.69612365 -11 3 C-7.33394266 0.1057442 -4.63689657 -0.6624138 0 0 Z " fill="#F9BC42" transform="translate(305,448)"/>
<path d="M0 0 C4.42114076 2.34060393 6.9869499 4.4270018 9 9 C9.46656374 12.81764926 9.4639969 16.59545004 9.4375 20.4375 C9.4674707 21.97374023 9.4674707 21.97374023 9.49804688 23.54101562 C9.49415549 29.55319945 9.11765582 33.29197247 5 38 C4.50757813 38.56589844 4.01515625 39.13179688 3.5078125 39.71484375 C0.92592013 41.99770338 -0.59406866 42.98343137 -4.0625 43.125 C-9.31838023 41.1121097 -12.70927659 37.04088569 -15 32 C-15.46985215 28.18287724 -15.46399547 24.40434314 -15.4375 20.5625 C-15.45748047 19.53833984 -15.47746094 18.51417969 -15.49804688 17.45898438 C-15.49407453 11.32170388 -15.12006552 7.65119736 -11 3 C-7.33394266 0.1057442 -4.63689657 -0.6624138 0 0 Z " fill="#F9BC42" transform="translate(215,448)"/>
<path d="M0 0 C3.70390021 2.02666238 5.65363011 3.48044516 8 7 C8.46972415 11.25554295 8.37035686 15.53384934 8.375 19.8125 C8.39949219 20.98876953 8.42398437 22.16503906 8.44921875 23.37695312 C8.47801382 31.8666994 7.53033872 35.37675763 1.625 41.4375 C-1 43 -1 43 -4 43 C-9.48409131 41.17196956 -12.41109668 38.07025846 -15 33 C-15.65042667 28.89338455 -15.55532303 24.7780747 -15.5625 20.625 C-15.59923828 19.51382812 -15.63597656 18.40265625 -15.67382812 17.2578125 C-15.70276804 11.85569516 -15.65565044 8.02376625 -12.08984375 3.7734375 C-8.23675651 -0.04734982 -5.4638038 -0.45531698 0 0 Z " fill="#FBBE43" transform="translate(349,448)"/>
<path d="M0 0 C0.72960937 0.02964844 1.45921875 0.05929687 2.2109375 0.08984375 C6.25141071 1.7178014 8.58247347 4.23408458 10.625 8.0625 C11.48329766 12.23382661 11.46474991 16.25433064 11.375 20.5 C11.39820313 21.59376953 11.42140625 22.68753906 11.4453125 23.81445312 C11.39798985 30.36469645 10.5231617 34.48059434 6.30175781 39.55883789 C3.53358686 42.04124396 1.47987915 43.04391567 -2.25 43.125 C-7.11097322 41.47226911 -10.10248929 37.60752141 -12.375 33.0625 C-12.67285272 28.79765989 -12.65308765 24.5240133 -12.6875 20.25 C-12.71650391 19.06083984 -12.74550781 17.87167969 -12.77539062 16.64648438 C-12.78376953 15.49857422 -12.79214844 14.35066406 -12.80078125 13.16796875 C-12.81536377 12.11762451 -12.82994629 11.06728027 -12.8449707 9.98510742 C-12.2589531 6.34083901 -10.89448076 4.70606277 -8.375 2.0625 C-5.51846573 0.17131624 -3.39998904 -0.24456062 0 0 Z " fill="#FBBE43" transform="translate(169.375,447.9375)"/>
<path d="M0 0 C2.56476455 1.62894554 4.17356228 2.67888909 6 5 C6.59137483 7.93942373 6.80097951 10.04333547 6.7265625 12.96875 C6.72755951 13.72667847 6.72855652 14.48460693 6.72958374 15.26550293 C6.72491814 16.86249316 6.70555302 18.45950022 6.67236328 20.05615234 C6.62513166 22.49320675 6.63124978 24.92588473 6.64453125 27.36328125 C6.6333768 28.91929677 6.61915642 30.47529396 6.6015625 32.03125 C6.60429672 33.11738586 6.60429672 33.11738586 6.60708618 34.22546387 C6.47202638 39.07277649 5.44392966 41.59393342 2 45 C-1.21929573 46.60964787 -4.51887712 46.60686242 -8 46 C-11.21954645 43.46546343 -12.70432435 41.88702695 -14 38 C-14.2731335 33.62260352 -14.31327223 29.24335663 -14.35009766 24.85864258 C-14.3666395 23.41642093 -14.39390714 21.97428068 -14.43212891 20.5324707 C-14.48719086 18.44179236 -14.50881155 16.3530266 -14.5234375 14.26171875 C-14.54325684 13.01350342 -14.56307617 11.76528809 -14.58349609 10.47924805 C-13.81099533 5.87301021 -12.26324694 4.28383816 -9 1 C-5.85088521 -0.57455739 -3.47991184 -0.34799118 0 0 Z " fill="#060505" transform="translate(342,125)"/>
<path d="M0 0 C2.97672584 1.77280561 5.42804007 3.85608015 7 7 C7.23525839 11.37045918 7.22841656 15.74480994 7.24023438 20.12084961 C7.2499169 22.29384983 7.28092826 24.46589463 7.3125 26.63867188 C7.31903269 28.02603606 7.32428212 29.413407 7.328125 30.80078125 C7.34214355 32.69050659 7.34214355 32.69050659 7.35644531 34.6184082 C6.88780774 39.06436648 5.3132425 41.58948028 2.3125 44.8125 C-0.39634456 46.20352829 -2.88052974 46.49315603 -5.90234375 46.69140625 C-9.30719328 45.56913741 -11.20695882 42.97873871 -13 40 C-13.47953186 37.17122579 -13.68238332 34.96392177 -13.62890625 32.15234375 C-13.63131821 31.41802628 -13.63373016 30.6837088 -13.63621521 29.92713928 C-13.63524059 28.38325571 -13.62193905 26.83933551 -13.59692383 25.2956543 C-13.56253695 22.9400314 -13.57629925 20.58814996 -13.59570312 18.23242188 C-13.58880559 16.72654663 -13.57913402 15.220681 -13.56640625 13.71484375 C-13.57136612 13.01576401 -13.57632599 12.31668427 -13.58143616 11.59642029 C-13.46684408 6.81368595 -12.37909997 4.36409754 -9 1 C-5.85088521 -0.57455739 -3.47991184 -0.34799118 0 0 Z " fill="#050504" transform="translate(179,125)"/>
<path d="M0 0 C2.8100346 1.79363911 4.50940468 3.01880935 6 6 C6.5811138 13.08958838 6.5811138 13.08958838 4.125 16.9375 C0.8698054 20.09695358 -1.42413238 20.33421243 -5.9609375 20.29296875 C-9.13134567 19.83745033 -10.8192402 18.24684343 -13 16 C-14.60086627 12.79826746 -14.49917089 9.47422941 -14 6 C-10.32759145 0.24655994 -6.71744997 -0.96515086 0 0 Z " fill="#030303" transform="translate(432,158)"/>
</svg>
