<?xml version="1.0" encoding="UTF-8"?>
<svg version="1.1" xmlns="http://www.w3.org/2000/svg" width="512" height="512">
<path d="M0 0 C7.90534146 7.68681983 14.46174418 16.06960692 20.40234375 25.3359375 C20.78471191 25.93164551 21.16708008 26.52735352 21.56103516 27.14111328 C30.05578073 40.57080052 36.66491451 54.97502894 43.40234375 69.3359375 C55.62753947 70.2732416 67.82423549 70.55722919 80.08111763 70.72036362 C83.48491292 70.76669575 86.88855139 70.81953985 90.29222107 70.8742981 C99.95762 71.02957014 109.62303368 71.18070836 119.28881836 71.31005859 C125.23380348 71.39008525 131.17844684 71.48370388 137.12309074 71.58588028 C139.36860671 71.62194965 141.61420817 71.65308444 143.85986519 71.67892075 C164.61642175 71.921035 185.53385564 72.89461022 201.3046875 88.1796875 C211.26624193 98.79411336 211.94523458 110.04964878 211.53417969 123.91894531 C210.67373862 139.69369825 201.66601748 155.37524612 194.65234375 169.2734375 C194.12627029 170.32102234 194.12627029 170.32102234 193.58956909 171.38977051 C177.66107292 203.04312572 156.98642739 233.52299599 122.40234375 246.3359375 C116.78991599 248.10324571 111.08891441 249.52896855 105.36254883 250.87451172 C103.37095901 251.34332536 101.38625788 251.83573522 99.40234375 252.3359375 C99.86382812 252.83738281 100.3253125 253.33882813 100.80078125 253.85546875 C117.50038828 273.22833303 126.57986515 299.86658577 125.40234375 325.3359375 C126.27890625 325.58730469 127.15546875 325.83867187 128.05859375 326.09765625 C133.54418096 328.12911787 137.80251585 331.78966299 142.40234375 335.3359375 C142.9953125 335.78324219 143.58828125 336.23054688 144.19921875 336.69140625 C147.77831862 339.51042846 150.63161395 342.80007863 153.56640625 346.25390625 C155.34418401 348.26998188 157.20738577 350.10727346 159.15234375 351.9609375 C163.84098236 356.57674289 167.78279921 361.71976717 171.76953125 366.9375 C173.34769828 369.00178355 174.94811273 370.96102238 176.66015625 372.921875 C179.8028662 376.54807879 181.83915881 379.19543423 182.15234375 384.0859375 C181.86259524 387.53877389 181.34173961 388.41674302 179.15234375 391.3359375 C174.52046188 394.70457886 170.2619288 394.48024128 164.67765903 394.46457195 C163.89113625 394.46632499 163.10461347 394.46807803 162.29425666 394.46988419 C159.6427327 394.47455855 156.99126323 394.472075 154.33973694 394.46965027 C152.42594035 394.47151751 150.51214415 394.47381787 148.59834856 394.47651559 C143.32670444 394.48265061 138.05507614 394.482498 132.78342927 394.48132122 C127.10304844 394.48111764 121.42267276 394.4866318 115.74229431 394.49137878 C104.60913626 394.499695 93.47598351 394.50243405 82.34282262 394.50299116 C73.29690638 394.50346582 64.2509919 394.50551805 55.20507622 394.50869179 C33.74958946 394.51606658 12.29410444 394.52221634 -9.16138363 394.52169323 C-9.84774063 394.52167765 -10.53409764 394.52166207 -11.24125334 394.52164602 C-14.72012909 394.52156291 -18.19900483 394.52146387 -21.67788058 394.52136131 C-22.36881924 394.52134137 -23.0597579 394.52132142 -23.77163409 394.52130087 C-25.16888028 394.52126044 -26.56612647 394.52121864 -27.96337266 394.52117548 C-49.70825447 394.52056256 -71.4531207 394.52807198 -93.19799805 394.54174805 C-117.61820242 394.55710032 -142.03839395 394.56570213 -166.45860392 394.56478482 C-179.39252941 394.56445232 -192.32643733 394.56722285 -205.26035881 394.57796288 C-216.27057544 394.58704669 -227.28076653 394.5892606 -238.29098528 394.58245345 C-243.91176499 394.57917762 -249.53249562 394.57916972 -255.15327072 394.5878067 C-260.29449459 394.59562579 -265.43563008 394.59428763 -270.57685167 394.58552257 C-272.44087373 394.5839774 -274.30490223 394.58584162 -276.16891669 394.59138265 C-278.69509623 394.59839714 -281.22096184 394.59318515 -283.74713039 394.58482647 C-284.47726822 394.58979465 -285.20740605 394.59476283 -285.95966926 394.59988156 C-291.30108145 394.56230508 -294.89470714 393.854784 -298.91015625 390.2734375 C-301.95171535 384.97887167 -301.16153066 380.54652479 -299.71484375 374.875 C-294.48273876 358.06989455 -285.37269292 341.4115938 -269.59765625 332.3359375 C-262.48400053 328.80384419 -255.45007819 326.4999027 -247.59765625 325.3359375 C-248.74234375 323.8509375 -248.74234375 323.8509375 -249.91015625 322.3359375 C-276.07112842 287.29010685 -300.2324297 241.13030889 -301.03515625 196.4609375 C-301.07511719 195.22601563 -301.11507813 193.99109375 -301.15625 192.71875 C-300.44961562 188.43941176 -298.90785015 187.03386997 -295.59765625 184.3359375 C-292.43722912 182.75572393 -289.04426843 183.20291904 -285.57455444 183.21568298 C-284.31629882 183.21440135 -284.31629882 183.21440135 -283.03262389 183.21309382 C-280.20580995 183.21143923 -277.37905461 183.21696006 -274.55224609 183.22241211 C-272.53227235 183.22269401 -270.51229851 183.22253619 -268.49232483 183.2219696 C-262.9946758 183.22168175 -257.49704842 183.22757657 -251.99940443 183.23454356 C-246.25917641 183.24077906 -240.51894793 183.24138106 -234.77871704 183.24256897 C-223.90253528 183.2456817 -213.02636353 183.25389432 -202.15018618 183.26391846 C-189.77069106 183.27508139 -177.39119547 183.2805905 -165.01169658 183.28561389 C-139.54034425 183.29607697 -114.06900081 183.3136753 -88.59765625 183.3359375 C-90.97763265 179.84359188 -93.35793014 176.35146523 -95.73828125 172.859375 C-96.40553223 171.88025146 -97.0727832 170.90112793 -97.76025391 169.89233398 C-104.26586794 160.34890875 -110.80506087 150.82885897 -117.3671875 141.32421875 C-119.6720423 137.98465438 -121.96654776 134.63814132 -124.25683594 131.28857422 C-125.57264189 129.37236591 -126.90104001 127.46536588 -128.23046875 125.55859375 C-144.61620712 101.8354478 -152.54529775 76.55767599 -147.94921875 47.41015625 C-143.8942323 26.96173627 -133.05794696 10.01013784 -118.59765625 -4.6640625 C-117.953125 -5.32148437 -117.30859375 -5.97890625 -116.64453125 -6.65625 C-82.03993671 -39.30493268 -32.44456338 -30.03556736 0 0 Z " fill="#010201" transform="translate(300.59765625,72.6640625)"/>
<path d="M0 0 C3.11679682 2.20667181 6.06938852 4.55329283 9 7 C9.96486328 7.74636719 9.96486328 7.74636719 10.94921875 8.5078125 C27.71856256 22.04574117 38.5506492 43.41354954 47.11401367 62.74291992 C47.46880295 63.54316086 47.82359222 64.34340179 48.18913269 65.16789246 C48.4567189 65.77248795 48.72430511 66.37708344 49 67 C48.10543594 66.99111755 47.21087189 66.98223511 46.28919983 66.9730835 C37.83027351 66.89270536 29.37147674 66.83191798 20.91225529 66.79275131 C16.56397683 66.77193785 12.21601576 66.74373551 7.86791992 66.69824219 C3.66630908 66.65456008 -0.5349978 66.63081603 -4.73681831 66.62049103 C-6.33430321 66.61313955 -7.93177276 66.59878428 -9.52912712 66.57707977 C-21.8429993 66.27513248 -21.8429993 66.27513248 -33 71 C-37.94515121 76.19240877 -38.60481638 80.12812839 -38.51953125 87.17578125 C-35.27859894 111.03196717 -9.73665192 133.24380323 6 150 C6.92087402 150.98057373 6.92087402 150.98057373 7.86035156 151.98095703 C10.55281702 154.84581004 13.24666863 157.7093244 15.9453125 160.56835938 C19.12312376 163.93575596 22.29349689 167.30860753 25.4296875 170.71484375 C33.07506884 179.00697787 40.95155932 187.03093619 48.98535156 194.94848633 C53.235303 199.15393787 57.2907187 203.42533851 61.18383789 207.96118164 C64.76965793 211.98661291 68.65928424 215.71995906 72.5 219.5 C77.67148939 224.5897913 82.70439033 229.70209466 87.43164062 235.20898438 C89.6734857 237.76909886 92.06500982 240.12230371 94.5 242.5 C98.19358202 246.14973013 101.78128225 249.83967635 105.1328125 253.80859375 C106.5720103 255.4976941 108.05467604 257.14982266 109.5546875 258.78515625 C119.56264191 269.85479967 126.64911847 282.69737839 131 297 C131.4125 298.2375 131.825 299.475 132.25 300.75 C133.73556898 306.95290206 133.14862276 313.65876244 133 320 C107.73658578 327.52976413 82.34729119 329.55009692 56.33203125 324.75390625 C46.71417921 323.00936379 37.13462339 322.77327804 27.375 322.75 C26.38070984 322.74749237 26.38070984 322.74749237 25.36633301 322.74493408 C15.1503358 322.74339191 5.89472823 323.53761329 -4 326 C-11.34027647 327.77965636 -18.26869489 328.30821586 -25.8125 328.25 C-26.80314453 328.25773437 -27.79378906 328.26546875 -28.81445312 328.2734375 C-42.19240318 328.23880203 -54.92870577 325.22485781 -67.89453125 322.2109375 C-93.5321671 316.35597568 -118.50980983 315.61409336 -143.60546875 323.82421875 C-170.84442809 332.67424393 -170.84442809 332.67424393 -184 327 C-186.52734375 325.08203125 -186.52734375 325.08203125 -188.9375 322.8125 C-189.73027344 322.07644531 -190.52304688 321.34039062 -191.33984375 320.58203125 C-192.21769531 319.72996094 -193.09554687 318.87789063 -194 318 C-194.53842529 317.48928955 -195.07685059 316.9785791 -195.6315918 316.45239258 C-200.23287234 311.9999336 -204.11211694 307.18789843 -207.9375 302.0625 C-208.82018555 300.89364258 -208.82018555 300.89364258 -209.72070312 299.70117188 C-211.15202717 297.8043766 -212.57831558 295.90402445 -214 294 C-210.96674713 292.98891571 -210.0214277 292.98531679 -207.0078125 293.5234375 C-206.21890625 293.6575 -205.43 293.7915625 -204.6171875 293.9296875 C-203.79476562 294.07664062 -202.97234375 294.22359375 -202.125 294.375 C-153.27419712 303.05244525 -91.87099177 296.53742111 -50.19580078 267.75390625 C-36.337982 257.88318513 -25.59340465 245.49756113 -20.5625 228.9375 C-17.33024394 206.31170757 -26.530944 190.8550465 -39.34667969 173.28027344 C-42.17123122 169.38462795 -44.92934253 165.44280614 -47.6875 161.5 C-48.26226074 160.67967285 -48.83702148 159.8593457 -49.42919922 159.01416016 C-55.70739188 150.02940695 -61.85383 140.95549511 -68.00390625 131.8828125 C-70.89814916 127.61508863 -73.81142047 123.36144774 -76.74487305 119.12060547 C-92.03780371 97.00767158 -104.01798062 75.5141337 -99.38671875 47.7265625 C-95.41380292 28.33506161 -83.25225352 10.75451899 -66.77734375 -0.12890625 C-45.44299749 -13.26719286 -21.35407728 -14.01256563 0 0 Z " fill="#EEEEEE" transform="translate(272,76)"/>
<path d="M0 0 C15.81741614 -0.13203525 31.61680532 0.04811242 47.4296875 0.40234375 C48.35010708 0.42290958 49.27052666 0.44347542 50.21883774 0.46466446 C55.07653517 0.57383303 59.93418234 0.68509676 64.79180908 0.79736328 C92.0836998 1.42758119 119.37369552 2.01814478 146.671875 2.28515625 C147.65260609 2.2950099 148.63333717 2.30486355 149.64378738 2.31501579 C159.03091519 2.40894632 168.41798855 2.49454247 177.80541229 2.55245876 C181.22848477 2.57522938 184.65146922 2.60529826 188.07447052 2.63688469 C189.6414576 2.64951751 191.20847648 2.65878645 192.77550507 2.664217 C222.86325917 2.76995864 222.86325917 2.76995864 234.046875 12.84375 C237.70165166 16.95102282 239.14327673 20.11390579 239.0625 25.6875 C239.05347656 26.49574219 239.04445313 27.30398437 239.03515625 28.13671875 C239.01775391 29.05904297 239.01775391 29.05904297 239 30 C237.84488167 30.0154612 237.84488167 30.0154612 236.66642761 30.03123474 C229.41222643 30.12917727 222.15811104 30.23168711 214.90404797 30.33933926 C211.17458726 30.39452396 207.44511864 30.44793681 203.71557617 30.49731445 C200.11695357 30.54502374 196.51842563 30.59736887 192.91991615 30.65294075 C191.54641385 30.67333457 190.17288562 30.69205255 188.79933739 30.70907402 C186.87682515 30.73318357 184.95439759 30.76378238 183.03198242 30.79467773 C181.93722092 30.81022202 180.84245941 30.8257663 179.71452332 30.84178162 C176.90377896 30.88735656 176.90377896 30.88735656 174 32 C173.06257459 34.81227622 172.86529156 36.58746844 172.875 39.5 C172.87242187 40.2734375 172.86984375 41.046875 172.8671875 41.84375 C172.91854187 44.18447017 172.91854187 44.18447017 174 47 C179.63847841 49.84615746 186.01333841 49.35093559 192.1796875 49.4140625 C193.93153854 49.44311172 193.93153854 49.44311172 195.71878052 49.4727478 C199.43744678 49.53237661 203.15614428 49.57886274 206.875 49.625 C209.40105493 49.66319509 211.92709705 49.70224771 214.453125 49.7421875 C220.63530269 49.83806453 226.81755796 49.92316085 233 50 C223.27786523 80.19149968 202.33638113 117.48761194 173.43359375 132.96875 C160.0916966 139.71952189 143.08036642 145.28889528 128 144 C126.2175293 142.69335938 126.2175293 142.69335938 124.57421875 140.84375 C123.95023193 140.15853271 123.32624512 139.47331543 122.68334961 138.76733398 C122.02471924 138.01911377 121.36608887 137.27089355 120.6875 136.5 C119.26804467 134.93660177 117.84609956 133.37546104 116.421875 131.81640625 C115.69419922 131.01605957 114.96652344 130.21571289 114.21679688 129.39111328 C110.11459105 124.96633312 105.80090366 120.75431805 101.49291992 116.53125 C98.45350278 113.53107927 95.52926305 110.50109862 92.75390625 107.25390625 C87.97299948 101.71009597 82.70746974 96.63766006 77.5 91.5 C71.66817521 85.74635479 65.88678718 80.01739796 60.56054688 73.78320312 C58.01719719 70.8769725 55.26064139 68.19777654 52.5 65.5 C48.45848373 61.50363714 44.5425545 57.48114364 40.86328125 53.14453125 C38.85915188 50.83789179 36.78687156 48.60719854 34.70092773 46.37475586 C29.66438069 40.98241247 24.82810125 35.50276757 20.21484375 29.73828125 C18.67553077 27.83518002 17.10240925 25.95913186 15.50390625 24.10546875 C0 6.10017123 0 6.10017123 0 0 Z " fill="#FDB84B" transform="translate(253,162)"/>
<path d="M0 0 C67.98 0 135.96 0 206 0 C210.45845989 7.80230482 211.93723114 13.1540787 211 22 C209.3248366 27.91080973 206.68713366 33.08382179 203 38 C202.34 38.928125 201.68 39.85625 201 40.8125 C185.81771924 58.43314706 158.88293301 67.18995914 137 72 C136.24396484 72.18191895 135.48792969 72.36383789 134.70898438 72.55126953 C119.03634624 76.20966158 103.38651018 76.40184837 87.375 76.4375 C86.34417297 76.44358276 85.31334595 76.44966553 84.25128174 76.45593262 C70.14756045 76.51027574 56.51090639 75.45935858 42.56655884 73.36315918 C39.14858629 72.87952791 35.72196281 72.51311524 32.28794861 72.16374207 C27.72058428 71.57114685 23.63404001 70.88386372 20.51171875 67.28417969 C17.90837764 63.17270971 16.19474347 58.79546653 14.70751953 54.17773438 C13.98745925 51.96139977 13.16116639 49.80900637 12.30859375 47.640625 C11 44 11 44 11 41 C11.79172607 40.99589111 12.58345215 40.99178223 13.39916992 40.98754883 C16.99603252 40.95459846 20.59120475 40.88394957 24.1875 40.8125 C26.05631836 40.80379883 26.05631836 40.80379883 27.96289062 40.79492188 C35.20410237 40.9236922 35.20410237 40.9236922 41.32421875 37.66796875 C43.56526128 34.10006187 43.73910653 32.13899658 43 28 C40.45862841 24.84045695 38.85377341 23.28459114 35 22 C32.6444552 21.84820986 30.28524877 21.75100711 27.92578125 21.68359375 C27.2419487 21.66281265 26.55811615 21.64203156 25.8535614 21.62062073 C23.6733079 21.55533846 21.49293595 21.49633983 19.3125 21.4375 C17.83267014 21.39429447 16.35285217 21.35067953 14.87304688 21.30664062 C11.24882378 21.19967917 7.62446811 21.09835177 4 21 C1.10773009 13.79661078 0.67368861 8.08426334 0 0 Z " fill="#A6A6A6" transform="translate(22,277)"/>
<path d="M0 0 C19.53755209 4.73043018 40.63366503 5.00446779 60.1328125 0.04248047 C78.93191887 -4.70103062 99.39126801 -2.11047785 118.40625 0.06982422 C141.73820327 2.71475244 164.04007876 3.68869882 186.890625 -3.02783203 C193.45619387 -4.84200238 200.4143819 -5.24646413 206.91015625 -2.96142578 C218.38060422 3.62313672 228.91318502 15.20522676 236.15625 26.06982422 C95.57625 26.06982422 -45.00375 26.06982422 -189.84375 26.06982422 C-186.29402554 15.42065083 -180.17070563 7.75643548 -170.67578125 1.68310547 C-159.28836059 -3.90280656 -145.77183151 -1.40523043 -134.03125 1.56982422 C-117.42921831 5.74140809 -102.11602736 5.25541226 -85.84375 0.06982422 C-84.16538755 -0.45238503 -82.48700093 -0.97451657 -80.80859375 -1.49658203 C-78.2760843 -2.28897398 -75.74685297 -3.08811749 -73.22412109 -3.91113281 C-72.46566895 -4.15847168 -71.7072168 -4.40581055 -70.92578125 -4.66064453 C-70.25780518 -4.88131592 -69.5898291 -5.1019873 -68.90161133 -5.3293457 C-46.98482495 -11.72835048 -21.49655437 -5.27497294 0 0 Z " fill="#00E5E0" transform="translate(213.84375,419.93017578125)"/>
<path d="M0 0 C3.23296365 2.2492906 5.3707564 4.01958011 6.75 7.8125 C7.48917213 13.50412543 7.02771703 17.95243682 3.75 22.8125 C-0.94698398 27.15721018 -4.72586154 28.1935114 -10.96875 28.08203125 C-14.6673489 27.64503926 -16.54597631 26.32787087 -19.25 23.8125 C-22.18629253 19.87074972 -23.6027726 16.19350907 -23.375 11.25 C-22.52814013 6.25525506 -20.04429355 3.06211394 -16.25 -0.1875 C-10.81472059 -3.39292119 -5.37367116 -3.13546317 0 0 Z " fill="#050505" transform="translate(240.25,98.1875)"/>
<path d="M0 0 C3.18637361 0.64073817 4.95955678 2.09960721 7.15625 4.43359375 C8.70649464 7.53408303 8.44617015 10.01253593 8.15625 13.43359375 C6.36062595 16.18688396 5.10370078 17.95986836 2.15625 19.43359375 C-4.90562625 20.01243607 -4.90562625 20.01243607 -8.78125 17.62109375 C-11.44909627 14.79155982 -11.7918801 12.90042285 -12.21875 9.05859375 C-11.84375 5.43359375 -11.84375 5.43359375 -9.90625 2.49609375 C-6.31239755 0.07574414 -4.24433491 -0.23343842 0 0 Z " fill="#040404" transform="translate(87.84375,298.56640625)"/>
<path d="M0 0 C3.37882179 2.3933321 4.67073608 4.03278722 6 7.9375 C6 11.74724203 5.033189 13.80498871 3 17 C-1.03485494 19.68990329 -4.26228652 19.77993882 -9 19 C-12.0625 17.0625 -12.0625 17.0625 -14 14 C-15.03945854 9.24941677 -14.669717 6.05858493 -12.0625 1.9375 C-7.95653383 -0.66015206 -4.73592006 -1.0638661 0 0 Z " fill="#050401" transform="translate(409,192)"/>
</svg>
