<?xml version="1.0" encoding="UTF-8"?>
<svg version="1.1" xmlns="http://www.w3.org/2000/svg" width="512" height="512">
<path d="M0 0 C1.41945419 -0.01058945 1.41945419 -0.01058945 2.86758423 -0.02139282 C42.01269378 -0.24715519 42.01269378 -0.24715519 58.8671875 3.203125 C59.86379395 3.39648438 60.86040039 3.58984375 61.88720703 3.7890625 C113.94439486 14.07509931 167.5879542 40.83173349 202.1875 82.21875 C203.35280034 83.59543041 204.55961976 84.9376078 205.796875 86.25 C217.59243445 98.78008147 227.56283649 113.15618775 235.8671875 128.203125 C236.32834961 129.02731934 236.78951172 129.85151367 237.26464844 130.70068359 C250.49718093 154.51838114 259.62836241 179.77155325 265.1171875 206.453125 C265.26841064 207.18370117 265.41963379 207.91427734 265.57543945 208.66699219 C268.20832719 222.30270438 269.1831854 235.90485069 269.16796875 249.76171875 C269.17187628 251.28613904 269.17621498 252.81055827 269.18095398 254.3349762 C269.18833187 257.50045329 269.18818667 260.66581868 269.18286133 263.83129883 C269.17822151 267.03586835 269.18519128 270.24005917 269.20336914 273.44458008 C269.39526294 307.60020513 269.39526294 307.60020513 265.8671875 322.203125 C265.63749268 323.21205811 265.40779785 324.22099121 265.17114258 325.26049805 C264.5524301 327.80844575 263.86349024 330.31493895 263.1171875 332.828125 C262.86114746 333.70291504 262.60510742 334.57770508 262.34130859 335.47900391 C259.84964443 343.71396146 256.66169558 351.48996135 252.8671875 359.203125 C252.56055176 359.83412109 252.25391602 360.46511719 251.93798828 361.11523438 C232.59490848 400.46321008 197.26612231 430.50052587 155.93690491 444.77513123 C134.4351254 451.83762239 112.77581892 452.88394445 90.35400391 452.77954102 C86.46362397 452.76206987 82.57468244 452.7862857 78.68446159 452.82103062 C75.65433066 452.84296629 72.62454962 452.84157782 69.59436417 452.8332653 C68.15827949 452.83244956 66.7221682 452.83924059 65.28615952 452.85403633 C63.29484234 452.87147679 61.30331082 452.85362332 59.31201172 452.83422852 C58.18447479 452.83326675 57.05693787 452.83230499 55.89523315 452.83131409 C51.84901714 451.99189849 50.33585343 450.46736012 47.8671875 447.203125 C47.8671875 445.553125 47.8671875 443.903125 47.8671875 442.203125 C39.6171875 442.203125 31.3671875 442.203125 22.8671875 442.203125 C22.8671875 443.853125 22.8671875 445.503125 22.8671875 447.203125 C20.79018293 450.31863186 19.21750861 451.92641986 15.484375 452.69140625 C10.91367657 452.93017408 8.55720976 452.68614058 4.7421875 450.015625 C2.8671875 447.203125 2.8671875 447.203125 2.8671875 442.203125 C-5.3828125 442.203125 -13.6328125 442.203125 -22.1328125 442.203125 C-22.1328125 443.853125 -22.1328125 445.503125 -22.1328125 447.203125 C-24.60147843 450.46736012 -26.11464214 451.99189849 -30.16085815 452.83131409 C-31.28839508 452.83227585 -32.41593201 452.83323761 -33.57763672 452.83422852 C-34.86443329 452.84676163 -36.15122986 452.85929474 -37.47702026 452.87220764 C-38.88052357 452.8599154 -40.28401736 452.84649186 -41.6875 452.83203125 C-43.14983293 452.83286191 -44.61216574 452.8353287 -46.07449341 452.83934021 C-49.14971848 452.84220002 -52.22421635 452.82751362 -55.29931641 452.80004883 C-59.1689727 452.76649979 -63.03729637 452.77218383 -66.90701199 452.79017639 C-88.54086375 452.8723919 -109.70709589 451.8805394 -130.3203125 444.578125 C-131.79564453 444.0682605 -131.79564453 444.0682605 -133.30078125 443.5480957 C-171.79357079 429.79225588 -202.86002006 402.47140279 -223.1328125 367.203125 C-223.48972168 366.58276367 -223.84663086 365.96240234 -224.21435547 365.32324219 C-233.33139361 349.1275455 -239.43539509 330.5723146 -242.1328125 312.203125 C-242.30337158 311.13650635 -242.47393066 310.0698877 -242.6496582 308.97094727 C-243.47632351 302.2506159 -243.31851992 295.45993752 -243.3359375 288.69921875 C-243.33876488 287.95195086 -243.34159225 287.20468296 -243.34450531 286.43477058 C-243.35945186 282.46603171 -243.36870518 278.49732865 -243.37304688 274.52856445 C-243.37739991 271.29667677 -243.3911734 268.0650608 -243.4140625 264.83325195 C-243.54184126 246.41242361 -243.42422542 228.4000788 -240.1328125 210.203125 C-239.90835449 208.94169678 -239.68389648 207.68026855 -239.45263672 206.38061523 C-238.85186569 203.30001261 -238.17890522 200.25454218 -237.4453125 197.203125 C-237.19185059 196.13191406 -236.93838867 195.06070313 -236.67724609 193.95703125 C-225.04340257 146.55627229 -198.29306763 97.63315841 -160.34765625 66.05078125 C-158.60135973 64.5939942 -156.89283273 63.09193141 -155.19921875 61.57421875 C-117.57048124 28.00167477 -68.90181732 7.59094019 -19.1328125 1.203125 C-18.13200401 1.07213158 -18.13200401 1.07213158 -17.11097717 0.93849182 C-11.3946077 0.24225008 -5.75538623 0.02856352 0 0 Z " fill="#494444" transform="translate(243.1328125,29.796875)"/>
<path d="M0 0 C4.59348959 3.14515593 8.59399261 6.80407929 12.52734375 10.73046875 C13.08035156 11.271875 13.63335937 11.81328125 14.203125 12.37109375 C19.44771639 17.96909426 22.90148066 25.02588859 26.52734375 31.73046875 C26.9553125 32.42785156 27.38328125 33.12523437 27.82421875 33.84375 C28.83809751 36.56432467 28.40296163 37.96095128 27.52734375 40.73046875 C25.33422852 43.36181641 25.33422852 43.36181641 22.46875 46.14453125 C21.96439926 46.64085052 21.46004852 47.1371698 20.94041443 47.64852905 C19.33276708 49.22726619 17.7120748 50.79173334 16.08984375 52.35546875 C14.473864 53.92886573 12.86074845 55.50509576 11.24998474 57.08383179 C9.78845069 58.5138343 8.3193338 59.93607449 6.84985352 61.35791016 C3.87300842 64.39890465 2.62189197 66.05213381 2.02783203 70.31420898 C2.19240857 75.99743982 5.3326679 79.88636547 8.51953125 84.390625 C9.13949982 85.29816025 9.75946838 86.2056955 10.39822388 87.14073181 C12.38242359 90.03707818 14.39153929 92.9150471 16.40234375 95.79296875 C17.71656686 97.69998554 19.02908398 99.6081792 20.33984375 101.51757812 C22.88369712 105.22027871 25.43773461 108.91561932 27.9987793 112.60644531 C31.54652894 117.73414047 35.00945077 122.91552356 38.39559937 128.15138245 C44.32601808 137.2048676 52.47456279 142.77033447 63.046875 145.34375 C75.09811732 147.2226051 86.35379572 144.41671105 96.4296875 137.5859375 C102.48207482 132.23233605 106.82822169 125.53109869 111.2109375 118.80859375 C111.8295314 117.86796082 112.44812531 116.92732788 113.08546448 115.95819092 C115.04982536 112.96858597 117.00733399 109.97456287 118.96484375 106.98046875 C120.27496149 104.98539521 121.58550461 102.99060094 122.89648438 100.99609375 C127.37389873 94.18430634 127.37389873 94.18430634 131.81710815 87.35021973 C133.02500292 85.49995799 134.25795948 83.66594183 135.5083313 81.84411621 C136.15019379 80.88976685 136.79205627 79.93541748 137.45336914 78.95214844 C138.04154922 78.09514343 138.62972931 77.23813843 139.23573303 76.35516357 C140.77988786 73.21727138 140.88549838 71.18851601 140.52734375 67.73046875 C138.08413612 63.27413791 134.97483076 60.0051488 131.2890625 56.54296875 C130.29421373 55.58797673 129.30009363 54.63222516 128.30664062 53.67578125 C126.75573363 52.1931842 125.20019864 50.71680149 123.6315918 49.25292969 C122.10560398 47.82369791 120.60264974 46.37327088 119.1015625 44.91796875 C118.20010498 44.06589844 117.29864746 43.21382813 116.36987305 42.3359375 C114.52734375 39.73046875 114.52734375 39.73046875 114.65014648 36.62158203 C119.56153935 20.43435287 131.9114656 6.29199363 146.5078125 -1.953125 C154.71034068 -6.20213649 162.27221632 -8.6779393 171.52734375 -9.26953125 C172.68234375 -9.35847656 173.83734375 -9.44742188 175.02734375 -9.5390625 C190.23975729 -10.18800474 204.42139603 -5.62940137 216.52734375 3.73046875 C217.79964844 4.69726562 217.79964844 4.69726562 219.09765625 5.68359375 C230.85328829 15.39007892 238.82477451 29.74961827 241.52734375 44.73046875 C243.72179791 68.51826233 240.15255252 94.43689634 231.52734375 116.73046875 C231.25051758 117.45137695 230.97369141 118.17228516 230.68847656 118.91503906 C223.75006128 136.75989306 215.24761665 153.55519684 203.52734375 168.73046875 C202.55667969 170.03564453 202.55667969 170.03564453 201.56640625 171.3671875 C196.64657942 177.71629208 191.08335893 183.43914314 185.46484375 189.16796875 C184.7282251 189.93069092 183.99160645 190.69341309 183.23266602 191.47924805 C180.7354981 193.98382831 178.14950615 196.35703488 175.52734375 198.73046875 C174.99557526 199.24991058 174.46380676 199.76935242 173.91592407 200.30453491 C163.82988486 210.0266182 155.5255171 212.13784102 141.65820312 211.89648438 C139.55195237 211.82402425 137.44582741 211.7478157 135.33984375 211.66796875 C132.14609683 211.58622619 128.95379039 211.5221828 125.75920105 211.48573303 C123.78863562 211.45940051 121.81818429 211.40530199 119.84931946 211.31932068 C115.27862833 211.22117073 113.22950042 211.21269997 109.4519043 213.99829102 C107.26670107 216.75190321 107.26670107 216.75190321 106.52734375 220.73046875 C98.27734375 220.73046875 90.02734375 220.73046875 81.52734375 220.73046875 C81.52734375 222.38046875 81.52734375 224.03046875 81.52734375 225.73046875 C79.45033918 228.84597561 77.87766486 230.45376361 74.14453125 231.21875 C69.57383282 231.45751783 67.21736601 231.21348433 63.40234375 228.54296875 C61.52734375 225.73046875 61.52734375 225.73046875 61.52734375 220.73046875 C53.27734375 220.73046875 45.02734375 220.73046875 36.52734375 220.73046875 C35.53734375 218.42046875 34.54734375 216.11046875 33.52734375 213.73046875 C29.2156938 210.74485454 23.69482131 211.55907142 18.65234375 211.66796875 C16.67709285 211.67691178 14.70182926 211.68333986 12.7265625 211.6875 C9.6361641 211.70166942 6.54909259 211.7299599 3.45947266 211.80224609 C-8.82394515 212.06485573 -17.54945648 211.98364274 -26.8515625 203.40161133 C-28.14900391 202.07939575 -28.14900391 202.07939575 -29.47265625 200.73046875 C-30.51638144 199.78479911 -31.56790873 198.84767118 -32.62695312 197.91918945 C-34.60164026 196.18354517 -36.54381434 194.44588617 -38.44140625 192.62890625 C-39.97831334 191.15903873 -41.51540677 189.69036394 -43.06640625 188.23535156 C-74.24682851 158.91001452 -92.05348584 118.73858019 -97.47265625 76.73046875 C-97.67375 75.25513672 -97.67375 75.25513672 -97.87890625 73.75 C-98.18552794 71.07131881 -98.35298979 68.42467373 -98.47265625 65.73046875 C-98.51052246 64.99248047 -98.54838867 64.25449219 -98.58740234 63.49414062 C-99.52219922 43.06271529 -95.41484969 27.02721246 -81.91015625 11.04296875 C-60.17011347 -11.85521938 -26.96511525 -15.7735787 0 0 Z " fill="#F3E8E1" transform="translate(184.47265625,251.26953125)"/>
<path d="M0 0 C1.10085938 -0.01675781 2.20171875 -0.03351563 3.3359375 -0.05078125 C11.16219161 0.81363874 15.62358002 5.907589 20.8671875 11.26171875 C21.63555939 12.03433548 22.40393127 12.80695221 23.19558716 13.60298157 C25.63754927 16.06167754 28.06884715 18.53061996 30.5 21 C32.15816033 22.67321392 33.81700708 24.34574789 35.4765625 26.01757812 C39.53402693 30.10804164 43.58279595 34.20695848 47.625 38.3125 C44.20277191 44.7069802 40.45423674 50.78555937 36.40625 56.80078125 C35.82588989 57.66640182 35.24552979 58.5320224 34.64758301 59.4238739 C33.42927444 61.23774924 32.20899231 63.05030046 30.98681641 64.86157227 C29.12206913 67.62935019 27.26987116 70.40525716 25.41796875 73.18164062 C24.22732078 74.95103133 23.03593984 76.71992907 21.84375 78.48828125 C21.29464966 79.31435379 20.74554932 80.14042633 20.17980957 80.99153137 C16.34161032 86.64198822 12.48775759 91.48243131 5.625 93.3125 C-1.24145022 94.09655833 -6.7596156 93.49319934 -12.375 89.3125 C-17.53254832 83.53521178 -21.74430377 76.93783578 -25.96484375 70.46484375 C-26.55423233 69.56754044 -27.14362091 68.67023712 -27.75086975 67.7457428 C-29.60831585 64.91615028 -31.46049013 62.08315282 -33.3125 59.25 C-34.58103123 57.31552632 -35.84990832 55.38127939 -37.11914062 53.44726562 C-40.20842583 48.73828814 -43.29340574 44.02651363 -46.375 39.3125 C-42.22782575 34.37296017 -37.92247407 29.70027895 -33.3671875 25.13671875 C-32.71928253 24.48548538 -32.07137756 23.83425201 -31.40383911 23.1632843 C-30.0454352 21.79985442 -28.68570712 20.43774263 -27.32470703 19.0769043 C-25.24352373 16.99351687 -23.17049214 14.90223563 -21.09765625 12.81054688 C-19.77132288 11.48128219 -18.4445165 10.15248926 -17.1171875 8.82421875 C-16.50044159 8.20028732 -15.88369568 7.5763559 -15.2482605 6.93351746 C-14.37682907 6.06670097 -14.37682907 6.06670097 -13.48779297 5.18237305 C-12.72884232 4.42128487 -12.72884232 4.42128487 -11.95455933 3.64482117 C-8.14541118 0.43189423 -4.91730016 0.01719336 0 0 Z " fill="#FDB85B" transform="translate(255.375,284.6875)"/>
<path d="M0 0 C4.13618341 0.31500735 6.63956604 0.74787348 10.171875 3.0546875 C12.45061757 6.5830631 12.85442719 8.75690588 12.578125 12.89453125 C12.109375 15.0546875 12.109375 15.0546875 10.234375 18.1171875 C5.82911558 20.84844834 2.16014666 21.05656188 -2.890625 20.0546875 C-6.015625 18.1171875 -6.015625 18.1171875 -7.890625 15.0546875 C-8.57531721 11.89939754 -8.62653879 9.20371397 -7.890625 6.0546875 C-5.453125 3.0546875 -5.453125 3.0546875 -2.890625 1.0546875 C-1.890625 0.0546875 -1.890625 0.0546875 0 0 Z " fill="#040404" transform="translate(253.890625,461.9453125)"/>
<path d="M0 0 C3.67123639 0.01977327 4.15668193 0.29756585 7.1875 2.8125 C8.2084375 4.0809375 8.2084375 4.0809375 9.25 5.375 C9.58 5.705 9.91 6.035 10.25 6.375 C10.63015799 11.31705393 10.46685061 14.49259409 7.25 18.375 C3.61404752 20.43864871 0.38351036 20.97780359 -3.75 20.375 C-6.5625 17.9375 -6.5625 17.9375 -8.75 15.375 C-9.08 15.045 -9.41 14.715 -9.75 14.375 C-10.04322866 11.44271337 -10.25004247 9.23008117 -9.75 6.375 C-7.3125 3.4375 -7.3125 3.4375 -4.75 1.375 C-3.75 0.375 -3.75 0.375 0 0 Z " fill="#090909" transform="translate(375.75,281.625)"/>
<path d="M0 0 C3.67123639 0.01977327 4.15668193 0.29756585 7.1875 2.8125 C8.2084375 4.0809375 8.2084375 4.0809375 9.25 5.375 C9.58 5.705 9.91 6.035 10.25 6.375 C10.63015799 11.31705393 10.46685061 14.49259409 7.25 18.375 C3.61404752 20.43864871 0.38351036 20.97780359 -3.75 20.375 C-6.5625 17.9375 -6.5625 17.9375 -8.75 15.375 C-9.08 15.045 -9.41 14.715 -9.75 14.375 C-10.04322866 11.44271337 -10.25004247 9.23008117 -9.75 6.375 C-7.3125 3.4375 -7.3125 3.4375 -4.75 1.375 C-3.75 0.375 -3.75 0.375 0 0 Z " fill="#090909" transform="translate(135.75,281.625)"/>
</svg>
