<?xml version="1.0" encoding="UTF-8"?>
<svg version="1.1" xmlns="http://www.w3.org/2000/svg" width="512" height="512">
<path d="M0 0 C6.29814575 4.91012465 11.26720917 10.45632899 15.9609375 16.8984375 C17.04632813 16.54910156 18.13171875 16.19976563 19.25 15.83984375 C20.69524411 15.37999335 22.14056047 14.92036995 23.5859375 14.4609375 C24.29878906 14.23083984 25.01164062 14.00074219 25.74609375 13.76367188 C44.32689667 7.88259205 64.6249787 10.16017719 81.9609375 18.8984375 C86.74136382 21.65399412 91.37441046 24.45546517 95.46484375 28.17578125 C97.80438562 30.1652075 97.80438562 30.1652075 100.49609375 29.765625 C102.85074544 28.93720554 105.11993787 28.04224669 107.3984375 27.0234375 C126.26504887 19.45469443 149.17998078 19.04580062 168.11083984 26.77636719 C175.96631453 30.2375038 183.45072181 34.25533299 189.9609375 39.8984375 C191.13849609 40.84589844 191.13849609 40.84589844 192.33984375 41.8125 C200.73137792 48.85882641 209.75436776 59.16809634 212.5 70.03125 C212.93622911 80.14383391 206.0042023 88.11673479 199.5234375 95.2109375 C193.60015186 101.50291333 187.41593808 107.46093715 179.9609375 111.8984375 C179.3009375 111.8984375 178.6409375 111.8984375 177.9609375 111.8984375 C178.43144531 112.96320313 178.90195312 114.02796875 179.38671875 115.125 C189.45571031 138.37399149 190.64213116 158.92180739 181.9609375 182.8984375 C182.57839844 183.34832031 183.19585937 183.79820312 183.83203125 184.26171875 C198.248028 195.21085479 208.49234127 210.52679441 211.66357422 228.58105469 C214.36220242 249.61174344 211.06997921 269.2797861 198.859375 286.9375 C193.94925035 293.23564575 188.40304601 298.20470917 181.9609375 302.8984375 C182.31027344 303.97222656 182.65960938 305.04601562 183.01953125 306.15234375 C183.47945999 307.58844776 183.93907892 309.02465102 184.3984375 310.4609375 C184.74358398 311.51764648 184.74358398 311.51764648 185.09570312 312.59570312 C191.01427885 331.2091949 188.64414518 351.55561782 179.9609375 368.8984375 C169.83265805 387.30658539 154.72155224 399.21395507 134.8359375 405.6484375 C130.22645679 406.95593443 125.73142401 407.51372085 120.9609375 407.8984375 C120.83138672 409.07986328 120.83138672 409.07986328 120.69921875 410.28515625 C118.07201354 430.65202234 108.33269311 447.92520745 92.2109375 460.6484375 C75.4219669 472.73820513 55.45597909 477.29261271 35.05859375 474.33203125 C28.52537472 472.97715087 22.23179345 471.16891983 15.9609375 468.8984375 C15.51105469 469.51589844 15.06117188 470.13335937 14.59765625 470.76953125 C3.64852021 485.185528 -11.66741941 495.42984127 -29.72167969 498.60107422 C-50.58706723 501.2784912 -71.50443162 498.27889193 -88.59375 485.28125 C-94.62056312 480.45608914 -99.76402364 475.37206778 -104.0390625 468.8984375 C-105.11285156 469.24777344 -106.18664062 469.59710938 -107.29296875 469.95703125 C-108.72907276 470.41695999 -110.16527602 470.87657892 -111.6015625 471.3359375 C-112.65827148 471.68108398 -112.65827148 471.68108398 -113.73632812 472.03320312 C-132.3498199 477.95177885 -152.69624282 475.58164518 -170.0390625 466.8984375 C-188.44721039 456.77015805 -200.35458007 441.65905224 -206.7890625 421.7734375 C-208.09655943 417.16395679 -208.65434585 412.66892401 -209.0390625 407.8984375 C-210.13605469 407.71667969 -211.23304688 407.53492188 -212.36328125 407.34765625 C-213.81780217 407.09428809 -215.2722242 406.84035177 -216.7265625 406.5859375 C-217.44779297 406.46798828 -218.16902344 406.35003906 -218.91210938 406.22851562 C-223.18384627 405.46779536 -226.49593898 404.56239045 -230.0390625 401.8984375 C-233.13523653 396.9872649 -233.13523653 396.9872649 -232.8203125 393.421875 C-232.76712594 390.73056435 -232.76712594 390.73056435 -235.05078125 389.0546875 C-236.37529297 388.23484375 -236.37529297 388.23484375 -237.7265625 387.3984375 C-241.63977175 384.85954292 -244.82351622 382.30313356 -248.0390625 378.8984375 C-250.27032957 376.88217475 -251.39744363 375.92973598 -254.44140625 375.78125 C-255.27800781 375.86117188 -256.11460937 375.94109375 -256.9765625 376.0234375 C-260.88284135 376.13866696 -261.74815067 376.10029469 -265.1015625 373.7734375 C-267.29193718 370.5232041 -268.0390625 368.81561916 -268.0390625 364.8984375 C-267.29050731 362.3130022 -266.31584337 360.31013471 -265.0390625 357.8984375 C-264.3790625 357.5684375 -263.7190625 357.2384375 -263.0390625 356.8984375 C-263.255625 355.93164062 -263.4721875 354.96484375 -263.6953125 353.96875 C-265.30601651 346.52773771 -266.52575639 339.55935992 -266.0390625 331.8984375 C-267.18375 331.5271875 -267.18375 331.5271875 -268.3515625 331.1484375 C-271.39127685 329.73461687 -272.42284047 328.80763715 -274.0390625 325.8984375 C-275.32408467 320.92439102 -274.67680903 317.57780825 -273.1640625 312.7109375 C-272.79539062 311.50050781 -272.42671875 310.29007812 -272.046875 309.04296875 C-271.38923431 306.99102783 -270.72045466 304.94261399 -270.0390625 302.8984375 C-270.96525391 302.22361328 -270.96525391 302.22361328 -271.91015625 301.53515625 C-286.326153 290.58602021 -296.57046627 275.27008059 -299.74169922 257.21582031 C-302.44032742 236.18513156 -299.14810421 216.5170889 -286.9375 198.859375 C-282.02737535 192.56122925 -276.48117101 187.59216583 -270.0390625 182.8984375 C-270.38839844 181.81304687 -270.73773438 180.72765625 -271.09765625 179.609375 C-271.55750665 178.16413089 -272.01713005 176.71881453 -272.4765625 175.2734375 C-272.70666016 174.56058594 -272.93675781 173.84773437 -273.17382812 173.11328125 C-279.91620435 151.811281 -275.25267136 131.5541364 -266.0390625 111.8984375 C-266.77769531 111.6303125 -267.51632812 111.3621875 -268.27734375 111.0859375 C-282.35868537 105.03115978 -293.34278799 90.29098651 -300.0390625 76.8984375 C-301.21337481 66.32962673 -296.14251726 59.35349719 -289.7890625 51.2734375 C-275.64872717 34.73324492 -256.45049645 23.55787882 -234.45166016 21.67724609 C-231.78940165 21.559933 -229.1413743 21.51865971 -226.4765625 21.5234375 C-225.52563721 21.52504883 -224.57471191 21.52666016 -223.5949707 21.52832031 C-211.91791597 21.72781107 -201.29491881 24.12095678 -190.75 29.19140625 C-188.94246404 30.05103949 -188.94246404 30.05103949 -186.4140625 30.0234375 C-183.78973589 28.92195888 -183.78973589 28.92195888 -181.2265625 26.3359375 C-167.04323605 13.45897006 -146.8807692 9.96668518 -128.42431641 10.70166016 C-120.04516652 11.39291858 -111.9499117 14.20486615 -104.0390625 16.8984375 C-103.36423828 15.97224609 -103.36423828 15.97224609 -102.67578125 15.02734375 C-91.72664521 0.611347 -76.41070559 -9.63296627 -58.35644531 -12.80419922 C-37.32575656 -15.50282742 -17.6577139 -12.21060421 0 0 Z " fill="#E7E9EF" transform="translate(300.0390625,13.1015625)"/>
<path d="M0 0 C4.19323064 2.68569455 5.88823666 5.28379565 7.8125 9.8125 C11.19350869 16.9212875 16.15895491 22.68918727 23.734375 25.57421875 C29.23856179 26.60862627 37.95662907 27.52168547 43 25 C47.24125505 24.51062442 49.44457276 24.68416883 53.1875 26.8125 C56.61264441 29.99234229 57.65587156 34.00905176 59.08203125 38.3515625 C61.50158386 45.33222917 66.49219135 50.64464793 72.99609375 54.04296875 C80.67382579 57.04362366 89.96690405 57.57457361 97.6875 54.5 C101.24060803 52.70392341 104.04767973 50.33413166 107.0625 47.75 C112.39730161 43.37694229 112.39730161 43.37694229 116 43 C120.84015671 43.49969229 124.13251921 46.95092926 127.671875 50.0234375 C134.26696497 55.62262462 141.09485003 56.48164083 149.47265625 56.40625 C156.67894386 55.57628997 163.34966145 52.12917199 168.4375 46.9375 C170.91990256 43.70241562 172.12682944 40.19318897 173.5 36.375 C175.49752465 30.84681873 176.77372219 27.82219002 182 25 C185.47991184 24.65200882 187.85088521 24.42544261 191 26 C198.56195254 26.51001496 205.34841364 26.88009204 212 23 C213.5159375 22.1646875 213.5159375 22.1646875 215.0625 21.3125 C220.10925771 17.33952053 223.40011914 12.46722775 226.125 6.6875 C227.64539137 3.54164957 228.68117069 1.47503525 232 0 C237.07428571 -0.64435374 237.07428571 -0.64435374 240 0 C242.9375 2.4375 242.9375 2.4375 245 5 C245.33 5.33 245.66 5.66 246 6 C245.82082031 6.77085937 245.64164062 7.54171875 245.45703125 8.3359375 C244.71535426 11.83305689 244.46852754 14.45127047 245 18 C247.56730027 21.18761798 250.43398456 23.52770156 253.59375 26.09765625 C273.4546837 42.3694676 283.20183016 69.70545457 285.79711914 94.42211914 C288.17550635 124.64280574 284.51204346 153.68571096 264.35449219 177.47070312 C253.35249031 189.89257403 239.15360389 197.92698603 224.89453125 206.07910156 C213.15662234 212.84965357 202.9495433 220.81458162 193 230 C191.27098869 231.52100995 189.5418225 233.04184387 187.8125 234.5625 C184.19404409 237.8151711 180.97696558 241.20172036 177.828125 244.90234375 C163.33900265 261.52768286 146.18983261 273.03272682 124 275 C101.74379367 276.50663704 82.99937692 271.03920411 66.04516602 256.53222656 C58.73611949 250.12376474 51.51770736 243.34347257 45.34765625 235.81640625 C42.86383062 232.83664206 40.27113126 230.45443379 37.3203125 227.9609375 C35.70780313 226.59817705 34.12071595 225.20499238 32.5546875 223.7890625 C21.82472472 214.34302689 9.43428296 207.34787304 -2.86328125 200.1484375 C-24.82305145 187.20219583 -42.68391881 170.34169134 -50.19140625 145.25 C-58.22189725 112.97285742 -55.95662923 77.02732145 -39 48 C-31.99956832 36.50843092 -23.38776524 26.5479703 -13 18 C-13.23783203 16.87078125 -13.23783203 16.87078125 -13.48046875 15.71875 C-14.40812078 10.86427023 -14.89743581 7.37606825 -12.125 3.125 C-8.61613555 -0.38386445 -4.82292706 -0.94720549 0 0 Z " fill="#FEDBD4" transform="translate(140,144)"/>
<path d="M0 0 C6.29814575 4.91012465 11.26720917 10.45632899 15.9609375 16.8984375 C17.04632813 16.54910156 18.13171875 16.19976563 19.25 15.83984375 C20.69524411 15.37999335 22.14056047 14.92036995 23.5859375 14.4609375 C24.29878906 14.23083984 25.01164062 14.00074219 25.74609375 13.76367188 C44.32689667 7.88259205 64.6249787 10.16017719 81.9609375 18.8984375 C86.74136382 21.65399412 91.37441046 24.45546517 95.46484375 28.17578125 C97.80438562 30.1652075 97.80438562 30.1652075 100.49609375 29.765625 C102.85074544 28.93720554 105.11993787 28.04224669 107.3984375 27.0234375 C126.26504887 19.45469443 149.17998078 19.04580062 168.11083984 26.77636719 C175.96631453 30.2375038 183.45072181 34.25533299 189.9609375 39.8984375 C191.13849609 40.84589844 191.13849609 40.84589844 192.33984375 41.8125 C200.73137792 48.85882641 209.75436776 59.16809634 212.5 70.03125 C212.93622911 80.14383391 206.0042023 88.11673479 199.5234375 95.2109375 C193.60015186 101.50291333 187.41593808 107.46093715 179.9609375 111.8984375 C179.3009375 111.8984375 178.6409375 111.8984375 177.9609375 111.8984375 C178.43144531 112.96320313 178.90195312 114.02796875 179.38671875 115.125 C189.45571031 138.37399149 190.64213116 158.92180739 181.9609375 182.8984375 C182.57839844 183.34832031 183.19585937 183.79820312 183.83203125 184.26171875 C198.248028 195.21085479 208.49234127 210.52679441 211.66357422 228.58105469 C214.36220242 249.61174344 211.06997921 269.2797861 198.859375 286.9375 C193.94925035 293.23564575 188.40304601 298.20470917 181.9609375 302.8984375 C182.31027344 303.97222656 182.65960938 305.04601562 183.01953125 306.15234375 C183.47945999 307.58844776 183.93907892 309.02465102 184.3984375 310.4609375 C184.74358398 311.51764648 184.74358398 311.51764648 185.09570312 312.59570312 C191.01427885 331.2091949 188.64414518 351.55561782 179.9609375 368.8984375 C169.83265805 387.30658539 154.72155224 399.21395507 134.8359375 405.6484375 C130.22645679 406.95593443 125.73142401 407.51372085 120.9609375 407.8984375 C120.83138672 409.07986328 120.83138672 409.07986328 120.69921875 410.28515625 C118.07201354 430.65202234 108.33269311 447.92520745 92.2109375 460.6484375 C75.4219669 472.73820513 55.45597909 477.29261271 35.05859375 474.33203125 C28.52537472 472.97715087 22.23179345 471.16891983 15.9609375 468.8984375 C15.51105469 469.51589844 15.06117188 470.13335937 14.59765625 470.76953125 C3.64852021 485.185528 -11.66741941 495.42984127 -29.72167969 498.60107422 C-50.58706723 501.2784912 -71.50443162 498.27889193 -88.59375 485.28125 C-94.62056312 480.45608914 -99.76402364 475.37206778 -104.0390625 468.8984375 C-105.11285156 469.24777344 -106.18664062 469.59710938 -107.29296875 469.95703125 C-108.72907276 470.41695999 -110.16527602 470.87657892 -111.6015625 471.3359375 C-112.65827148 471.68108398 -112.65827148 471.68108398 -113.73632812 472.03320312 C-132.3498199 477.95177885 -152.69624282 475.58164518 -170.0390625 466.8984375 C-188.44721039 456.77015805 -200.35458007 441.65905224 -206.7890625 421.7734375 C-208.09655943 417.16395679 -208.65434585 412.66892401 -209.0390625 407.8984375 C-210.13605469 407.71667969 -211.23304688 407.53492188 -212.36328125 407.34765625 C-213.81780217 407.09428809 -215.2722242 406.84035177 -216.7265625 406.5859375 C-217.44779297 406.46798828 -218.16902344 406.35003906 -218.91210938 406.22851562 C-223.18507221 405.46757704 -226.49296309 404.55966294 -230.0390625 401.8984375 C-231.97076993 398.93648611 -233.0390625 396.95527323 -233.0390625 393.3984375 C-231.59900262 389.79828781 -229.84192896 387.5794402 -227.0390625 384.8984375 C-223.28444976 383.80618652 -221.06576361 383.52152814 -217.37890625 384.875 C-212.51098975 386.36668903 -207.73464194 386.2556449 -202.671875 386.2890625 C-197.36933317 386.44974559 -194.20187859 387.30673947 -190.0390625 390.8984375 C-187.30050019 394.43872385 -187.71650199 398.72516958 -187.6015625 403.0234375 C-186.92094402 418.04146681 -181.90407306 430.11803653 -170.81640625 440.60546875 C-160.48062793 449.13866408 -149.68342901 453.48730881 -136.3515625 453.3984375 C-135.38984131 453.39489258 -134.42812012 453.39134766 -133.43725586 453.38769531 C-123.64766179 453.16130839 -115.50845324 450.72962723 -107.1015625 445.5859375 C-103.37673973 443.53348414 -101.23202208 443.2772583 -97.0390625 443.8984375 C-93.21761697 446.49963952 -91.06680324 449.0998912 -88.7890625 453.0859375 C-81.10829789 465.52778082 -70.57445948 473.23865534 -56.5390625 477.2109375 C-50.33932393 478.42874329 -44.31997609 478.33500324 -38.0390625 477.8984375 C-37.17796875 477.83914063 -36.316875 477.77984375 -35.4296875 477.71875 C-22.52005554 475.94259258 -9.96824339 467.96531343 -2.0390625 457.8984375 C-0.37098529 455.32419862 1.16722445 452.71078552 2.6796875 450.04296875 C4.44594577 447.08664012 5.84274993 445.42127329 8.9609375 443.8984375 C15.73945555 443.12815136 21.27833574 446.27217389 27.06640625 449.42578125 C37.28672841 454.62559428 51.07623941 454.76523352 62.1640625 452.0234375 C69.61124093 449.53010904 75.93180571 445.90693093 81.9609375 440.8984375 C82.66863281 440.32609375 83.37632812 439.75375 84.10546875 439.1640625 C91.95027722 432.14423389 98.20444398 420.40341224 99.14306641 409.85083008 C99.26693597 406.94254498 99.33097323 404.03776115 99.3515625 401.12695312 C99.51818992 395.98464577 100.51441656 392.94779514 103.9609375 388.8984375 C107.48576363 386.17613875 111.68744534 386.61630876 115.9609375 386.5234375 C131.04409826 385.88593991 143.4949568 380.3281067 153.92578125 369.30859375 C157.20146301 365.42933147 159.72751941 361.45352425 161.9609375 356.8984375 C162.37472656 356.06441406 162.78851563 355.23039062 163.21484375 354.37109375 C167.99207393 342.76924902 168.13643021 327.26537945 163.7109375 315.5234375 C162.84245353 313.6256392 161.93038325 311.74670093 160.9609375 309.8984375 C160.55746094 309.12371094 160.15398437 308.34898437 159.73828125 307.55078125 C159.37863281 306.86113281 159.01898438 306.17148437 158.6484375 305.4609375 C156.89038092 301.74948472 156.17522854 299.9142833 156.9609375 295.8984375 C159.63760754 291.61576544 162.34160339 289.55644884 166.7109375 287.0859375 C178.9637893 279.97782911 186.4388742 268.46755546 190.16015625 254.9140625 C193.27162357 241.18916446 190.94392099 227.18817954 183.7734375 215.1484375 C177.96563409 206.66485205 171.28528319 200.6455043 162.34375 195.6015625 C159.5406161 193.59801105 158.35085605 192.04646495 156.9609375 188.8984375 C156.25499557 183.79766103 157.91686124 180.32391432 160.3359375 175.9609375 C166.82140167 164.05773802 168.59237741 149.21128224 165.0859375 135.921875 C162.52041669 128.84981435 158.71130997 122.70666603 153.9609375 116.8984375 C153.38859375 116.18945312 152.81625 115.48046875 152.2265625 114.75 C145.19815885 106.9106267 133.46948893 100.65524916 122.91333008 99.71630859 C120.00504498 99.59243903 117.10026115 99.52840177 114.18945312 99.5078125 C109.04714577 99.34118508 106.01029514 98.34495844 101.9609375 94.8984375 C99.10979125 91.28094269 99.67543296 86.74438402 99.5859375 82.3359375 C98.99883811 67.53570895 93.32366226 55.27070975 82.51171875 45.00390625 C71.97748074 36.30872358 60.70164037 32.30765278 47.1484375 32.3984375 C46.1879248 32.40198242 45.22741211 32.40552734 44.23779297 32.40917969 C36.22973987 32.5953821 30.1048131 34.15135268 22.9609375 37.8984375 C21.79884766 38.50365234 21.79884766 38.50365234 20.61328125 39.12109375 C19.57880859 39.66056641 19.57880859 39.66056641 18.5234375 40.2109375 C14.84665432 41.95257164 12.94693384 42.60705907 8.9609375 41.8984375 C5.15797826 39.27301382 2.98963473 36.69865765 0.7109375 32.7109375 C-7.11092286 20.16927654 -18.62650577 11.85986411 -33.1015625 8.3984375 C-34.74037503 8.17296329 -36.38872022 8.01208382 -38.0390625 7.8984375 C-39.76382813 7.77855469 -39.76382813 7.77855469 -41.5234375 7.65625 C-56.35398575 7.14172077 -68.17594362 11.38467166 -79.4765625 20.96484375 C-84.42342285 25.63595006 -88.03834934 30.63053469 -91.43359375 36.515625 C-93.16247999 39.08161188 -94.30065916 40.45516035 -97.0390625 41.8984375 C-102.69725422 42.57902188 -106.10729884 41.22049575 -111.0390625 38.5234375 C-122.9520784 32.06169004 -137.71141693 30.26309236 -151.015625 33.7734375 C-158.09149466 36.3403401 -164.22290428 40.15341341 -170.0390625 44.8984375 C-170.73644531 45.44757812 -171.43382812 45.99671875 -172.15234375 46.5625 C-179.48816302 53.02941641 -186.48210062 65.00127411 -187.1809082 74.90966797 C-187.19210693 75.60463379 -187.20330566 76.29959961 -187.21484375 77.015625 C-187.25061523 78.17384766 -187.25061523 78.17384766 -187.28710938 79.35546875 C-187.3298628 80.95937006 -187.36123029 82.5636178 -187.38085938 84.16796875 C-187.57137735 89.4936108 -188.43095139 92.72196906 -192.0390625 96.8984375 C-195.65655731 99.74958375 -200.19311598 99.18394204 -204.6015625 99.2734375 C-219.40621397 99.86071234 -231.65662505 105.53929087 -241.93359375 116.34375 C-250.44087831 126.66613238 -254.62086233 137.43650732 -254.4765625 150.7109375 C-254.46971436 151.67926514 -254.46286621 152.64759277 -254.45581055 153.64526367 C-254.24270495 163.15679707 -252.08444225 170.51370717 -247.2890625 178.7109375 C-245.01485444 182.60455068 -244.24733269 185.32399857 -245.0390625 189.8984375 C-247.64985555 193.71329492 -250.2392561 195.8699767 -254.2265625 198.1484375 C-266.66126491 205.82479379 -274.40413615 216.36858469 -278.34765625 230.41015625 C-281.22560238 244.92996358 -278.43447805 259.10037777 -271.11328125 271.82421875 C-265.65649506 279.91177191 -258.79824419 285.5111651 -250.38671875 290.328125 C-247.90831029 291.98589572 -246.5277283 293.32265392 -245.0390625 295.8984375 C-244.0627035 302.53232882 -247.53387853 308.32493533 -250.55859375 313.96484375 C-251.88400076 316.59117796 -252.79085063 319.01953385 -253.6015625 321.8359375 C-254.83915199 325.89493635 -256.71961574 328.17478887 -260.0390625 330.8984375 C-262.89230687 332.32505969 -264.87360799 332.20877618 -268.0390625 331.8984375 C-272.0211699 329.4548716 -273.69179448 327.32701706 -275.0390625 322.8984375 C-274.67484479 316.03033208 -272.41405359 309.31091344 -270.0390625 302.8984375 C-270.96525391 302.22361328 -270.96525391 302.22361328 -271.91015625 301.53515625 C-286.326153 290.58602021 -296.57046627 275.27008059 -299.74169922 257.21582031 C-302.44032742 236.18513156 -299.14810421 216.5170889 -286.9375 198.859375 C-282.02737535 192.56122925 -276.48117101 187.59216583 -270.0390625 182.8984375 C-270.38839844 181.81304687 -270.73773438 180.72765625 -271.09765625 179.609375 C-271.55750665 178.16413089 -272.01713005 176.71881453 -272.4765625 175.2734375 C-272.70666016 174.56058594 -272.93675781 173.84773437 -273.17382812 173.11328125 C-279.91620435 151.811281 -275.25267136 131.5541364 -266.0390625 111.8984375 C-266.77769531 111.6303125 -267.51632812 111.3621875 -268.27734375 111.0859375 C-282.35868537 105.03115978 -293.34278799 90.29098651 -300.0390625 76.8984375 C-301.21337481 66.32962673 -296.14251726 59.35349719 -289.7890625 51.2734375 C-275.64872717 34.73324492 -256.45049645 23.55787882 -234.45166016 21.67724609 C-231.78940165 21.559933 -229.1413743 21.51865971 -226.4765625 21.5234375 C-225.52563721 21.52504883 -224.57471191 21.52666016 -223.5949707 21.52832031 C-211.91791597 21.72781107 -201.29491881 24.12095678 -190.75 29.19140625 C-188.94246404 30.05103949 -188.94246404 30.05103949 -186.4140625 30.0234375 C-183.78973589 28.92195888 -183.78973589 28.92195888 -181.2265625 26.3359375 C-167.04323605 13.45897006 -146.8807692 9.96668518 -128.42431641 10.70166016 C-120.04516652 11.39291858 -111.9499117 14.20486615 -104.0390625 16.8984375 C-103.36423828 15.97224609 -103.36423828 15.97224609 -102.67578125 15.02734375 C-91.72664521 0.611347 -76.41070559 -9.63296627 -58.35644531 -12.80419922 C-37.32575656 -15.50282742 -17.6577139 -12.21060421 0 0 Z " fill="#010101" transform="translate(300.0390625,13.1015625)"/>
<path d="M0 0 C4.19323064 2.68569455 5.88823666 5.28379565 7.8125 9.8125 C11.19350869 16.9212875 16.15895491 22.68918727 23.734375 25.57421875 C29.23856179 26.60862627 37.95662907 27.52168547 43 25 C47.24125505 24.51062442 49.44457276 24.68416883 53.1875 26.8125 C56.61264441 29.99234229 57.65587156 34.00905176 59.08203125 38.3515625 C61.50158386 45.33222917 66.49219135 50.64464793 72.99609375 54.04296875 C80.67382579 57.04362366 89.96690405 57.57457361 97.6875 54.5 C101.24060803 52.70392341 104.04767973 50.33413166 107.0625 47.75 C112.39730161 43.37694229 112.39730161 43.37694229 116 43 C120.84015671 43.49969229 124.13251921 46.95092926 127.671875 50.0234375 C134.26696497 55.62262462 141.09485003 56.48164083 149.47265625 56.40625 C156.67894386 55.57628997 163.34966145 52.12917199 168.4375 46.9375 C170.91990256 43.70241562 172.12682944 40.19318897 173.5 36.375 C175.49752465 30.84681873 176.77372219 27.82219002 182 25 C185.47991184 24.65200882 187.85088521 24.42544261 191 26 C198.56195254 26.51001496 205.34841364 26.88009204 212 23 C213.5159375 22.1646875 213.5159375 22.1646875 215.0625 21.3125 C220.10925771 17.33952053 223.40011914 12.46722775 226.125 6.6875 C227.64539137 3.54164957 228.68117069 1.47503525 232 0 C237.07428571 -0.64435374 237.07428571 -0.64435374 240 0 C242.9375 2.4375 242.9375 2.4375 245 5 C245.33 5.33 245.66 5.66 246 6 C245.82082031 6.77085937 245.64164062 7.54171875 245.45703125 8.3359375 C244.71535426 11.83305689 244.46852754 14.45127047 245 18 C247.56730027 21.18761798 250.43398456 23.52770156 253.59375 26.09765625 C273.4546837 42.3694676 283.20183016 69.70545457 285.79711914 94.42211914 C288.17550635 124.64280574 284.51204346 153.68571096 264.35449219 177.47070312 C253.35249031 189.89257403 239.15360389 197.92698603 224.89453125 206.07910156 C213.15662234 212.84965357 202.9495433 220.81458162 193 230 C191.27098869 231.52100995 189.5418225 233.04184387 187.8125 234.5625 C184.19404409 237.8151711 180.97696558 241.20172036 177.828125 244.90234375 C163.33900265 261.52768286 146.18983261 273.03272682 124 275 C101.74379367 276.50663704 82.99937692 271.03920411 66.04516602 256.53222656 C58.73611949 250.12376474 51.51770736 243.34347257 45.34765625 235.81640625 C42.86383062 232.83664206 40.27113126 230.45443379 37.3203125 227.9609375 C35.70780313 226.59817705 34.12071595 225.20499238 32.5546875 223.7890625 C21.82472472 214.34302689 9.43428296 207.34787304 -2.86328125 200.1484375 C-24.82305145 187.20219583 -42.68391881 170.34169134 -50.19140625 145.25 C-58.22189725 112.97285742 -55.95662923 77.02732145 -39 48 C-31.99956832 36.50843092 -23.38776524 26.5479703 -13 18 C-13.23783203 16.87078125 -13.23783203 16.87078125 -13.48046875 15.71875 C-14.40812078 10.86427023 -14.89743581 7.37606825 -12.125 3.125 C-8.61613555 -0.38386445 -4.82292706 -0.94720549 0 0 Z M-1 34 C-19.69720654 51.50037255 -32.96918269 72.10149486 -34.11010742 98.55273438 C-34.57640807 120.57314296 -33.91640569 144.3451613 -19 162 C-18.20980469 162.98742187 -17.41960937 163.97484375 -16.60546875 164.9921875 C-8.66775517 174.15566495 2.0906879 179.96152399 12.4375 186 C35.10054888 199.23343645 55.80538982 215.14440233 72.75 235.375 C81.65896319 245.77249319 94.38733017 253.7350719 108.16064453 255.23535156 C125.36991629 256.290297 139.72284302 252.83998199 152.9609375 241.453125 C158.01937124 236.977934 162.74902858 232.32093217 167.109375 227.15625 C174.61873781 218.59185274 182.96297598 210.92013209 192 204 C193.41152344 202.90365234 193.41152344 202.90365234 194.8515625 201.78515625 C203.85561072 195.07121955 213.48941455 189.44968114 223.23046875 183.88452148 C230.34381265 179.76916422 236.72248202 175.29414187 243 170 C243.87422607 169.31437988 244.74845215 168.62875977 245.64916992 167.92236328 C257.98280358 157.83668134 263.60507105 140.26385605 265.6875 125.0546875 C266.20202564 119.50891965 266.21577558 113.94054193 266.25 108.375 C266.26401855 106.80153809 266.26401855 106.80153809 266.27832031 105.19628906 C266.24997984 98.2528742 265.44413391 91.78407092 264 85 C263.81179688 83.96488281 263.62359375 82.92976563 263.4296875 81.86328125 C259.20307587 62.42682071 247.05239458 47.42003682 233 34 C229.07046793 35.88798207 225.42945278 38.1654753 221.73046875 40.46484375 C215.6951729 43.85807876 211.50138462 45.22482291 204.62817383 45.41430664 C196.40351697 45.50457161 196.40351697 45.50457161 189.45703125 49.25390625 C187.7881582 52.10407187 186.40946194 55.01479129 185 58 C178.43638293 66.77953907 167.72573706 73.16590592 157.0546875 75.69921875 C143.9768657 76.98693266 132.61133449 76.71645095 121.125 69.6875 C117.46473635 67.71095763 116.85647869 67.8719522 113 69 C110.81228181 69.95306535 108.6462742 70.95695086 106.5 72 C95.75829017 77.2202702 81.38966584 78.33478761 69.9375 74.375 C68.26804141 73.63445191 66.62018405 72.84291585 65 72 C64.15308594 71.57589844 63.30617188 71.15179688 62.43359375 70.71484375 C54.0630124 66.1269984 47.37947006 60.25993346 43.4375 51.5 C42.15981754 48.88281992 42.15981754 48.88281992 40 47 C35.94540199 46.18550018 32.16093986 46.11847773 28.04296875 46.11328125 C19.44874922 46.05912864 12.2755844 41.87211792 5.19140625 37.3671875 C3.17358485 36.10829714 1.14389198 35.02555197 -1 34 Z " fill="#030202" transform="translate(140,144)"/>
<path d="M0 0 C-0.94360509 2.39466004 -1.89570762 4.77157013 -2.96484375 7.11328125 C-6.36838407 14.80883626 -7.64915945 22.75168574 -9 31 C-9.99257812 31.14695313 -10.98515625 31.29390625 -12.0078125 31.4453125 C-25.05070228 33.53346784 -36.22916089 37.3886475 -46.9140625 45.484375 C-50.87157783 48.35987303 -50.87157783 48.35987303 -53 49 C-63.23361001 45.2186661 -74.16369295 35.90291444 -79 26 C-78.33916552 18.5717309 -72.535667 13.2292739 -67.1875 8.52734375 C-47.76997789 -6.61731217 -22.55567213 -11.27783607 0 0 Z " fill="#FCD9D2" transform="translate(101,61)"/>
<path d="M0 0 C5.73229383 4.48784422 11.11727869 9.71028898 14.25 16.375 C14.25759392 21.15157555 11.44217882 23.95220667 8.3125 27.25 C7.82394531 27.7744873 7.33539063 28.29897461 6.83203125 28.83935547 C2.44703945 33.41788588 -2.37136881 37.02339027 -7.75 40.375 C-8.74 41.035 -9.73 41.695 -10.75 42.375 C-13.98093642 42.03523883 -15.80031092 40.7342797 -18.25 38.6875 C-29.40102145 30.04909232 -42.02664937 26.34874755 -55.75 24.375 C-55.90855469 23.35921875 -56.06710937 22.3434375 -56.23046875 21.296875 C-57.70996477 12.38405209 -59.94620394 4.62567995 -63.75 -3.625 C-64.08 -4.615 -64.41 -5.605 -64.75 -6.625 C-43.0118302 -15.97377449 -19.4140665 -14.48132882 0 0 Z " fill="#FCD9D2" transform="translate(475.75,67.625)"/>
<path d="M0 0 C4.67654016 3.05406704 6.97323547 6.38504479 9.7890625 11.12890625 C12.1907466 14.83989556 14.57241621 16.6896557 18.875 17.625 C24.13184988 16.57363002 27.43572791 13.29455381 30.4140625 8.92578125 C31.24642667 7.54446525 32.07224718 6.15917931 32.890625 4.76953125 C34.32577256 2.48036983 35.5581147 1.18394439 38 0 C41.0538447 -0.53110343 43.00746545 -0.62177339 45.68359375 1.0546875 C47.88799128 2.84146536 49.72002097 4.44004194 51 7 C51.40806676 15.3919817 47.58006317 20.84647134 42.29296875 26.98046875 C37.94478955 31.58384583 37.94478955 31.58384583 35.24462891 32.77319336 C33.2187698 33.68825532 31.65441729 34.50799956 30 36 C29.05756476 38.97764209 29.15535576 41.83665568 29.25 44.9375 C29.36212082 54.86019236 29.36212082 54.86019236 26 59 C21.99366249 61.67089167 18.71008572 61.70693873 14 61 C10.96784325 58.80168636 10.18345602 57.55036806 9 54 C8.95589681 52.66088231 8.960551 51.31973163 9 49.98046875 C9.41575672 41.33038103 9.41575672 41.33038103 6.1796875 33.7265625 C3.84752519 32.29564257 1.47675498 31.15822361 -1 30 C-7.58705304 24.88396869 -12.04441386 17.96904791 -13.625 9.75 C-12.71681551 5.75398824 -10.85886522 3.92693344 -8 1 C-5.09704195 -0.45147903 -3.22738221 -0.37239025 0 0 Z " fill="#020202" transform="translate(237,282)"/>
<path d="M0 0 C2.92937654 1.81310142 5.43647949 3.87295899 7 7 C7.17778623 9.59975932 7.27753022 12.14824807 7.3125 14.75 C7.34150391 15.45382813 7.37050781 16.15765625 7.40039062 16.8828125 C7.46264141 22.03526184 6.38258227 24.90826783 3 29 C-0.21694364 30.60847182 -3.52137222 30.61309149 -7 30 C-9.69105198 27.82425584 -11.45532928 26.08934144 -13 23 C-13.20417252 20.3982588 -13.32365064 17.85481282 -13.375 15.25 C-13.41238281 14.54617187 -13.44976562 13.84234375 -13.48828125 13.1171875 C-13.55537242 9.10662643 -13.17305918 6.70975923 -10.6015625 3.546875 C-6.97571772 -0.00275082 -5.0553986 -0.58331522 0 0 Z " fill="#040403" transform="translate(337,240)"/>
<path d="M0 0 C2.92937654 1.81310142 5.43647949 3.87295899 7 7 C7.17778623 9.59975932 7.27753022 12.14824807 7.3125 14.75 C7.34150391 15.45382813 7.37050781 16.15765625 7.40039062 16.8828125 C7.46264141 22.03526184 6.38258227 24.90826783 3 29 C-0.21694364 30.60847182 -3.52137222 30.61309149 -7 30 C-9.69105198 27.82425584 -11.45532928 26.08934144 -13 23 C-13.20417252 20.3982588 -13.32365064 17.85481282 -13.375 15.25 C-13.41238281 14.54617187 -13.44976562 13.84234375 -13.48828125 13.1171875 C-13.55537242 9.10662643 -13.17305918 6.70975923 -10.6015625 3.546875 C-6.97571772 -0.00275082 -5.0553986 -0.58331522 0 0 Z " fill="#040403" transform="translate(181,240)"/>
<path d="M0 0 C3.29919429 2.47439572 4.55199986 5.17399921 5.25 9.1875 C4.55911909 13.50550569 3.25993897 16.58254747 -0.25 19.3125 C-3.7588141 20.22134037 -6.72895543 20.1334989 -10.25 19.3125 C-13.66421647 16.94345184 -14.89346607 15.33753506 -16.25 11.4375 C-16.25 7.37905753 -15.21854587 4.84230639 -13.25 1.3125 C-9.54501887 -1.73087735 -4.41504131 -1.3490404 0 0 Z " fill="#030303" transform="translate(48.25,369.6875)"/>
</svg>
