<?xml version="1.0" encoding="UTF-8"?>
<svg version="1.1" xmlns="http://www.w3.org/2000/svg" width="512" height="512">
<path d="M0 0 C0.8971875 0.37382813 1.794375 0.74765625 2.71875 1.1328125 C8.6794329 3.84384599 13.31314447 7.457154 18 12 C19.17433594 11.48050781 20.34867188 10.96101562 21.55859375 10.42578125 C32.19839506 5.7874337 42.73532118 1.81276277 54 -1 C55.20269531 -1.3196875 56.40539062 -1.639375 57.64453125 -1.96875 C91.18104114 -9.42898289 127.58430164 -3.1380884 158 12 C158.40347656 11.57589844 158.80695313 11.15179688 159.22265625 10.71484375 C163.57381624 6.51149386 168.06159832 3.72037083 173.5 1.1875 C174.11625244 0.8980249 174.73250488 0.6085498 175.36743164 0.31030273 C189.36911585 -5.96580496 207.82212511 -6.70351356 222.23046875 -1.24609375 C223.14441406 -0.83488281 224.05835938 -0.42367188 225 0 C226.38638672 0.60134766 226.38638672 0.60134766 227.80078125 1.21484375 C244.02351781 9.13117206 254.21001582 23.21809273 260 40 C264.77295968 56.0590206 261.85917452 72.64313282 254.31958008 87.30200195 C248.56963102 97.83390819 239.81189729 106.59405136 229 112 C229.01571045 112.85005615 229.0314209 113.7001123 229.04760742 114.57592773 C229.57563871 147.49878985 224.95518894 176.03204127 205.6640625 203.546875 C204.2315958 205.65858648 203.10999495 207.71226109 202 210 C203.12305542 210.5576001 203.12305542 210.5576001 204.26879883 211.12646484 C230.05760196 223.94286214 230.05760196 223.94286214 241.95825195 230.30566406 C246.30488075 232.61819349 250.6842721 234.84087858 255.109375 237 C275.9617317 247.17833447 275.9617317 247.17833447 284 254 C284.76699219 254.59683594 285.53398437 255.19367188 286.32421875 255.80859375 C300.47116011 267.36152889 309.71334222 286.03340319 312 304 C313.51038848 327.33997525 309.03946269 348.5271138 293.3671875 366.53125 C287.96753501 372.16257075 282.10775477 377.15927946 276 382 C276.56267578 382.87398438 276.56267578 382.87398438 277.13671875 383.765625 C286.22835971 398.33057122 290.59629511 413.12665086 290.4375 430.3125 C290.42847656 431.49239502 290.41945313 432.67229004 290.41015625 433.88793945 C289.99592083 454.84566277 282.15688741 473.99298061 267.765625 489.390625 C253.66386008 502.93937953 237.37583868 508.64046296 218.05175781 508.4753418 C210.44232061 508.23631223 204.03156174 507.05633224 197 504 C195.6696875 503.43925781 195.6696875 503.43925781 194.3125 502.8671875 C185.15199756 498.65000497 177.87712096 492.27515369 171 485 C167.86445924 486.1260573 164.99367845 487.51483019 162.09375 489.13671875 C127.1548344 508.63509831 85.17919638 514.05016668 46.48291016 503.30078125 C35.24235724 500.01531517 25.01646953 495.25614209 14.80053711 489.55639648 C13.55348999 488.86525757 13.55348999 488.86525757 12.28125 488.16015625 C11.54970703 487.74386963 10.81816406 487.32758301 10.06445312 486.89868164 C7.7640011 485.73391036 7.7640011 485.73391036 4 486 C2.25657149 487.44705293 2.25657149 487.44705293 0.625 489.4375 C-10.6364561 501.24420351 -25.59573422 507.94569203 -41.85620117 508.34350586 C-61.81512873 508.55173082 -77.71253238 502.78055274 -92.3984375 488.79296875 C-109.80531363 470.10540654 -115.03703664 448.21320176 -114.375 423.44921875 C-113.70796515 409.06419538 -108.78733976 397.51691228 -102 385 C-101.32656524 383.67007224 -100.65582696 382.33869833 -100 381 C-101.06927734 380.25556641 -101.06927734 380.25556641 -102.16015625 379.49609375 C-119.37344134 367.28693999 -131.28799058 350.57399276 -135.33984375 329.625 C-139.05835289 306.48316118 -133.65491994 284.99575556 -120 266 C-105.0612478 246.93045647 -81.58994386 238.24536141 -60.45776367 227.73803711 C-52.18373985 223.61755204 -43.98794754 219.36500135 -35.828125 215.0234375 C-32.57803946 213.29531967 -29.30080082 211.62964066 -26 210 C-28.58769596 205.36784899 -31.33906669 200.96191376 -34.3125 196.5625 C-40.89138404 186.49724202 -45.35901685 175.74386703 -48.8125 164.25 C-49.0074707 163.60184326 -49.20244141 162.95368652 -49.40332031 162.28588867 C-51.86755248 153.5730678 -53.22540758 145.14628637 -52.80859375 136.07421875 C-52.78118607 135.39044159 -52.75377838 134.70666443 -52.72554016 134.00216675 C-52.60818809 131.17866725 -52.48678173 128.35933602 -52.2800293 125.54077148 C-51.95508268 120.88674886 -51.83807959 116.56594017 -53 112 C-55.54302986 109.38056437 -57.87415653 107.94989746 -61.15576172 106.37646484 C-72.66772151 100.80526919 -79.41190209 87.11799329 -83.4375 75.5625 C-88.32620268 59.19503729 -86.5124505 42.47273705 -78.9375 27.25 C-69.56685721 11.19456745 -56.02981123 1.61283398 -38.1640625 -3.52832031 C-26.00385571 -6.1787625 -11.34291594 -4.98697166 0 0 Z " fill="#010100" transform="translate(168,4)"/>
<path d="M0 0 C0.99515625 0.83144531 1.9903125 1.66289063 3.015625 2.51953125 C24.32703394 20.90684837 38.32357185 46.89130895 41 75 C43.09418471 104.4245417 34.23362493 132.74568747 15.125 155.3125 C-5.40487776 178.67765648 -35.45107267 195.9438581 -67 198 C-101.1377431 199.65398399 -133.33260829 192.28421544 -160 170 C-160.99515625 169.16855469 -161.9903125 168.33710938 -163.015625 167.48046875 C-178.49476467 154.12237015 -189.42660049 137.34385885 -196 118 C-196.44472656 116.74123047 -196.44472656 116.74123047 -196.8984375 115.45703125 C-205.3598835 89.77947482 -201.95332953 60.80796135 -189.99609375 36.859375 C-178.00307388 14.08875175 -159.86501849 -3.33566826 -137 -15 C-136.39349609 -15.31066406 -135.78699219 -15.62132812 -135.16210938 -15.94140625 C-92.10670793 -37.49164907 -36.84868085 -30.79206065 0 0 Z " fill="#CA9D82" transform="translate(336,48)"/>
<path d="M0 0 C3.87245251 1.37653585 7.24661118 3.25541994 10.77246094 5.32592773 C25.46252743 13.89298646 41.14983364 20.32568959 58 23 C59.62035156 23.30357422 59.62035156 23.30357422 61.2734375 23.61328125 C97.56253109 29.60709783 135.63645323 21.73992557 165.984375 0.8359375 C168 0 168 0 170.0390625 0.671875 C194.9349899 17.5336585 210.68784876 51.06991018 216.53466797 79.60986328 C218.85929594 92.08544352 219.39072216 104.33770769 219 117 C218.06800781 117.08636719 217.13601563 117.17273438 216.17578125 117.26171875 C204.26088381 118.57488743 194.05181388 121.8444536 183.70703125 128.08203125 C182 129 182 129 180 129 C179.74420166 128.42668945 179.48840332 127.85337891 179.22485352 127.26269531 C174.11259988 115.90618089 169.11907448 105.5337617 161 96 C160.195625 94.95585937 160.195625 94.95585937 159.375 93.890625 C152.65669686 85.49274608 141.29260317 75.49907583 131 72 C126.58806952 72.07116017 124.66306285 72.5579581 121 75 C119.78739123 78.63782632 119.60455448 81.17735999 120 85 C123.17671159 88.61093836 126.71489358 91.35314558 130.625 94.125 C146.12346386 105.63923391 159.94553438 122.58124362 164 142 C164.45557315 146.93207458 163.53208912 149.34941827 160.8125 153.4375 C152.93531361 166.21995256 150.80910426 179.31938403 150.75 194.125 C150.729375 195.3934375 150.70875 196.661875 150.6875 197.96875 C150.6550625 205.83484341 151.50342524 212.54687305 154 220 C154.31324219 221.07636719 154.62648438 222.15273438 154.94921875 223.26171875 C155.19285156 224.06222656 155.43648437 224.86273438 155.6875 225.6875 C155.93886719 226.51636719 156.19023437 227.34523438 156.44921875 228.19921875 C156.72185547 229.09060547 156.72185547 229.09060547 157 230 C143.37793468 239.27513539 127.36118044 247.28044722 111 250 C109.83210937 250.20109375 108.66421875 250.4021875 107.4609375 250.609375 C73.58554542 255.63298024 41.51766639 248.94459817 13 230 C13.18175781 229.40574219 13.36351562 228.81148437 13.55078125 228.19921875 C13.80214844 227.37035156 14.05351562 226.54148437 14.3125 225.6875 C14.55613281 224.88699219 14.79976562 224.08648437 15.05078125 223.26171875 C15.36402344 222.18535156 15.67726563 221.10898437 16 220 C16.25064209 219.23800293 16.50128418 218.47600586 16.75952148 217.69091797 C19.13066564 209.99831249 19.50461955 202.76816398 19.4375 194.75 C19.42847656 193.46456299 19.41945313 192.17912598 19.41015625 190.85473633 C19.15967051 177.13629333 16.33907266 158.33907266 6 148 C6.32091313 129.38703825 18.68770211 113.03225146 31.4453125 100.62109375 C36.36901932 96.06010514 41.50196012 92.06264154 47.06640625 88.3125 C48.91960343 87.14303881 48.91960343 87.14303881 50 86 C50.54420744 81.6017333 50.84147485 78.12196647 48.125 74.5 C44.54497503 71.97292355 42.39992273 71.63689958 38 72 C33.65447137 74.12281571 29.84405998 77.08125938 26 80 C25.13930908 80.650896 25.13930908 80.650896 24.26123047 81.31494141 C8.37688305 93.56104826 -2.95178088 110.22909519 -10 129 C-12.8103002 127.94219038 -15.43695078 126.77161892 -18.1015625 125.37890625 C-28.20645321 120.16962223 -37.75053003 118.27146862 -49 117 C-50.8421215 74.06833493 -35.39879331 37.90650657 -7.17578125 6.2265625 C-4.92562661 3.92389079 -2.55244879 1.95792044 0 0 Z " fill="#FED79D" transform="translate(171,240)"/>
<path d="M0 0 C3.87245251 1.37653585 7.24661118 3.25541994 10.77246094 5.32592773 C25.46252743 13.89298646 41.14983364 20.32568959 58 23 C59.62035156 23.30357422 59.62035156 23.30357422 61.2734375 23.61328125 C97.56253109 29.60709783 135.63645323 21.73992557 165.984375 0.8359375 C168 0 168 0 170.0390625 0.671875 C194.9349899 17.5336585 210.68784876 51.06991018 216.53466797 79.60986328 C218.85929594 92.08544352 219.39072216 104.33770769 219 117 C218.06800781 117.08636719 217.13601563 117.17273438 216.17578125 117.26171875 C204.26088381 118.57488743 194.05181388 121.8444536 183.70703125 128.08203125 C182 129 182 129 180 129 C179.74420166 128.42668945 179.48840332 127.85337891 179.22485352 127.26269531 C174.11259988 115.90618089 169.11907448 105.5337617 161 96 C160.195625 94.95585937 160.195625 94.95585937 159.375 93.890625 C152.65669686 85.49274608 141.29260317 75.49907583 131 72 C126.58806952 72.07116017 124.66306285 72.5579581 121 75 C120.34 75.99 119.68 76.98 119 78 C119 77.34 119 76.68 119 76 C118.14728516 75.81824219 118.14728516 75.81824219 117.27734375 75.6328125 C113.60224135 74.83521098 110.02777272 74.00877033 106.4375 72.875 C102.24524831 71.80788139 99.31263763 71.49685894 95 72 C93.22804126 74.28643812 93.22804126 74.28643812 92 77 C88.92080053 79.56599956 87.48221121 80.00845985 83.4375 79.9375 C79.67068535 78.91018691 78.26707351 78.13902486 76 75 C75.62246894 73.34278572 75.28302357 71.67594348 75 70 C71.9574611 70.78833922 68.91613717 71.58127212 65.875 72.375 C65.0190625 72.59671875 64.163125 72.8184375 63.28125 73.046875 C58.79542181 74.2200916 54.37896212 75.46377395 50 77 C49.38125 76.360625 48.7625 75.72125 48.125 75.0625 C45.61274461 72.62413448 44.69656488 72.06652586 41.21875 71.734375 C35.15417707 72.23484947 30.71961659 76.41646158 26 80 C25.13930908 80.650896 25.13930908 80.650896 24.26123047 81.31494141 C8.37688305 93.56104826 -2.95178088 110.22909519 -10 129 C-12.8103002 127.94219038 -15.43695078 126.77161892 -18.1015625 125.37890625 C-28.20645321 120.16962223 -37.75053003 118.27146862 -49 117 C-50.8421215 74.06833493 -35.39879331 37.90650657 -7.17578125 6.2265625 C-4.92562661 3.92389079 -2.55244879 1.95792044 0 0 Z " fill="#B7856A" transform="translate(171,240)"/>
<path d="M0 0 C11.95176304 9.08333991 21.46877521 22.76207373 23.8125 37.875 C25.32860399 57.57878477 23.06601437 76.19526433 9.95092773 91.82250977 C4.7061197 97.68706653 -0.89838758 101.83786982 -8.1875 104.875 C-8.98671875 105.21144531 -9.7859375 105.54789062 -10.609375 105.89453125 C-20.42459139 109.40683908 -31.05399399 109.13479189 -40.65234375 105.1484375 C-44.77191952 103.07912825 -48.49104285 100.6192258 -52.1875 97.875 C-53.074375 97.25625 -53.96125 96.6375 -54.875 96 C-66.01682513 85.7615661 -72.67000206 69.67102858 -73.4609375 54.6953125 C-74.00176568 36.95009707 -69.5846745 20.06953999 -57.1640625 6.71875 C-40.95780337 -8.39855101 -19.15512363 -12.46556507 0 0 Z " fill="#CA9D82" transform="translate(147.1875,384.125)"/>
<path d="M0 0 C12.68477116 8.65264063 20.60378922 21.7462476 23.92578125 36.640625 C26.76860757 53.66226832 24.84177394 70.70799019 15.5078125 85.55859375 C12.66605133 89.45231792 9.52679397 92.92352785 5.98828125 96.203125 C5.49972656 96.68523437 5.01117188 97.16734375 4.5078125 97.6640625 C-1.53520209 103.31952034 -9.65017505 107.69119375 -18.01171875 108.203125 C-18.85992187 108.265 -19.708125 108.326875 -20.58203125 108.390625 C-32.97375814 108.90829505 -43.63129789 105.33073506 -53.01171875 97.203125 C-64.06285346 87.02588563 -71.78160478 72.37596272 -72.4453125 57.21484375 C-72.46873043 55.10690051 -72.46945995 52.99860114 -72.44921875 50.890625 C-72.44164551 49.78702637 -72.43407227 48.68342773 -72.42626953 47.54638672 C-72.26210481 39.42802164 -71.45830475 32.64388543 -68.01171875 25.203125 C-67.58761719 24.25824219 -67.16351563 23.31335938 -66.7265625 22.33984375 C-60.42262694 9.64417408 -50.24348848 -0.53866151 -36.76171875 -5.234375 C-23.31798427 -8.86355215 -11.91353239 -7.1079441 0 0 Z " fill="#CA9D82" transform="translate(413.01171875,383.796875)"/>
<path d="M0 0 C0.99 0.495 0.99 0.495 2 1 C1.39414063 1.69222656 0.78828125 2.38445312 0.1640625 3.09765625 C-30.38142317 38.7653849 -40.13993027 78.98774868 -42 125 C-44.22791998 126.12752649 -46.45725887 127.25208139 -48.6875 128.375 C-49.31333984 128.69210937 -49.93917969 129.00921875 -50.58398438 129.3359375 C-52.38161543 130.23945887 -54.19064029 131.12020133 -56 132 C-56.886875 132.45503906 -57.77375 132.91007813 -58.6875 133.37890625 C-61 134 -61 134 -63.17578125 133.12890625 C-65.47314153 131.44473537 -67.75539022 129.75419084 -70 128 C-70.67417969 127.51402344 -71.34835938 127.02804687 -72.04296875 126.52734375 C-81.81389701 118.90172908 -89.16274295 106.19600236 -91 94 C-92.5607284 75.82346611 -91.1349378 60.41916138 -79 46 C-67.43037958 32.43990724 -50.75046262 25.7436709 -35.0625 18 C-31.61446165 16.2945256 -28.1680693 14.5857712 -24.72265625 12.875 C-23.89512848 12.46548096 -23.06760071 12.05596191 -22.21499634 11.6340332 C-16.22353462 8.65394439 -10.31314853 5.5416136 -4.48780823 2.24755859 C-3.02281443 1.43953762 -1.51450999 0.71088972 0 0 Z " fill="#B6846A" transform="translate(144,236)"/>
<path d="M0 0 C5.26030544 1.53638455 9.79658852 3.89196631 14.5859375 6.48828125 C21.43163384 10.14651464 28.32005402 13.68798216 35.2890625 17.10546875 C36.13974304 17.52442413 36.99042358 17.94337952 37.86688232 18.37503052 C41.33319901 20.08172593 44.80035814 21.78642349 48.27490234 23.47631836 C66.88021572 32.53837428 66.88021572 32.53837428 74 39 C74.84691406 39.70125 75.69382812 40.4025 76.56640625 41.125 C85.95936298 49.94812961 92.85366303 62.58866816 93.30078125 75.58203125 C93.31528572 77.65880719 93.31892977 79.73568336 93.3125 81.8125 C93.32861328 82.84181641 93.34472656 83.87113281 93.36132812 84.93164062 C93.37091424 100.08728926 87.30359587 112.99755154 77 124 C67.50392403 132.77689866 67.50392403 132.77689866 61 134 C57.96484375 132.734375 57.96484375 132.734375 54.9375 130.75 C51.33338011 128.43074653 47.99882001 126.53097921 44 125 C43.95512451 124.11965088 43.91024902 123.23930176 43.86401367 122.33227539 C42.79415464 99.00070291 42.79415464 99.00070291 39 76 C38.73574219 74.79859375 38.47148437 73.5971875 38.19921875 72.359375 C31.96890099 46.55982129 19.18891632 23.76308725 2.14453125 3.609375 C0 1 0 1 0 0 Z " fill="#B6856A" transform="translate(366,236)"/>
<path d="M0 0 C2.249796 -0.00436948 4.49762102 -0.04072886 6.74707031 -0.07861328 C15.9855245 -0.15111351 22.36462964 0.46432148 29.63769531 6.74560547 C34.40005675 12.30169382 37.01978639 16.64631555 37.20019531 23.99560547 C37.25626953 25.46900391 37.25626953 25.46900391 37.31347656 26.97216797 C36.14467304 36.3011502 30.96404284 42.03989402 24.38769531 48.37060547 C23.6284375 49.13244141 22.86917969 49.89427734 22.08691406 50.67919922 C16.43274911 56.23434202 16.43274911 56.23434202 11.88769531 57.37060547 C11.88769531 62.65060547 11.88769531 67.93060547 11.88769531 73.37060547 C18.5374171 73.01116105 22.55838126 72.66005336 27.88769531 68.37060547 C31.57267327 65.9139535 34.60741317 65.66974056 38.88769531 66.37060547 C41.69772992 68.16424458 43.39709999 69.38941482 44.88769531 72.37060547 C45.23403657 76.51825322 44.92969884 80.0382925 42.31738281 83.37841797 C34.23921306 90.69628939 26.41133265 93.55181575 15.63769531 93.49560547 C14.54908203 93.50140625 14.54908203 93.50140625 13.43847656 93.50732422 C9.72427338 93.50070354 6.1461403 93.31726655 2.46582031 92.80029297 C-0.94509656 92.05755698 -0.94509656 92.05755698 -3.11230469 93.37060547 C-22.36521422 94.57268068 -22.36521422 94.57268068 -30.11230469 89.37060547 C-31.20285156 88.66484375 -31.20285156 88.66484375 -32.31542969 87.94482422 C-36.15715909 85.27081472 -39.33007908 82.82616949 -41.11230469 78.37060547 C-41.68876012 74.41776821 -41.47178929 72.90983238 -39.23730469 69.55810547 C-36.44570998 66.68440503 -35.59292393 66.42962888 -31.54980469 65.93310547 C-27.71245258 65.94693376 -25.79095978 67.04091572 -22.73730469 69.30810547 C-17.87705789 72.91300056 -14.09640241 73.20203934 -8.11230469 73.37060547 C-8.11230469 68.09060547 -8.11230469 62.81060547 -8.11230469 57.37060547 C-9.76230469 56.71060547 -11.41230469 56.05060547 -13.11230469 55.37060547 C-15.10107422 53.75415039 -15.10107422 53.75415039 -16.99511719 51.85107422 C-17.68734375 51.15820312 -18.37957031 50.46533203 -19.09277344 49.75146484 C-19.80046875 49.02765625 -20.50816406 48.30384766 -21.23730469 47.55810547 C-21.95273438 46.84589844 -22.66816406 46.13369141 -23.40527344 45.39990234 C-29.83882467 38.9002118 -33.16979156 34.00233435 -33.48730469 24.74560547 C-33.39834534 17.45093938 -31.46085752 11.68477891 -26.20996094 6.48779297 C-18.14063108 0.07569592 -9.93155045 -0.00215997 0 0 Z " fill="#010101" transform="translate(254.1123046875,119.62939453125)"/>
<path d="M0 0 C11.6245748 6.11138981 19.29364616 14.27972339 23.6171875 26.78515625 C25.17872146 35.81974562 25.19556264 46.71970091 21 55 C20.58621094 55.82886719 20.17242187 56.65773437 19.74609375 57.51171875 C16.42430386 63.56697061 12.46466324 67.8113495 7 72 C4.31372031 69.31372031 3.25151872 66.13762929 1.8125 62.6875 C-6.54522126 43.22838316 -20.99958174 17.00020913 -41 7 C-39.95693064 4.10532822 -39.20961279 3.12170007 -36.50390625 1.55078125 C-35.53324219 1.14214844 -34.56257813 0.73351562 -33.5625 0.3125 C-32.59441406 -0.10386719 -31.62632812 -0.52023438 -30.62890625 -0.94921875 C-21.17769462 -4.72689472 -9.27618194 -4.25346879 0 0 Z " fill="#B58469" transform="translate(385,23)"/>
<path d="M0 0 C0.69222656 0.58587891 0.69222656 0.58587891 1.3984375 1.18359375 C1.3984375 1.84359375 1.3984375 2.50359375 1.3984375 3.18359375 C0.00846005 4.3866328 -1.44205151 5.51994711 -2.9140625 6.62109375 C-23.66084188 22.92630909 -35.90683328 44.01702237 -45.6015625 68.18359375 C-54.0161865 62.92149085 -60.62977704 54.7134322 -63.18359375 44.9609375 C-64.713616 34.79415417 -64.80474671 24.26902996 -59.6015625 15.18359375 C-59.15425781 14.3946875 -58.70695312 13.60578125 -58.24609375 12.79296875 C-52.26311535 3.10471419 -43.24706946 -3.54270599 -32.12109375 -6.46875 C-20.21161403 -8.11207356 -10.12967865 -6.42614001 0 0 Z " fill="#B68469" transform="translate(166.6015625,26.81640625)"/>
<path d="M0 0 C1.15757812 -0.00257813 2.31515625 -0.00515625 3.5078125 -0.0078125 C4.72210938 -0.00007812 5.93640625 0.00765625 7.1875 0.015625 C8.40179688 0.00789062 9.61609375 0.00015625 10.8671875 -0.0078125 C12.60355469 -0.00394531 12.60355469 -0.00394531 14.375 0 C15.44105469 0.00225586 16.50710938 0.00451172 17.60546875 0.00683594 C20.1875 0.265625 20.1875 0.265625 22.1875 2.265625 C22.69921875 4.4609375 22.69921875 4.4609375 22.1875 7.265625 C20.39235255 9.83405497 18.23849228 11.95767244 16 14.140625 C15.1327832 15.04941406 15.1327832 15.04941406 14.24804688 15.9765625 C10.01415791 20.18653119 10.01415791 20.18653119 6.65625 20.5078125 C3.1237666 18.73039206 0.62641564 16.32387425 -2.125 13.515625 C-2.67478516 12.9896875 -3.22457031 12.46375 -3.79101562 11.921875 C-6.17977304 9.52421539 -7.70505566 7.88408512 -8.29296875 4.5 C-7.24318137 -0.38193807 -4.34023939 0.0091843 0 0 Z " fill="#B68469" transform="translate(248.8125,139.734375)"/>
<path d="M0 0 C2.8100346 1.79363911 4.50940468 3.01880935 6 6 C6.04079849 10.22672392 5.69610539 13.88623137 3.4375 17.5 C0.00158058 19.61441195 -2.96207791 20.42626817 -7 20 C-10.71198851 17.975279 -12.3843654 16.82385864 -13.73046875 12.8359375 C-14.43146888 8.68546151 -14.40538505 6.67098215 -12.1875 3 C-8.4620862 -0.40609262 -4.91281441 -0.70586414 0 0 Z " fill="#070504" transform="translate(260,300)"/>
<path d="M0 0 C3.0625 1.9375 3.0625 1.9375 5 5 C6.03945854 9.75058323 5.669717 12.94141507 3.0625 17.0625 C-1.05858493 19.669717 -4.24941677 20.03945854 -9 19 C-12.0625 17.0625 -12.0625 17.0625 -14 14 C-15.03945854 9.24941677 -14.669717 6.05858493 -12.0625 1.9375 C-7.94141507 -0.669717 -4.75058323 -1.03945854 0 0 Z " fill="#030202" transform="translate(317,97)"/>
<path d="M0 0 C3.0625 1.9375 3.0625 1.9375 5 5 C6.03945854 9.75058323 5.669717 12.94141507 3.0625 17.0625 C-1.05858493 19.669717 -4.24941677 20.03945854 -9 19 C-12.0625 17.0625 -12.0625 17.0625 -14 14 C-15.03945854 9.24941677 -14.669717 6.05858493 -12.0625 1.9375 C-7.94141507 -0.669717 -4.75058323 -1.03945854 0 0 Z " fill="#030202" transform="translate(204,97)"/>
</svg>
