<?xml version="1.0" encoding="UTF-8"?>
<svg version="1.1" xmlns="http://www.w3.org/2000/svg" width="512" height="512">
<path d="M0 0 C12.08435732 9.47152331 20.61152217 22.54072632 23.015625 37.890625 C23.32698078 42.19342632 23.38661372 46.48786435 23.4296875 50.80078125 C23.45873672 52.61285316 23.45873672 52.61285316 23.4883728 54.46153259 C23.5477992 58.29199323 23.594406 62.12248453 23.640625 65.953125 C23.67883876 68.56186153 23.71789243 71.1705859 23.7578125 73.77929688 C23.85347022 80.14963106 23.9386243 86.52003944 24.015625 92.890625 C24.54569656 93.13413193 25.07576813 93.37763885 25.62190247 93.62852478 C28.0752368 94.76011834 30.52391114 95.90148013 32.97265625 97.04296875 C34.22278503 97.61694397 34.22278503 97.61694397 35.49816895 98.20251465 C43.56590004 101.97869095 50.78820486 106.71583539 58.015625 111.890625 C61.32857249 110.31228681 64.39222198 108.43836503 67.515625 106.515625 C85.14661836 96.2237466 105.39479848 94.5571541 125.04003906 99.34716797 C144.23738213 104.62809798 157.90598646 118.66692597 171.64453125 132.28125 C172.51907455 133.14772156 173.39361786 134.01419312 174.29466248 134.90692139 C176.12880283 136.72733769 177.96147395 138.54923542 179.79272461 140.37255859 C181.64698377 142.21527841 183.50570584 144.0535184 185.36889648 145.88720703 C205.32933808 165.53271526 205.32933808 165.53271526 212.015625 176.890625 C212.52657715 177.75800293 213.0375293 178.62538086 213.56396484 179.51904297 C222.61459774 195.60323067 223.72881412 216.28354629 219.453125 234.015625 C215.42186085 246.61684932 208.73333836 261.62151515 197.015625 268.890625 C193.86943904 269.70674091 191.19016599 269.51831905 188.015625 268.890625 C179.85107296 263.65185818 172.9406929 254.94165317 166.109375 248.08203125 C164.7758137 246.74660173 163.44202912 245.41139515 162.10803223 244.07640076 C158.62065852 240.58523372 155.1363001 237.09107266 151.65258789 233.59625244 C148.08793717 230.02131868 144.52040583 226.44926206 140.953125 222.87695312 C133.97115622 215.88430326 126.99237353 208.88848299 120.015625 201.890625 C120.22058594 203.13457031 120.42554688 204.37851563 120.63671875 205.66015625 C122.82429749 219.09403317 124.17117077 232.04450694 124.18359375 245.67578125 C124.18692215 246.97148544 124.19025055 248.26718964 124.19367981 249.60215759 C124.19962461 252.33268059 124.2015247 255.06317217 124.20092773 257.79370117 C124.20084674 260.55418488 124.20775292 263.31450168 124.22143555 266.07495117 C124.31267993 284.79093985 124.37251859 303.25218287 119.765625 321.515625 C119.43812256 322.83433594 119.43812256 322.83433594 119.10400391 324.1796875 C114.11271199 343.62205883 105.64329206 362.88192423 92.92480469 378.54150391 C91.03880994 380.9444292 89.99618901 382.31637984 90.1015625 385.4296875 C91.09410242 388.10191036 92.19451098 390.6776692 93.390625 393.265625 C101.27725928 411.94208937 101.20215435 433.31614311 93.765625 452.140625 C86.46268151 468.15509158 75.73302475 483.62066334 59.015625 490.890625 C54.8297635 491.43660693 52.12058274 490.89747077 48.64404297 488.46142578 C44.97270242 484.91998573 42.87365768 480.10429741 40.515625 475.640625 C39.29525024 473.3906881 38.07252623 471.14202411 36.84765625 468.89453125 C36.22197754 467.74098145 35.59629883 466.58743164 34.95166016 465.39892578 C31.26675393 458.6695701 27.3028022 452.09586777 23.37109375 445.50878906 C22.53578125 444.09484863 22.53578125 444.09484863 21.68359375 442.65234375 C21.19141357 441.82694092 20.6992334 441.00153809 20.19213867 440.15112305 C19.09407018 438.04134587 18.47052727 436.2144591 18.015625 433.890625 C17.13003906 434.21675781 16.24445313 434.54289062 15.33203125 434.87890625 C8.35440867 437.34031526 1.49337267 439.39727408 -5.796875 440.703125 C-6.46452881 440.8266333 -7.13218262 440.9501416 -7.82006836 441.07739258 C-13.21874605 441.97728223 -18.52095518 442.01069244 -23.984375 441.890625 C-23.97390137 442.45982666 -23.96342773 443.02902832 -23.95263672 443.61547852 C-23.91071782 446.2279813 -23.88493612 448.84041299 -23.859375 451.453125 C-23.84261719 452.34837891 -23.82585937 453.24363281 -23.80859375 454.16601562 C-23.71916002 466.37371947 -23.71916002 466.37371947 -27.671875 470.765625 C-30.87448458 472.32365128 -33.42091237 472.76774698 -36.984375 472.890625 C-40.99956563 471.37545872 -42.58805853 470.4850997 -44.984375 466.890625 C-45.30322266 464.34692383 -45.30322266 464.34692383 -45.3984375 461.34765625 C-45.45644531 459.73793945 -45.45644531 459.73793945 -45.515625 458.09570312 C-45.56203125 456.41637695 -45.56203125 456.41637695 -45.609375 454.703125 C-45.64804688 453.57197266 -45.68671875 452.44082031 -45.7265625 451.27539062 C-45.82090033 448.4806325 -45.90649152 445.68588222 -45.984375 442.890625 C-46.55655762 442.82593018 -47.12874023 442.76123535 -47.71826172 442.69458008 C-77.2434801 439.26107245 -77.2434801 439.26107245 -87.984375 433.890625 C-88.28408203 435.03724609 -88.28408203 435.03724609 -88.58984375 436.20703125 C-90.57036473 441.43849143 -93.43231032 446.03590213 -96.296875 450.828125 C-100.14921812 457.32018502 -103.97373359 463.81402993 -107.58984375 470.44140625 C-108.16114014 471.48240479 -108.73243652 472.52340332 -109.32104492 473.59594727 C-110.40695328 475.58367119 -111.48187111 477.57745013 -112.54418945 479.57788086 C-115.41554698 484.80323841 -117.59180429 488.19433964 -122.984375 490.890625 C-127.29359388 491.86999293 -129.94973132 490.58544265 -133.671875 488.515625 C-151.22777182 477.20709687 -162.73289395 460.00305861 -167.44140625 439.7421875 C-170.68673008 422.6984005 -169.39079113 406.31541626 -162.0703125 390.4765625 C-160.51292249 386.80201884 -160.51292249 386.80201884 -159.984375 382.890625 C-161.29593752 380.73437935 -162.58941522 378.95439253 -164.171875 377.015625 C-185.65845641 348.69503656 -194.12041959 314.13464546 -194.15234375 279.10546875 C-194.15733635 277.16191246 -194.15733635 277.16191246 -194.16242981 275.17909241 C-194.16837461 272.44856941 -194.1702747 269.71807783 -194.16967773 266.98754883 C-194.16959674 264.22706512 -194.17650292 261.46674832 -194.19018555 258.70629883 C-194.28462922 239.34127125 -193.21932419 220.97579678 -189.984375 201.890625 C-190.8067868 202.71525742 -191.62919861 203.53988983 -192.47653198 204.38951111 C-200.21399518 212.14721504 -207.95407401 219.90230067 -215.69674492 227.65480709 C-219.67757537 231.64086398 -223.65746704 235.62784901 -227.63525391 239.61694336 C-231.47152681 243.46405356 -235.31021229 247.30874093 -239.15060806 251.15173531 C-240.61794997 252.62092993 -242.08440909 254.09100675 -243.54998398 255.56196404 C-245.59726084 257.61646245 -247.64760765 259.66784811 -249.69873047 261.71850586 C-250.30868866 262.33205933 -250.91864685 262.94561279 -251.54708862 263.57775879 C-255.13910486 267.16092722 -257.10023475 269.04006282 -262.171875 269.328125 C-266.68963114 269.22725006 -268.97144128 268.19846647 -272.1640625 265.04296875 C-279.16836729 256.76105471 -284.46532222 248.19937962 -287.984375 237.890625 C-288.46197266 236.61638672 -288.46197266 236.61638672 -288.94921875 235.31640625 C-294.67900156 217.22930382 -291.62419201 196.65147384 -283.921875 179.765625 C-275.65607082 164.52200433 -262.12369761 152.68355243 -249.95996094 140.55053711 C-247.47411867 138.0705129 -244.99990113 135.57923412 -242.52854919 133.08478069 C-240.58961611 131.13096928 -238.6436434 129.18428419 -236.69570923 127.23945045 C-235.34505136 125.88804671 -234.00089086 124.53015877 -232.65698242 123.17204285 C-216.47215678 107.10658087 -197.93829744 97.28542124 -174.921875 96.640625 C-157.97577276 96.81694283 -142.78976802 102.29048196 -128.984375 111.890625 C-128.41074219 111.50132813 -127.83710938 111.11203125 -127.24609375 110.7109375 C-121.04475635 106.62690042 -114.678431 103.03340443 -108.109375 99.578125 C-107.28912842 99.14580566 -106.46888184 98.71348633 -105.6237793 98.26806641 C-101.79414623 96.27296694 -98.00261282 94.47891792 -93.984375 92.890625 C-93.97850876 92.22600754 -93.97264252 91.56139008 -93.96659851 90.87663269 C-93.90232358 83.91626334 -93.81781819 76.95634186 -93.72192383 69.99633789 C-93.68881027 67.4039503 -93.66073678 64.81149297 -93.63793945 62.21899414 C-93.60414365 58.47772693 -93.55181429 54.73709113 -93.49609375 50.99609375 C-93.48970383 49.84981003 -93.4833139 48.70352631 -93.47673035 47.52250671 C-93.20344875 32.33142844 -88.06886988 17.07235337 -77.328125 5.98046875 C-55.34384757 -13.62217862 -24.73898296 -17.48566858 0 0 Z " fill="#020203" transform="translate(290.984375,16.109375)"/>
<path d="M0 0 C12.08435732 9.47152331 20.61152217 22.54072632 23.015625 37.890625 C23.32698078 42.19342632 23.38661372 46.48786435 23.4296875 50.80078125 C23.45873672 52.61285316 23.45873672 52.61285316 23.4883728 54.46153259 C23.5477992 58.29199323 23.594406 62.12248453 23.640625 65.953125 C23.67883876 68.56186153 23.71789243 71.1705859 23.7578125 73.77929688 C23.85347022 80.14963106 23.9386243 86.52003944 24.015625 92.890625 C24.54569656 93.13413193 25.07576813 93.37763885 25.62190247 93.62852478 C28.0752368 94.76011834 30.52391114 95.90148013 32.97265625 97.04296875 C34.22278503 97.61694397 34.22278503 97.61694397 35.49816895 98.20251465 C43.56590004 101.97869095 50.78820486 106.71583539 58.015625 111.890625 C61.32857249 110.31228681 64.39222198 108.43836503 67.515625 106.515625 C85.14661836 96.2237466 105.39479848 94.5571541 125.04003906 99.34716797 C144.23738213 104.62809798 157.90598646 118.66692597 171.64453125 132.28125 C172.51907455 133.14772156 173.39361786 134.01419312 174.29466248 134.90692139 C176.12880283 136.72733769 177.96147395 138.54923542 179.79272461 140.37255859 C181.64698377 142.21527841 183.50570584 144.0535184 185.36889648 145.88720703 C205.32933808 165.53271526 205.32933808 165.53271526 212.015625 176.890625 C212.52657715 177.75800293 213.0375293 178.62538086 213.56396484 179.51904297 C222.61459774 195.60323067 223.72881412 216.28354629 219.453125 234.015625 C215.42186085 246.61684932 208.73333836 261.62151515 197.015625 268.890625 C193.86943904 269.70674091 191.19016599 269.51831905 188.015625 268.890625 C179.85107296 263.65185818 172.9406929 254.94165317 166.109375 248.08203125 C164.7758137 246.74660173 163.44202912 245.41139515 162.10803223 244.07640076 C158.62065852 240.58523372 155.1363001 237.09107266 151.65258789 233.59625244 C148.08793717 230.02131868 144.52040583 226.44926206 140.953125 222.87695312 C133.97115622 215.88430326 126.99237353 208.88848299 120.015625 201.890625 C120.22058594 203.13457031 120.42554688 204.37851563 120.63671875 205.66015625 C122.82429749 219.09403317 124.17117077 232.04450694 124.18359375 245.67578125 C124.18692215 246.97148544 124.19025055 248.26718964 124.19367981 249.60215759 C124.19962461 252.33268059 124.2015247 255.06317217 124.20092773 257.79370117 C124.20084674 260.55418488 124.20775292 263.31450168 124.22143555 266.07495117 C124.31267993 284.79093985 124.37251859 303.25218287 119.765625 321.515625 C119.43812256 322.83433594 119.43812256 322.83433594 119.10400391 324.1796875 C114.11271199 343.62205883 105.64329206 362.88192423 92.92480469 378.54150391 C91.03880994 380.9444292 89.99618901 382.31637984 90.1015625 385.4296875 C91.09410242 388.10191036 92.19451098 390.6776692 93.390625 393.265625 C101.27725928 411.94208937 101.20215435 433.31614311 93.765625 452.140625 C86.46268151 468.15509158 75.73302475 483.62066334 59.015625 490.890625 C54.8297635 491.43660693 52.12058274 490.89747077 48.64404297 488.46142578 C44.97270242 484.91998573 42.87365768 480.10429741 40.515625 475.640625 C39.29525024 473.3906881 38.07252623 471.14202411 36.84765625 468.89453125 C36.22197754 467.74098145 35.59629883 466.58743164 34.95166016 465.39892578 C31.26675393 458.6695701 27.3028022 452.09586777 23.37109375 445.50878906 C22.53578125 444.09484863 22.53578125 444.09484863 21.68359375 442.65234375 C21.19141357 441.82694092 20.6992334 441.00153809 20.19213867 440.15112305 C19.09407018 438.04134587 18.47052727 436.2144591 18.015625 433.890625 C17.13003906 434.21675781 16.24445313 434.54289062 15.33203125 434.87890625 C8.35440867 437.34031526 1.49337267 439.39727408 -5.796875 440.703125 C-6.46452881 440.8266333 -7.13218262 440.9501416 -7.82006836 441.07739258 C-13.21874605 441.97728223 -18.52095518 442.01069244 -23.984375 441.890625 C-23.97390137 442.45982666 -23.96342773 443.02902832 -23.95263672 443.61547852 C-23.91071782 446.2279813 -23.88493612 448.84041299 -23.859375 451.453125 C-23.84261719 452.34837891 -23.82585937 453.24363281 -23.80859375 454.16601562 C-23.71916002 466.37371947 -23.71916002 466.37371947 -27.671875 470.765625 C-30.87448458 472.32365128 -33.42091237 472.76774698 -36.984375 472.890625 C-40.99956563 471.37545872 -42.58805853 470.4850997 -44.984375 466.890625 C-45.30322266 464.34692383 -45.30322266 464.34692383 -45.3984375 461.34765625 C-45.45644531 459.73793945 -45.45644531 459.73793945 -45.515625 458.09570312 C-45.56203125 456.41637695 -45.56203125 456.41637695 -45.609375 454.703125 C-45.64804688 453.57197266 -45.68671875 452.44082031 -45.7265625 451.27539062 C-45.82090033 448.4806325 -45.90649152 445.68588222 -45.984375 442.890625 C-46.55655762 442.82593018 -47.12874023 442.76123535 -47.71826172 442.69458008 C-77.2434801 439.26107245 -77.2434801 439.26107245 -87.984375 433.890625 C-88.28408203 435.03724609 -88.28408203 435.03724609 -88.58984375 436.20703125 C-90.57036473 441.43849143 -93.43231032 446.03590213 -96.296875 450.828125 C-100.14921812 457.32018502 -103.97373359 463.81402993 -107.58984375 470.44140625 C-108.16114014 471.48240479 -108.73243652 472.52340332 -109.32104492 473.59594727 C-110.40695328 475.58367119 -111.48187111 477.57745013 -112.54418945 479.57788086 C-115.41554698 484.80323841 -117.59180429 488.19433964 -122.984375 490.890625 C-127.29359388 491.86999293 -129.94973132 490.58544265 -133.671875 488.515625 C-151.22777182 477.20709687 -162.73289395 460.00305861 -167.44140625 439.7421875 C-170.68673008 422.6984005 -169.39079113 406.31541626 -162.0703125 390.4765625 C-160.51292249 386.80201884 -160.51292249 386.80201884 -159.984375 382.890625 C-161.29593752 380.73437935 -162.58941522 378.95439253 -164.171875 377.015625 C-185.65845641 348.69503656 -194.12041959 314.13464546 -194.15234375 279.10546875 C-194.15733635 277.16191246 -194.15733635 277.16191246 -194.16242981 275.17909241 C-194.16837461 272.44856941 -194.1702747 269.71807783 -194.16967773 266.98754883 C-194.16959674 264.22706512 -194.17650292 261.46674832 -194.19018555 258.70629883 C-194.28462922 239.34127125 -193.21932419 220.97579678 -189.984375 201.890625 C-190.8067868 202.71525742 -191.62919861 203.53988983 -192.47653198 204.38951111 C-200.21399518 212.14721504 -207.95407401 219.90230067 -215.69674492 227.65480709 C-219.67757537 231.64086398 -223.65746704 235.62784901 -227.63525391 239.61694336 C-231.47152681 243.46405356 -235.31021229 247.30874093 -239.15060806 251.15173531 C-240.61794997 252.62092993 -242.08440909 254.09100675 -243.54998398 255.56196404 C-245.59726084 257.61646245 -247.64760765 259.66784811 -249.69873047 261.71850586 C-250.30868866 262.33205933 -250.91864685 262.94561279 -251.54708862 263.57775879 C-255.13910486 267.16092722 -257.10023475 269.04006282 -262.171875 269.328125 C-266.68963114 269.22725006 -268.97144128 268.19846647 -272.1640625 265.04296875 C-279.16836729 256.76105471 -284.46532222 248.19937962 -287.984375 237.890625 C-288.46197266 236.61638672 -288.46197266 236.61638672 -288.94921875 235.31640625 C-294.67900156 217.22930382 -291.62419201 196.65147384 -283.921875 179.765625 C-275.65607082 164.52200433 -262.12369761 152.68355243 -249.95996094 140.55053711 C-247.47411867 138.0705129 -244.99990113 135.57923412 -242.52854919 133.08478069 C-240.58961611 131.13096928 -238.6436434 129.18428419 -236.69570923 127.23945045 C-235.34505136 125.88804671 -234.00089086 124.53015877 -232.65698242 123.17204285 C-216.47215678 107.10658087 -197.93829744 97.28542124 -174.921875 96.640625 C-157.97577276 96.81694283 -142.78976802 102.29048196 -128.984375 111.890625 C-128.41074219 111.50132813 -127.83710938 111.11203125 -127.24609375 110.7109375 C-121.04475635 106.62690042 -114.678431 103.03340443 -108.109375 99.578125 C-107.28912842 99.14580566 -106.46888184 98.71348633 -105.6237793 98.26806641 C-101.79414623 96.27296694 -98.00261282 94.47891792 -93.984375 92.890625 C-93.97850876 92.22600754 -93.97264252 91.56139008 -93.96659851 90.87663269 C-93.90232358 83.91626334 -93.81781819 76.95634186 -93.72192383 69.99633789 C-93.68881027 67.4039503 -93.66073678 64.81149297 -93.63793945 62.21899414 C-93.60414365 58.47772693 -93.55181429 54.73709113 -93.49609375 50.99609375 C-93.48970383 49.84981003 -93.4833139 48.70352631 -93.47673035 47.52250671 C-93.20344875 32.33142844 -88.06886988 17.07235337 -77.328125 5.98046875 C-55.34384757 -13.62217862 -24.73898296 -17.48566858 0 0 Z M-65.984375 105.890625 C-67.21414062 106.1690625 -68.44390625 106.4475 -69.7109375 106.734375 C-103.77232056 114.91474857 -134.42766126 138.06199215 -152.734375 167.765625 C-159.42602581 178.93286045 -164.86807015 190.12255796 -168.16015625 202.76953125 C-168.984375 205.890625 -168.984375 205.890625 -169.96484375 208.54296875 C-173.16659591 219.05600172 -173.29639695 229.69995665 -173.28515625 240.58203125 C-173.28905763 242.17846281 -173.29339518 243.77489336 -173.29814148 245.37132263 C-173.30555732 248.70371881 -173.30534798 252.03600898 -173.30004883 255.3684082 C-173.29542701 258.74582265 -173.30230325 262.12287628 -173.32055664 265.50024414 C-173.67698067 297.51493428 -173.67698067 297.51493428 -166.359375 328.515625 C-166.01310059 329.47654053 -165.66682617 330.43745605 -165.31005859 331.42749023 C-151.32584564 369.04721301 -123.04165081 396.07528205 -86.984375 412.890625 C-82.10368242 415.01301272 -77.13223878 416.54540134 -71.984375 417.890625 C-71.31341797 418.08237305 -70.64246094 418.27412109 -69.95117188 418.47167969 C-58.31711297 421.72815371 -46.74599558 422.28402069 -34.734375 422.328125 C-34.02356781 422.3342984 -33.31276062 422.3404718 -32.58041382 422.34683228 C-18.54016656 422.42523998 -5.13786061 420.41468565 8.203125 415.890625 C9.07259766 415.59647705 9.94207031 415.3023291 10.83789062 414.99926758 C26.31424869 409.51504845 40.58406903 401.6182754 53.015625 390.890625 C53.92699219 390.10558594 54.83835937 389.32054687 55.77734375 388.51171875 C58.23068138 386.34442048 60.62986361 384.13179479 63.015625 381.890625 C63.89927734 381.10365234 63.89927734 381.10365234 64.80078125 380.30078125 C79.47896713 366.66360146 89.27647327 347.47497288 96.015625 328.890625 C96.39460938 327.88644531 96.77359375 326.88226563 97.1640625 325.84765625 C102.25223398 311.67346428 103.47228454 297.80381244 103.37890625 282.90625 C103.37838552 281.23150635 103.37891141 279.55676209 103.38041687 277.88201904 C103.38032803 274.40285909 103.37007757 270.92393511 103.35180664 267.44482422 C103.32905159 263.01840556 103.32859796 258.59232804 103.33532429 254.16586685 C103.3386872 250.71859786 103.3319919 247.27140463 103.32219505 243.82415009 C103.31838804 242.19291329 103.3171758 240.561668 103.3187809 238.93042755 C103.32483973 202.14512195 88.4527684 170.76778574 64.015625 143.890625 C63.40203125 143.20484375 62.7884375 142.5190625 62.15625 141.8125 C48.09280496 126.91360277 29.05258503 116.81228076 10.015625 109.890625 C8.91863281 109.49101563 7.82164062 109.09140625 6.69140625 108.6796875 C-16.16704979 101.05064195 -42.64967337 99.80787132 -65.984375 105.890625 Z " fill="#000001" transform="translate(290.984375,16.109375)"/>
<path d="M0 0 C2.80365502 2.40634863 5.54229087 4.87795189 8.26196289 7.37841797 C8.93485352 7.98041016 9.60774414 8.58240234 10.30102539 9.20263672 C26.99885075 24.91125442 39.68649706 47.16316688 45.43774414 69.25732422 C46.1957514 72.32945143 46.1957514 72.32945143 47.24243164 75.03076172 C50.50305882 85.73711227 50.58764434 96.60831474 50.59790039 107.69091797 C50.60435015 109.35221463 50.61108 111.01351022 50.61807251 112.67480469 C50.62997866 116.14423242 50.63376053 119.61356113 50.63256836 123.08300781 C50.63240626 126.5991686 50.6462319 130.11480592 50.67358398 133.63085938 C50.96322641 171.45037998 50.96322641 171.45037998 46.26196289 187.37841797 C45.94855957 188.4427002 45.63515625 189.50698242 45.31225586 190.60351562 C44.47213246 193.18431338 43.53939801 195.67972877 42.51196289 198.19091797 C42.16762207 199.0585376 41.82328125 199.92615723 41.46850586 200.82006836 C27.28538307 235.74899127 0.74085395 262.94351784 -33.73803711 278.37841797 C-37.26414469 279.80799139 -40.82178434 281.09629862 -44.42553711 282.31591797 C-45.21895508 282.5861377 -46.01237305 282.85635742 -46.82983398 283.13476562 C-60.24860724 287.4100366 -73.47765559 288.93759893 -87.48803711 288.81591797 C-88.22583405 288.81320892 -88.96363098 288.81049988 -89.7237854 288.80770874 C-101.77221448 288.74088773 -113.12098324 287.68756911 -124.73803711 284.37841797 C-125.96780273 284.06259766 -127.19756836 283.74677734 -128.46459961 283.42138672 C-145.61546665 278.43306265 -162.30280384 269.09810496 -175.73803711 257.37841797 C-176.64682617 256.59466797 -177.55561523 255.81091797 -178.49194336 255.00341797 C-180.94890877 252.8357227 -183.35011248 250.6216199 -185.73803711 248.37841797 C-186.62168945 247.59144531 -186.62168945 247.59144531 -187.52319336 246.78857422 C-210.34896174 225.58165466 -224.6023914 191.14289752 -225.90567017 160.42770386 C-226.18747617 150.11101098 -226.11637928 139.78886927 -226.06060791 129.46966553 C-226.04714032 126.08799365 -226.05235887 122.70645532 -226.0577364 119.32476902 C-226.06109948 116.02934172 -226.05440467 112.73399365 -226.04460716 109.43858147 C-226.04080489 107.8827042 -226.03958585 106.32681805 -226.04119301 104.77093697 C-226.04739474 68.92695179 -211.41923275 37.71544864 -187.73803711 11.37841797 C-186.86791992 10.40001953 -186.86791992 10.40001953 -185.98022461 9.40185547 C-138.12202773 -41.34226283 -52.83659901 -44.04999439 0 0 Z M-143.11303711 11.37841797 C-143.76079102 11.78487549 -144.40854492 12.19133301 -145.07592773 12.61010742 C-150.6185037 16.15127407 -155.73490865 20.11239867 -160.73803711 24.37841797 C-161.32456055 24.82056641 -161.91108398 25.26271484 -162.51538086 25.71826172 C-180.92733775 39.97128247 -193.58949317 66.27041711 -197.27557373 88.64064026 C-197.72583961 92.27983388 -197.87827181 95.77163059 -197.89916992 99.43676758 C-197.90413483 100.10459259 -197.90909973 100.7724176 -197.91421509 101.46047974 C-197.92871004 103.65058463 -197.93562039 105.84061691 -197.94116211 108.03076172 C-197.94398949 108.78768373 -197.94681686 109.54460575 -197.94972992 110.3244648 C-197.96467754 114.33700019 -197.97393266 118.3495001 -197.97827148 122.36206055 C-197.98372347 126.45993783 -198.00769435 130.55747737 -198.03624344 134.6552496 C-198.05508724 137.84618501 -198.06008699 141.03704295 -198.06160736 144.22802925 C-198.06459002 145.73596589 -198.07246518 147.24390268 -198.08579254 148.75178337 C-198.19545318 162.12239534 -196.77432784 175.22989774 -192.11303711 187.87841797 C-191.86215332 188.5707251 -191.61126953 189.26303223 -191.3527832 189.97631836 C-186.80503945 201.96471391 -180.1926441 212.75822438 -171.73803711 222.37841797 C-170.72676758 223.60431641 -170.72676758 223.60431641 -169.69506836 224.85498047 C-153.51841294 243.88980634 -128.39667868 257.21478893 -103.73803711 260.37841797 C-67.60754295 262.34793739 -38.88329966 254.72205421 -11.11303711 230.62841797 C2.00793902 218.3746328 11.1799472 203.01076333 17.19946289 186.19091797 C17.48200928 185.40837646 17.76455566 184.62583496 18.05566406 183.81958008 C22.03423229 172.03028086 22.56830213 160.07333524 22.52758789 147.72607422 C22.52894051 146.25361569 22.53088597 144.78115759 22.53338623 143.30870056 C22.5363104 140.24376108 22.53212885 137.17893931 22.52270508 134.11401367 C22.51132235 130.22691225 22.51787991 126.34008753 22.52985001 122.45299625 C22.53715122 119.4182688 22.53474308 116.38360463 22.52959442 113.34887505 C22.5282801 111.91745405 22.52982575 110.4860269 22.53455353 109.05461311 C22.61542005 77.70164502 11.81638964 50.72656936 -10.23803711 28.44091797 C-15.67128216 23.0915945 -21.19755135 18.34399488 -27.73803711 14.37841797 C-28.63780273 13.81509766 -29.53756836 13.25177734 -30.46459961 12.67138672 C-36.40094401 9.01890969 -40.55009785 6.75876803 -47.73803711 7.37841797 C-50.68659125 8.91679404 -52.28510097 10.03918087 -53.37084961 13.24951172 C-53.96270726 16.58028507 -53.92139599 18.85278917 -52.80053711 22.06591797 C-49.91381419 25.3025467 -46.50165408 27.27758665 -42.73803711 29.37841797 C-50.06234972 43.57211694 -57.94929122 57.54345808 -66.43017578 71.07910156 C-67.90284326 73.227284 -67.90284326 73.227284 -67.73803711 75.37841797 C-80.93803711 75.37841797 -94.13803711 75.37841797 -107.73803711 75.37841797 C-108.39803711 73.72841797 -109.05803711 72.07841797 -109.73803711 70.37841797 C-110.35527812 69.14827028 -110.99679272 67.92995403 -111.66381836 66.72607422 C-112.04231934 66.04206543 -112.42082031 65.35805664 -112.81079102 64.65332031 C-113.42446533 63.55818115 -113.42446533 63.55818115 -114.05053711 62.44091797 C-114.4777002 61.67473145 -114.90486328 60.90854492 -115.3449707 60.11914062 C-120.965516 50.10286137 -126.85287349 40.24071905 -132.73803711 30.37841797 C-130.56994926 28.71314198 -128.51738636 27.25758542 -126.11303711 25.94091797 C-123.45013685 24.1890099 -122.66155714 23.40084715 -121.73803711 20.37841797 C-121.27631581 16.14597273 -121.26264773 14.10734835 -123.61303711 10.50341797 C-126.48051189 7.63594319 -127.27043873 7.41829843 -131.40209961 7.06591797 C-136.15452874 7.13451415 -139.20454304 8.82393791 -143.11303711 11.37841797 Z " fill="#7EB4FC" transform="translate(343.738037109375,149.62158203125)"/>
<path d="M0 0 C0.80759766 -0.00773438 1.61519531 -0.01546875 2.44726562 -0.0234375 C22.36310243 0.04075537 34.85740319 11.24125794 48.31640625 24.52734375 C49.13303899 25.33174991 49.13303899 25.33174991 49.96616936 26.15240669 C52.84715997 28.99197359 55.72175795 31.83784144 58.59155273 34.6887207 C61.51837279 37.59346759 64.46779679 40.47407291 67.42303562 43.34986019 C69.72665844 45.60059538 72.01176191 47.86949805 74.29264641 50.14325142 C75.37051715 51.21153333 76.45499216 52.27320329 77.54675484 53.32728386 C87.93437917 63.37826665 96.67707334 76.17641718 97.86328125 91.01171875 C97.90124169 103.72846705 95.85218522 114.01309202 89.5625 125.25 C85.48506323 124.71536264 83.60277173 122.66506454 80.75360107 119.81532288 C80.28465841 119.35035461 79.81571574 118.88538635 79.33256269 118.40632814 C77.76234348 116.84573704 76.20307716 115.27464433 74.64355469 113.70336914 C73.5204553 112.58269749 72.39671074 111.46267208 71.27236938 110.34324646 C68.22029129 107.30058174 65.17771652 104.24857415 62.13700771 101.19455266 C58.95738155 98.0036232 55.77006009 94.82039707 52.58380127 91.63609314 C47.23554004 86.28871505 41.89329522 80.93538391 36.5546875 75.57836914 C30.3750485 69.37754604 24.18660886 63.18561633 17.99325252 56.99849612 C12.04262177 51.05355129 6.09766425 45.10296603 0.15549469 39.14956474 C-2.37705696 36.61235851 -4.91149512 34.07705878 -7.44742584 31.54323006 C-10.42988855 28.562645 -13.40733584 25.57713952 -16.38090897 22.58768654 C-17.47570542 21.48863234 -18.57222269 20.39128935 -19.67053604 19.29574966 C-21.16387077 17.80561583 -22.65095741 16.3095215 -24.13653564 14.81166077 C-24.97201557 13.97412797 -25.8074955 13.13659517 -26.668293 12.27368259 C-28.4375 10.25 -28.4375 10.25 -28.4375 8.25 C-26.58735947 7.28391677 -24.73216527 6.3275093 -22.875 5.375 C-21.84246094 4.84132812 -20.80992187 4.30765625 -19.74609375 3.7578125 C-13.05501842 0.70851489 -7.23645044 -0.06897332 0 0 Z " fill="#7EB3FC" transform="translate(394.4375,133.75)"/>
<path d="M0 0 C1.134375 0.53882813 2.26875 1.07765625 3.4375 1.6328125 C4.7059375 2.24769531 4.7059375 2.24769531 6 2.875 C4.45592568 6.54771805 2.23806501 8.88361205 -0.56838989 11.68389893 C-1.26924062 12.38731293 -1.26924062 12.38731293 -1.98424995 13.10493731 C-3.54875265 14.67273037 -5.12028896 16.23327491 -6.69189453 17.79394531 C-7.81575754 18.91724411 -8.93918021 20.04098363 -10.06219482 21.16513062 C-13.11123578 24.21474569 -16.16640654 27.2581524 -19.22270441 30.30049229 C-22.41602835 33.48131887 -25.60369436 36.66780516 -28.79196167 39.85369873 C-34.82986012 45.8853795 -40.87283901 51.91194363 -46.91765392 57.936692 C-53.79938193 64.79607002 -60.6754359 71.66112381 -67.55101609 78.5266633 C-81.69436724 92.64910591 -95.84483862 106.76439567 -110 120.875 C-113.44277309 117.60962591 -115.03327982 114.97735305 -116.6875 110.5 C-117.10386719 109.39914063 -117.52023438 108.29828125 -117.94921875 107.1640625 C-121.8587733 94.92672075 -121.42823812 80.56135725 -116 68.875 C-110.98790863 59.78504472 -104.43254926 52.70030193 -97.14453125 45.453125 C-95.99450434 44.29784645 -94.8449937 43.14205378 -93.69596863 41.98577881 C-91.29957787 39.57905169 -88.89596971 37.17983949 -86.48706055 34.78564453 C-83.42699885 31.74276506 -80.3877594 28.68000548 -77.35391712 25.61101151 C-74.98881212 23.22376789 -72.6119249 20.84852627 -70.23160362 18.47646332 C-69.10725936 17.35292948 -67.98665441 16.22563867 -66.87018776 15.09427643 C-48.3072424 -3.67824635 -24.91705632 -11.93942282 0 0 Z " fill="#7EB3FC" transform="translate(140,139.125)"/>
<path d="M0 0 C10.71623689 6.42001484 17.29639179 15.57135223 20.58203125 27.546875 C21.05232722 31.27923881 21.05435234 34.92658986 20.97265625 38.68359375 C20.96699646 39.68904739 20.96133667 40.69450104 20.95550537 41.73042297 C20.9333583 44.89891975 20.88320437 48.06622797 20.83203125 51.234375 C20.81193819 53.40037414 20.79369238 55.56639124 20.77734375 57.73242188 C20.73356528 63.00430243 20.66687572 68.27550377 20.58203125 73.546875 C19.47085938 73.41410156 18.3596875 73.28132813 17.21484375 73.14453125 C13.36758172 72.6864852 9.51949234 72.23588817 5.6708374 71.78970337 C3.9978474 71.59521455 2.32526852 71.39719056 0.65283203 71.19799805 C-5.74656139 70.48571202 -12.10698378 70.35491073 -18.54296875 70.359375 C-19.63665771 70.35945557 -20.73034668 70.35953613 -21.85717773 70.35961914 C-30.53869628 70.42036483 -38.84918003 71.19908619 -47.41796875 72.546875 C-50.0830392 72.89374057 -52.75055351 73.21828411 -55.41796875 73.546875 C-55.49258363 67.32131518 -55.54678965 61.09602044 -55.58276367 54.87011719 C-55.59777362 52.7558132 -55.61818795 50.64153993 -55.64428711 48.52734375 C-55.68101508 45.47388079 -55.69777349 42.42083243 -55.7109375 39.3671875 C-55.72642136 38.43448029 -55.74190521 37.50177307 -55.75785828 36.540802 C-55.76097631 24.15387999 -51.4605213 14.85218592 -43.16796875 5.796875 C-31.77366289 -5.13962393 -13.90722703 -6.77287664 0 0 Z " fill="#7EB4FC" transform="translate(273.41796875,29.453125)"/>
<path d="M0 0 C0.433125 0.94875 0.86625 1.8975 1.3125 2.875 C2.79302201 6.20041937 2.79302201 6.20041937 6 8 C8.18028396 8.35293451 8.18028396 8.35293451 10.5 8.3125 C11.66015625 8.33763672 11.66015625 8.33763672 12.84375 8.36328125 C15.52320025 7.91185213 16.3428365 7.1127583 18 5 C19.19027984 2.40084462 19.19027984 2.40084462 20 0 C28.31616812 0.58359075 36.01459326 2.73799414 44 5 C44.08636719 5.67546875 44.17273438 6.3509375 44.26171875 7.046875 C45.09442275 12.78362097 45.09442275 12.78362097 48.3125 17.4375 C49.199375 17.953125 50.08625 18.46875 51 19 C52.66752775 19.99856347 54.33431888 20.99835926 56 22 C49.63627222 34.33219296 42.656561 46.2866122 35.61230469 58.24023438 C33.71924349 61.48056808 31.86190594 64.74166461 30 68 C16.8 68 3.6 68 -10 68 C-11.876875 64.65875 -13.75375 61.3175 -15.6875 57.875 C-22.29397759 46.15177408 -29.10597619 34.55597313 -36 23 C-33.54774487 20.44765282 -31.13079636 18.68581342 -28 17 C-27.34 17 -26.68 17 -26 17 C-25.34 13.04 -24.68 9.08 -24 5 C-21.60468067 4.35220924 -19.20878252 3.70670991 -16.8125 3.0625 C-16.13896484 2.88009766 -15.46542969 2.69769531 -14.77148438 2.50976562 C-9.73062038 1.1573387 -5.22697454 0 0 0 Z " fill="#BDD8FC" transform="translate(246,157)"/>
<path d="M0 0 C1.3446936 0.03480469 1.3446936 0.03480469 2.71655273 0.0703125 C5.45546402 0.12500771 8.16168842 0.03034897 10.8984375 -0.078125 C23.07906987 -0.21058994 23.07906987 -0.21058994 27.17285156 3.29071045 C30.06889508 6.84850192 31.93787372 10.82710763 33.71035767 15.03344727 C34.78155295 17.47721907 36.15853746 19.65429307 37.61914062 21.8828125 C38.46034605 23.25517181 39.3014949 24.62756579 40.14257812 26 C40.58730469 26.70125 41.03203125 27.4025 41.49023438 28.125 C41.90402344 28.80820312 42.3178125 29.49140625 42.74414062 30.1953125 C43.11104004 30.78586426 43.47793945 31.37641602 43.85595703 31.98486328 C44.79073813 34.65537077 44.34123932 36.18294825 43.51757812 38.875 C42.58025756 40.74210007 41.56582912 42.57150557 40.49804688 44.3671875 C39.88767578 45.40230469 39.27730469 46.43742187 38.6484375 47.50390625 C38.00712891 48.57511719 37.36582031 49.64632812 36.70507812 50.75 C35.44841579 52.87230589 34.19190158 54.99469949 32.93554688 57.1171875 C32.37633545 58.0541748 31.81712402 58.99116211 31.2409668 59.95654297 C29.30005447 63.24336348 27.41139509 66.56082031 25.51757812 69.875 C12.31757813 69.875 -0.88242188 69.875 -14.48242188 69.875 C-22.29492188 56.1875 -22.29492188 56.1875 -24.7434082 51.89575195 C-25.38560303 50.77128662 -26.02779785 49.64682129 -26.68945312 48.48828125 C-27.01957397 47.90929077 -27.34969482 47.33030029 -27.68981934 46.73376465 C-29.15950048 44.1616858 -30.64552322 41.61527908 -32.22119141 39.10620117 C-33.48242188 36.875 -33.48242188 36.875 -33.45507812 34.5625 C-32.06156339 30.71214602 -30.04468819 27.3645566 -27.91992188 23.875 C-27.51451172 23.19566406 -27.10910156 22.51632812 -26.69140625 21.81640625 C-25.8120813 20.34862034 -24.90867331 18.89508622 -23.98608398 17.45410156 C-22.36524443 14.80330907 -22.36524443 14.80330907 -21.05883789 11.47558594 C-16.18266005 1.10025416 -10.69358222 -0.00440995 0 0 Z " fill="#7EB4FC" transform="translate(250.482421875,243.125)"/>
<path d="M0 0 C2.73891129 0.05469521 5.44513569 -0.03996353 8.18188477 -0.1484375 C20.28526457 -0.28508521 20.28526457 -0.28508521 24.41802979 3.14788818 C27.31690239 6.64493053 29.123431 10.61518149 30.89285278 14.76977539 C32.3105962 17.94646584 34.11206447 20.81252254 35.92602539 23.78125 C37.21898501 25.99664174 38.51066523 28.21278069 39.80102539 30.4296875 C40.4674707 31.56019531 41.13391602 32.69070313 41.82055664 33.85546875 C42.45348633 34.94472656 43.08641602 36.03398437 43.73852539 37.15625 C44.30442383 38.12385254 44.87032227 39.09145508 45.45336914 40.08837891 C46.75552693 42.71298173 47.38620028 44.91863367 47.80102539 47.8046875 C25.44883013 58.62026585 0.82553119 63.41658461 -23.58959961 56.16015625 C-29.98528339 53.75831397 -36.11972434 50.91418907 -42.19897461 47.8046875 C-41.60203251 43.49117093 -40.05070269 40.40505802 -37.88256836 36.6484375 C-37.54781998 36.06485474 -37.21307159 35.48127197 -36.86817932 34.88000488 C-35.7974502 33.0177271 -34.71693682 31.16133132 -33.63647461 29.3046875 C-32.58892275 27.48306938 -31.54316917 25.66043302 -30.4981842 23.83734131 C-29.7940285 22.62449211 -29.07893128 21.41793203 -28.35325623 20.21783447 C-26.54589384 17.22339811 -24.93777873 14.2911248 -23.58789062 11.06152344 C-18.3503311 -0.08274151 -11.29224378 -0.292277 0 0 Z " fill="#BDD9FD" transform="translate(253.198974609375,331.1953125)"/>
<path d="M0 0 C13.81033318 6.5489903 21.06103907 24.9709094 25.8984375 38.515625 C30.04770035 51.25098623 30.20230361 63.74911344 30 77 C18.45 77 6.9 77 -5 77 C-12.25 63.875 -12.25 63.875 -14.51269531 59.76904297 C-15.11178711 58.68768066 -15.71087891 57.60631836 -16.328125 56.4921875 C-16.9355957 55.39245605 -17.54306641 54.29272461 -18.16894531 53.15966797 C-19.94731696 49.92722074 -19.94731696 49.92722074 -22.35449219 46.96923828 C-24 44 -24 44 -23.4519043 40.99072266 C-21.98543208 37.96999209 -20.46366772 35.04825069 -18.76953125 32.1484375 C-18.13080078 31.04886719 -17.49207031 29.94929688 -16.83398438 28.81640625 C-16.16689453 27.68074219 -15.49980469 26.54507813 -14.8125 25.375 C-14.16474609 24.26253906 -13.51699219 23.15007812 -12.84960938 22.00390625 C-10.90489701 18.66622808 -8.95277867 15.33296374 -7 12 C-5.66950313 9.7219765 -4.34061057 7.44302328 -3.01171875 5.1640625 C-2.43252686 4.17100098 -1.85333496 3.17793945 -1.2565918 2.15478516 C-0.8419165 1.44370605 -0.42724121 0.73262695 0 0 Z " fill="#BBD7FA" transform="translate(317,192)"/>
<path d="M0 0 C3.203125 5.60546875 6.40625 11.2109375 9.609375 16.81640625 C9.95736649 17.42452652 10.30535797 18.03264679 10.66389465 18.65919495 C11.36928833 19.89538638 12.07165649 21.13330897 12.77104187 22.37290955 C14.57928345 25.56863346 16.43424788 28.71544955 18.39770508 31.81860352 C18.77975098 32.43875336 19.16179687 33.0589032 19.55541992 33.69784546 C20.61327418 35.41051934 21.69330716 37.10943683 22.7746582 38.80737305 C24 42 24 42 23.18408203 45.53466797 C22.07108522 47.87940547 21.04444808 50.00476849 19.56640625 52.12109375 C17.05550781 55.86409114 14.82905506 59.73281734 12.60473633 63.65161133 C10.77187055 66.87008856 8.89480341 70.06141109 7.01220703 73.25097656 C6.30179033 74.47852728 5.63428269 75.73143462 5 77 C-6.55 77 -18.1 77 -30 77 C-30.95637145 47.59157789 -23.8089858 23.84410273 -3.8828125 1.765625 C-2 0 -2 0 0 0 Z " fill="#BBD7FA" transform="translate(195,192)"/>
<path d="M0 0 C28.99564833 -3.80943333 28.99564833 -3.80943333 36.90380859 2.21044922 C41.49557779 7.84540274 44.30147796 14.2498366 46.81494141 21.02685547 C48.25044256 24.628325 50.14543789 27.76103048 52.28393555 30.98461914 C53 33 53 33 52.34594727 35.36035156 C50.8084976 38.37557118 49.20050846 41.32583771 47.515625 44.26171875 C47.17754822 44.85241653 46.83947144 45.44311432 46.4911499 46.05171204 C45.77653814 47.29893371 45.06038238 48.54527187 44.34277344 49.79077148 C43.2642953 51.66268763 42.19030475 53.53711587 41.1171875 55.41210938 C37.15584299 62.32179068 33.13316718 69.19132752 29 76 C15.53473851 69.65058427 8.08318214 51.95003366 3.1875 38.5546875 C-1.00493652 26.00495977 -0.21608837 13.0783333 0 0 Z " fill="#BDD9FD" transform="translate(166,289)"/>
<path d="M0 0 C2.62462244 -0.26697888 5.01065933 -0.34832984 7.6328125 -0.29296875 C8.76056595 -0.28660149 8.76056595 -0.28660149 9.91110229 -0.28010559 C12.31609685 -0.2632917 14.72025809 -0.22563624 17.125 -0.1875 C18.75389416 -0.17245659 20.38280144 -0.15876758 22.01171875 -0.14648438 C26.00813434 -0.11337954 30.00392582 -0.06158009 34 0 C34.7062902 28.027044 29.65442273 51.25550707 10.44921875 72.734375 C9.125 74.125 9.125 74.125 7 76 C6.34 76 5.68 76 5 76 C4.59273682 75.29093506 4.18547363 74.58187012 3.76586914 73.85131836 C2.212146 71.14780942 0.65669719 68.44529986 -0.89920044 65.74304199 C-1.93407959 63.9434479 -2.96606283 62.14221562 -3.99780273 60.34082031 C-6.93713245 55.22047841 -9.87844733 50.11361141 -13.0703125 45.14453125 C-13.49965088 44.4697876 -13.92898926 43.79504395 -14.37133789 43.09985352 C-15.48277444 41.37381237 -16.61748566 39.66282014 -17.75390625 37.953125 C-19.39111119 34.07310325 -18.55176465 32.84815326 -17 29 C-15.91549495 26.91670622 -14.77613089 24.86137587 -13.59375 22.83203125 C-12.93246094 21.69185547 -12.27117187 20.55167969 -11.58984375 19.37695312 C-10.89326652 18.18878018 -10.19665156 17.00062936 -9.5 15.8125 C-8.80290045 14.6129119 -8.10628142 13.41304442 -7.41015625 12.21289062 C-2.3824986 3.57374791 -2.3824986 3.57374791 0 0 Z " fill="#BDD9FD" transform="translate(312,289)"/>
<path d="M0 0 C0.66 0 1.32 0 2 0 C5.40751814 7.48437021 6.38703338 14.10641233 6.375 22.25 C6.37693359 23.50828613 6.37693359 23.50828613 6.37890625 24.79199219 C6.11873901 39.7693469 -0.01882575 52.40718436 -10.08984375 63.25 C-12 65 -12 65 -14 65 C-14.31638428 64.41210693 -14.63276855 63.82421387 -14.95874023 63.21850586 C-16.44804211 60.4561997 -17.94211501 57.69651787 -19.4375 54.9375 C-19.97721436 53.93992676 -20.51692871 52.94235352 -21.07299805 51.91455078 C-24.66269819 45.32451217 -28.38018965 38.84757487 -32.49584961 32.57006836 C-35.05222946 28.51926233 -35.05222946 28.51926233 -34.79394531 25.95141602 C-33.37767329 22.47040055 -29.61885888 21.25129676 -26.4375 19.5625 C-16.8834176 14.25115757 -7.75816083 7.75816083 0 0 Z " fill="#7EB3FB" transform="translate(363,416)"/>
<path d="M0 0 C4.20070417 1.74073845 7.36136241 4.681791 10.8125 7.5625 C18.11474078 13.54874448 25.82130993 18.32346696 34 23 C34.99 23.66 35.98 24.32 37 25 C36.30830485 28.75193927 34.6559852 31.67029011 32.796875 34.98046875 C32.47720764 35.55275711 32.15754028 36.12504547 31.82818604 36.7146759 C30.80650142 38.54144414 29.7784041 40.36450775 28.75 42.1875 C28.07378544 43.39363738 27.39800005 44.60001547 26.72265625 45.80664062 C25.41826836 48.13588765 24.11124573 50.46358664 22.80273438 52.79052734 C20.52110712 56.85259016 18.25695851 60.92419057 16 65 C5.69108608 60.0728869 0.66297726 48.28512829 -3 38 C-5.77533043 25.57368182 -5.2893739 11.61773196 0 0 Z " fill="#7EB3FC" transform="translate(147,416)"/>
<path d="M0 0 C2.8100346 1.79363911 4.50940468 3.01880935 6 6 C6.0407792 10.22472472 5.64803461 13.89294087 3.5 17.5625 C-0.30707837 19.75157006 -3.72017848 19.72474696 -8 19 C-11 17.5625 -11 17.5625 -13 15 C-13.9648449 11.93990019 -14.30775495 9.19723195 -14 6 C-10.48028041 0.17425724 -6.63382773 -0.95313617 0 0 Z " fill="#030405" transform="translate(260,147)"/>
</svg>
